<svg width="444" height="475" viewBox="0 0 444 475" xmlns="http://www.w3.org/2000/svg" xmlns:xlink="http://www.w3.org/1999/xlink"><title>Automate and Schedule Graphic</title><defs><path id="b" d="M0 0h428v408H0z"/><filter x="-3.3%" y="-2.5%" width="106.5%" height="106.9%" filterUnits="objectBoundingBox" id="a"><feOffset dy="4" in="SourceAlpha" result="shadowOffsetOuter1"/><feGaussianBlur stdDeviation="4" in="shadowOffsetOuter1" result="shadowBlurOuter1"/><feColorMatrix values="0 0 0 0 0 0 0 0 0 0 0 0 0 0 0 0 0 0 0.15 0" in="shadowBlurOuter1"/></filter><path id="c" d="M7.5 9L0 1.5 1.06.44 7.5 6.878l6.44-6.44L15 1.5z"/><path id="d" d="M7.5 9L0 1.5 1.06.44 7.5 6.878l6.44-6.44L15 1.5z"/></defs><g fill="none" fill-rule="evenodd"><g transform="translate(8 4)"><use fill="#000" filter="url(#a)" xlink:href="#b"/><use fill="#FFF" xlink:href="#b"/></g><text font-family="IBMPlexSans-SemiBold, IBM Plex Sans" font-size="12" font-weight="500" letter-spacing=".3" fill="#A3A4A3" transform="translate(8 4)"><tspan x="33" y="118">RUN TEST EVERY</tspan></text><path stroke="#E5E5E5" stroke-width="2" d="M42 37h361v40H42z"/><path fill="#76A8FF" d="M41 36h92v42H41z"/><path fill="#76A8FF" d="M91 36h72v42H91z"/><path fill="#D8D8D8" d="M179 53h160v8H179z"/><text font-family="IBMPlexSans, IBM Plex Sans" font-size="16" fill="#FFF" transform="translate(41 36)"><tspan x="16" y="25">Test Name</tspan></text><g><g transform="translate(41 150)"><rect fill="#76A8FF" width="92" height="42" rx="4"/><path fill="#76A8FF" d="M50 0h72v42H50z"/><text font-family="IBMPlexSans, IBM Plex Sans" font-size="16" fill="#FFF"><tspan x="16" y="25">On Minute</tspan></text></g><path stroke="#5392FF" stroke-width="2" fill="#00DDBD" d="M163 151h40v40h-40z"/><path stroke="#5392FF" stroke-width="2" fill="#00DDBD" d="M163 151h40v40h-40z"/><path stroke="#5392FF" stroke-width="2" fill="#FC835C" d="M163 151h40v40h-40z"/><path stroke="#5392FF" stroke-width="2" fill="#00DDBD" d="M203 151h40v40h-40z"/><path stroke="#5392FF" stroke-width="2" fill="#FC835C" d="M243 151h40v40h-40z"/><path stroke="#5392FF" stroke-width="2" fill="#00DDBD" d="M283 151h40v40h-40zM323 151h40v40h-40zM363 151h40v40h-40zM163 191h40v40h-40zM203 191h40v40h-40zM243 191h40v40h-40z"/><path stroke="#5392FF" stroke-width="2" fill="#FC835C" d="M283 191h40v40h-40z"/><path stroke="#5392FF" stroke-width="2" fill="#00DDBD" d="M323 191h40v40h-40zM363 191h40v40h-40z"/><text font-family="IBMPlexSans-SemiBold, IBM Plex Sans" font-size="16" font-weight="500" fill="#FFF" transform="translate(41 150)"><tspan x="172" y="26">05</tspan></text><text font-family="IBMPlexSans-SemiBold, IBM Plex Sans" font-size="16" font-weight="500" fill="#FFF" transform="translate(41 150)"><tspan x="132" y="26">00</tspan></text><text font-family="IBMPlexSans-SemiBold, IBM Plex Sans" font-size="16" font-weight="500" fill="#FFF" transform="translate(41 150)"><tspan x="212" y="26">10</tspan></text><text font-family="IBMPlexSans-SemiBold, IBM Plex Sans" font-size="16" font-weight="500" fill="#FFF" transform="translate(41 150)"><tspan x="252" y="26">15</tspan></text><text font-family="IBMPlexSans-SemiBold, IBM Plex Sans" font-size="16" font-weight="500" fill="#FFF" transform="translate(41 150)"><tspan x="292" y="26">20</tspan></text><text font-family="IBMPlexSans-SemiBold, IBM Plex Sans" font-size="16" font-weight="500" fill="#FFF" transform="translate(41 150)"><tspan x="332" y="26">25</tspan></text><text font-family="IBMPlexSans-SemiBold, IBM Plex Sans" font-size="16" font-weight="500" fill="#FFF" transform="translate(41 150)"><tspan x="132" y="66">30</tspan></text><text font-family="IBMPlexSans-SemiBold, IBM Plex Sans" font-size="16" font-weight="500" fill="#FFF" transform="translate(41 150)"><tspan x="212" y="66">40</tspan></text><text font-family="IBMPlexSans-SemiBold, IBM Plex Sans" font-size="16" font-weight="500" fill="#FFF" transform="translate(41 150)"><tspan x="172" y="66">35</tspan></text><text font-family="IBMPlexSans-SemiBold, IBM Plex Sans" font-size="16" font-weight="500" fill="#FFF" transform="translate(41 150)"><tspan x="252" y="66">45</tspan></text><text font-family="IBMPlexSans-SemiBold, IBM Plex Sans" font-size="16" font-weight="500" fill="#FFF" transform="translate(41 150)"><tspan x="292" y="66">50</tspan></text><text font-family="IBMPlexSans-SemiBold, IBM Plex Sans" font-size="16" font-weight="500" fill="#FFF" transform="translate(41 150)"><tspan x="332" y="66">55</tspan></text></g><g transform="translate(40 264)"><path fill="#76A8FF" d="M0 0h363v42H0z"/><use fill="#FFF" fill-rule="nonzero" xlink:href="#c" transform="translate(336.25 18.5)"/><rect fill="#76A8FF" width="92" height="42" rx="4"/><path fill="#76A8FF" d="M50 0h72v42H50z"/><text font-family="IBMPlexSans, IBM Plex Sans" font-size="16" fill="#FFF"><tspan x="16" y="25">Every Hour</tspan></text></g><g transform="translate(40 338)"><path fill="#76A8FF" d="M0 0h363v42H0z"/><use fill="#FFF" fill-rule="nonzero" xlink:href="#d" transform="translate(336.25 18.5)"/><rect fill="#76A8FF" width="92" height="42" rx="4"/><path fill="#76A8FF" d="M50 0h72v42H50z"/><text font-family="IBMPlexSans, IBM Plex Sans" font-size="16" fill="#FFF"><tspan x="16" y="25">Every Day</tspan></text></g><g><path d="M88.519 455.259c0 10.637-8.622 19.259-19.259 19.259S50 465.896 50 455.259 58.623 436 69.26 436c10.637 0 19.259 8.622 19.259 19.259" fill="#00DDBD"/><text font-family="IBMPlexSans-SemiBold, IBM Plex Sans" font-size="16" font-weight="500" fill="#323232" transform="translate(50 436)"><tspan x="55" y="23">Test by Geo</tspan></text><path d="M66.394 458.763l-3.713-3.713a1.437 1.437 0 0 0-2.032 2.032l4.725 4.726c.56.557 1.465.557 2.025 0l10.477-10.478a1.431 1.431 0 1 0-2.025-2.024l-9.457 9.457z" fill="#FFF"/><g><path d="M295.519 455.259c0 10.637-8.622 19.259-19.259 19.259S257 465.896 257 455.259 265.623 436 276.26 436c10.637 0 19.259 8.622 19.259 19.259" fill="#00DDBD"/><text font-family="IBMPlexSans-SemiBold, IBM Plex Sans" font-size="16" font-weight="500" fill="#323232" transform="translate(257 436)"><tspan x="55" y="23">Test by Zip</tspan></text><path d="M273.394 458.763l-3.713-3.713a1.437 1.437 0 0 0-2.032 2.032l4.725 4.726c.56.557 1.465.557 2.025 0l10.477-10.478a1.431 1.431 0 1 0-2.025-2.024l-9.457 9.457z" fill="#FFF"/></g></g></g></svg>