<svg width="180" height="208" viewBox="0 0 180 208" xmlns="http://www.w3.org/2000/svg"><title>Build Better APIs@</title><g fill="none" fill-rule="evenodd"><path fill="#FFF" d="M-165-2018h1650v5361H-165z"/><path d="M28.98 69.551v.898h-1.503L27.458 70l.019-.449h1.503zm0-.49v1.878c-.443.073-.894.121-1.352.145a1.1 1.1 0 0 0 0-2.168c.458.024.91.072 1.352.145zm3.068.939A12.146 12.146 0 0 1 38 75.952 12.146 12.146 0 0 1 43.952 70 12.146 12.146 0 0 1 38 64.048 12.146 12.146 0 0 1 32.048 70zm6.89 9.02c.074.443.122.894.146 1.352a1.1 1.1 0 0 0-2.168 0c.024-.458.072-.91.145-1.352h1.878zm-.489 1.503l-.449.019-.449-.019V79.02h.898v1.503zm8.571-11.462c.443-.073.894-.121 1.352-.145a1.1 1.1 0 0 0 0 2.168 12.144 12.144 0 0 1-1.352-.145V69.55h1.503l.019.449-.019.449H47.02v-1.388zm-9.959-8.081a12.144 12.144 0 0 1-.145-1.352 1.1 1.1 0 0 0 2.168 0c-.024.458-.072.91-.145 1.352H37.55v-1.503l.449-.019.449.019v1.503h-1.388z" stroke="#00DDBD" stroke-width="3.08" fill="#00DDBD"/><path d="M27.44 69.56v-.009c5.482-.225 9.886-4.629 10.111-10.111h.009a.44.44 0 1 1 .88 0h.009c.225 5.482 4.629 9.886 10.111 10.111v.009a.44.44 0 1 1 0 .88v.009c-5.482.225-9.886 4.629-10.111 10.111h-.009a.44.44 0 1 1-.88 0h-.009c-.225-5.482-4.629-9.886-10.111-10.111v-.009a.44.44 0 1 1 0-.88z" fill="#00DDBD"/><path fill="#E1E8F5" d="M117.122 40.246L42.18 83.836l.006 92.754 75.02-43.306z"/><path d="M100.034 70.355l-.002.686a4.008 4.008 0 0 1-1.995 3.463L52.111 101.02a1.727 1.727 0 0 1-2.595-1.495v-.69c0-1.429.767-2.742 2.005-3.456l45.93-26.518a1.722 1.722 0 0 1 2.583 1.494zM93.983 100.856l-4.388 2.534A1.727 1.727 0 0 1 87 101.895v-.69c0-1.429.767-2.742 2.005-3.456l2.388-1.379 15.83-9.139a1.722 1.722 0 0 1 2.582 1.494l-.001.686a4.008 4.008 0 0 1-1.995 3.463l-13.826 7.982z" fill="#76A8FF"/><path d="M56.303 110.146l-4.389 2.534a1.727 1.727 0 0 1-2.594-1.495v-.69c0-1.429.767-2.742 2.005-3.456l2.388-1.379 19.293-11.139a1.722 1.722 0 0 1 2.583 1.495l-.001.685a4.008 4.008 0 0 1-1.995 3.463l-17.29 9.982z" fill="#FC835C"/><path d="M56.107 121.807l-4.389 2.533a1.727 1.727 0 0 1-2.594-1.494v-.69c0-1.43.767-2.742 2.005-3.457l2.388-1.378 27.953-16.14a1.722 1.722 0 0 1 2.583 1.495l-.001.686a4.008 4.008 0 0 1-1.995 3.462l-25.95 14.983z" fill="#00DDBD"/><path d="M85.748 93.146l-4.389 2.534a1.727 1.727 0 0 1-2.594-1.495v-.69c0-1.429.767-2.742 2.005-3.456l2.388-1.379 5.437-3.139a1.722 1.722 0 0 1 2.582 1.495l-.001.685a4.008 4.008 0 0 1-1.995 3.463l-3.433 1.982zM93.983 134.856l-4.388 2.534A1.727 1.727 0 0 1 87 135.895v-.69c0-1.429.767-2.742 2.005-3.456l2.388-1.379 5.437-3.139a1.722 1.722 0 0 1 2.583 1.494l-.002.686a4.008 4.008 0 0 1-1.995 3.463l-3.433 1.982zM55.91 133.467L51.523 136a1.727 1.727 0 0 1-2.595-1.494v-.69c0-1.43.768-2.742 2.006-3.457l2.388-1.378 34.881-20.14a1.722 1.722 0 0 1 2.583 1.495l-.001.686a4.008 4.008 0 0 1-1.995 3.463L55.91 133.467z" fill="#76A8FF"/><path d="M55.714 145.127l-4.388 2.534a1.727 1.727 0 0 1-2.595-1.495v-.69c0-1.429.767-2.742 2.005-3.456l2.388-1.379 5.437-3.14a1.722 1.722 0 0 1 2.583 1.495l-.001.686a4.008 4.008 0 0 1-1.995 3.463l-3.434 1.982z" fill="#00DDBD"/><path d="M55.518 156.787l-4.388 2.534a1.727 1.727 0 0 1-2.595-1.495v-.69c0-1.429.767-2.742 2.005-3.456l2.388-1.379 27.954-16.139a1.722 1.722 0 0 1 2.583 1.495l-.002.685a4.008 4.008 0 0 1-1.995 3.463l-25.95 14.982z" fill="#FC835C"/><path d="M70.445 130.641l17.561-10.14a1.722 1.722 0 0 1 2.583 1.495l-.001.686a4.008 4.008 0 0 1-1.995 3.463l-15.558 8.982-4.388 2.534a1.727 1.727 0 0 1-2.595-1.495v-.69c0-1.429.767-2.742 2.005-3.456l2.388-1.379z" fill="#76A8FF"/><path d="M100.748 119.127l-4.389 2.534a1.727 1.727 0 0 1-2.594-1.495v-.69c0-1.429.767-2.742 2.005-3.456l2.388-1.379 12.365-7.14a1.722 1.722 0 0 1 2.583 1.495l-.002.686a4.008 4.008 0 0 1-1.995 3.463l-10.361 5.982z" fill="#00DDBD"/><path fill="#F5F9FF" d="M42.18 83.838l-10.57-6.022 74.896-43.54 10.598 5.97z"/><path fill="#F2F5FA" d="M42.18 83.838L31.61 77.9l-.01 92.616 10.58 6.074z"/><g><path fill="#E1E8F5" d="M132.122 50.246L57.18 93.836l.006 92.754 75.02-43.306z"/><path d="M115.034 80.355l-.002.686a4.008 4.008 0 0 1-1.995 3.463L67.111 111.02a1.727 1.727 0 0 1-2.595-1.495v-.69c0-1.429.767-2.742 2.005-3.456l45.93-26.518a1.722 1.722 0 0 1 2.583 1.494zM108.983 110.856l-4.388 2.534a1.727 1.727 0 0 1-2.595-1.495v-.69c0-1.429.767-2.742 2.005-3.456l2.388-1.379 15.83-9.139a1.722 1.722 0 0 1 2.582 1.494l-.001.686a4.008 4.008 0 0 1-1.995 3.463l-13.826 7.982z" fill="#76A8FF"/><path d="M71.303 120.146l-4.389 2.534a1.727 1.727 0 0 1-2.594-1.495v-.69c0-1.429.767-2.742 2.005-3.456l2.388-1.379 19.293-11.139a1.722 1.722 0 0 1 2.583 1.495l-.001.685a4.008 4.008 0 0 1-1.995 3.463l-17.29 9.982z" fill="#FC835C"/><path d="M71.107 131.807l-4.389 2.533a1.727 1.727 0 0 1-2.594-1.494v-.69c0-1.43.767-2.742 2.005-3.457l2.388-1.378 27.953-16.14a1.722 1.722 0 0 1 2.583 1.495l-.001.686a4.008 4.008 0 0 1-1.995 3.462l-25.95 14.983z" fill="#00DDBD"/><path d="M100.748 103.146l-4.389 2.534a1.727 1.727 0 0 1-2.594-1.495v-.69c0-1.429.767-2.742 2.005-3.456l2.388-1.379 5.437-3.139a1.722 1.722 0 0 1 2.582 1.495l-.001.685a4.008 4.008 0 0 1-1.995 3.463l-3.433 1.982zM108.983 144.856l-4.388 2.534a1.727 1.727 0 0 1-2.595-1.495v-.69c0-1.429.767-2.742 2.005-3.456l2.388-1.379 5.437-3.139a1.722 1.722 0 0 1 2.583 1.494l-.002.686a4.008 4.008 0 0 1-1.995 3.463l-3.433 1.982zM70.91 143.467L66.523 146a1.727 1.727 0 0 1-2.595-1.494v-.69c0-1.43.768-2.742 2.006-3.457l2.388-1.378 34.881-20.14a1.722 1.722 0 0 1 2.583 1.495l-.001.686a4.008 4.008 0 0 1-1.995 3.463L70.91 143.467z" fill="#76A8FF"/><path d="M70.714 155.127l-4.388 2.534a1.727 1.727 0 0 1-2.595-1.495v-.69c0-1.429.767-2.742 2.005-3.456l2.388-1.379 5.437-3.14a1.722 1.722 0 0 1 2.583 1.495l-.001.686a4.008 4.008 0 0 1-1.995 3.463l-3.434 1.982z" fill="#00DDBD"/><path d="M70.518 166.787l-4.388 2.534a1.727 1.727 0 0 1-2.595-1.495v-.69c0-1.429.767-2.742 2.005-3.456l2.388-1.379 27.954-16.139a1.722 1.722 0 0 1 2.583 1.495l-.002.685a4.008 4.008 0 0 1-1.995 3.463l-25.95 14.982z" fill="#FC835C"/><path d="M85.445 140.641l17.561-10.14a1.722 1.722 0 0 1 2.583 1.495l-.001.686a4.008 4.008 0 0 1-1.995 3.463l-15.558 8.982-4.388 2.534a1.727 1.727 0 0 1-2.595-1.495v-.69c0-1.429.767-2.742 2.005-3.456l2.388-1.379z" fill="#76A8FF"/><path d="M115.748 129.127l-4.389 2.534a1.727 1.727 0 0 1-2.594-1.495v-.69c0-1.429.767-2.742 2.005-3.456l2.388-1.379 12.365-7.14a1.722 1.722 0 0 1 2.583 1.495l-.002.686a4.008 4.008 0 0 1-1.995 3.463l-10.361 5.982z" fill="#00DDBD"/><path fill="#F5F9FF" d="M57.18 93.838l-10.57-6.022 74.896-43.54 10.598 5.97z"/><path fill="#F2F5FA" d="M57.18 93.838L46.61 87.9l-.01 92.616 10.58 6.074z"/></g><path d="M36.92 89.08v-.019c11.463-.47 20.671-9.678 21.141-21.141h.019a.92.92 0 1 1 1.84 0h.019c.47 11.463 9.678 20.671 21.141 21.141v.019a.92.92 0 1 1 0 1.84v.019c-11.463.47-20.671 9.678-21.141 21.141h-.019a.92.92 0 1 1-1.84 0h-.019c-.47-11.463-9.678-20.671-21.141-21.141v-.019a.92.92 0 1 1 0-1.84z" fill="#00DDBD"/><g><path fill="#E1E8F5" d="M148.122 59.246l-74.942 43.59.006 92.754 75.02-43.306z"/><path d="M131.034 89.355l-.002.686a4.008 4.008 0 0 1-1.995 3.463L83.111 120.02a1.727 1.727 0 0 1-2.595-1.495v-.69c0-1.429.767-2.742 2.005-3.456l45.93-26.518a1.722 1.722 0 0 1 2.583 1.494zM124.983 119.856l-4.388 2.534a1.727 1.727 0 0 1-2.595-1.495v-.69c0-1.429.767-2.742 2.005-3.456l2.388-1.379 15.83-9.139a1.722 1.722 0 0 1 2.582 1.494l-.001.686a4.008 4.008 0 0 1-1.995 3.463l-13.826 7.982z" fill="#76A8FF"/><path d="M87.303 129.146l-4.389 2.534a1.727 1.727 0 0 1-2.594-1.495v-.69c0-1.429.767-2.742 2.005-3.456l2.388-1.379 19.293-11.139a1.722 1.722 0 0 1 2.583 1.495l-.001.685a4.008 4.008 0 0 1-1.995 3.463l-17.29 9.982z" fill="#FC835C"/><path d="M87.107 140.807l-4.389 2.533a1.727 1.727 0 0 1-2.594-1.494v-.69c0-1.43.767-2.742 2.005-3.457l2.388-1.378 27.953-16.14a1.722 1.722 0 0 1 2.583 1.495l-.001.686a4.008 4.008 0 0 1-1.995 3.462l-25.95 14.983z" fill="#00DDBD"/><path d="M116.748 112.146l-4.389 2.534a1.727 1.727 0 0 1-2.594-1.495v-.69c0-1.429.767-2.742 2.005-3.456l2.388-1.379 5.437-3.139a1.722 1.722 0 0 1 2.582 1.495l-.001.685a4.008 4.008 0 0 1-1.995 3.463l-3.433 1.982zM124.983 153.856l-4.388 2.534a1.727 1.727 0 0 1-2.595-1.495v-.69c0-1.429.767-2.742 2.005-3.456l2.388-1.379 5.437-3.139a1.722 1.722 0 0 1 2.583 1.494l-.002.686a4.008 4.008 0 0 1-1.995 3.463l-3.433 1.982zM86.91 152.467L82.523 155a1.727 1.727 0 0 1-2.595-1.494v-.69c0-1.43.768-2.742 2.006-3.457l2.388-1.378 34.881-20.14a1.722 1.722 0 0 1 2.583 1.495l-.001.686a4.008 4.008 0 0 1-1.995 3.463L86.91 152.467z" fill="#76A8FF"/><path d="M86.714 164.127l-4.388 2.534a1.727 1.727 0 0 1-2.595-1.495v-.69c0-1.429.767-2.742 2.005-3.456l2.388-1.379 5.437-3.14a1.722 1.722 0 0 1 2.583 1.495l-.001.686a4.008 4.008 0 0 1-1.995 3.463l-3.434 1.982z" fill="#00DDBD"/><path d="M86.518 175.787l-4.388 2.534a1.727 1.727 0 0 1-2.595-1.495v-.69c0-1.429.767-2.742 2.005-3.456l2.388-1.379 27.954-16.139a1.722 1.722 0 0 1 2.583 1.495l-.002.685a4.008 4.008 0 0 1-1.995 3.463l-25.95 14.982z" fill="#FC835C"/><path d="M101.445 149.641l17.561-10.14a1.722 1.722 0 0 1 2.583 1.495l-.001.686a4.008 4.008 0 0 1-1.995 3.463l-15.558 8.982-4.388 2.534a1.727 1.727 0 0 1-2.595-1.495v-.69c0-1.429.767-2.742 2.005-3.456l2.388-1.379z" fill="#76A8FF"/><path d="M131.748 138.127l-4.389 2.534a1.727 1.727 0 0 1-2.594-1.495v-.69c0-1.429.767-2.742 2.005-3.456l2.388-1.379 12.365-7.14a1.722 1.722 0 0 1 2.583 1.495l-.002.686a4.008 4.008 0 0 1-1.995 3.463l-10.361 5.982z" fill="#00DDBD"/><path fill="#F5F9FF" d="M73.18 102.838l-10.57-6.022 74.896-43.54 10.598 5.97z"/><path fill="#F2F5FA" d="M73.18 102.838L62.61 96.9l-.01 92.616 10.58 6.074z"/></g><path d="M64.48 55.51v1.783c-.575.106-1.162.177-1.76.208a1.52 1.52 0 0 0 0-3.002c.598.031 1.185.102 1.76.208v1.783h-1.96L62.5 56l.02-.49h1.96zm3.754.49A13.578 13.578 0 0 1 74 61.766 13.578 13.578 0 0 1 79.766 56 13.578 13.578 0 0 1 74 50.234 13.578 13.578 0 0 1 68.234 56zm7.059 9.52c.106.575.177 1.162.208 1.76a1.52 1.52 0 0 0-3.002 0c.031-.598.102-1.185.208-1.76h2.586zm-.803 1.96l-.49.02-.49-.02v-1.96h.98v1.96zm9.03-12.773a13.553 13.553 0 0 1 1.76-.208 1.52 1.52 0 0 0 0 3.002 13.553 13.553 0 0 1-1.76-.208v-2.586zm1.96.803l.02.49-.02.49h-1.96v-.98h1.96zm-12.773-9.03a13.553 13.553 0 0 1-.208-1.76 1.52 1.52 0 0 0 3.002 0 13.553 13.553 0 0 1-.208 1.76h-2.586zm.803-1.96l.49-.02.49.02v1.96h-.98v-1.96z" stroke="#00DDBD" stroke-width="4" fill="#00DDBD"/><path d="M62.48 55.52v-.01c5.98-.245 10.785-5.05 11.03-11.03h.01a.48.48 0 1 1 .96 0h.01c.245 5.98 5.05 10.785 11.03 11.03v.01a.48.48 0 1 1 0 .96v.01c-5.98.245-10.785 5.05-11.03 11.03h-.01a.48.48 0 1 1-.96 0h-.01c-.245-5.98-5.05-10.785-11.03-11.03v-.01a.48.48 0 1 1 0-.96zM93.76 36.24v-.016c9.47-.388 17.076-7.995 17.464-17.464h.016a.76.76 0 0 1 1.52 0h.016c.388 9.47 7.995 17.076 17.464 17.464v.016a.76.76 0 0 1 0 1.52v.016c-9.47.388-17.076 7.995-17.464 17.464h-.016a.76.76 0 0 1-1.52 0h-.016c-.388-9.47-7.995-17.076-17.464-17.464v-.016a.76.76 0 0 1 0-1.52zM129.22 26.28v-.005a5.28 5.28 0 0 0 5.055-5.055h.005a.22.22 0 1 1 .44 0h.005a5.28 5.28 0 0 0 5.055 5.055v.005a.22.22 0 1 1 0 .44v.005a5.28 5.28 0 0 0-5.055 5.055h-.005a.22.22 0 1 1-.44 0h-.005a5.28 5.28 0 0 0-5.055-5.055v-.005a.22.22 0 1 1 0-.44zM130.56 52.44v-.011c6.977-.286 12.583-5.892 12.869-12.869h.011a.56.56 0 0 1 1.12 0h.011c.286 6.977 5.892 12.583 12.869 12.869v.011a.56.56 0 0 1 0 1.12v.011c-6.977.286-12.583 5.892-12.869 12.869h-.011a.56.56 0 0 1-1.12 0h-.011c-.286-6.977-5.892-12.583-12.869-12.869v-.011a.56.56 0 0 1 0-1.12z" fill="#00DDBD"/></g></svg>