<svg width="516" height="482" viewBox="0 0 516 482" xmlns="http://www.w3.org/2000/svg" xmlns:xlink="http://www.w3.org/1999/xlink"><title>Gain Insights Graphic</title><defs><path id="b" d="M0 0h500v466H0z"/><filter x="-2.8%" y="-2.1%" width="105.6%" height="106%" filterUnits="objectBoundingBox" id="a"><feOffset dy="4" in="SourceAlpha" result="shadowOffsetOuter1"/><feGaussianBlur stdDeviation="4" in="shadowOffsetOuter1" result="shadowBlurOuter1"/><feColorMatrix values="0 0 0 0 0 0 0 0 0 0 0 0 0 0 0 0 0 0 0.15 0" in="shadowBlurOuter1"/></filter></defs><g fill="none" fill-rule="evenodd"><g transform="translate(8 4)"><use fill="#000" filter="url(#a)" xlink:href="#b"/><use fill="#FFF" xlink:href="#b"/></g><text font-family="IBMPlexSans-Medium, IBM Plex Sans" font-size="20" font-weight="400" fill="#323232" transform="translate(8 4)"><tspan x="48" y="69">Acme Corp.</tspan></text><text font-family="IBMPlexSans, IBM Plex Sans" font-size="20" fill="#A3A4A3" transform="translate(8 4)"><tspan x="347.16" y="69">Test Report</tspan></text><text font-family="IBMPlexSans-SemiBold, IBM Plex Sans" font-size="16" font-weight="500" letter-spacing="1" fill="#A3A4A3" transform="translate(8 4)"><tspan x="48" y="272">Summary</tspan></text><path d="M56 97h404M56 243h404" stroke="#E5E5E5" stroke-linecap="square"/><text font-family="IBMPlexSans, IBM Plex Sans" font-size="14" letter-spacing=".1" fill="#323232" transform="translate(8 4)"><tspan x="48" y="132">Project:</tspan></text><path fill="#D8D8D8" d="M118 132h108v4H118zM345 132h108v4H345zM142 168h96v4h-96zM326 168h64v4h-64zM100 204h64v4h-64zM180 204h48v4h-48z"/><text font-family="IBMPlexSans, IBM Plex Sans" font-size="14" letter-spacing=".1" fill="#323232" transform="translate(8 4)"><tspan x="270" y="132">Location:</tspan></text><text font-family="IBMPlexSans, IBM Plex Sans" font-size="14" letter-spacing=".1" fill="#323232" transform="translate(8 4)"><tspan x="48" y="168">Event Date:</tspan></text><text font-family="IBMPlexSans, IBM Plex Sans" font-size="14" letter-spacing=".1" fill="#323232" transform="translate(8 4)"><tspan x="270" y="168">Mode:</tspan></text><text font-family="IBMPlexSans, IBM Plex Sans" font-size="14" letter-spacing=".1" fill="#323232" transform="translate(8 4)"><tspan x="48" y="204">Test:</tspan></text><path stroke="#E5E5E5" stroke-width="2" d="M56 301h402v120H56z"/><text font-family="IBMPlexSans, IBM Plex Sans" font-size="14" letter-spacing=".1" fill="#323232" transform="translate(55 301)"><tspan x="16" y="22">Response:</tspan></text><path fill="#00DDBD" d="M208 317h170v8H208z"/><path d="M178.5 301.5v39M457.003 341.5H55.898" stroke="#E5E5E5" stroke-width="2" stroke-linecap="square"/><g><text font-family="IBMPlexSans, IBM Plex Sans" font-size="14" letter-spacing=".1" fill="#323232" transform="translate(55 341)"><tspan x="16" y="22">Failures:</tspan></text><path fill="#FC835C" d="M208 357h64v8h-64z"/><path d="M457.003 380.5H55.898M178.5 341.5v39" stroke="#E5E5E5" stroke-width="2" stroke-linecap="square"/></g><g><text font-family="IBMPlexSans, IBM Plex Sans" font-size="14" letter-spacing=".1" fill="#323232" transform="translate(71 381)"><tspan x="0" y="22">Warnings:</tspan></text><path fill="#5392FF" d="M208 397h96v8h-96z"/><path d="M178.5 381.5v39" stroke="#E5E5E5" stroke-width="2" stroke-linecap="square"/></g></g></svg>