<svg width="933" height="844" viewBox="0 0 933 844" xmlns="http://www.w3.org/2000/svg" xmlns:xlink="http://www.w3.org/1999/xlink"><title>Hero Graphic</title><defs><linearGradient x1="60.951%" y1="70.807%" x2="109.968%" y2="77.916%" id="a"><stop stop-color="#FC835C" offset="0%"/><stop stop-color="#FFF" offset="100%"/></linearGradient><linearGradient x1="122.802%" y1="-22.967%" x2="-44.002%" y2="143.807%" id="b"><stop stop-color="#FC835C" offset="0%"/><stop stop-color="#FFF3EF" offset="100%"/></linearGradient><linearGradient x1="50%" y1="-214.018%" x2="50%" y2="116.824%" id="c"><stop stop-color="#FC835C" offset="0%"/><stop stop-color="#FFF3EF" offset="100%"/></linearGradient><linearGradient x1="50%" y1="-283.45%" x2="50%" y2="121.881%" id="d"><stop stop-color="#FC835C" offset="0%"/><stop stop-color="#FFF3EF" offset="100%"/></linearGradient><linearGradient x1="112.59%" y1="-73.942%" x2="112.59%" y2="110.609%" id="e"><stop stop-color="#FC835C" offset="0%"/><stop stop-color="#FFF3EF" offset="100%"/></linearGradient><linearGradient x1="50%" y1="5.73%" x2="50%" y2="94.638%" id="f"><stop stop-color="#FC835C" offset="0%"/><stop stop-color="#FFF3EF" offset="100%"/></linearGradient><linearGradient x1="0%" y1="109.646%" y2="0%" id="g"><stop stop-color="#FC835C" offset="0%"/><stop stop-color="#FFF3EF" offset="100%"/></linearGradient><linearGradient x1="-8.394%" y1="-35.952%" x2="107.355%" y2="100%" id="h"><stop stop-color="#FC835C" offset="0%"/><stop stop-color="#FFF3EF" offset="100%"/></linearGradient><linearGradient x1="84.616%" y1="-24.686%" x2="-31.928%" y2="95.119%" id="i"><stop stop-color="#FC835C" offset="0%"/><stop stop-color="#FFF3EF" offset="100%"/></linearGradient><linearGradient x1="50%" y1="4.998%" x2="50%" y2="100%" id="j"><stop stop-color="#FFF" offset="0%"/><stop stop-color="#FC835C" offset="100%"/></linearGradient><linearGradient x1="73.223%" y1="89.848%" x2="-30.196%" y2="-34.504%" id="k"><stop stop-color="#FC835C" offset="0%"/><stop stop-color="#FFF3EF" offset="100%"/></linearGradient><radialGradient cx="45.453%" fx="45.453%" fy="50%" r="469.493%" gradientTransform="matrix(.7983 .599 -.46378 .61138 .324 -.078)" id="n"><stop stop-color="#F96536" offset="0%"/><stop stop-color="#FFF" offset="100%"/></radialGradient><path d="M89.656 68.825L95 55.89c.352.2.727.357 1.116.47l-5.344 12.932a5.199 5.199 0 0 0-1.116-.467zM70.281 80.706l12.9-5.373c.11.392.264.77.46 1.125l-12.898 5.373a5.277 5.277 0 0 0-.462-1.125zm-6.492-2.34c-.376.15-.734.345-1.066.579l-5.636-10.63a5.174 5.174 0 0 0 1.065-.575l5.637 10.627zm19.65-6.626c-.166.37-.29.76-.366 1.16l-23.126-7.336c.167-.371.29-.761.366-1.161L83.44 71.74zm-32.59-5.354c.227.335.493.642.791.915l-4.128 3.615a5.298 5.298 0 0 0-.793-.915l4.13-3.615zM38.167 54.402c.24-.328.443-.682.602-1.056l12.177 6.953c-.24.327-.443.68-.602 1.055l-12.177-6.952zM51.255 35.44l-4.285-3.253c.278-.295.523-.621.728-.972l4.287 3.255a8.094 8.094 0 0 0-.73.97zm-.743 7.287c.144.38.317.747.517 1.1l-12.125 5.775a5.24 5.24 0 0 0-.52-1.098l12.128-5.777zm14.836-6.287l17.809-6.65c.095.395.236.778.42 1.14L65.77 37.58a8.034 8.034 0 0 0-.423-1.14zM63.4 23.998c.358.188.738.334 1.13.433l-3.066 8.06a7.858 7.858 0 0 0-1.126-.443l3.062-8.05zm23.218 44.873a5.212 5.212 0 0 0-1.098.511l-3.558-7.903c.377-.145.745-.311 1.102-.5l3.554 7.892zM64.668 44.412c.227-.336.43-.688.604-1.055l4.196 2.458c-.222.34-.424.692-.605 1.055l-4.195-2.458zm-4.589 17.171a5.31 5.31 0 0 0-.545-1.087l9.069-4.634c.163.37.348.732.553 1.082l-9.077 4.64zm32.328-9.335h-3.76c.012-.203.03-.4.03-.609 0-.21-.018-.41-.03-.609h3.682c-.005.087-.014.173-.014.26.002.322.032.642.092.958zm-5.698-18.664l-3.764 8.66a10.37 10.37 0 0 0-1.109-.488l3.767-8.666c.348.208.72.373 1.106.494zm-30.31 24.7a5.22 5.22 0 0 0-1.198-.149l1.254-10.356c.397.075.798.121 1.202.137L56.4 58.285zm39.734-12.066c-.39.11-.766.265-1.12.463l-5.352-13.069c.39-.11.765-.264 1.12-.462l5.352 13.068zM83.66 25.985a5.234 5.234 0 0 0-.464 1.134l-12.765-5.29c.191-.36.34-.74.443-1.133l12.786 5.29zm-22.464-4.19l-12.972 5.338a5.254 5.254 0 0 0-.456-1.128l12.992-5.346c.102.394.248.775.436 1.135zM41.775 33.625l-5.301 13.048a5.157 5.157 0 0 0-1.12-.46l5.3-13.047c.355.197.73.35 1.12.46zm-.001 35.195c-.39.11-.766.265-1.12.462l-5.287-12.92c.39-.11.765-.265 1.118-.462l5.289 12.92zm5.996 7.637c.197-.355.352-.733.461-1.125l12.9 5.373a5.252 5.252 0 0 0-.461 1.126l-12.9-5.374zm7.4-8.991c-2.225-.003-4.028-1.819-4.03-4.06a4.06 4.06 0 0 1 2.488-3.75 4.011 4.011 0 0 1 4.394.881 4.08 4.08 0 0 1 .873 4.424 4.031 4.031 0 0 1-3.725 2.505zM78.2 42.305c5.117.006 9.264 4.181 9.27 9.334 0 3.775-2.26 7.179-5.723 8.623a9.224 9.224 0 0 1-10.102-2.023 9.38 9.38 0 0 1-2.01-10.172 9.27 9.27 0 0 1 8.565-5.762zm5.036 9.363a.265.265 0 0 0 .006-.029c-.004-2.65-2.034-4.852-4.659-5.053a4.81 4.81 0 0 0-.381-.02 5.033 5.033 0 0 0-4.008 2.009 5.103 5.103 0 0 0-.948 3.952c.444 2.41 2.522 4.165 4.956 4.185.211-.001.422-.016.632-.044 2.503-.323 4.384-2.459 4.402-5zM58.029 46.72c-3.783 0-6.85-3.089-6.85-6.899s3.067-6.898 6.85-6.898c3.784 0 6.852 3.088 6.852 6.898 0 3.81-3.068 6.899-6.852 6.899zm30.213-14.122c-2.224-.003-4.026-1.816-4.03-4.055a4.06 4.06 0 0 1 2.485-3.753 4.011 4.011 0 0 1 4.395.878 4.08 4.08 0 0 1 .875 4.424 4.031 4.031 0 0 1-3.725 2.506zM43.196 69.836c2.224.003 4.027 1.818 4.03 4.057a4.058 4.058 0 0 1-2.488 3.75 4.01 4.01 0 0 1-4.393-.88 4.079 4.079 0 0 1-.873-4.422 4.03 4.03 0 0 1 3.724-2.505zm45.02 8.115c-2.225 0-4.03-1.816-4.03-4.058 0-2.24 1.805-4.058 4.03-4.058 2.227 0 4.031 1.817 4.031 4.058 0 2.242-1.804 4.058-4.03 4.058zm9.339-22.602c-2.226 0-4.03-1.817-4.03-4.058 0-2.242 1.804-4.058 4.03-4.058s4.03 1.816 4.03 4.058c0 2.24-1.804 4.058-4.03 4.058zm-31.73-31.965c-2.224-.003-4.027-1.818-4.03-4.058a4.06 4.06 0 0 1 2.488-3.75 4.011 4.011 0 0 1 4.394.879 4.08 4.08 0 0 1 .874 4.424 4.031 4.031 0 0 1-3.726 2.505zm-22.642 9.224c-2.225-.003-4.027-1.818-4.03-4.058 0-1.641.982-3.12 2.488-3.749a4.01 4.01 0 0 1 4.392.88 4.079 4.079 0 0 1 .874 4.422 4.03 4.03 0 0 1-3.724 2.505zM34.87 55.242c-2.166.515-4.337-.836-4.848-3.018-.512-2.18.83-4.366 2.996-4.881 2.167-.515 4.337.836 4.849 3.017.511 2.181-.83 4.367-2.997 4.882zm30.837 23.971c2.144.004 3.91 1.696 4.02 3.852.109 2.155-1.476 4.02-3.608 4.244a4.316 4.316 0 0 1-.412.021 4.026 4.026 0 0 1-3.543-2.01 4.083 4.083 0 0 1 0-4.096 4.026 4.026 0 0 1 3.543-2.011z" id="m"/><filter x="-20.2%" y="-21.5%" width="151.6%" height="151.3%" filterUnits="objectBoundingBox" id="l"><feOffset dx="4" dy="3" in="SourceAlpha" result="shadowOffsetOuter1"/><feGaussianBlur stdDeviation="5.5" in="shadowOffsetOuter1" result="shadowBlurOuter1"/><feColorMatrix values="0 0 0 0 1 0 0 0 0 1 0 0 0 0 1 0 0 0 1 0" in="shadowBlurOuter1"/></filter><linearGradient x1="50%" y1="0%" x2="50%" y2="100%" id="o"><stop stop-color="#00B398" offset="0%"/><stop stop-color="#5392FF" offset="100%"/></linearGradient><linearGradient x1="66.987%" y1="13.188%" x2="54.663%" y2="85.626%" id="p"><stop stop-color="#00FFD9" offset="0%"/><stop stop-color="#5392FF" offset="100%"/></linearGradient><linearGradient x1="50%" y1="27.886%" x2="50%" y2="100%" id="q"><stop stop-color="#00DDBD" offset="0%"/><stop stop-color="#5392FF" offset="100%"/></linearGradient><linearGradient x1="50%" y1="34.375%" x2="50%" y2="100%" id="r"><stop stop-color="#00FFD9" offset="0%"/><stop stop-color="#5392FF" offset="100%"/></linearGradient><linearGradient x1="50%" y1="-31.69%" x2="50%" y2="100%" id="s"><stop stop-color="#00DDBD" offset="0%"/><stop stop-color="#5392FF" offset="100%"/></linearGradient><linearGradient x1="50%" y1="-21.213%" x2="50%" y2="100%" id="t"><stop stop-color="#00FFD9" offset="0%"/><stop stop-color="#5392FF" offset="100%"/></linearGradient><linearGradient x1="50%" y1="-99.889%" x2="50%" y2="100%" id="u"><stop stop-color="#00DDBD" offset="0%"/><stop stop-color="#5392FF" offset="100%"/></linearGradient><linearGradient x1="50%" y1="-81.142%" x2="50%" y2="100%" id="v"><stop stop-color="#00FFD9" offset="0%"/><stop stop-color="#5392FF" offset="100%"/></linearGradient><linearGradient x1="50%" y1="0%" x2="50%" y2="100%" id="w"><stop stop-color="#00DDBD" offset="0%"/><stop stop-color="#5392FF" offset="100%"/></linearGradient><linearGradient x1="50%" y1="8.619%" x2="50%" y2="100%" id="x"><stop stop-color="#00FFD9" offset="0%"/><stop stop-color="#5392FF" offset="100%"/></linearGradient><linearGradient x1="50%" y1="-165.328%" x2="50%" y2="100%" id="y"><stop stop-color="#00DDBD" offset="0%"/><stop stop-color="#5392FF" offset="100%"/></linearGradient><linearGradient x1="50%" y1="-142.642%" x2="50%" y2="100%" id="z"><stop stop-color="#00FFD9" offset="0%"/><stop stop-color="#5392FF" offset="100%"/></linearGradient><linearGradient x1="50%" y1="25.812%" x2="50%" y2="100%" id="A"><stop stop-color="#00DDBD" offset="0%"/><stop stop-color="#5392FF" offset="100%"/></linearGradient><linearGradient x1="50%" y1="32.549%" x2="50%" y2="100%" id="B"><stop stop-color="#00FFD9" offset="0%"/><stop stop-color="#5392FF" offset="100%"/></linearGradient><linearGradient x1="50%" y1="-35.454%" x2="50%" y2="100%" id="C"><stop stop-color="#00DDBD" offset="0%"/><stop stop-color="#5392FF" offset="100%"/></linearGradient><linearGradient x1="50%" y1="-23.202%" x2="50%" y2="100%" id="D"><stop stop-color="#00FFD9" offset="0%"/><stop stop-color="#5392FF" offset="100%"/></linearGradient><linearGradient x1="100%" y1="0%" x2="58.601%" y2="41.752%" id="E"><stop stop-color="#FC835C" offset="0%"/><stop stop-color="#FFF3EF" offset="100%"/></linearGradient><linearGradient x1="141.148%" y1="-41.871%" x2="13.888%" y2="85.606%" id="F"><stop stop-color="#FC835C" offset="0%"/><stop stop-color="#FFF3EF" offset="100%"/></linearGradient><linearGradient x1="100%" y1="0%" x2="38.853%" y2="60.959%" id="G"><stop stop-color="#FC835C" offset="0%"/><stop stop-color="#FFF3EF" offset="100%"/></linearGradient></defs><g fill="none" fill-rule="evenodd"><path d="M166 442.426V0h54v464.276a48 48 0 0 1-24.001 41.57L0 619v-59.88l148.01-85.523a36 36 0 0 0 17.99-31.17z" fill="url(#a)" opacity=".404" transform="translate(519 -136)"/><path d="M30 556l111.074-64" stroke="url(#b)" stroke-width="4" stroke-linecap="round" transform="translate(519 -136)"/><path d="M179.5 391V192" stroke="url(#c)" stroke-width="4" stroke-linecap="round" transform="translate(519 -136)"/><path d="M196.5 426.018V276" stroke="url(#d)" stroke-width="4" stroke-linecap="round" transform="translate(519 -136)"/><path d="M196 426v24.775c-.035 10.917-2.004 19.143-5.907 24.678-3.902 5.535-10.934 11.05-21.093 16.547" stroke="url(#e)" stroke-width="4" stroke-linecap="round" transform="translate(519 -136)"/><g transform="translate(585 367)"><path d="M54.36 131.117l.244 7.653c-.698 3.471-.915 5.675-.651 6.612.395 1.406 2.642 4.2 3.988 4.2 1.347 0 3.6-3.182 3.989-4.2.26-.678.26-2.87 0-6.574l-1.53-8.318-6.04.627z" fill="#424242"/><path d="M34.372 69.6c-.397 12.308-.397 21.511 0 27.609.396 6.098 1.58 15.114 3.552 27.048 1.414.44 2.476.621 3.187.543.71-.078 2.016-.548 3.919-1.408-1.273-11.546-1.91-20.274-1.91-26.183 0-5.91.868-14.152 2.604-24.73L34.372 69.6zM46.8 73.2c.408 11.377.815 20.177 1.219 26.4.404 6.223 2.419 17.023 6.043 32.4 1.682.55 2.97.758 3.863.623.893-.136 2.026-.712 3.399-1.727-1.687-12.021-2.82-21.253-3.4-27.696-.579-6.443-.821-16.683-.728-30.72L46.8 73.2z" fill="#00DDBD"/><path d="M57.602 46.073c.825.108 1.427 3.364 1.807 9.77.38 6.405.38 13.307 0 20.705-2.134 2.181-3.304 3.465-3.51 3.852-.31.58-.015 1.403.545 1.715.374.209.76.037 1.158-.515-.964 3.734-1.204 5.971-.723 6.712.723 1.111 6.03-1.26 6.827-2.633.53-.914.53-3.958 0-9.13 1.268-8.85 1.95-15.567 2.042-20.149.094-4.582-.36-9.003-1.363-13.261l-6.783 2.934zM53.524 28.43l-2.966-2.593c.15-2.35-.4-3.672-1.653-3.964-1.252-.291-3.57-.291-6.953 0 .077 2.123-.226 3.444-.91 3.964-1.104.84-4.708.272-5.011.936-.585 1.28.046 3.822 1.893 7.621l9.304 2.257 6.296-8.22z" fill="#B2C6E8"/><ellipse fill="#B2C6E8" transform="rotate(13 46.884 13.582)" cx="46.884" cy="13.582" rx="8.4" ry="12"/><path d="M28.737 33.325c-1.327 3.068-2.36 4.753-3.102 5.053-.741.3-5.611 2.489-14.61 6.564-2.496-1.74-4.16-2.61-4.989-2.61-1.244 0-.035 2.267-.85 2.61-.816.344-1.875-1.6-3.184-.91-1.308.691-1.875 2.748-.937 3.086.937.339 7.906 2.374 9.542 2.374 1.636 0 16.782-4.55 18.13-5.041.898-.328 2.678-2.784 5.337-7.369l-5.337-3.757z" fill="#B2C6E8"/><path d="M60.124 33.325c-3.276-4.528-6.6-5.917-7.689-5.917-1.088 0-3.356 6.654-8.152 6.654-4.797 0-5.817-3.9-7.322-7.687-3.184-.62-6.02 1.697-8.51 6.95 2.819 3.935 4.492 6.044 5.02 6.329.082.045.523-1.097.534-.495.1 5.14-2.464 29.82-1.185 32.248 1.429 2.714 19.302 13.51 25.618 1.072 0-5.574-2.134-26.492-2.134-28.028 0-1.536.397 2.349 1.173 2.349s7.677-1.048 7.677-2.413c0-1.364-1.754-6.535-5.03-11.062z" fill="#356ED0"/><path d="M37.625 122.703l-.555 3.14c-4.314 3.449-6.63 5.501-6.946 6.157-.476.983-1.93 5.387 3.232 4.902 5.16-.484 11.375-5.58 12.069-6.404.462-.55.349-3.148-.342-7.795-1.694.598-2.956.897-3.787.897s-2.055-.299-3.671-.897z" fill="#424242"/></g><path d="M426.5 246h12v142a6 6 0 0 1-12 0V246zM144 413h12v142a6 6 0 0 1-12 0V413z" fill="#76A8FF"/><path stroke="#FFF" stroke-width="5" fill="#F5F9FF" stroke-linecap="square" d="M-205.9 202.061l163-94.214V89.35h32.002l93.374-53.97 356.04 205.476-288.488 166.641z"/><path fill="#F2F5FA" d="M150.024 407.497v15.001L-87.895 285.14v-14.99z"/><path fill="#E1E8F5" d="M150.026 407.5v14.994L438.51 256.266v-15.405z"/><path d="M274.6 248.737c1.09.569 6.844 3.483 7.722 4.083.878.6 1.248 1.02.78 1.638-.31.412-1.453 0-3.428-1.24-.53.756-.99 1.29-1.382 1.605-.587.471-1.206-.113-2.03-.365-.824-.251-1.542-.975-2.751-2.15a22.336 22.336 0 0 0-2.727-2.243l1.268-1.897c.972 0 1.822.19 2.548.57z" fill="#B2C6E8"/><path d="M251.357 230.913c4.537 4.446 7.945 7.545 10.222 9.299 2.277 1.753 6.728 4.336 13.351 7.75l-2.672 4.482a84.22 84.22 0 0 1-13.212-7.507 77.373 77.373 0 0 1-11.274-9.543l3.585-4.481z" fill="#2C5DB2"/><path fill="#00DDBD" d="M231.857 291.268l1.543 33.36h4.216l3.469-32.48z"/><path d="M233.39 324.628c-.11 1.786-.166 2.972-.166 3.557 0 .878 7.89 5.127 8.266 4.056.376-1.072.318-1.264 0-1.776-.204-.328-1.5-2.368-3.887-6.12l.325-2.16c-.45.527-1.114.677-1.991.45-.878-.227-1.782-.703-2.713-1.429l.166 3.422z" fill="#356ED0"/><path fill="#00DDBD" d="M240.736 287.05l-.205 33.394 4.21.22 5.164-32.253z"/><path d="M240.39 322.421v3.523c0 .879 7.679 4.515 8.055 3.444.377-1.072-.522-2.33-.84-2.841-.204-.328-1.204-1.797-3.002-4.409l.325-2.16c-.45.527-1.114.678-1.991.45-.878-.227-1.782-.703-2.713-1.428l.166 3.421zM232.646 254.257c-.697 9.192-2.476 5.313-3.351 14.912-.875 9.6 0 19.896 0 21.861 0 1.965 6.6 4.596 10.63 4.408 4.029-.188 11.432-3.752 12.118-5.468.686-1.715.988-27.72.779-32.133-.209-4.414-2.964-3.33-2.72-9.875.246-6.545 2.72-7.518 2.72-12.568s-.91-6.894-7.965-9.346c-7.055-2.451-8.342.446-11.095 2.724-2.753 2.279-4.29 5.386-4.467 11.672-.178 6.286 4.049 4.62 3.351 13.813z" fill="#356ED0"/><path d="M252.269 220.86c1.007 2.718 1.285 4.483.834 5.295-.451.812-1.642.69-3.571-.367l2.737-4.928z" fill="#2C5DB2"/><path fill="#00DDBD" d="M245.357 261.906l7.895-15.618-10.737-5.27-7.412 15.952z"/><path d="M242.998 252.761c1.205-1.379.923-2.354 2.19-2.757 1.27-.404-.436 1.951 0 1.892 1.547-.21 3.121-2.262 3.49-2.16.854.238 1.107 1.913 0 4.229-.739 1.544-2.995 2.46-6.769 2.748l-.35-2.557c.156-.01.635-.476 1.439-1.395z" fill="#B2C6E8"/><path d="M231.857 230.913c-1.783 1.536-3.95 5.914-6.5 13.134-2.42 9.11-2.839 14.344-1.254 15.703 1.584 1.36 7.722.545 18.412-2.443v-4.216c-7.394.666-11.365.779-11.912.339-.547-.44.837-3.825 4.152-10.154 1.25-3.806 1.875-6.603 1.875-8.394 0-2.685-2.098-6.273-4.773-3.97z" fill="#2C5DB2"/><path d="M241.881 228.14c-3.273-1.498-4.986-6.304-4.049-11.123 1.054-5.422 5.204-9.176 9.27-8.386 4.067.79 6.508 5.826 5.455 11.248-.675 3.47-2.504 6.295-4.883 7.643-.084.261-.322.478-.483.717a3 3 0 0 1-4.164.81c-.462-.313-.923-.439-1.146-.909z" fill="#B2C6E8"/><path d="M252.822 213.737c.497.967.563 1.631.199 1.992-.107.106-.28.164-.505.183-.892.767-4.367.71-6.913-.183-1.261-.442-.245-.657-.5-.526-.208.108.023 1.173-.37 1.67-.5.63-1.625.806-1.733 1.984-.24 2.602.066 9.631-.699 10.584-.677.845-6.037-2.277-6.921-3.308-.884-1.031 1.172-2.744 1.413-3.793.52-2.26-.137-4.104 0-4.81.319-1.642.675-3.05 1.222-4.28a3 3 0 1 1 4.352-4.093c1.335-.724 2.588-1.066 3.76-1.026a3.001 3.001 0 1 1 5.012 2.972c.88.963 1.441 1.841 1.683 2.634zm-11.704 3.97c-.819-.24-1.326-.196-1.522.13-.197.326-.09.948.322 1.864l1.2-1.995z" fill="#2C5DB2"/><g transform="translate(146 223)"><ellipse fill="#B2C6E8" transform="rotate(-3 26.381 10.405)" cx="26.381" cy="10.405" rx="8" ry="10"/><path fill="#00DDBD" d="M21.456 94.994l1.147 36.654h5.482l2.272-37.668z"/><path fill="#B2C6E8" d="M24.642 18.55l-2.04 6.854 7.755 8.461 4.537-5.936-3.891-4.967-1.697-5.04z"/><path fill="#00DDBD" d="M42.103 88.155l-9.634 1.889L34.38 124H39z"/><path d="M17.357 24.7C5.788 36.233.004 44.667.004 50c0 5.333 4.332 9.402 12.996 12.205v-5.082c-2.075-1.568-3.207-3.309-3.397-5.223-.19-1.914 1.761-4.73 5.853-8.448.167 28.696.382 45.196.647 49.502.397 6.46 7.903 8.557 14.9 5.791 4.665-1.844 8.939-4.805 12.823-8.884C39.18 55.867 37.238 38.247 38 37c1.143-1.87 12.004 7.224 12.004-.337 0-3.32-4.382-11.208-13.147-23.663l-2.983 2.313c5.7 10.305 7.735 14.511 6.107 12.617-1.143-1.33-2.898-3.54-4.378-4.265-.872-.426-2.406-.682-4.6-.765 1.81 4.849 1.594 7.502-.646 7.96-5.353 1.095-2.417-3.461-7.754-7.195-.433-.302-2.182.042-5.246 1.035zM28.302 130.061c-1.393.263-2.424.376-3.093.339-.669-.037-1.537-.499-2.606-1.385-.347 3.223-.347 5.21 0 5.964.52 1.13 8.598 4.333 9.866 4.598 1.268.264 1.405-1.59 1.405-2.247 0-.657-3.517-3.424-4.771-3.783-.836-.239-1.103-1.4-.8-3.486zM39.389 122.978c-1.013.308-1.854.444-2.523.407-.668-.037-1.537-.499-2.606-1.385-.347 3.222-.347 5.21 0 5.964.521 1.13 8.599 4.333 9.867 4.597 1.268.265 1.405-1.589 1.405-2.246s-3.517-3.425-4.772-3.783c-.836-.24-1.293-1.424-1.371-3.554z" fill="#356ED0"/><path d="M13.133 57.44c.744-1.138 1.508-1.602 2.29-1.39.548.147.027 2.221.316 2.676.083.131.515.372 1.297.724 3.322.362 5.145 1.297 5.468 2.804.484 2.262-2.485 1.296-4.733.952-1.498-.228-3.089-.714-4.771-1.456l.133-4.31z" fill="#B2C6E8"/><path d="M32.47 1c1.388.391 3.113 3.55 1.16 5-1.953 1.45-7.17 5.68-8.903 6-1.734.32-2.453-2.613-3.973-2.02-1.93.752-1.93 2.986 0 6.701.117 1.655-.39 1.428-1.521-.681C17.535 12.837 16.5 5.773 20 2.115 23.499-1.543 31.08.609 32.47 1z" fill="#2C5DB2"/></g><g><path d="M147 344h6v57a3 3 0 0 1-6 0v-57zM36 282h6v57a3 3 0 0 1-6 0v-57zM91 314h6v57a3 3 0 0 1-6 0v-57zM215.25 305h6v57a3 3 0 0 1-6 0v-57zM284.5 265h6v57a3 3 0 0 1-6 0v-57zM353.75 225h6v57a3 3 0 0 1-6 0v-57zM423 185h6v57a3 3 0 0 1-6 0v-57z" fill="#76A8FF"/><path d="M426.4 188.716L151.454 347.5a1.732 1.732 0 0 1-2.598-1.5v-1.845a2 2 0 0 1 1-1.732L426.4 182.71a1.733 1.733 0 0 1 2.6 1.501 5.2 5.2 0 0 1-2.6 4.504z" fill="#75A8FF"/><path d="M151.63 349.278L36 282.661a3.468 3.468 0 0 1 5.2-3.005l110.43 63.624v5.998z" fill="#76A8FF"/><path d="M41.63 286.078L-74 219.461a3.468 3.468 0 0 1 5.2-3.005L41.63 280.08v5.998z" fill="#76A8FF"/></g><g><path fill="#E1E8F5" d="M648.82 484.865v60.054L412.833 681.185v-60.052z"/><path fill="#F2F5FA" d="M176.833 484.865v60.054L412.82 681.185v-60.052z"/><path d="M179.83 484.87L412.831 619.4 645.82 484.866 412.831 350.34l-233 134.53z" stroke="#FFF" stroke-width="3" fill="#F5F9FF"/><g stroke-linecap="round" stroke-width="2"><path d="M45 13l79 50" stroke="url(#f)" opacity=".488" transform="translate(302 505)"/><g opacity=".488"><path d="M22 0L.5 12" stroke="url(#g)" transform="translate(302 517)"/><path d="M22 0l11 7" stroke="url(#h)" transform="translate(302 517)"/></g><path d="M66 0L33 19" stroke="url(#i)" transform="translate(302 505)"/></g></g><g><path stroke="#FFF" stroke-width="5" fill="#F5F9FF" stroke-linecap="square" d="M660 583.847l116.994 67.541 117.009-67.541L777 516.3z"/><path fill="#E1E8F5" d="M894.003 583.85v15L777 666.39v-15.002z"/><path fill="#F2F5FA" d="M660 583.85l117.003 67.538v15.002L660 598.85z"/><path fill="#FF9E7F" d="M775.826 560l-41.005 23.676 41.005 23.66 40.997-23.66z"/><path d="M41.826 112.461l-.5.289h1l-.5-.289zM2 24.254v-.578l-.5.866.5-.288zm40.005-23.1l.5-.288h-1l.5.289zM82 24.254l.502.29-.5-.87-.002.58zm-.175 65.125l-.002.732 1 .003v-1h-.538l-.46.265z" stroke="#FFF" stroke-width="2" fill="url(#j)" opacity=".486" transform="translate(734 494)"/><g fill="#C06143" fill-rule="nonzero"><path d="M751.807 568.4l-1.208-1.593 34.594-26.208 1.208 1.594z"/><path d="M751.278 568.216l-.494-1.938 50.938-12.994.494 1.938zM770.651 516.574l1.775-.923 13.923 26.775-1.775.923z"/><path d="M771.443 515.7l1.857.743-20.743 51.857-1.857-.743zM800.657 551.628l1.715 1.029-25.029 41.715-1.715-1.029z"/><path d="M778.414 593.028l-1.442 1.386-26.386-27.442 1.442-1.386z"/></g><g><path fill="#C06143" d="M756.72 570.103V564l-4.72 2.77v6.16z"/><path fill="#FF9E7F" d="M747.3 570.103V564l4.72 2.77v6.16z"/><path fill="#FC835C" d="M752.02 566.756l4.7-2.756-4.72-2.755-4.7 2.756z"/><path fill="#C06143" d="M781.72 596.103V590l-4.72 2.77v6.16z"/><path fill="#FF9E7F" d="M772.3 596.103V590l4.72 2.77v6.16z"/><path fill="#FC835C" d="M777.02 592.756l4.7-2.756-4.72-2.755-4.7 2.756z"/><g><path fill="#C06143" d="M805.72 556.103V550l-4.72 2.77v6.16z"/><path fill="#FF9E7F" d="M796.3 556.103V550l4.72 2.77v6.16z"/><path fill="#FC835C" d="M801.02 552.756l4.7-2.756-4.72-2.755-4.7 2.756z"/></g><g><path fill="#C06143" d="M776.72 518.103V512l-4.72 2.77v6.16z"/><path fill="#FF9E7F" d="M767.3 518.103V512l4.72 2.77v6.16z"/><path fill="#FC835C" d="M772.02 514.756l4.7-2.756-4.72-2.755-4.7 2.756z"/></g><g><path fill="#C06143" d="M789.72 544.103V538l-4.72 2.77v6.16z"/><path fill="#FF9E7F" d="M780.3 544.103V538l4.72 2.77v6.16z"/><path fill="#FC835C" d="M785.02 540.756l4.7-2.756-4.72-2.755-4.7 2.756z"/></g></g><path d="M86.462 130.86c-.307.181-.702.193-1.028-.004L.482 79.841a.988.988 0 0 1-.337-1.363c.286-.468.9-.618 1.373-.334l84.412 50.691 17.515-11.583c.46-.304 1.08-.181 1.387.275a.987.987 0 0 1-.277 1.376l-18 11.904c-.03.02-.061.038-.093.054z" fill="url(#k)" fill-rule="nonzero" transform="translate(589 494)"/></g><g><g fill="#FF9E7F" transform="translate(347 407)"><ellipse cx="65.5" cy="71.5" rx="65.5" ry="37.5"/><path d="M0 66.198C0 32.875 24.65 1.6 65.833 1 107.017.4 131 32.88 131 67.064c0 42.134-61.782 42.134-65.5 42.134-3.718 0-65.5 0-65.5-43z" opacity=".398"/></g><g transform="translate(347 407)"><use fill="#000" filter="url(#l)" xlink:href="#m"/><use fill="url(#n)" xlink:href="#m"/></g></g><g opacity=".798"><path d="M14.6 5.107c3.666-2.266 3.785 23.246 9.906 21.22l8.04-21.781L39.733.448A8.26 8.26 0 0 1 40.08.24c7.883-4.482 5.156 55.442 14.856 49.936 5.046-2.865 7.399-7.563 9.547-11.952l-.088-5.412 6.979-3.999.193-.11.458-.263.01.02c7.304-3.378 7.917 19.698 12.987 16.231 5.111-3.494-2.199-18.716 10.967-27.752 8.777-6.024 13.774 21.99 14.992 84.039l-7.004 4-43.054-28.411L9.044 45.804l-.125-3.555L7 40.983c.47-4.519.95-8.615 1.44-12.287L7.747 9.004l6.852-3.905.002.008z" fill="url(#o)" transform="translate(203 441)"/><path d="M7.34 9.309c4.024-3.752 3.9 24.48 10.66 20.8 6.76-3.68 7.197-21.388 15.08-25.87 7.883-4.48 5.156 55.443 14.856 49.937 9.7-5.507 9.449-17.792 16.921-21.629 7.472-3.837 8.054 19.639 13.165 16.144 5.111-3.494 1.981-10.287 13.064-27.012 7.388-11.15 11.687 16.616 12.895 83.299L0 44.983C2.212 23.701 4.658 11.81 7.34 9.31z" fill="url(#p)" transform="translate(203 441)"/></g><g opacity=".797"><path fill="url(#q)" d="M13.819 120.65V15.582L26.814 8.08v105.062z" transform="translate(550 386)"/><path fill="url(#r)" transform="matrix(-1 0 0 1 564.633 386)" d="M.819 120.65V15.582L13.814 8.08v105.062z"/><path fill="#00FFD9" d="M563.819 401.577l12.995-7.497-13-7.533-12.995 7.533z"/><path fill="url(#s)" d="M13.819 68.65V15.58l12.995-7.5v53.062z" transform="translate(529 450)"/><path fill="url(#t)" transform="matrix(-1 0 0 1 543.633 450)" d="M.819 68.65V15.58l12.995-7.5v53.062z"/><path fill="#00FFD9" d="M542.819 465.577l12.995-7.497-13-7.533-12.995 7.533z"/><path fill="url(#u)" d="M13.819 48.65V15.58l12.995-7.5v33.062z" transform="translate(508 482)"/><path fill="url(#v)" transform="matrix(-1 0 0 1 522.633 482)" d="M.819 48.65V15.58l12.995-7.5v33.062z"/><path fill="#00FFD9" d="M521.819 497.577l12.995-7.497-13-7.533-12.995 7.533z"/><g><path fill="url(#w)" d="M13.819 88.65V15.58l12.995-7.5v73.062z" transform="translate(487 454)"/><path fill="url(#x)" transform="matrix(-1 0 0 1 501.633 454)" d="M.819 88.65V15.58l12.995-7.5v73.062z"/><path fill="#00FFD9" d="M500.819 469.577l12.995-7.497-13-7.533-12.995 7.533z"/></g><g><path fill="url(#y)" d="M13.819 38.65V15.58l12.995-7.5v23.062z" transform="translate(466 516)"/><path fill="url(#z)" transform="matrix(-1 0 0 1 480.633 516)" d="M.819 38.65V15.58l12.995-7.5v23.062z"/><path fill="#00FFD9" d="M479.819 531.577l12.995-7.497-13-7.533-12.995 7.533z"/></g><g><path fill="url(#A)" d="M13.819 118.65V15.58l12.995-7.5v103.062z" transform="translate(445 448)"/><path fill="url(#B)" transform="matrix(-1 0 0 1 459.633 448)" d="M.819 118.65V15.58l12.995-7.5v103.062z"/><path fill="#00FFD9" d="M458.819 463.577l12.995-7.497-13-7.533-12.995 7.533z"/></g><g><path fill="url(#C)" d="M13.819 68.65V15.58l12.995-7.5v53.062z" transform="translate(423 511)"/><path fill="url(#D)" transform="matrix(-1 0 0 1 437.633 511)" d="M.819 68.65V15.58l12.995-7.5v53.062z"/><path fill="#00FFD9" d="M436.819 526.577l12.995-7.497-13-7.533-12.995 7.533z"/></g></g><g><path d="M292.452 611.69h6v147a3 3 0 0 1-6 0v-147z" fill="#76A8FF"/><path fill="#E1E8F5" d="M342.991 724.068L280 760.463V653.076l62.991-36.376z"/><path fill="#F2F5FA" d="M280 760.463l-3-1.8V651.28l3 1.764z"/><path fill="#F5F9FF" d="M280 653.044l-3-1.764 62.991-36.38 3 1.8z"/><path d="M307 619h3v15.5a1.5 1.5 0 0 1-3 0V619z" fill="#5392FF"/><path fill="#E1E8F5" d="M392.991 753.068L330 789.463V682.076l62.991-36.376z"/><path fill="#F2F5FA" d="M330 789.463l-3-1.8V680.28l3 1.764z"/><path fill="#F5F9FF" d="M330 682.044l-3-1.764 62.991-36.38 3 1.8z"/><path d="M357 648h3v15.5a1.5 1.5 0 0 1-3 0V648z" fill="#5392FF"/><g><path fill="#E1E8F5" d="M402.991 758.768L340 795.163V687.776l62.991-36.376z"/><path fill="#F2F5FA" d="M340 795.163l-3-1.8V685.98l3 1.764z"/><path fill="#F5F9FF" d="M340 687.744l-3-1.764 62.991-36.38 3 1.8z"/><path d="M367 653.7h3v15.5a1.5 1.5 0 0 1-3 0v-15.5z" fill="#5392FF"/></g><g><path fill="#E1E8F5" d="M412.991 764.668L350 801.063V693.676l62.991-36.376z"/><path fill="#F2F5FA" d="M350 801.063l-3-1.8V691.88l3 1.764z"/><path fill="#F5F9FF" d="M350 693.644l-3-1.764 62.991-36.38 3 1.8z"/><path d="M377 659.6h3v15.5a1.5 1.5 0 0 1-3 0v-15.5z" fill="#5392FF"/></g><g><path fill="#E1E8F5" d="M422.991 770.368L360 806.763V699.376L422.991 663z"/><path d="M391.006 754.478v.343a2.004 2.004 0 0 1-.998 1.73l-22.963 13.259a.863.863 0 0 1-1.297-.748v-.344c0-.715.383-1.371 1.002-1.729l22.965-13.259a.86.86 0 0 1 1.291.748zM391.006 744.478v.343a2.004 2.004 0 0 1-.998 1.73l-22.963 13.259a.863.863 0 0 1-1.297-.748v-.344c0-.715.383-1.371 1.002-1.729l22.965-13.259a.86.86 0 0 1 1.291.748z" fill="#76A8FF"/><path fill="#F2F5FA" d="M360 806.763l-3-1.8V697.58l3 1.764z"/><path fill="#F5F9FF" d="M360 699.344l-3-1.764 62.991-36.38 3 1.8z"/><path d="M387 665.3h3v15.5a1.5 1.5 0 0 1-3 0v-15.5z" fill="#5392FF"/><g transform="translate(366 696.3)"><path d="M0 35.858c1.303-8.821 2.796-13.799 4.477-14.934 2.523-1.703 3.435 6.977 6.983 4.16 3.548-2.818 2.133-12.358 6.487-14.928 4.354-2.57 6.14 19.632 10.665 17.009C33.137 24.542 29.844 2.573 33 .364c3.156-2.21 4.597 11.259 7.168 9.792 2.572-1.466.314-4.468 3.106-6.224 2.792-1.755 2.713 11.846 5.562 9.88" stroke="#50E3C2" stroke-width="2" stroke-linecap="round"/><path stroke="#5392FF" stroke-width="2" stroke-linecap="round" stroke-linejoin="round" d="M0 8v39.979L51.827 18"/><ellipse fill="#5392FF" transform="rotate(26 41.574 44.292)" cx="41.574" cy="44.292" rx="9" ry="13"/><path d="M42.601 32.166c1.629-.375 3.238-.257 4.672.442 4.467 2.18 5.538 9.177 2.39 15.63-1.14 2.338-2.678 4.284-4.388 5.712l-3.378-9.364.704-12.42z" fill="#76A8FF"/><path d="M34.583 38.398c2.533-3.926 6.227-6.348 9.606-6.439l-2.261 12.653-7.345-6.214z" fill="#5392FF"/><g fill="#76A8FF" transform="translate(5 61)"><ellipse transform="rotate(30 4.598 23.964)" cx="4.598" cy="23.964" rx="3" ry="4"/><ellipse transform="rotate(30 20.598 14.964)" cx="20.598" cy="14.964" rx="3" ry="4"/><ellipse transform="rotate(30 36.598 5.714)" cx="36.598" cy="5.714" rx="3" ry="4"/></g><g fill="#5392FF"><path d="M12.156 92.728l-3.464 2-2.195 1.267a.863.863 0 0 1-1.297-.747v-.345c0-.715.384-1.371 1.003-1.729l1.194-.689 3.464-2 2.718-1.57a.86.86 0 0 1 1.291.748v.343a2.004 2.004 0 0 1-.998 1.73l-1.716.992zM28.156 83.528l-3.464 2-2.195 1.267a.863.863 0 0 1-1.297-.747v-.345c0-.715.384-1.371 1.003-1.729l1.194-.689 3.464-2 2.718-1.57a.86.86 0 0 1 1.291.748v.343a2.004 2.004 0 0 1-.998 1.73l-1.716.992zM44.156 74.266l-3.464 2-2.195 1.267a.863.863 0 0 1-1.297-.747v-.345c0-.715.384-1.371 1.003-1.728l1.194-.69 3.464-2 2.718-1.57a.86.86 0 0 1 1.291.748v.343a2.004 2.004 0 0 1-.998 1.731l-1.716.991z"/></g></g></g><path d="M433 688a9.556 9.556 0 0 1 6 8.87V841a3 3 0 0 1-6 0V688z" fill="#76A8FF"/><path d="M439 697.389l-146.68-85.282a3.47 3.47 0 0 1 5.2-3.007l138.474 80.45a6 6 0 0 1 3.006 5.199v2.64z" fill="#76A8FF"/></g><g><path d="M175.9 474.484c-1.182-1.855-1.9-4.302-1.9-6.984 0-5.799 3.358-10.5 7.5-10.5 3.535 0 6.499 3.424 7.292 8.033A.685.685 0 0 1 189 465c.552 0 1 .672 1 1.5s-.448 1.5-1 1.5h-.008c-.166 4.941-2.77 8.99-6.167 9.837L183 480h-8l.597-5.527.303.011z" fill="#B2C6E8"/><path d="M179 542l2.57 51.84c1.312.597 2.268.871 2.868.824.6-.047 1.425-.46 2.474-1.238l1.446-43.922L179 542zM167 543l1.613 41.685h5.399l1.585-36.218z" fill="#00DDBD"/><path fill="#B2C6E8" d="M163.467 527.547l.55 4.173 2.48 1.66v-5.833z"/><path fill="#00DDBD" d="M160.876 530.645L174 522.837v13.582l-13.124 7.869z"/><path d="M165.838 481c-2.187 7.952-3.435 14.908-3.743 20.868-.309 5.96.136 14.509 1.335 25.644h4.52l2.408-43.664-4.52-2.848z" fill="#2C5DB2"/><path d="M165.65 480.655c-.866 2.196-.866 23.799 0 64.81 3.962 3.84 7.616 6.02 10.962 6.54 3.345.52 8.417-.302 15.214-2.467-.068-18.475-.392-31.97-.974-40.486-.872-12.774.904-22.376 0-24.127-.602-1.168-2.955-3.174-7.058-6.02-1.952.43-3.637.43-5.056 0-2.129-.647-4.005-2.905-5.668-2.905-1.663 0-6.122 1.363-7.42 4.655z" fill="#356ED0"/><path d="M200.238 512.308c-.317 1.44-.317 2.352 0 2.738.317.386 1.398.688 3.244.906.598 1.426 1.362 2.14 2.292 2.14.929 0 1.84-.714 2.735-2.14 1.5.85 2.506 1.274 3.018 1.274.769 0 1.079-.182.39-1.274-.687-1.092-2.42-2.645-2.948-3.122-.528-.477-1.016-.83-1.43-.83-.275 0-2.709.103-7.301.308z" fill="#B2C6E8"/><path d="M190.306 484.713c-3.14-2.998-8.909 4.094-9.859 9.421-1.085 6.09-2.218 14.06-.74 17.403.984 2.229 8.223 4 21.717 5.313v-5.313c-9.836-1.82-14.998-3.098-15.486-3.835-.732-1.105 7.51-19.991 4.368-22.989z" fill="#2C5DB2"/><path d="M186.988 589.445h2.901c1.664-1.345 2.823-1.751 3.476-1.218.98.8.308 3.216-.672 4.437-.98 1.222-7.084 5.275-8.497 5.83-1.413.555-3.196-.51-3.196-1.239 0-.486.116-2.202.348-5.147 1.899.81 3.329.996 4.29.556.963-.44 1.412-1.513 1.35-3.22zM173.988 582.445h2.901c1.67-.533 2.83-.533 3.484 0 .98.799.3 1.998-.68 3.22-.98 1.22-7.084 5.274-8.497 5.829-1.413.555-3.196-.51-3.196-1.239 0-.486.174-2.452.523-5.899 1.293.22 2.493.33 3.601.33s1.729-.748 1.864-2.241z" fill="#356ED0"/><path d="M187.474 467.067c.269-.888-.95-1.049-1.033-1.668-.25-1.866.343-3.51.274-4.145-.138-1.269-.911-.566-.911-2.337 0-.637 2.373.867 1.897-1.567-.477-2.434-5.25-3.211-10.9-1.21-9.021 3.196-5.3 13.144-3.439 16.535 1.24 2.261 2.97 3.534 5.19 3.82 1.56.971 3.225.459 4.995-1.536 2.654-2.992 3.658-7.005 3.927-7.892z" fill="#2C5DB2"/></g><g><g opacity=".488" stroke="#FC835C" stroke-linecap="round" stroke-width="2"><path d="M742 474l-102 58M742 474V367M768 381l-26-14"/></g><path fill="#F2F5FA" d="M928.171 531.701l-170.99-98.718v-135.07l170.99 98.692z"/><path fill="#E1E8F5" d="M928.171 531.701V396.605l3.849-2.217v135.11z"/><path fill="#F5F9FF" d="M928.171 396.603l-170.99-98.69 3.849-2.211 170.99 98.686z"/><g><path d="M888.483 432.678a.861.861 0 0 1 1.291-.748l22.965 13.26a1.996 1.996 0 0 1 1.003 1.728v.344a.863.863 0 0 1-1.297.747l-22.964-13.257a2.004 2.004 0 0 1-.997-1.731v-.343zM860.985 424.073l-6.913-3.991a2.004 2.004 0 0 1-.997-1.731v-.343a.861.861 0 0 1 1.29-.747l7.915 4.57 1.194.688a1.996 1.996 0 0 1 1.003 1.729v.345a.863.863 0 0 1-1.297.747l-2.195-1.267z" fill="#76A8FF"/><path d="M910.349 452.573l-8.645-4.991a2.004 2.004 0 0 1-.998-1.731v-.343a.861.861 0 0 1 1.29-.747l9.648 5.57 1.194.688a1.996 1.996 0 0 1 1.002 1.729v.345a.863.863 0 0 1-1.297.747l-2.194-1.267z" fill="#FC835C"/><path d="M910.447 458.403l-12.975-7.49a2.004 2.004 0 0 1-.998-1.732v-.343a.861.861 0 0 1 1.29-.747l13.978 8.07 1.194.689a1.996 1.996 0 0 1 1.002 1.728v.345a.863.863 0 0 1-1.297.747l-2.194-1.267zM880.598 441.17l-26.428-15.258a2.004 2.004 0 0 1-.997-1.731v-.343a.861.861 0 0 1 1.29-.747l2.72 1.57 22.516 13 1.194.689a1.996 1.996 0 0 1 1.002 1.728v.345a.863.863 0 0 1-1.297.747z" fill="#00DDBD"/><path d="M895.626 444.073l-1.717-.991a2.004 2.004 0 0 1-.997-1.731v-.343a.861.861 0 0 1 1.29-.747l2.72 1.57 1.193.688a1.996 1.996 0 0 1 1.003 1.729v.345a.863.863 0 0 1-1.297.747l-2.195-1.267z" fill="#76A8FF"/><path d="M887.832 439.573l-20.77-11.991a2.004 2.004 0 0 1-.997-1.731v-.343a.861.861 0 0 1 1.29-.747l21.772 12.57 1.194.688a1.996 1.996 0 0 1 1.002 1.729v.345a.863.863 0 0 1-1.297.747l-2.194-1.267zM870.413 423.743l-16.439-9.491a2.004 2.004 0 0 1-.997-1.731v-.343a.861.861 0 0 1 1.29-.748l17.441 10.07 1.194.69a1.996 1.996 0 0 1 1.003 1.728v.344a.863.863 0 0 1-1.297.747l-2.195-1.266z" fill="#FC835C"/><path d="M888.028 451.233l-11.243-6.49a2.004 2.004 0 0 1-.997-1.732l-.001-.343a.861.861 0 0 1 1.291-.747l12.245 7.07 1.194.689a1.996 1.996 0 0 1 1.003 1.728v.345a.863.863 0 0 1-1.297.747l-2.195-1.267zM910.545 464.233l-16.44-9.49a2.004 2.004 0 0 1-.997-1.732v-.343a.861.861 0 0 1 1.29-.747l17.442 10.07 1.194.689a1.996 1.996 0 0 1 1.002 1.728v.345a.863.863 0 0 1-1.297.747l-2.194-1.267zM876.868 450.564l-22.501-12.992a2.004 2.004 0 0 1-.998-1.731v-.343a.861.861 0 0 1 1.29-.747l23.504 13.57 1.194.689a1.996 1.996 0 0 1 1.002 1.728v.345a.863.863 0 0 1-1.297.747l-2.194-1.266z" fill="#76A8FF"/><path d="M910.643 470.064l-1.717-.992a2.004 2.004 0 0 1-.997-1.731l-.001-.343a.861.861 0 0 1 1.291-.747l2.719 1.57 1.194.689a1.996 1.996 0 0 1 1.002 1.728v.345a.863.863 0 0 1-1.297.747l-2.194-1.266z" fill="#00DDBD"/><path d="M910.74 475.894l-12.974-7.491a2.004 2.004 0 0 1-.998-1.732v-.343a.861.861 0 0 1 1.291-.747l13.977 8.07 1.194.689a1.996 1.996 0 0 1 1.002 1.728v.345a.863.863 0 0 1-1.297.747l-2.194-1.266z" fill="#FC835C"/><path d="M891.688 464.894l-22.5-12.991a2.004 2.004 0 0 1-.998-1.732l-.001-.343a.861.861 0 0 1 1.291-.747l23.503 13.57 1.194.689a1.996 1.996 0 0 1 1.003 1.728v.345a.863.863 0 0 1-1.297.747l-2.195-1.266z" fill="#76A8FF"/><path d="M862.243 447.894l-7.778-4.491a2.004 2.004 0 0 1-.998-1.732v-.343a.861.861 0 0 1 1.29-.747l8.781 5.07 1.194.689a1.996 1.996 0 0 1 1.003 1.728v.345a.863.863 0 0 1-1.297.747l-2.195-1.266z" fill="#FC835C"/><path d="M903.278 462.82l1.194.69a1.996 1.996 0 0 1 1.002 1.728v.345a.863.863 0 0 1-1.297.747l-2.194-1.266-7.78-4.492a2.004 2.004 0 0 1-.997-1.731v-.343a.861.861 0 0 1 1.29-.747l8.782 5.07z" fill="#76A8FF"/><path d="M888.126 457.064l-5.18-2.992a2.004 2.004 0 0 1-.998-1.731v-.343a.861.861 0 0 1 1.29-.747l6.183 3.57 1.194.689a1.996 1.996 0 0 1 1.003 1.728v.345a.863.863 0 0 1-1.297.747l-2.195-1.266z" fill="#00DDBD"/><path d="M870.708 441.233l-16.44-9.49a2.004 2.004 0 0 1-.997-1.732v-.343a.861.861 0 0 1 1.29-.747l17.442 10.07 1.194.689a1.996 1.996 0 0 1 1.002 1.728v.345a.863.863 0 0 1-1.297.747l-2.194-1.267z" fill="#FC835C"/></g><g><path d="M837 411.272c-.03 11.55-4.493 21.224-12.863 25.306-13.899 6.78-33.311-4.425-43.359-25.025-10.047-20.6-6.925-42.796 6.974-49.575 8.234-4.015 18.402-1.72 27.412 5.1l-7.693 19.602c-3.323-2.627-6.858-3.603-9.62-2.256-4.964 2.421-5.553 11.426-1.317 20.113 4.237 8.687 11.696 13.766 16.66 11.345 2.777-1.354 4.185-4.77 4.144-9.036L837 411.272z" fill="#76A8FF"/><path d="M796.718 404.908l-15.212 8.09c-.248-.477-.49-.958-.728-1.445-10.047-20.6-6.925-42.796 6.974-49.575 8.234-4.015 18.402-1.72 27.412 5.1l-7.693 19.602c-3.323-2.627-6.858-3.603-9.62-2.256-4.964 2.421-5.553 11.426-1.317 20.113.061.124.122.248.184.37z" fill="#00DDBD"/><path d="M844.83 409.728l-27.795-6.228c-.414-2.48-1.251-5.12-2.525-7.73-1.263-2.59-2.813-4.86-4.497-6.706l10.838-27.484c6.485 5.69 12.332 13.276 16.743 22.299 4.233 8.66 6.608 17.543 7.236 25.849z" fill="#FC835C"/></g></g><g transform="translate(460 599)"><g fill="#76A8FF"><path d="M159.5 69h6v45a3 3 0 0 1-6 0V69zM70 120h6v45a3 3 0 0 1-6 0v-45zM19 91h6v45a3 3 0 0 1-6 0V91z"/></g><path fill="#F5F9FF" d="M165.827 66.172l-6.36 3.672-86.643 50.016L18.83 88.69 111.844 35z"/><path fill="#E1E8F5" d="M165.799 66v6.04L72.83 125.732v-5.872z"/><path fill="#F2F5FA" d="M72.83 125.732v-5.872l-54-31.169v5.869z"/><g opacity=".488" stroke="#FC835C" stroke-linecap="round" stroke-width="2"><path d="M31 62L0 44M30.903 62.013V17M83.903 46l-53-29"/></g><path fill="#00DDBD" d="M50.92 94.88V40.728l68.008-39.56V55.31z"/><path fill="#F2F5FA" d="M50.92 94.88l-1.53-.883V39.84l1.53.889z"/><path fill="#F5F9FF" d="M50.92 40.727l-1.53-.888L117.397.28l1.531.887z"/><path d="M138.464 104.21c-10.356-6.611-16.454-9.23-18.295-7.855-1.842 1.375-1.842 11.167 0 29.377-.684 1.255-.684 1.96 0 2.115.683.156 1.809-.473 3.377-1.885.104-11.851.433-17.777.988-17.777.554 0 3.261 1.436 8.121 4.308l5.81-8.283z" fill="#00DDBD"/><path fill="#F5F9FF" d="M114.831 117.703l27.994 16.161 27.998-16.16-27.998-16.162z"/><path fill="#E1E8F5" d="M142.825 133.864v27.717l28.032-16.186-.034-27.692z"/><path fill="#F2F5FA" d="M142.857 133.864v27.717l-28.032-16.186.034-27.692z"/><ellipse fill="#B2C6E8" transform="rotate(15 133.928 63.342)" cx="133.928" cy="63.342" rx="8.5" ry="10.5"/><path fill="#76A8FF" d="M72 88.655l40.998-23.67 14.995 8.66L86.99 97.32z"/><path d="M125.65 109.468c-10.355-6.612-16.454-9.23-18.295-7.856-1.84 1.375-3.258 11.838-4.25 31.388 1.107 1.374 2.002 2.139 2.686 2.294.683.156 1.722.023 3.118-.4 1.334-13.758 2.256-21.169 2.767-22.234.512-1.064 5.956 1.201 16.334 6.797l-2.36-9.99z" fill="#00DDBD"/><path d="M113.273 78.875l-2.015-.708c-2.319-1.274-3.993-1.818-5.024-1.633-1.546.28-3.893 2.06-3.647 3.006.246.944 4.157.806 4.736 1.39.579.583-3.405.583-1.772 1.597 1.089.676 3.867.4 8.336-.829l-.614-2.823z" fill="#B2C6E8"/><path d="M133.862 75.75c-.285-.916-5.798 1.992-9.716 2.477-2.612.324-6.462.324-11.55 0v4.456c5.404 1.437 10.311 1.437 14.721 0 6.615-2.157 6.83-6.016 6.545-6.932z" fill="#2C5DB2"/><path fill="#D0D0D0" d="M132.655 71.41v3.593l7.632 1.035L138.935 70z"/><path d="M144.856 79.03c-1.47-4.29-3.728-5.03-5.206-4.726-1.1.897-3.432 1.024-6.995.38l-6.237 7.616c2.035 13.292 2.547 21.264 1.535 23.915-1.518 3.978-7.632-.85-8.494.454-.574.869-.574 3.896 0 9.081 4.325 3.813 9.417 5.866 15.277 6.161 8.79.442 12.335-2.38 12.569-7.454.234-5.073-3.071-11.31-2.45-16.574.623-5.263 1.47-14.564 0-18.853z" fill="#356ED0"/><path d="M100.905 90.778c-4.752-4.038-7.367-6.548-7.843-7.532-.715-1.475 1.013-2.455 3.37-2.3 1.177.077 2.238 1.8 3.324 2.815.365.34.5-1.533 1.535-.515.69.68 1.214 2.52 1.572 5.524l-1.958 2.008z" fill="#B2C6E8"/><path d="M128.176 55.559c-1.157 3.288 3.669 7.728 6.169 10.716 2.5 2.99-4.204 1.265-1.948 8.049 2.257 6.784 3.373 6.42 8.668 11.258 1.6 1.462.504 9.18 2.76 9.793 5.207 1.417 5.586-3.834 6.952-7.455.764-2.027 7.276-4.282 4.661-8.514-.787-1.275-1.93-4.81-2.493-7.96-.318-1.783-.647-3.496-2.734-7.071-2.088-3.575-2.639.572-5.081-6.312-2.442-6.884-2.388-6.15-5.006-7.43-4.412-2.16-10.79 1.638-11.948 4.926zM130.803 80.32c-2.743-1.355-3.71 0-5.992 2.314-2.282 2.313-8.381 10.292-9.82 10.936-.96.43-4.827-1.68-11.602-6.328-.774.462-1.36.956-1.757 1.48-.397.524-.873 1.433-1.427 2.725 8.212 6.777 13.14 10.165 14.786 10.165 2.467 0 13.629-11.43 15.812-14.37 2.183-2.94 2.742-5.566 0-6.922z" fill="#2C5DB2"/><path d="M109.058 134.662c-1.437.442-2.496.575-3.177.4-.68-.176-1.578-.815-2.694-1.916-4.227.296-6.86.682-7.895 1.159-1.555.714-.78 2.159 0 2.47.519.208 4.238 1.385 11.157 3.531 1.55.396 2.557.167 3.022-.687.465-.853.327-2.506-.413-4.957z" fill="#356ED0"/></g><g><path d="M834.211 563.103l3.092-1.71-.629-3.624c-2.914-1.926-4.43-3.849-4.546-5.769-.116-1.92.948-4.912 3.193-8.976l10.398 1.98-.41 11.01-2.532 1.98 2.173 3.398c-.243 1.997-.967 3.091-2.173 3.284-1.205.192-4.06-.332-8.566-1.573z" fill="#B2C6E8"/><path d="M839.154 587.77c1.47 16.72 2.479 28.745 3.024 36.078.545 7.332 3.325 17.614 8.339 30.844h3.605c-1.994-16.121-3.13-25.005-3.406-26.652-.414-2.47.358-19.258.985-20.626.627-1.367 1.223-6.03 1.052-10.593-.115-3.041-1.575-6.266-4.38-9.674l-9.22.622z" fill="#01D6B7"/><path d="M849.656 653.316c1.086.613 1.955.92 2.605.92.976 0 2.039-1.223 2.039-.43 0 .793 1.735 7.109-.178 8.266s-4.824-3.498-6.746-4.237c-1.923-.74-2.106-3.202-1.732-4.029.25-.551 1.3-.551 3.15 0l.862-.49z" fill="#356ED0"/><path d="M853.158 562.312c4.44 10.525 5.95 16.238 4.531 17.136-1.419.898-6.007.898-13.765 0 3.115-2.555 5.762-3.933 7.94-4.135 1.147-.107-4.982-8.552-4.737-10.637.15-1.28 2.16-2.067 6.031-2.364z" fill="#B2C6E8"/><path d="M832.12 588.923c-2.511 4.392-3.494 10.253-2.95 17.586.546 7.332 4.602 26.086 12.169 56.26.936.482 1.638.697 2.105.645.467-.052 1.044-.41 1.73-1.074-2.85-20.162-4.413-31.066-4.69-32.713-.414-2.47 1.666-19.672 2.293-21.04.627-1.367 3.113-6.05 2.942-10.612-.114-3.042-1.304-6.059-3.569-9.052h-10.03z" fill="#00DDBD"/><path d="M832.276 563.38c-2.095 1.245-3.566 2.415-4.41 3.508-.845 1.094-1.325 3.06-1.44 5.899 1.589 1.63 2.914 2.471 3.977 2.526.15.008.722.008 1.717 0l-.983 13.61c1.592 1.922 4.638 2.69 9.138 2.308 4.5-.383 7.34-1.52 8.52-3.413.207-5.192.517-9.054.93-11.587.413-2.533 1.296-5.988 2.649-10.364l1.748-1.191c0-3.185-.846-5.179-2.537-5.984-1.692-.804-4.303-.804-7.832 0 .223 1.588-.581 2.794-2.414 3.62-1.521.685-4.14.386-6.559.312-.33-.01-1.165.242-2.504.756z" fill="#356ED0"/><path d="M836.44 537.917c-2.522 1.666-3.15 4.329-2.557 7.086.593 2.758 4.121 2.888 5.15 4.54 1.29 2.075 1.724 7.002 2.649 7.714 2.492 1.92 5.153.242 6.09-.716.938-.957 1.508-.715 2.092-1.95.584-1.235-.25-1.65 0-1.82 1.921-1.288 5.923-2.133 4.959-7.694-.727-4.191-3.494-5.806-8.302-4.846-.808-.611-1.425-.98-1.852-1.105-.426-.126-1.057-.126-1.892 0-2.544-1.917-4.656-2.32-6.337-1.21z" fill="#2C5DB2"/><path d="M826.669 572.62c.034 8.561-.157 13.61-.573 15.15-.625 2.307-5.572 11.985-5.239 13.524.333 1.539 1.187 7.342 3.378 7.293 2.192-.049.587-5.837 1.236-7.785.65-1.947 5.2-10.834 5.805-12.585.403-1.168.804-6.366 1.205-15.597h-5.812z" fill="#B2C6E8"/><path d="M841.339 662.34c.652.286 1.303.43 1.954.43.976 0 2.038-1.224 2.038-.43 0 .793.985 7.73-.432 8.513-1.416.784-9.094-1.515-11.016-2.254-1.923-.74-.739-2.796-.208-3.298.354-.335 2.18-.633 5.479-.894l2.185-2.067z" fill="#356ED0"/></g><g><path d="M698.115 448l-1.92 3.605c-.557 6.263.083 9.395 1.92 9.395 1.765 0 2.727-3.228 2.885-9.683.004-.174-.29-1.076-.883-2.706l-2.002-.611z" fill="#B2C6E8"/><path d="M701.658 518.006l4.744.268c-.326 1.1-.189 1.726.41 1.875.9.225 1.561-.066 2.84-.034 1.28.032 1.453 1.378 1.866 2.238.276.574-.959 1.555-3.703 2.943l-3.723 2.245c-2.852.116-4.302-.502-4.35-1.854-.047-1.353.591-3.913 1.916-7.681zM717.258 524.791c.063.54.886 1.072 2.47 1.595 2.374.784 3.927-.287 5.267.961 1.34 1.249 1.34 3.021 0 3.944s-11.279 2.794-12.23 1.055c-.406-.741-.213-2.239 0-4.285.08-.77.407-2.124.983-4.061l3.51.791z" fill="#356ED0"/><path d="M711.096 475.4l-4.368 44.987c-.786.78-1.886 1.23-3.299 1.348-1.413.12-2.33-.133-2.75-.757L702.5 490.6c-1.826-10.255-2.912-18.122-3.258-23.6-.087-1.38.106-4.767 0-5.978-.209-2.395.27-5.499 1.437-9.31-2.86-2.275-2.86-1.296 0 2.936 2.86 4.233 6.333 11.15 10.417 20.752z" fill="#00DDBD"/><path fill="#B4B4B4" d="M712.228 418.056h-8.638l2.455-9.078 6.183 4.884z"/><path d="M706.46 410.042c-4.645 0-4.519-4.315-4.519-8.628 0-4.314 3.31-7.575 7.956-7.575 4.646 0 7.493 3.656 7.493 7.97 0 .661.364 1.728.939 3.406.145.424 1.223 1.117 1.236 1.583.04 1.417-.727.704-1.09 1.965-.48 1.662-.637 5.44-1.085 5.902-.92.95-4.508 1.567-6.294-.234-1.2-1.21-4.635-1.987-4.635-4.389z" fill="#B2C6E8"/><path d="M700.137 453l22.622 1.805c.122 9.34.122 15.842 0 19.505-.454 13.685-1.338 21.27-1.338 23.026 0 3.692-2.077 27.904-3.837 29.979-1.174 1.383-2.776 1.192-4.807-.572l.97-30.64c-3.189-16.919-5.47-25.852-6.846-26.8-2.063-1.42-4.117-4.017-5.78-6.303-1.109-1.524-1.437-4.857-.984-10z" fill="#00DDBD"/><path d="M700.857 416.44c.857-.736 1.462-.04 1.814 2.09l1.095 34.414c-1.959 1.37-3.421 1.984-4.387 1.84-.965-.143-2.299-.773-4-1.89v-17.635c0-1.894 4.192-17.715 5.478-18.82z" fill="#2C5DB2"/><path d="M724.885 462l1.92 3.328c.557 5.781-.083 8.672-1.92 8.672-1.765 0-2.727-2.98-2.885-8.938-.004-.16.29-.993.883-2.498l2.002-.564z" fill="#B2C6E8"/><path d="M713.012 416.516c1.038.559 1.557 1.388 1.557 2.487l6.19 2.397 2 35.552c-2.717 11.395-6.108 19.129-10.173 23.203-4.065 4.075-8.391 4.075-12.977 0-1.328-37.023-1.328-57.352 0-60.987.68-1.862 1.1-3.47 1.935-3.832.53-.23 1.506-.44 2.93-.628.713 1.55 2.044 2.326 3.994 2.326 2.926 0 2.987-1.355 4.544-.518z" fill="#356ED0"/><path d="M716.794 420.94c.628-.92 1.712-.564 2.434-.45 1.22.192 2.018.983 2.275 3.144.273 2.292.859 9.92 1.758 22.885 2.244 8.516 3.22 14.326 2.931 17.43-.434 4.656-3.91 2.87-4.689 1.417-.78-1.454-3.42-14.655-3.857-17.763-.292-2.072-.683-7.606-1.175-16.601-.912-5.057-.805-8.411.323-10.062zM717.39 397.789c.467 3.242-5.981 3.842-6.539 8.847-.372 3.336 1.068 7.026 4.32 11.07-5.873 1.12-9.93.5-12.171-1.863-3.362-3.544-3.48-8.51-1.789-14.35 1.69-5.838 3.952-6.983 7.789-7.729 3.837-.745 7.924.783 8.39 4.025z" fill="#2C5DB2"/></g><g><path d="M284.302 554.285c-9.84-5.174-20.292.889-20.437 11.8-.146 10.91 10.247 27.645 19.843 32.69 9.597 5.046 19.135-.921 19.284-12.118.15-11.197-8.85-27.199-18.69-32.372z" fill="#FF9E7F" opacity=".496"/><path d="M349.874 8c9.367-4.321 18.346.579 26.936 14.7 7.316 14.2 7.004 24.311-.936 30.333L26 255.033v-59.882L349.874 8z" fill="url(#f)" opacity=".404" transform="translate(-79 546)"/><path d="M108 227.133L435 41" stroke="url(#E)" stroke-width="4" stroke-linecap="round" transform="translate(-183 546)"/><path d="M143 225.133L466 40" stroke="url(#F)" stroke-width="4" stroke-linecap="round" transform="translate(-183 546)"/><path d="M0 288.133L327 102" stroke="url(#E)" stroke-width="4" stroke-linecap="round" transform="translate(-183 546)"/><path d="M78 261.133L405 75" stroke="url(#G)" stroke-width="4" stroke-linecap="round" transform="translate(-183 546)"/></g><g><path fill="#B2C6E8" d="M281.056 683.214l-2.03 6.112 4.625 4.063 7.671-2.228-2.584-7.947z"/><path d="M271.803 789.236l-.732 4.934c-.427 3.252-.427 5.681 0 7.288.641 2.41 1.701 2.542 2.615 2.542.914 0 2.06-.994 2.615-2.498.37-1.002.37-2.535 0-4.596v-4.002l-1.391-4.477-3.107.81zM287.573 781.283c-1.205 2.925-1.623 4.706-1.253 5.345.554.957 7.125 4.877 8.436 5.22 1.312.343 2.207-1.672 2.207-2.438 0-.51-1.774-2.267-5.322-5.27v-3.605l-4.068.748z" fill="#356ED0"/><path d="M274.343 723.088a32.776 32.776 0 0 0-.471 5.527c0 1.846.157 4.035.47 6.565l-1.156 25.072-3.09 30.749c1.3.587 2.33.881 3.09.881.76 0 1.872-.294 3.338-.881l6.136-31.806 3.451-25.591 1.134 23.44-.472 25.556c.583.475 1.226.78 1.931.916.705.135 1.756-.003 3.153-.413l3.495-28.549 1.434-35.153-22.443 3.687z" fill="#00DDBD"/><path d="M298.307 702.909c2.06 6.59 4.014 10.092 5.86 10.504 2.771.618 14.831-5.377 18.661-7.342 3.83-1.965 3.81-4.281 4.288-5.258.319-.651-.204-1.054-1.568-1.207-5.96 3.746-9.643 5.901-11.047 6.465-1.403.564-4.076 1.056-8.018 1.476l-2.466-9.589-5.71 4.51" fill="#B2C6E8"/><path d="M279.665 684.8c-2.517 1.747-5.258.544-9.414 5.872-4.157 5.327-5.37 10.498-7.16 13.258-1.194 1.84.502 2.983 5.087 3.43l5.041-4.321c1.378 3.529 1.75 9.589 1.114 18.18-.595 8.059-8.165 40.483-4.082 47.087 4.082 6.603 23.448 4.532 26.535-1.456 3.087-5.987.45-35.607 0-49.232-.238-7.177-.238-12.61 0-16.3l1.486 2.612c4.432-.514 6.647-1.385 6.647-2.613 0-1.841-3.887-12.04-5.395-14.035-1.508-1.994-3.972-2.506-5.825-3.215-1.236-.472-2.814-.118-4.733 1.062l-1.413 7.37c-3.581-6.297-6.21-8.864-7.888-7.7z" fill="#356ED0"/><path d="M294.338 676.707c.482.384.805 1.088.805 1.893 0 1.115-.62 2.036-1.422 2.18-.859 2.47-2.573 4.37-4.904 5.081-4.476 1.364-9.53-2.18-11.289-7.914-1.759-5.735.443-11.49 4.918-12.853 4.476-1.364 9.53 2.18 11.289 7.914.383 1.248.578 2.496.603 3.7zM267.762 707.313l-2.976 6.193 9.547 10.972c3.096.026 4.906.136 5.43.331.894.333-.912 1.304-.587 1.497.612.362 1.028.956 1.25 1.78-.928 2.914-3.72 2.892-8.377-.064-6.984-4.435-11.504-10.514-12.158-12.974-.436-1.64.616-4.767 3.158-9.38 1.14.675 1.982 1.1 2.522 1.275.541.175 1.272.299 2.19.37z" fill="#B2C6E8"/><path d="M283.38 672.823c3.66-2.548 7.365 2.07 9.634-2.506 2.268-4.577.637-8.15-7.216-8.47-7.854-.32-10.42 3.266-10.42 6.543 0 3.278 1.337 8.362 2.469 10.677.48.985.095-.993.826-2.434.154-.305.474-.601.96-.89.993 1.529 1.888 1.982 2.686 1.36.726-.566.173-1.54 0-2.425-.112-.576-.382-.85 1.062-1.855z" fill="#2C5DB2"/></g></g></svg>