<svg id="Layer_1" xmlns="http://www.w3.org/2000/svg" xmlns:xlink="http://www.w3.org/1999/xlink" viewBox="0 0 1082 760.5" enable-background="new 0 0 1082 760.5"><style>.st0{fill:url(#SVGID_1_)}.st1{opacity:.66}.st2,.st3{fill:#fff}.st3{opacity:.74}.st4{clip-path:url(#SVGID_3_)}.st5{fill:url(#SVGID_4_)}.st6{fill:#1b0d44}.st7{fill:#110a2d}.st8{fill:#00c4eb}.st9{fill:#f54c43}.st10{fill:#ffaa64}.st11{opacity:.27}.st12{fill:none;stroke:#f54c43;stroke-width:.3962;stroke-linecap:round;stroke-miterlimit:10}.st13{fill:url(#SVGID_5_)}.st14{fill:url(#SVGID_6_)}.st15{fill:url(#SVGID_7_)}.st16{fill:url(#SVGID_8_)}.st17{fill:#010f27}.st18{fill:#f2f2f2}.st19{fill:#0d1d3a}.st20{filter:url(#Adobe_OpacityMaskFilter)}.st21,.st22{fill-rule:evenodd;clip-rule:evenodd;fill:url(#SVGID_10_)}.st22{mask:url(#SVGID_9_);fill:#fff}.st23{fill:#ff6464}.st24{fill:#ffe38d}.st25{fill:none;stroke:#fff;stroke-width:.7814;stroke-miterlimit:10}.st26{fill:#9dd6e7}.st27{fill:#3360b4}.st28{fill:#4275b6}.st29{opacity:.75;fill:#0f6fff;enable-background:new}.st30,.st31{fill:none;stroke:#1d2761;stroke-width:1.5624;stroke-miterlimit:10}.st31{fill:#fff;stroke:#002e61;stroke-width:6.0586}.st32{fill:#20d5d2}.st33{clip-path:url(#SVGID_12_)}.st34{clip-path:url(#SVGID_14_);fill:#ff6464}.st35{clip-path:url(#SVGID_16_)}.st36{clip-path:url(#SVGID_18_);fill:#ffa3a3}.st37{clip-path:url(#SVGID_20_)}.st38{clip-path:url(#SVGID_22_);fill:#00132e}.st39{clip-path:url(#SVGID_24_)}.st40{clip-path:url(#SVGID_26_);enable-background:new}.st41{clip-path:url(#SVGID_28_)}.st42{clip-path:url(#SVGID_30_)}.st43{clip-path:url(#SVGID_32_);fill:#2900aa}.st44{fill:#754c24}.st45{fill:#8c6239}</style><linearGradient id="SVGID_1_" gradientUnits="userSpaceOnUse" x1="8.668" y1="380.246" x2="1081.989" y2="380.246"><stop offset="0" stop-color="#ffe38d"/><stop offset=".689" stop-color="#ff6464"/></linearGradient><path class="st0" d="M127.1 155.7C374.4-142.1 903 70 997.6 118.7c27.8 14.3 71.1 37.4 82 80 14.8 57.8-44.9 93.2-66 214-8.5 48.4-.5 52.4-10 86-22.5 80-86.9 125.4-130 156-62.1 44.1-148.5 105.4-214 76-52.9-23.7-48.2-86.7-112-108-35-11.7-66.8-2.9-92 4-87.7 24.2-101.5 82.2-172 114-60.6 27.4-142 25.9-188-2-119.2-72.4-122.4-397.5 31.5-583z"/><path class="st1 st2" d="M80.6 289.8c.6 0 1.4 0 1.9.1 46.6 2.1 94.8 12 140.9 4.6 10.3-1.7 15.9-4.4 25.3-3.9 9.7.5 15.7 4.5 25.2 6.5 14.6 3.1 29.9 2.2 44.6-1.6 1.1-.3 2.4-.7 2.9-1.8.8-1.7-.3-3.5-1.6-4.6-6.1-5.8-14.9-10.7-22.5-13-28.2-8.4-56.8-1.4-84.3-11.8 23.3-9.1 49.5-4.4 73.1 0 5.3 1 10.1 1.9 14.7 1.3 4.6-.7 9.8-3 10.1-7.5 1.2-18.9-68.9-24.5-82.3-24.8-25.8-.5-47.2 1.3-72-1.7 7.7-5.6 14.6-11.5 19.1-19.7 1.3-2.4 2.8-4.2 1.9-6.8-1.9-5.4-5.9-5.9-12.4-6-20.9-.3-40.9-.6-63 2.5-22.1 3.2-46.9 11.3-69.7 14.5-10.4 3.2-22.6 6.2-28.7 15.6C-.3 238-.9 244 1 251.1c4.3 16 14.9 26.4 30.7 32.3 15.4 5.6 32.6 5.6 48.9 6.4z"/><path class="st3" d="M829.8 86.1c-50.2-5.7-102.2 4.4-152.3-3.6 2.9-4.4 12.6-4.6 20.3-5.2s16.9-4.7 13.1-8.8c-2.4-2.6-8.3-2.8-13.1-2.7-15.2.3-30.4.5-45.5.8-4.5.1-9.4.1-13.3-1.3s-6.2-4.8-3.5-7c.8-.7 2-1.1 3.1-1.6 14.4-5.7 28.7-11.5 43.1-17.2 8.8-3.5 18-7.1 28.4-8.2 12.3-1.2 24.7 1.4 35.6 5.1 8.1 2.8 18 6.2 26 3.3 3.4-1.2 5.4-3.4 7.7-5.3 30.8-26.3 99.5-16.9 139.5-4.9 5.3 1.6 11.1 3.9 11.8 7.4 1.1 5.5-9.9 8.5-18.6 10.3-8.7 1.8-18.8 6.7-14.4 11.6 3.5 3.9 12.8 3.4 19.9 2.5 25.6-3.1 52.1-3.8 78.1-2.1 2.9.2 6.2.5 7.8 2 1.9 1.7.9 4-.4 5.9C992.6 82 968.6 92.4 943 97.7c-25.6 5.3-53 6-80 6.7-36.3 1-72.6 1.9-108.9 2.9 5.9 0 26.6-12.1 34-14.2 13.2-3.6 27.4-5.9 41.7-7z"/><defs><path id="SVGID_2_" d="M127.1 155.7C374.4-142.1 903 70 997.6 118.7c27.8 14.3 71.1 37.4 82 80 14.8 57.8-44.9 93.2-66 214-8.5 48.4-.5 52.4-10 86-22.5 80-86.9 125.4-130 156-62.1 44.1-148.5 105.4-214 76-52.9-23.7-48.2-86.7-112-108-35-11.7-66.8-2.9-92 4-87.7 24.2-101.5 82.2-172 114-60.6 27.4-142 25.9-188-2-119.2-72.4-122.4-397.5 31.5-583z"/></defs><clipPath id="SVGID_3_"><use xlink:href="#SVGID_2_" overflow="visible"/></clipPath><g class="st4"><linearGradient id="SVGID_4_" gradientUnits="userSpaceOnUse" x1="576.86" y1="601.626" x2="514.638" y2="-1.588"><stop offset=".246" stop-color="#b23f00"/><stop offset=".267" stop-color="#bf5915"/><stop offset=".3" stop-color="#cf7a31"/><stop offset=".337" stop-color="#de9748"/><stop offset=".378" stop-color="#e9ae5b"/><stop offset=".424" stop-color="#f2c06a"/><stop offset=".48" stop-color="#f8cd74"/><stop offset=".555" stop-color="#fcd47a"/><stop offset=".726" stop-color="#fdd67c"/></linearGradient><path class="st5" d="M1064.3 590.9c4.8-143.2 21.2-286.3 35.3-429-73.7 15.4-153.4 35.5-224.8 59.4s-141.6 51.4-210.6 81.6c-69.3 30.3-137.4 63.2-204.7 97.8-67.5 34.7-134.1 71.1-200.3 108.2-33.1 18.6-66 37.3-98.9 56.2-16.4 9.4-32.8 18.8-49.2 28.3-14.5 8.3-30.6 15.2-43.6 25.7-22.5 18.2-36.8 45.5-42.2 73.7-6.7 35.3-.9 71.9 9.3 106.3 342 .8 684 1.6 1026 2.3.1-70.1 1.4-140.3 3.7-210.5z"/><path class="st6" d="M888.4 374h-28.5V255.9l28.5-15.9z"/><path class="st7" d="M888.4 240h56.9v134h-56.9z"/><path class="st8" d="M936.8 252.6h4.1v4.1h-4.1z"/><circle class="st9" cx="897.5" cy="254.5" r="1.5"/><circle class="st9" cx="902.6" cy="254.5" r="1.5"/><circle class="st9" cx="907.7" cy="254.5" r="1.5"/><circle class="st10" cx="912.8" cy="254.5" r="1.5"/><path class="st8" d="M936.8 260.8h4.1v4.1h-4.1z"/><circle class="st9" cx="897.5" cy="262.6" r="1.5"/><circle class="st9" cx="902.6" cy="262.6" r="1.5"/><circle class="st9" cx="907.7" cy="262.6" r="1.5"/><circle class="st10" cx="912.8" cy="262.6" r="1.5"/><g class="st11"><path class="st12" d="M884.3 248.8l-20.4 11.8M884.3 250.9l-20.4 11.7M884.3 252.9l-20.4 11.8M884.3 254.9l-20.4 11.8M884.3 257l-20.4 11.7M884.3 259l-20.4 11.8M884.3 261l-20.4 11.8M884.3 263l-20.4 11.8M884.3 265.1l-20.4 11.8M884.3 267.1l-20.4 11.8M884.3 269.1l-20.4 11.8M884.3 271.2l-20.4 11.7M884.3 273.2L863.9 285M884.3 275.2L863.9 287M884.3 277.3L863.9 289M884.3 279.3l-20.4 11.8M884.3 281.3l-20.4 11.8M884.3 283.4l-20.4 11.7M884.3 285.4l-20.4 11.8M884.3 287.4l-20.4 11.8M884.3 289.4l-20.4 11.8M884.3 291.5l-20.4 11.8M884.3 293.5l-20.4 11.8M884.3 295.5l-20.4 11.8M884.3 297.6l-20.4 11.7M884.3 299.6l-20.4 11.8M884.3 301.6l-20.4 11.8M884.3 303.7l-20.4 11.7M884.3 305.7l-20.4 11.8M884.3 307.7l-20.4 11.8M884.3 309.8l-20.4 11.7M884.3 311.8l-20.4 11.8M884.3 313.8l-20.4 11.8M884.3 315.8l-20.4 11.8M884.3 317.9l-20.4 11.8M884.3 319.9l-20.4 11.8M884.3 321.9l-20.4 11.8M884.3 324l-20.4 11.7M884.3 326l-20.4 11.8M884.3 328l-20.4 11.8M884.3 330.1l-20.4 11.7M884.3 332.1l-20.4 11.8M884.3 334.1l-20.4 11.8M884.3 336.2l-20.4 11.7M884.3 338.2L863.9 350M884.3 340.2L863.9 352M884.3 342.2L863.9 354M884.3 344.3l-20.4 11.8M884.3 346.3l-20.4 11.8M884.3 348.3l-20.4 11.8M884.3 350.4l-20.4 11.7M884.3 352.4l-20.4 11.8M884.3 354.4l-20.4 11.8M884.3 356.5l-20.4 11.7M884.3 358.5l-20.4 11.8M884.3 360.5l-20.4 11.8"/></g><linearGradient id="SVGID_5_" gradientUnits="userSpaceOnUse" x1="531.741" y1="714.544" x2="670.395" y2="-52.038"><stop offset=".029" stop-color="#b23f00"/><stop offset=".158" stop-color="#b44200"/><stop offset=".251" stop-color="#bc4b00"/><stop offset=".332" stop-color="#c85b00"/><stop offset=".408" stop-color="#da7100"/><stop offset=".478" stop-color="#f08e00"/><stop offset=".501" stop-color="#f99900"/></linearGradient><path class="st13" d="M1062.5 801.8l14.1-403.2s-505-120.3-577.9-91.6C425.8 335.7 29.9 467.6 29.9 467.6v331.8l1032.6 2.4z"/><linearGradient id="SVGID_6_" gradientUnits="userSpaceOnUse" x1="185.973" y1="372.14" x2="797.194" y2="874.883"><stop offset=".172" stop-color="#fdd67c"/><stop offset=".278" stop-color="#fcd988"/><stop offset=".468" stop-color="#fae3a7"/><stop offset=".598" stop-color="#f9eac0"/><stop offset=".669" stop-color="#fae5ae"/><stop offset=".799" stop-color="#fcdd93"/><stop offset=".913" stop-color="#fdd882"/><stop offset="1" stop-color="#fdd67c"/></linearGradient><path class="st14" d="M6.7 467.7l400.7-128s31.8-9.5 111.2 25.4c79.5 35 553.3 141 553.3 141l-11.5 327.6H24.4l-17.7-366z"/><linearGradient id="SVGID_7_" gradientUnits="userSpaceOnUse" x1="-71.917" y1="403.364" x2="297.293" y2="501.872"><stop offset=".029" stop-color="#b23f00"/><stop offset=".07" stop-color="#c55700"/><stop offset=".124" stop-color="#d86f00"/><stop offset=".185" stop-color="#e78200"/><stop offset=".257" stop-color="#f18f00"/><stop offset=".349" stop-color="#f79700"/><stop offset=".535" stop-color="#f99900"/><stop offset=".688" stop-color="#f79700"/><stop offset=".776" stop-color="#f18e00"/><stop offset=".847" stop-color="#e68000"/><stop offset=".909" stop-color="#d66d00"/><stop offset=".965" stop-color="#c25300"/><stop offset="1" stop-color="#b23f00"/></linearGradient><path class="st15" d="M-22.3 477.7s305.1-109.4 403.5-128.6c18.8-3.6 29-1.2 29.3 2.9 1.6 25.4-81 71.5-81 71.5L-16.4 600.7l-5.9-123z"/><linearGradient id="SVGID_8_" gradientUnits="userSpaceOnUse" x1="192.744" y1="467.609" x2="526.166" y2="840.322"><stop offset=".029" stop-color="#b23f00"/><stop offset=".07" stop-color="#c55700"/><stop offset=".124" stop-color="#d86f00"/><stop offset=".185" stop-color="#e78200"/><stop offset=".257" stop-color="#f18f00"/><stop offset=".349" stop-color="#f79700"/><stop offset=".535" stop-color="#f99900"/><stop offset=".688" stop-color="#f79700"/><stop offset=".776" stop-color="#f18e00"/><stop offset=".847" stop-color="#e68000"/><stop offset=".909" stop-color="#d66d00"/><stop offset=".965" stop-color="#c25300"/><stop offset="1" stop-color="#b23f00"/></linearGradient><path class="st16" d="M-9 843.5c125 4.7 251.6 8.8 373.7-18.1 88.2-19.4 171.9-54.6 256.5-86 53.5-19.8 109.7-39.5 149.3-80.6 27.2-28.2 45-70.8 29.9-107-15.7-37.4-58.9-53.8-98-64.6-112.6-31.1-229.3-48.8-346.1-47.2-13.7.2-31.4-1.2-33.5-14.7-37.1 19-74.4 36.5-111.5 55.4s-74.1 38-111.2 56.9c-18.5 9.5-37.1 19-55.6 28.5-18.4 9.4-37.7 18.1-55.6 28.5-9.2 5.4-15.4 10.7-18.3 21.5-2.9 10.5-2.5 21.7-1.4 32.4 7.3 65 14.5 130 21.8 195z"/></g><path class="st17" d="M834.7 692c.9 2.4-2 5.9-4.1 8.5-8.9 11.2-18.6 21.9-30.2 30.2-11.6 8.3-25.2 14.3-39.5 15-22.4 1.2-43.5-10-65.7-12.7 3.8-8.9 8.4-17.4 13.6-25.5 5.3-8.2 11.4-16.2 19.8-21.1 12.9-7.6 28.8-7 43.8-5.9 19.9 1.5 39.8 3.6 59 9.1 2 .6 3 1.5 3.3 2.4z"/><path class="st18" d="M698 732.1l15.7-5.7 15.7-5.5c10.5-3.6 21.1-7.1 31.7-10.5 10.6-3.3 21.2-6.6 32-9.3 5.4-1.4 10.9-2.3 16.4-3.2l16.5-2.6-16.4 3c-5.5.9-10.9 1.9-16.3 3.4-10.7 2.8-21.4 6.1-32 9.5-10.6 3.3-21.2 6.8-31.7 10.3L698 732.1zM784.3 688.8c-.8 1-1.7 2-2.6 3l-2.6 2.9c-.9 1-1.7 1.9-2.6 2.9-.8 1-1.6 2-2.4 3.1.5-1.2 1.2-2.4 1.9-3.4.7-1.1 1.6-2.1 2.4-3.1.9-1 1.8-1.9 2.7-2.8 1.1-1 2.1-1.9 3.2-2.6zM803.5 717.5c-2 0-4.1-.2-6.1-.5-2-.2-4-.6-6-1s-4-.9-5.9-1.5c-1.9-.6-3.9-1.4-5.6-2.5.5.2.9.4 1.4.6l1.4.5c1 .3 1.9.6 2.9.8 2 .5 3.9 1 5.9 1.3l6 1.2 6 1.1zM786.4 732c-2.7-.8-5.3-1.7-7.9-2.6-2.6-.9-5.2-2-7.7-3-2.5-1.1-5.1-2.2-7.6-3.4-2.5-1.2-5-2.5-7.3-3.9 2.5 1.2 5 2.3 7.6 3.4 2.5 1.1 5.1 2.2 7.6 3.2 2.5 1.1 5.1 2.1 7.7 3.2 2.5 1 5.1 2.1 7.6 3.1zM760.6 685.1l-3.8 4.8c-1.3 1.6-2.5 3.2-3.7 4.8-1.2 1.6-2.4 3.3-3.5 5l-.8 1.3-.7 1.3c-.2.5-.4.9-.6 1.4-.2.5-.3 1-.5 1.5.2-2.1 1.1-4 2.1-5.8 1-1.8 2.1-3.5 3.4-5.2 1.2-1.6 2.5-3.2 3.9-4.7 1.3-1.6 2.7-3.1 4.2-4.4zM759.9 738.7c-2.5-.5-4.9-1.2-7.3-1.9-2.4-.7-4.8-1.6-7.2-2.4-2.3-.9-4.7-1.9-6.9-3.1-1.1-.6-2.2-1.2-3.3-2-1-.8-2-1.6-2.7-2.7.8 1 1.8 1.7 2.9 2.4 1.1.7 2.2 1.2 3.3 1.7 2.3 1.1 4.6 2 6.9 2.9 2.3.9 4.7 1.7 7.1 2.6l7.2 2.5zM736.9 695.1c-1 1.6-2 3.2-3 4.9-.9 1.6-1.9 3.3-2.7 5-.9 1.7-1.7 3.4-2.3 5.2-.2.4-.3.9-.5 1.3-.1.5-.3.9-.4 1.4-.1.5-.2.9-.3 1.4-.1.5-.1.9-.2 1.4-.2-1.9.2-3.9.8-5.7.5-1.9 1.3-3.6 2.2-5.3.9-1.7 1.8-3.4 2.9-5 1.1-1.6 2.2-3.2 3.5-4.6z"/><path class="st17" d="M687.9 735.9c-.5-.4-1-.9-1.4-1.3-4.6-4.7-6.8-11.4-6.9-18-.3-13.5 6.1-26.8 13.1-38 .2-.4.5-.8.9-.9.8-.3 1.6.5 2.1 1.2 3.3 4.9 4.3 11.7 9.1 15.1-.1-3.8-1.5-7.4-2.4-11.1-.9-3.7-1.1-7.9 1-11.1 1.3-2 3.3-3.4 5.3-4.7 5.7-3.7 11.8-7.6 14.6-13.7.5-1.1 1.2-3.6 2.5-4.1 2.2-.9 2.5 4.8 3.1 6.5.3 1 3.3 6.9 2.9 7.6 3.1-5.7-.4-13.1 2-19.1 1.8-4.6 6.6-7.2 10.6-10.1 6.7-4.9 12.1-11.5 15.6-19.1 3.7 3.6 4.1 9.4 3.9 14.5-.2 8.2-1.1 16.5-2.6 24.6-.8 4.4-2 9.1-5.4 12-.7.6-1.5 1.1-2 2s-.5 2 .3 2.5c.5.3 1.2.3 1.8.1 3.4-.9 5.7-4.1 7.6-7.1 3.7 11 1.9 23.6-4.8 33.1-.6.8-1.2 1.7-2.1 2.2-.9.6-2 .9-3 1.1-5.4 1.3-10.7 2.5-16.1 3.8 4.8-.2 9.7-.4 14.5-.6.6 0 1.2 0 1.8.2 1.6.7 1.5 3 1 4.7-3.2 10.7-10.2 20.2-19.5 26.3-9.3 6.1-20.8 8.8-31.9 7.4-5.7-.6-11.3-2.5-15.6-6z"/><path class="st2" d="M695.8 737.9c2.8-3.8 5.5-7.5 8.2-11.3 2.7-3.8 5.5-7.6 8.1-11.4 5.4-7.6 10.7-15.3 15.8-23.1 5.1-7.8 10.1-15.7 14.7-23.8 2.3-4 4.5-8.2 6.4-12.4 2-4.2 3.7-8.5 4.8-13.1-.8 4.6-2.5 9-4.3 13.3-1.9 4.3-4 8.5-6.2 12.6-4.5 8.2-9.4 16.1-14.5 23.9-5.2 7.8-10.5 15.4-16 23s-11.1 15.1-17 22.3z"/><path class="st17" d="M963.4 309.4c-8.3-.5-6.8 11.8-9.6 15-2.8 3.3-6.3-9.9-9.5-5.7s2 17.2 1.3 17.9c-2.3 2.3-9.5-5.7-10.8-.5-1.2 5.2 13.4 15.6 8 16.6-5.3.9-6.6-6.6-9.4-3.4-2.8 3.3-.3 16 7.3 20.8 7.5 4.8 21.8 5.8 26.5 1.1 4.7-4.7 10.3-11.3 5.4-11.3s-10.3-1.5-8-3.8c2.1-2.1 17.2-10.3 10.7-12.2-6.4-1.9-8.7 2.8-9.8-.1-1.1-2.8 12.3-10.3 11.2-13.2-1.1-2.8-4.4-1-10.3-1.5-6.1-.4 5.3-19.2-3-19.7z"/><path class="st18" d="M949.9 370.4c.9-6.7 2-13.4 3.2-20.1.9-5.1 2-10.3 3.3-15.3 1.3-5 3.4-9.5 5-14.3.4-1.1 2.4-5.9.9-7.1-.1-.1-.7.5-.8.4 1.1.9-.1 4.2-.3 5.2-1.4 4.9-3.7 9.5-5.1 14.4-2.7 9.7-4.3 19.7-5.9 29.6-.4 2.5-.8 5.1-1.1 7.6.1-.2.8-.2.8-.4z"/><path class="st17" d="M547.7 562.6c-18.3 14.8 8.2 37.5 8.6 49.6s-32-8.7-30.7 6.3c1.3 15 36.9 31.9 36.7 34.9-.4 9.3-30.7 6.3-23.4 19.4s57.6 7 48.2 19.1c-9.4 12.1-26.4-1.2-26 11s29.9 33.9 54.6 29.4 56.3-29.4 57.1-48.1c.8-18.7-.1-43-10.3-33.7-10.2 9.3-24.3 16.6-23.9 7.3.4-8.4 16.1-54.1-.9-45.8s-12.8 22.3-20.5 18.5 5.9-44.8-1.8-48.6-11.1 6.4-24.3 16.6c-13 10.2-25-50.7-43.4-35.9z"/><path class="st18" d="M636.5 715.6c-10.8-15.5-21.2-31.3-31.2-47.3-7.9-12.7-15.7-25.5-22.7-38.7-2.9-5.5-5.7-11.1-8.2-16.9-3.1-7.3-5.4-14.9-8.6-22.2-2.2-5.1-4.7-10.7-8.6-14.7-.7-.7-1.9-2.1-3-2-.8.1-1.4 1.2-2.2 1.2.9-.1 1.9.9 2.4 1.4 3 2.7 5 6.6 6.8 10.2 3.9 7.7 6.5 15.8 9.6 23.8 2.1 5.4 4.6 10.7 7.3 15.8 12.9 25.3 28.6 49.4 44.3 73 3.9 5.9 7.9 11.8 11.9 17.6.1.1 2.1-1.3 2.2-1.2z"/><path class="st17" d="M597.3 627.3c1.9-2.2 6.8-1 10.4-.3 15.5 3.1 30.9 7.3 44.9 14.5s26.7 17.7 34.7 31.3c12.4 21.4 12 47.8 20.6 71-10.6.7-21.3.5-31.9-.5-10.7-1.1-21.7-3.1-30.8-8.9-14-8.8-21.4-24.8-27.8-40.1-8.5-20.3-16.5-41-20.7-62.6-.5-2.1-.2-3.5.6-4.4z"/><path class="st18" d="M705.5 741.7L692 729.1l-13.3-12.7c-8.8-8.5-17.6-17.2-26.2-25.9-8.6-8.8-17.2-17.6-25.3-26.8-4.1-4.6-7.8-9.6-11.4-14.5l-10.8-15 11.2 14.7c3.7 4.9 7.4 9.8 11.5 14.3 8.2 9.2 16.8 17.9 25.4 26.7 8.6 8.8 17.4 17.4 26.1 26l26.3 25.8zM619.5 678.6c2.8.6 5.6 1.4 8.4 2.1 1.4.4 2.8.7 4.2 1 1.4.3 2.8.6 4.2.8-2.9.2-5.8-.3-8.6-1-2.9-.7-5.6-1.6-8.2-2.9zM638.1 645.3c1 2 1.8 4.1 2.6 6.2.8 2.1 1.5 4.2 2.1 6.4.6 2.2 1.1 4.4 1.5 6.6.3 2.2.6 4.5.4 6.7-.1-.6-.1-1.1-.2-1.7l-.2-1.7-.6-3.3c-.5-2.2-1-4.3-1.6-6.5-.6-2.2-1.2-4.3-1.9-6.4l-2.1-6.3zM661 654.8c.6 3 1 6 1.4 9.1.4 3 .7 6.1 1 9.1.2 3.1.4 6.1.5 9.2.1 3.1 0 6.1-.2 9.2-.1-3.1-.3-6.1-.5-9.1s-.4-6.1-.7-9.1c-.2-3-.5-6.1-.8-9.1-.2-3.2-.5-6.3-.7-9.3zM627.7 703.7l6.6 1.4c2.2.4 4.4.9 6.6 1.2 2.2.4 4.4.7 6.7.9l1.7.1h1.7c.6 0 1.1-.1 1.7-.1.6-.1 1.1-.2 1.7-.3-2.1.9-4.5.9-6.7.9-2.3-.1-4.5-.3-6.8-.7-2.2-.4-4.4-.9-6.6-1.5-2.3-.4-4.5-1.1-6.6-1.9zM680.9 677.5c.7 2.7 1.3 5.4 1.8 8.2.5 2.7.9 5.5 1.2 8.3.3 2.8.5 5.6.4 8.4 0 1.4-.1 2.8-.3 4.2-.2 1.4-.5 2.8-1.3 4 .6-1.3.8-2.6.9-4 .1-1.4.1-2.8.1-4.1-.1-2.8-.3-5.5-.6-8.3-.3-2.8-.7-5.5-1-8.3l-1.2-8.4zM649.5 722.1c1.1.1 2.1.2 3.2.2 1 .1 2.1.2 3.1.2 2.1.1 4.2.2 6.3.2 2.1 0 4.2-.1 6.3-.3.5 0 1-.1 1.5-.2l1.5-.3c.5-.1 1-.2 1.5-.4s1-.4 1.5-.5c-1.8 1.1-3.9 1.7-6 2.1-2.1.4-4.2.5-6.4.6-2.1 0-4.2-.1-6.3-.4-2.1-.4-4.1-.7-6.2-1.2z"/><path class="st19" d="M637.8 402.2l-40.3-21.6-40.4 21.6 40.4 21.6z"/><path class="st19" d="M637.8 402.2V440l-40.3 21.7v-37.9z"/><path class="st6" d="M557.1 402.2V440l40.4 21.7v-37.9z"/><defs><filter id="Adobe_OpacityMaskFilter" filterUnits="userSpaceOnUse" x="532.5" y="310.8" width="129.6" height="107.9"><feColorMatrix values="1 0 0 0 0 0 1 0 0 0 0 0 1 0 0 0 0 0 1 0"/></filter></defs><mask maskUnits="userSpaceOnUse" x="532.5" y="310.8" width="129.6" height="107.9" id="SVGID_9_"><g class="st20"><linearGradient id="SVGID_10_" gradientUnits="userSpaceOnUse" x1="597.847" y1="310.862" x2="597.847" y2="418.421"><stop offset=".26"/><stop offset="1" stop-color="#fff" stop-opacity=".2"/></linearGradient><path class="st21" d="M519.8 310.9h156.1v107.6H519.8z"/></g></mask><path class="st22" d="M567.5 402.5l30.2 16.2 30.3-16.2 34.1-91.7H532.5z"/><g><path class="st23" d="M597.3 345.3l-4.1-7.1h8.2l4 7.1z"/><path class="st23" d="M597.3 345.3l-4.1 7.1-4.1-7.1 4.1-7.1 4.1 7.1z"/><path class="st10" d="M593.2 352.4l4.1-7.1h8.1l-4 7.1z"/><path class="st23" d="M609.6 352.3l4.1-7.1 4 7.1-4 7.1z"/><path class="st23" d="M609.6 352.3h-8.2l4.1-7.1h8.2l-4.1 7.1z"/><path class="st10" d="M601.4 352.3h8.2l4.1 7.1h-8.2z"/><path class="st23" d="M609.6 366.5h8.2l-4.1 7.1h-8.2zM609.6 366.5l-4.1-7.1h8.2l4.1 7.1h-8.2z"/><path class="st10" d="M605.5 359.4l4.1 7.1-4.1 7.1-4.1-7.1z"/><g><path class="st23" d="M597.4 373.6l4.1 7.1h-8.2l-4.1-7.1z"/><path class="st23" d="M597.4 373.6l4.1-7.1 4 7.1-4 7.1-4.1-7.1z"/><path class="st10" d="M601.5 366.5l-4.1 7.1h-8.2l4.1-7.1z"/></g><g><path class="st23" d="M585.1 366.6l-4.1 7.1-4.1-7.1 4.1-7.1z"/><path class="st23" d="M585.1 366.6h8.1l-4 7.1H581l4.1-7.1z"/><path class="st10" d="M593.2 366.6h-8.1l-4.1-7.1h8.2z"/></g><g><path class="st23" d="M585 352.4h-8.2l4.1-7.1h8.2zM585 352.4l4.1 7.1h-8.2l-4.1-7.1h8.2z"/><path class="st10" d="M589.1 359.5l-4.1-7.1 4.1-7.1 4.1 7.1z"/></g><path class="st24" d="M601.5 352.4h-8.3l-4.1 7.1 4.1 7.2h8.3l4.2-7.2z"/></g><path class="st18" d="M633.6 198.5c-1.5 0-2.8-1.2-2.8-2.8v-3.2c0-1.5 1.2-2.8 2.8-2.8 1.5 0 2.8 1.2 2.8 2.8v3.2c0 1.6-1.3 2.8-2.8 2.8zM623.6 198.5c-1.5 0-2.8-1.2-2.8-2.8v-3.2c0-1.5 1.2-2.8 2.8-2.8 1.5 0 2.8 1.2 2.8 2.8v3.2c-.1 1.6-1.3 2.8-2.8 2.8zM613.5 198.5c-1.5 0-2.8-1.2-2.8-2.8v-3.2c0-1.5 1.2-2.8 2.8-2.8 1.5 0 2.8 1.2 2.8 2.8v3.2c0 1.6-1.3 2.8-2.8 2.8zM603.5 198.5c-1.5 0-2.8-1.2-2.8-2.8v-3.2c0-1.5 1.2-2.8 2.8-2.8 1.5 0 2.8 1.2 2.8 2.8v3.2c-.1 1.6-1.3 2.8-2.8 2.8zM593.4 198.5c-1.5 0-2.8-1.2-2.8-2.8v-3.2c0-1.5 1.2-2.8 2.8-2.8 1.5 0 2.8 1.2 2.8 2.8v3.2c0 1.6-1.2 2.8-2.8 2.8zM583.4 198.5c-1.5 0-2.8-1.2-2.8-2.8v-3.2c0-1.5 1.2-2.8 2.8-2.8 1.5 0 2.8 1.2 2.8 2.8v3.2c-.1 1.6-1.3 2.8-2.8 2.8zM573.3 198.5c-1.5 0-2.8-1.2-2.8-2.8v-3.2c0-1.5 1.2-2.8 2.8-2.8 1.5 0 2.8 1.2 2.8 2.8v3.2c0 1.6-1.2 2.8-2.8 2.8zM563.3 198.5c-1.5 0-2.8-1.2-2.8-2.8v-3.2c0-1.5 1.2-2.8 2.8-2.8 1.5 0 2.8 1.2 2.8 2.8v3.2c0 1.6-1.3 2.8-2.8 2.8zM553.2 198.5c-1.5 0-2.8-1.2-2.8-2.8v-3.2c0-1.5 1.2-2.8 2.8-2.8 1.5 0 2.8 1.2 2.8 2.8v3.2c0 1.6-1.2 2.8-2.8 2.8zM543.2 198.5c-1.5 0-2.8-1.2-2.8-2.8v-3.2c0-1.5 1.2-2.8 2.8-2.8 1.5 0 2.8 1.2 2.8 2.8v3.2c0 1.6-1.3 2.8-2.8 2.8zM533.2 198.5c-1.5 0-2.8-1.2-2.8-2.8v-3.2c0-1.5 1.2-2.8 2.8-2.8 1.5 0 2.8 1.2 2.8 2.8v3.2c-.1 1.6-1.3 2.8-2.8 2.8zM523.1 198.5c-1.5 0-2.8-1.2-2.8-2.8v-3.2c0-1.5 1.2-2.8 2.8-2.8 1.5 0 2.8 1.2 2.8 2.8v3.2c0 1.6-1.3 2.8-2.8 2.8z"/><g><path class="st25" d="M592.2 213.1L579 255M600 212.7l13.5 42.3"/><path class="st26" d="M577.2 252.3h12.7V265h-12.7z"/><path class="st27" d="M590 252.3h12.7V265H590z"/><path class="st28" d="M602.7 252.3h12.7V265h-12.7z"/><g><path class="st26" d="M577.2 277.8h12.7v12.7h-12.7z"/><path class="st28" d="M590 277.8h12.7v12.7H590z"/><path class="st27" d="M602.7 277.8h12.7v12.7h-12.7z"/></g><g><path transform="rotate(-180 609.068 271.437)" class="st26" d="M602.7 265.1h12.7v12.7h-12.7z"/><path transform="rotate(-180 596.33 271.437)" class="st27" d="M590 265.1h12.7v12.7H590z"/><path transform="rotate(-180 583.59 271.437)" class="st28" d="M577.2 265.1h12.7v12.7h-12.7z"/></g></g><path class="st18" d="M513.1 198.5c-1.5 0-2.8-1.2-2.8-2.8v-3.2c0-1.5 1.2-2.8 2.8-2.8 1.5 0 2.8 1.2 2.8 2.8v3.2c-.1 1.6-1.3 2.8-2.8 2.8zM649.5 208.1h-3.6c-1.6 0-2.9-1.3-2.9-2.9v-12.5c0-1.6 1.3-2.9 2.9-2.9h3.6c1.6 0 2.9 1.3 2.9 2.9v12.5c.1 1.6-1.2 2.9-2.9 2.9z"/><g><path class="st18" d="M563.6 164.7l11.1 13.3h41.2l-28.3-13.3z"/><path class="st2" d="M586.3 215.5l121.6-.6c3 0 6.2-.1 8.4-2 2.8-2.4 3-6.8 1.5-10.1s-4.4-5.8-7.2-8.2c-3.8-3.2-7.6-6.4-11.3-9.7-3.3-2.8-6.7-5.7-10.7-7.2-3.3-1.2-6.9-1.5-10.4-1.7-9.9-.5-19.9-.5-29.9-.5H507.2c-1.8 0-3.6 0-5.1-.9-1.1-.7-2-1.7-2.7-2.7-4-5.1-7.9-10.2-11.9-15.3-.8-1-1.6-2.1-2.8-2.7-1.5-.8-3.2-.8-4.9-.8-6.1 0-15-1.4-20.5.7 4.3 10.3 7.2 20.7 10.5 31.4 3.3 10.8 8.7 21.9 18.8 27.1 7.2 3.7 15.7 3.8 23.9 3.7 24.5-.2 49.2-.3 73.8-.5z"/><path class="st29" d="M695.3 185.9h-21.9s-1.3 3.7 2.4 5.7h31.6l-8-6.8-4.1 1.1z"/><path class="st18" d="M485.4 169.5V181H465c-3.2 0-5.7-2.6-5.7-5.7 0-3.2 2.6-5.7 5.7-5.7h20.4zM562.9 203.1l-34.4 33.4h20.2l74.9-32.1"/></g><g><path class="st18" d="M813.1 468.6l26.1 15 78.3-45.2-26.1-15z"/><path class="st7" d="M813.1 473.2l26.1 15.1v-4.7l-26.1-15zM917.5 438.4v4.7l-78.3 45.2v-4.7z"/><path class="st30" d="M801.3 485.4c-15.2 1.1-23 .8-23.3-.9-.4-2.1 16.5-5.7 16.2-7.6-.2-1-4.9-1.5-24.1.2"/><path class="st7" d="M827.3 492.2l-16.1-9.3c-3.1-1.6-6.8-1.6-9.9 0l-3.1 1.7c-1.2.5-1.9 1.6-2 2.9v5c.1 1.3.9 2.4 2 2.9l16.2 9.3c3.1 1.6 6.8 1.6 9.9 0l3.1-1.7c1.2-.5 1.9-1.6 2-2.9v-5c-.2-1.3-1-2.4-2.1-2.9z"/><path class="st18" d="M801.2 482.8c3.1-1.6 6.8-1.6 9.9 0l16.1 9.3c2.7 1.6 2.7 4.2 0 5.7l-3.1 1.7c-3.1 1.6-6.8 1.6-9.9 0l-16.2-9.3c-2.7-1.6-2.7-4.2 0-5.7l3.2-1.7z"/><path class="st7" d="M883.3 323l-.9-.6c-.3-.2-.6-.5-.9-.6l-.9-.6-.9-.6c-.3-.2-.6-.5-.9-.6l-.9-.6c-.3-.2-.6-.5-.9-.6l-.9-.6c-1.9-1.6-4.8-1.7-8.1.2L757.7 382c-6.1 4-10 10.6-10.4 17.9v72.5c0 3.3 1.2 5.7 3.1 6.7l.9.6.9.6.9.6.9.6.9.6c.3.2.6.5.9.6.3.2.6.5.9.6l.9.6c1.9 1.6 4.8 1.7 8.1-.2l110.5-63.8c6.1-4 9.9-10.6 10.3-17.9v-72.5c-.1-3.1-1.3-5.5-3.2-6.5z"/><path class="st31" d="M880.8 326.7c.3 0 .6.1.8.3.5.8.7 1.8.6 2.7v72.5c-.4 5.7-3.4 10.9-8.2 14.1L763.5 480c-.7.5-1.6.8-2.4.8-.3 0-.6-.1-.8-.3-.5-.8-.7-1.8-.6-2.7v-72.4c.4-5.7 3.4-10.9 8.2-14.1l110.5-63.8c.7-.3 1.5-.6 2.4-.8"/><path class="st32" d="M772.3 407.7v5.1l40.2-23.2v-5.1zM817 381.9v5.2l8.9-5.2v-5.2zM803.6 399.9v5.2l35.7-20.6v-5.2z"/><path class="st29" d="M834.8 371.6v5.1l22.6-13v-5.2zM799.1 402.5v5.2l-13.4 7.7v-5.2z"/><path class="st32" d="M772.3 428.3v5.2l22.3-12.9v-5.2z"/><path class="st29" d="M799.1 412.8v5.2l22.3-12.9v-5.2z"/><path class="st32" d="M825.9 397.4v5.1l40.2-23.2v-5.1z"/><path class="st29" d="M843.7 376.7v5.2l9-5.2v-5.1z"/><path class="st32" d="M790.2 428.3v5.2l40.2-23.3v-5.1z"/><path class="st29" d="M834.8 402.5v5.2l8.9-5.2v-5.1zM848.2 394.8v5.1l22.3-12.8v-5.2z"/></g><g><defs><path id="SVGID_11_" d="M910 730.3s-8.9 2.2-11.1 4.5c-2.2 2.2 24.4 2.2 24.4 2.2s-2.2-58.2-4.4-67.2 6.7-51.5 8.9-53.7c2.2-2.2 2.2 4.5 2.2 4.5s0 40.3 4.4 56c4.4 15.7 8.9 38.1 8.9 40.3V728s-8.9 2.2-8.9 4.5c0 2.2 22.2 2.2 22.2 2.2s-4.4-82.8-4.4-85.1c0-2.2 0-22.4 2.2-31.3 2.2-9 2.2-29.1 2.2-29.1v-4.5h-60s0 51.5 2.2 67.2c2.2 15.7 6.7 47 6.7 47l4.5 31.4z"/></defs><clipPath id="SVGID_12_"><use xlink:href="#SVGID_11_" overflow="visible"/></clipPath><g class="st33"><defs><path id="SVGID_13_" d="M687.1-1026h1289.4v4433.1H687.1z"/></defs><clipPath id="SVGID_14_"><use xlink:href="#SVGID_13_" overflow="visible"/></clipPath><path class="st34" d="M892.2 580.3h68.9v161.2h-68.9z"/></g><defs><path id="SVGID_15_" d="M820.9 494.3c0-1.1-2-2.6-2.2 0-.3 2.2 2.2 2.2 0 4.5-2.2 2.2-2.2 8.9 0 8.9s22.4 13.4 22.4 13.4 22.4 15.6 26.9 13.4c4.5-2.2 26.9-17.8 31.4-17.8s35.9-13.4 35.9-20.1v-19.5c0-.4 0-.7-.1-1.1-.5-1.6-1.7-6.9.1-10.6 2.2-4.5 3.4-18.9-5.6-21.2-9-2.2-15.7 0-18 4.5-2.2 4.5-2.2 11.1-2.2 15.6 0 2.8.9 7.2 1.5 10.2.4 1.8 2 3.1 3.9 3.1h.4c2.6 0 4.6 2.4 3.9 4.9-.2.6-.4 1.2-.7 1.8-2.2 4.5-40.4 26.7-44.9 29-2.3 1.2-4.1 2.3-5.2 3.2-1 .8-2.4 1-3.6.6l-32.9-10.2c-.6-.2-1.2-.5-1.7-1-2.4-2.5-9.3-10.5-9.3-11.6"/></defs><clipPath id="SVGID_16_"><use xlink:href="#SVGID_15_" overflow="visible"/></clipPath><g class="st35"><defs><path id="SVGID_17_" d="M687.1-1026h1289.4v4433.1H687.1z"/></defs><clipPath id="SVGID_18_"><use xlink:href="#SVGID_17_" overflow="visible"/></clipPath><path class="st36" d="M812.5 438.8h128.9v100.3H812.5z"/></g><g><defs><path id="SVGID_19_" d="M872.5 511.1c-.1.7.5 1.7.7 2.3.7 2 1.3 4 2 6 .4 1.2 4.6 11.4 4 11.9 3.4-3.1 7.4-5.5 11.6-7.3 1-.4 2.2-.8 3.2-.3 1.3.6 1.5 2.3 1.6 3.7 1.2 18.6 1.6 37.3 1.4 55.9 0 1.3 0 2.7.6 3.8.5.9 1.2 1.6 2 2.3 7.8 6.7 17.8 11 28 11.4 10.3.4 20.8-3.1 28.3-10.1.7-.7 1.4-1.4 1.8-2.2.5-.9.6-2 .6-3 1.2-15.7-4.3-31.3-3.9-47.1.4-14 5.5-27.9 3-41.7-.4-2.1-1-4.3-2.4-5.8-1.1-1.2-2.6-1.9-4.1-2.5-5-2.1-10.4-3.5-15.8-4.1.8.1-1 3.1-1.3 3.3-1.1.8-2.9 1.2-4.3 1.4-3.7.6-8.7.2-11.3-2.9-.6-.7-1-1.5-1.8-2-.7-.4-1.5-.4-2.3-.4-8.6.1-16.6 4.3-23.3 9.6-6 4.8-11 10.5-16.4 15.9-.5.5-1.7 1.3-1.9 1.9 0-.1 0 0 0 0"/></defs><clipPath id="SVGID_20_"><use xlink:href="#SVGID_19_" overflow="visible"/></clipPath><g class="st37"><defs><path id="SVGID_21_" d="M687.1-1026h1289.4v4433.1H687.1z"/></defs><clipPath id="SVGID_22_"><use xlink:href="#SVGID_21_" overflow="visible"/></clipPath><path class="st38" d="M868 479.1h94.9v126.2H868z"/></g></g><g><defs><path id="SVGID_23_" d="M909.9 433.5h35.7v45.2h-35.7z"/></defs><clipPath id="SVGID_24_"><use xlink:href="#SVGID_23_" overflow="visible"/></clipPath><g class="st39"><defs><path id="SVGID_25_" d="M687.1-1026h1289.4v4433.1H687.1z"/></defs><clipPath id="SVGID_26_"><use xlink:href="#SVGID_25_" overflow="visible"/></clipPath><g class="st40"><defs><path id="SVGID_27_" d="M907.4 429.9h40.3v53.7h-40.3z"/></defs><clipPath id="SVGID_28_"><use xlink:href="#SVGID_27_" overflow="visible"/></clipPath><g class="st41"><defs><path id="SVGID_29_" d="M912.7 467.9s4.9 0 4.9-5-2.5-7.4-4.9-5c-2.5 2.5-2.5 0-2.5 0s4.9-7.4 2.5-9.9c-2.5-2.5-4.9-5 0-9.9 4.9-5 12.3-7.4 22.1 0s12.3 12.4 9.8 19.8-9.8 17.4-9.8 17.4-7.4 7.4-14.7 0l-7.4-7.4z"/></defs><clipPath id="SVGID_30_"><use xlink:href="#SVGID_29_" overflow="visible"/></clipPath><g class="st42"><defs><path id="SVGID_31_" d="M909.2 433.4h36.7v45.7h-36.7z"/></defs><clipPath id="SVGID_32_"><use xlink:href="#SVGID_31_" overflow="visible"/></clipPath><path class="st43" d="M905.4 429H950v54.2h-44.6z"/></g></g></g></g></g><path class="st44" d="M901.9 580.7h49.4c8.1 0 14.7-6.6 14.7-14.7v-41.7c0-8.1-6.6-14.7-14.7-14.7h-49.4c-8.1 0-14.7 6.6-14.7 14.7V566c0 8.1 6.6 14.7 14.7 14.7z"/><path class="st45" d="M896.1 509.6h61c4.9 0 8.9-4 8.9-8.9v-8.3c0-4.9-4-8.9-8.9-8.9h-61c-4.9 0-8.9 4-8.9 8.9v8.3c0 4.9 4 8.9 8.9 8.9z"/></g></svg>