<svg width="516" height="651" viewBox="0 0 516 651" xmlns="http://www.w3.org/2000/svg" xmlns:xlink="http://www.w3.org/1999/xlink"><title>HTTP Client Graphic</title><defs><path id="b" d="M0 12h500v627H0z"/><filter x="-2.8%" y="-1.6%" width="105.6%" height="104.5%" filterUnits="objectBoundingBox" id="a"><feOffset dy="4" in="SourceAlpha" result="shadowOffsetOuter1"/><feGaussianBlur stdDeviation="4" in="shadowOffsetOuter1" result="shadowBlurOuter1"/><feColorMatrix values="0 0 0 0 0 0 0 0 0 0 0 0 0 0 0 0 0 0 0.15 0" in="shadowBlurOuter1"/></filter><path id="c" d="M7.5 9L0 1.5 1.06.44 7.5 6.878l6.44-6.44L15 1.5z"/></defs><g fill="none" fill-rule="evenodd"><g transform="translate(8)"><use fill="#000" filter="url(#a)" xlink:href="#b"/><use fill="#FFF" xlink:href="#b"/></g><text font-family="IBMPlexSans-SemiBold, IBM Plex Sans" font-size="12" font-weight="500" letter-spacing=".3" fill="#A3A4A3" transform="translate(8)"><tspan x="48" y="86">REQUEST</tspan></text><text font-family="IBMPlexSans-SemiBold, IBM Plex Sans" font-size="12" font-weight="500" letter-spacing=".3" fill="#A3A4A3" transform="translate(8)"><tspan x="48" y="216">RESPONSE</tspan></text><path stroke="#E5E5E5" stroke-width="2" d="M57 123h402v40H57z"/><path fill="#00DDBD" d="M56 122h92v42H56z"/><path fill="#00DDBD" d="M106 122h42v42h-42z"/><path fill="#D8D8D8" d="M164 139h263v8H164z"/><use fill="#FFF" fill-rule="nonzero" xlink:href="#c" transform="translate(120.25 138.5)"/><text font-family="IBMPlexSans-SemiBold, IBM Plex Sans" font-size="16" font-weight="500" fill="#FFF" transform="translate(56 122)"><tspan x="16" y="25">GET</tspan></text><g transform="translate(56 252)"><text font-family="IBMPlexSans, IBM Plex Sans" font-size="16" fill="#323232"><tspan x="16" y="16">Headers</tspan></text><text font-family="IBMPlexSans, IBM Plex Sans" font-size="16" fill="#323232"><tspan x="101" y="16">Body</tspan></text><text font-family="IBMPlexSans, IBM Plex Sans" font-size="14" letter-spacing=".1" fill="#323232"><tspan x="297" y="15">HTTP Code: 200</tspan></text><path stroke="#E5E5E5" stroke-width="4" d="M2 39h400v306H2z"/><path fill="#D8D8D8" d="M32 69h290v4H32zM32 289h320v4H32zM32 89h190v4H32zM32 309h120v4H32z"/><path fill="#5392FF" d="M168 309h16v4h-16z"/><path fill="#D8D8D8" d="M52 109h70v4H52zM52 149h32v4H52zM52 269h70v4H52zM72 169h80v4H72zM72 189h150v4H72zM72 209h110v4H72zM72 229h50v4H72zM72 249h80v4H72zM52 129h200v4H52z"/><path fill="#00DDBD" d="M268 129h84v4h-84z"/><path fill="#5392FF" d="M138 109h84v4h-84zM100 149h52v4h-52z"/><path fill="#00DDBD" d="M138 269h114v4H138z"/><path fill="#5392FF" d="M168 169h84v4h-84zM238 189h84v4h-84z"/><path fill="#00DDBD" d="M198 209h84v4h-84z"/><path fill="#5392FF" d="M138 229h14v4h-14z"/><path fill="#00DDBD" d="M168 249h54v4h-54zM16 37h61v4H16z"/><circle fill="#00DDBD" cx="283" cy="13" r="6"/></g><g><path fill="#FC835C" d="M210 0h96v24h-96z"/><text font-family="IBMPlexSans-SemiBold, IBM Plex Sans" font-size="12" font-weight="500" letter-spacing=".3" fill="#FFF" transform="translate(210)"><tspan x="8.802" y="16">HTTP CLIENT</tspan></text></g></g></svg>