<svg width="916" height="530" viewBox="0 0 916 530" xmlns="http://www.w3.org/2000/svg" xmlns:xlink="http://www.w3.org/1999/xlink"><title>Laptop Mockup</title><defs><path d="M806.41 491.52H87.03c-11.305 0-20.47-9.17-20.47-20.48V29.257C66.56 13.1 79.653 0 95.803 0h701.834c16.15 0 29.243 13.099 29.243 29.257V471.04c0 11.31-9.165 20.48-20.47 20.48" id="b"/><filter x="-2.3%" y="-2.5%" width="104.6%" height="107.1%" filterUnits="objectBoundingBox" id="a"><feOffset dy="5" in="SourceAlpha" result="shadowOffsetOuter1"/><feGaussianBlur stdDeviation="5" in="shadowOffsetOuter1" result="shadowBlurOuter1"/><feColorMatrix values="0 0 0 0 0 0 0 0 0 0 0 0 0 0 0 0 0 0 0.15 0" in="shadowBlurOuter1"/></filter><filter x="-3.3%" y="-288.1%" width="106.6%" height="683.6%" filterUnits="objectBoundingBox" id="c"><feOffset dy="5" in="SourceAlpha" result="shadowOffsetOuter1"/><feGaussianBlur stdDeviation="5" in="shadowOffsetOuter1" result="shadowBlurOuter1"/><feColorMatrix values="0 0 0 0 0 0 0 0 0 0 0 0 0 0 0 0 0 0 0.15 0" in="shadowBlurOuter1" result="shadowMatrixOuter1"/><feMerge><feMergeNode in="shadowMatrixOuter1"/><feMergeNode in="SourceGraphic"/></feMerge></filter><path d="M0 0v2.644c0 1.381 1.25 2.513 2.828 2.558 22.642.66 175 5.038 228.492 5.038h433.36l228.466-5.057c1.588-.035 2.854-1.17 2.854-2.559V0H0z" id="d"/><linearGradient x1="50%" y1="0%" x2="50%" y2="98.496%" id="e"><stop stop-color="#C0C0C0" offset="0%"/><stop stop-color="#939393" offset="100%"/></linearGradient><path id="g" d="M0 509.44h896V0H0z"/><path id="i" d="M0 2.56h679.68v28.16H0z"/><filter x="-.1%" y="-3.6%" width="100.3%" height="107.1%" filterUnits="objectBoundingBox" id="j"><feOffset dy="-2" in="SourceAlpha" result="shadowOffsetInner1"/><feComposite in="shadowOffsetInner1" in2="SourceAlpha" operator="arithmetic" k2="-1" k3="1" result="shadowInnerInner1"/><feColorMatrix values="0 0 0 0 0.898039216 0 0 0 0 0.898039216 0 0 0 0 0.898039216 0 0 0 1 0" in="shadowInnerInner1"/></filter><path id="l" d="M0 0h97.28v26.88H0z"/><filter x="-1%" y="-3.7%" width="102.1%" height="107.4%" filterUnits="objectBoundingBox" id="k"><feOffset dx="-2" in="SourceAlpha" result="shadowOffsetInner1"/><feComposite in="shadowOffsetInner1" in2="SourceAlpha" operator="arithmetic" k2="-1" k3="1" result="shadowInnerInner1"/><feColorMatrix values="0 0 0 0 0.898039216 0 0 0 0 0.898039216 0 0 0 0 0.898039216 0 0 0 1 0" in="shadowInnerInner1"/></filter><path id="n" d="M0 0h97.28v26.88H0z"/><filter x="-1%" y="-3.7%" width="102.1%" height="107.4%" filterUnits="objectBoundingBox" id="m"><feOffset dx="-2" in="SourceAlpha" result="shadowOffsetInner1"/><feComposite in="shadowOffsetInner1" in2="SourceAlpha" operator="arithmetic" k2="-1" k3="1" result="shadowInnerInner1"/><feColorMatrix values="0 0 0 0 0.898039216 0 0 0 0 0.898039216 0 0 0 0 0.898039216 0 0 0 1 0" in="shadowInnerInner1"/></filter><path id="p" d="M0 0h139.52v26.88H0z"/><filter x="-1.4%" y="-7.4%" width="102.9%" height="114.9%" filterUnits="objectBoundingBox" id="o"><feGaussianBlur stdDeviation="1" in="SourceAlpha" result="shadowBlurInner1"/><feOffset dx="-2" in="shadowBlurInner1" result="shadowOffsetInner1"/><feComposite in="shadowOffsetInner1" in2="SourceAlpha" operator="arithmetic" k2="-1" k3="1" result="shadowInnerInner1"/><feColorMatrix values="0 0 0 0 0.898039216 0 0 0 0 0.898039216 0 0 0 0 0.898039216 0 0 0 1 0" in="shadowInnerInner1"/></filter><path id="r" d="M0 0h139.52v26.88H0z"/><filter x="-.7%" y="-3.7%" width="101.4%" height="107.4%" filterUnits="objectBoundingBox" id="q"><feOffset dx="-2" in="SourceAlpha" result="shadowOffsetInner1"/><feComposite in="shadowOffsetInner1" in2="SourceAlpha" operator="arithmetic" k2="-1" k3="1" result="shadowInnerInner1"/><feColorMatrix values="0 0 0 0 0.898039216 0 0 0 0 0.898039216 0 0 0 0 0.898039216 0 0 0 1 0" in="shadowInnerInner1"/></filter><path id="t" d="M0 0h72.96v26.88H0z"/><filter x="-1.4%" y="-3.7%" width="102.7%" height="107.4%" filterUnits="objectBoundingBox" id="s"><feOffset dx="-2" in="SourceAlpha" result="shadowOffsetInner1"/><feComposite in="shadowOffsetInner1" in2="SourceAlpha" operator="arithmetic" k2="-1" k3="1" result="shadowInnerInner1"/><feColorMatrix values="0 0 0 0 0.898039216 0 0 0 0 0.898039216 0 0 0 0 0.898039216 0 0 0 1 0" in="shadowInnerInner1"/></filter><path id="u" d="M0 0h40.96v398.08H0z"/><filter x="-2.4%" y="-.3%" width="104.9%" height="100.5%" filterUnits="objectBoundingBox" id="v"><feOffset dx="-2" in="SourceAlpha" result="shadowOffsetInner1"/><feComposite in="shadowOffsetInner1" in2="SourceAlpha" operator="arithmetic" k2="-1" k3="1" result="shadowInnerInner1"/><feColorMatrix values="0 0 0 0 0.898039216 0 0 0 0 0.898039216 0 0 0 0 0.898039216 0 0 0 1 0" in="shadowInnerInner1"/></filter><path id="w" d="M0 0h163.84v194.56H0z"/><filter x="-.6%" y="-.5%" width="101.2%" height="101%" filterUnits="objectBoundingBox" id="x"><feOffset dx="-2" in="SourceAlpha" result="shadowOffsetInner1"/><feComposite in="shadowOffsetInner1" in2="SourceAlpha" operator="arithmetic" k2="-1" k3="1" result="shadowInnerInner1"/><feColorMatrix values="0 0 0 0 0.898039216 0 0 0 0 0.898039216 0 0 0 0 0.898039216 0 0 0 1 0" in="shadowInnerInner1"/></filter><path id="z" d="M0 0h163.84v28.16H0z"/><filter x="-.6%" y="-3.6%" width="101.2%" height="107.1%" filterUnits="objectBoundingBox" id="y"><feOffset dy="-2" in="SourceAlpha" result="shadowOffsetInner1"/><feComposite in="shadowOffsetInner1" in2="SourceAlpha" operator="arithmetic" k2="-1" k3="1" result="shadowInnerInner1"/><feColorMatrix values="0 0 0 0 0.898039216 0 0 0 0 0.898039216 0 0 0 0 0.898039216 0 0 0 1 0" in="shadowInnerInner1"/></filter><path id="B" d="M0 0h163.84v113.92H0z"/><filter x="-.6%" y="-.9%" width="101.2%" height="101.8%" filterUnits="objectBoundingBox" id="A"><feOffset dy="-2" in="SourceAlpha" result="shadowOffsetInner1"/><feComposite in="shadowOffsetInner1" in2="SourceAlpha" operator="arithmetic" k2="-1" k3="1" result="shadowInnerInner1"/><feColorMatrix values="0 0 0 0 0.898039216 0 0 0 0 0.898039216 0 0 0 0 0.898039216 0 0 0 1 0" in="shadowInnerInner1"/></filter><path id="C" d="M11.662 104.818v-1.138h-.284v1.138H10.24v.284h1.138v1.138h.284v-1.138H12.8v-.284z"/><path id="E" d="M0 0h163.84v53.76H0z"/><filter x="-.6%" y="-1.9%" width="101.2%" height="103.7%" filterUnits="objectBoundingBox" id="D"><feOffset dy="-2" in="SourceAlpha" result="shadowOffsetInner1"/><feComposite in="shadowOffsetInner1" in2="SourceAlpha" operator="arithmetic" k2="-1" k3="1" result="shadowInnerInner1"/><feColorMatrix values="0 0 0 0 0.898039216 0 0 0 0 0.898039216 0 0 0 0 0.898039216 0 0 0 1 0" in="shadowInnerInner1"/></filter><path id="F" d="M0 0h441.6v38.4H0z"/><filter x="-.2%" y="-2.6%" width="100.5%" height="105.2%" filterUnits="objectBoundingBox" id="G"><feOffset dx="-2" in="SourceAlpha" result="shadowOffsetInner1"/><feComposite in="shadowOffsetInner1" in2="SourceAlpha" operator="arithmetic" k2="-1" k3="1" result="shadowInnerInner1"/><feColorMatrix values="0 0 0 0 0.898039216 0 0 0 0 0.898039216 0 0 0 0 0.898039216 0 0 0 1 0" in="shadowInnerInner1"/></filter><path id="H" d="M0 0h638.72v26.88H0z"/><filter x="-.2%" y="-3.7%" width="100.3%" height="107.4%" filterUnits="objectBoundingBox" id="I"><feOffset dy="2" in="SourceAlpha" result="shadowOffsetInner1"/><feComposite in="shadowOffsetInner1" in2="SourceAlpha" operator="arithmetic" k2="-1" k3="1" result="shadowInnerInner1"/><feColorMatrix values="0 0 0 0 0.898039216 0 0 0 0 0.898039216 0 0 0 0 0.898039216 0 0 0 1 0" in="shadowInnerInner1"/></filter><path id="K" d="M0 0h638.72v26.88H0z"/><filter x="-.2%" y="-3.7%" width="100.3%" height="107.4%" filterUnits="objectBoundingBox" id="J"><feOffset dy="-2" in="SourceAlpha" result="shadowOffsetInner1"/><feComposite in="shadowOffsetInner1" in2="SourceAlpha" operator="arithmetic" k2="-1" k3="1" result="shadowInnerInner1"/><feColorMatrix values="0 0 0 0 0.898039216 0 0 0 0 0.898039216 0 0 0 0 0.898039216 0 0 0 1 0" in="shadowInnerInner1"/></filter><path id="M" d="M0 0h90.88v26.88H0z"/><filter x="-1.1%" y="-3.7%" width="102.2%" height="107.4%" filterUnits="objectBoundingBox" id="L"><feOffset dx="2" in="SourceAlpha" result="shadowOffsetInner1"/><feComposite in="shadowOffsetInner1" in2="SourceAlpha" operator="arithmetic" k2="-1" k3="1" result="shadowInnerInner1"/><feColorMatrix values="0 0 0 0 0.898039216 0 0 0 0 0.898039216 0 0 0 0 0.898039216 0 0 0 1 0" in="shadowInnerInner1"/></filter><path id="O" d="M0 0h172.8v26.88H0z"/><filter x="-.6%" y="-3.7%" width="101.2%" height="107.4%" filterUnits="objectBoundingBox" id="N"><feOffset dx="-2" in="SourceAlpha" result="shadowOffsetInner1"/><feComposite in="shadowOffsetInner1" in2="SourceAlpha" operator="arithmetic" k2="-1" k3="1" result="shadowInnerInner1"/><feColorMatrix values="0 0 0 0 0.898039216 0 0 0 0 0.898039216 0 0 0 0 0.898039216 0 0 0 1 0" in="shadowInnerInner1"/></filter><path id="Q" d="M0 0h75.52v26.88H0z"/><filter x="-1.3%" y="-3.7%" width="102.6%" height="107.4%" filterUnits="objectBoundingBox" id="P"><feOffset dx="-2" in="SourceAlpha" result="shadowOffsetInner1"/><feComposite in="shadowOffsetInner1" in2="SourceAlpha" operator="arithmetic" k2="-1" k3="1" result="shadowInnerInner1"/><feColorMatrix values="0 0 0 0 0.898039216 0 0 0 0 0.898039216 0 0 0 0 0.898039216 0 0 0 1 0" in="shadowInnerInner1"/></filter><path id="S" d="M0 0h76.8v26.88H0z"/><filter x="-1.3%" y="-3.7%" width="102.6%" height="107.4%" filterUnits="objectBoundingBox" id="R"><feOffset dx="-2" in="SourceAlpha" result="shadowOffsetInner1"/><feComposite in="shadowOffsetInner1" in2="SourceAlpha" operator="arithmetic" k2="-1" k3="1" result="shadowInnerInner1"/><feColorMatrix values="0 0 0 0 0.898039216 0 0 0 0 0.898039216 0 0 0 0 0.898039216 0 0 0 1 0" in="shadowInnerInner1"/></filter><path id="T" d="M0 0h112.64v177.92H0z"/><filter x="-.9%" y="-.6%" width="101.8%" height="101.1%" filterUnits="objectBoundingBox" id="U"><feOffset dx="-2" in="SourceAlpha" result="shadowOffsetInner1"/><feComposite in="shadowOffsetInner1" in2="SourceAlpha" operator="arithmetic" k2="-1" k3="1" result="shadowInnerInner1"/><feColorMatrix values="0 0 0 0 0.898039216 0 0 0 0 0.898039216 0 0 0 0 0.898039216 0 0 0 1 0" in="shadowInnerInner1"/></filter><path id="W" d="M0 0h112.64v16.64H0z"/><filter x="-.9%" y="-6%" width="101.8%" height="112%" filterUnits="objectBoundingBox" id="V"><feOffset dy="-2" in="SourceAlpha" result="shadowOffsetInner1"/><feComposite in="shadowOffsetInner1" in2="SourceAlpha" operator="arithmetic" k2="-1" k3="1" result="shadowInnerInner1"/><feColorMatrix values="0 0 0 0 0.898039216 0 0 0 0 0.898039216 0 0 0 0 0.898039216 0 0 0 1 0" in="shadowInnerInner1"/></filter><path id="Y" d="M0 0h112.64v37.12H0z"/><filter x="-.9%" y="-2.7%" width="101.8%" height="105.4%" filterUnits="objectBoundingBox" id="X"><feOffset dy="-2" in="SourceAlpha" result="shadowOffsetInner1"/><feComposite in="shadowOffsetInner1" in2="SourceAlpha" operator="arithmetic" k2="-1" k3="1" result="shadowInnerInner1"/><feColorMatrix values="0 0 0 0 0.898039216 0 0 0 0 0.898039216 0 0 0 0 0.898039216 0 0 0 1 0" in="shadowInnerInner1"/></filter><path id="aa" d="M0 0h112.64v37.12H0z"/><filter x="-.9%" y="-2.7%" width="101.8%" height="105.4%" filterUnits="objectBoundingBox" id="Z"><feOffset dy="-2" in="SourceAlpha" result="shadowOffsetInner1"/><feComposite in="shadowOffsetInner1" in2="SourceAlpha" operator="arithmetic" k2="-1" k3="1" result="shadowInnerInner1"/><feColorMatrix values="0 0 0 0 0.898039216 0 0 0 0 0.898039216 0 0 0 0 0.898039216 0 0 0 1 0" in="shadowInnerInner1"/></filter><path id="ac" d="M0 0h112.64v37.12H0z"/><filter x="-.9%" y="-2.7%" width="101.8%" height="105.4%" filterUnits="objectBoundingBox" id="ab"><feOffset dy="-2" in="SourceAlpha" result="shadowOffsetInner1"/><feComposite in="shadowOffsetInner1" in2="SourceAlpha" operator="arithmetic" k2="-1" k3="1" result="shadowInnerInner1"/><feColorMatrix values="0 0 0 0 0.898039216 0 0 0 0 0.898039216 0 0 0 0 0.898039216 0 0 0 1 0" in="shadowInnerInner1"/></filter><path id="ae" d="M0 0h112.64v37.12H0z"/><filter x="-.9%" y="-2.7%" width="101.8%" height="105.4%" filterUnits="objectBoundingBox" id="ad"><feOffset dy="-2" in="SourceAlpha" result="shadowOffsetInner1"/><feComposite in="shadowOffsetInner1" in2="SourceAlpha" operator="arithmetic" k2="-1" k3="1" result="shadowInnerInner1"/><feColorMatrix values="0 0 0 0 0.898039216 0 0 0 0 0.898039216 0 0 0 0 0.898039216 0 0 0 1 0" in="shadowInnerInner1"/></filter><path id="af" d="M0 0h526.08v69.12H0z"/><filter x="-.2%" y="-1.4%" width="100.4%" height="102.9%" filterUnits="objectBoundingBox" id="ag"><feOffset dy="-2" in="SourceAlpha" result="shadowOffsetInner1"/><feComposite in="shadowOffsetInner1" in2="SourceAlpha" operator="arithmetic" k2="-1" k3="1" result="shadowInnerInner1"/><feColorMatrix values="0 0 0 0 0.898039216 0 0 0 0 0.898039216 0 0 0 0 0.898039216 0 0 0 1 0" in="shadowInnerInner1"/></filter><path id="ai" d="M0 0h526.08v43.52H0z"/><filter x="-.2%" y="-2.3%" width="100.4%" height="104.6%" filterUnits="objectBoundingBox" id="ah"><feOffset dy="-2" in="SourceAlpha" result="shadowOffsetInner1"/><feComposite in="shadowOffsetInner1" in2="SourceAlpha" operator="arithmetic" k2="-1" k3="1" result="shadowInnerInner1"/><feColorMatrix values="0 0 0 0 0.898039216 0 0 0 0 0.898039216 0 0 0 0 0.898039216 0 0 0 1 0" in="shadowInnerInner1"/></filter><path id="aj" d="M0 0h526.08v17.92H0z"/><filter x="-.2%" y="-5.6%" width="100.4%" height="111.2%" filterUnits="objectBoundingBox" id="ak"><feOffset dy="-2" in="SourceAlpha" result="shadowOffsetInner1"/><feComposite in="shadowOffsetInner1" in2="SourceAlpha" operator="arithmetic" k2="-1" k3="1" result="shadowInnerInner1"/><feColorMatrix values="0 0 0 0 0.898039216 0 0 0 0 0.898039216 0 0 0 0 0.898039216 0 0 0 1 0" in="shadowInnerInner1"/></filter></defs><g fill="none" fill-rule="evenodd"><g transform="translate(10 5)"><use fill="#000" filter="url(#a)" xlink:href="#b"/><use fill="#EEE" xlink:href="#b"/></g><g filter="url(#c)" transform="translate(10 504.2)"><mask id="f" fill="#fff"><use xlink:href="#d"/></mask><path d="M0 0v2.644c0 1.381 1.25 2.513 2.828 2.558 22.642.66 175 5.038 228.492 5.038h433.36l228.466-5.057c1.588-.035 2.854-1.17 2.854-2.559V0H0z" fill="url(#e)" mask="url(#f)"/></g><g transform="translate(10 5)"><mask id="h" fill="#fff"><use xlink:href="#g"/></mask><path fill="#D3D2D3" mask="url(#h)" d="M0 499.067h896v-7.194H0z"/></g><g transform="translate(118.8 39.56)"><use fill="#FFF" xlink:href="#i"/><use fill="#000" filter="url(#j)" xlink:href="#i"/></g><path fill="#00DDBD" d="M118.8 39.56h679.68v2.56H118.8z"/><path fill="#5392FF" d="M118.8 42.12h81.92V69H118.8z"/><path d="M157.96 59.44v-3.517h-.023l-.391.783-1.045 1.897-1.021-1.89-.407-.844h-.023v3.571h-1.099v-5.36h1.237l1.313 2.51h.015l1.298-2.51h1.245v5.36h-1.099zm4.158-2.15l.591-1.882h1.06l-1.551 4.654c-.208.622-.546.914-1.237.914h-.706v-.883h.76l.138-.446-1.413-4.239h1.129l.591 1.882.292 1.167h.046l.3-1.167zm7.915-2.174h-1.451v4.324h-1.168v-4.324h-1.451V54.08h4.07v1.037zm1.984 4.416c-1.236 0-1.935-.822-1.935-2.112 0-1.275.676-2.104 1.89-2.104 1.336 0 1.873.968 1.873 2.058v.338h-2.588v.061c0 .53.284.868.89.868.477 0 .738-.222.992-.484l.568.707c-.361.415-.952.668-1.69.668zm-.023-3.379c-.453 0-.737.33-.737.83v.06h1.413v-.068c0-.492-.223-.822-.676-.822zm4.089 3.38c-.776 0-1.283-.262-1.698-.723l.668-.676c.285.315.63.515 1.068.515.445 0 .599-.146.599-.384 0-.2-.123-.3-.407-.338l-.438-.054c-.914-.115-1.36-.514-1.36-1.244 0-.776.608-1.313 1.568-1.313.844 0 1.236.23 1.643.63l-.653.668c-.253-.254-.591-.415-.929-.415-.384 0-.538.138-.538.338 0 .215.093.33.423.376l.453.062c.875.115 1.329.514 1.329 1.213 0 .776-.692 1.344-1.728 1.344zm4.595-.093h-.676c-.783 0-1.198-.407-1.198-1.175v-1.974h-.568v-.883h.284c.307 0 .399-.154.399-.43v-.66h1.021v1.09h.8v.883h-.8v2.266h.738v.883z" fill="#FFF"/><path d="M147.764 53.75l-2.56-2.56a.332.332 0 0 0-.255-.11h-3.658a.734.734 0 0 0-.731.732v8.777c.001.403.328.73.731.731h5.852a.734.734 0 0 0 .731-.731v-6.583a.332.332 0 0 0-.11-.256zm-2.815-1.792l2.047 2.048h-2.047v-2.048zm2.194 8.63h-5.852v-8.776h2.926v2.194c.001.403.328.73.732.731h2.194v5.852zm-4.754-2.194h3.657v.732h-3.657v-.732zm0-2.194h3.657v.731h-3.657v-.73z" fill="#FFF" fill-rule="nonzero"/><g transform="translate(200.72 42.12)"><use filter="url(#k)" xlink:href="#l" fill="#000"/><circle fill="#E5E5E5" cx="17.92" cy="14.08" r="7.68"/><circle fill="#E5E5E5" cx="38.4" cy="14.08" r="7.68"/><circle fill="#E5E5E5" cx="58.88" cy="14.08" r="7.68"/><circle fill="#E5E5E5" cx="79.36" cy="14.08" r="7.68"/></g><g transform="translate(298 42.12)"><use filter="url(#m)" xlink:href="#n" fill="#000"/><rect fill="#E5E5E5" x="10.24" y="6.4" width="32" height="15.36" rx="2.56"/><rect fill="#E5E5E5" x="47.36" y="6.4" width="39.68" height="15.36" rx="2.56"/></g><g transform="translate(395.28 42.12)"><use filter="url(#o)" xlink:href="#p" fill="#000"/><use filter="url(#q)" xlink:href="#r" fill="#000"/><rect fill="#E5E5E5" x="10.24" y="6.4" width="61.44" height="15.36" rx="2.56"/><rect fill="#00DDBD" x="76.8" y="6.4" width="52.48" height="15.36" rx="2.56"/><path d="M81.92 11.468v5.224c0 .912.961 1.505 1.776 1.096l5.207-2.612c.902-.452.902-1.74 0-2.192l-5.207-2.612a1.226 1.226 0 0 0-1.776 1.096M93.919 15.354v1.966H92.75v-5.36h2.542c.991 0 1.62.69 1.62 1.712 0 .722-.322 1.298-.974 1.544l1.052 2.104h-1.298l-.937-1.966h-.837zm0-.983h1.229c.345 0 .56-.184.56-.53v-.338c0-.346-.215-.53-.56-.53h-1.23v1.398zm6.392 2.949v-.676h-.038c-.139.407-.469.768-1.13.768-.821 0-1.259-.576-1.259-1.59v-2.534h1.137v2.435c0 .491.161.768.576.768.353 0 .714-.2.714-.584v-2.619h1.137v4.032h-1.137zm3.397 0h-1.136v-4.032h1.136v.684h.046c.146-.423.484-.776 1.122-.776.821 0 1.259.584 1.259 1.597v2.527h-1.137v-2.435c0-.514-.146-.768-.56-.768-.369 0-.73.192-.73.592v2.611zm9.13-4.324h-1.452v4.324h-1.168v-4.324h-1.451V11.96h4.07v1.037zm1.983 4.416c-1.236 0-1.935-.822-1.935-2.112 0-1.275.676-2.104 1.889-2.104 1.336 0 1.874.968 1.874 2.058v.338h-2.588v.061c0 .53.284.868.89.868.477 0 .738-.222.991-.484l.569.707c-.361.415-.953.668-1.69.668zm-.023-3.379c-.453 0-.737.33-.737.83v.06h1.413v-.068c0-.492-.223-.822-.676-.822zm4.088 3.38c-.775 0-1.282-.262-1.697-.723l.668-.676c.284.315.63.515 1.068.515.445 0 .599-.146.599-.384 0-.2-.123-.3-.407-.338l-.438-.054c-.914-.115-1.36-.514-1.36-1.244 0-.776.607-1.313 1.567-1.313.845 0 1.237.23 1.644.63l-.653.668c-.253-.254-.591-.415-.93-.415-.383 0-.537.138-.537.338 0 .215.092.33.423.376l.453.062c.875.115 1.328.514 1.328 1.213 0 .776-.69 1.344-1.728 1.344zm4.596-.093h-.676c-.784 0-1.198-.407-1.198-1.175v-1.974h-.569v-.883h.285c.307 0 .399-.154.399-.43v-.66h1.021v1.09h.799v.883h-.799v2.266h.738v.883z" fill="#FFF"/></g><path d="M691.157 59.532c-1.444 0-2.373-.921-2.373-2.734 0-1.812.93-2.81 2.373-2.81.983 0 1.613.399 2.005 1.259l-1.006.522c-.139-.445-.423-.745-.999-.745-.683 0-1.137.46-1.137 1.306v.86c0 .845.454 1.305 1.137 1.305.576 0 .906-.36 1.068-.798l.952.553c-.4.814-1.037 1.282-2.02 1.282zm4.949 0c-1.421 0-2.358-.952-2.358-2.772 0-1.82.937-2.773 2.358-2.773 1.42 0 2.357.953 2.357 2.773 0 1.82-.937 2.772-2.357 2.772zm0-1.037c.698 0 1.12-.483 1.12-1.336v-.799c0-.852-.422-1.336-1.12-1.336-.7 0-1.122.484-1.122 1.336v.799c0 .853.423 1.336 1.122 1.336zm3.397.945v-5.36h2.02c1.42 0 2.357.898 2.357 2.68 0 1.781-.937 2.68-2.357 2.68h-2.02zm1.167-1.037h.853c.69 0 1.12-.376 1.12-1.229v-.829c0-.853-.43-1.229-1.12-1.229h-.853v3.287zm7.898 1.037h-3.648v-5.36h3.648v1.036h-2.481v1.098h2.127v1.03h-2.127v1.16h2.48v1.036z" fill="#A3A4A3"/><path d="M733.781 59.44h-1.305l-1.728-5.36h1.182l.799 2.572.422 1.682h.023l.407-1.682.8-2.573h1.143l-1.743 5.361zm4.849 0h-2.55v-.93h.691V55.01h-.691v-.93h2.55v.93h-.691v3.502h.69v.929zm2.775.092c-.937 0-1.575-.36-2.035-.868l.768-.775c.36.407.821.614 1.344.614.568 0 .844-.253.844-.645 0-.292-.122-.507-.622-.576l-.53-.07c-1.129-.145-1.643-.698-1.643-1.597 0-.96.753-1.628 2.012-1.628.806 0 1.42.269 1.859.753l-.776.783c-.254-.3-.6-.507-1.152-.507-.522 0-.776.2-.776.523 0 .368.192.506.638.576l.53.084c1.098.177 1.628.668 1.628 1.59 0 1.029-.753 1.743-2.09 1.743zm3.09-5.453h1.136v3.287c0 .753.277 1.13.968 1.13s.968-.377.968-1.13V54.08h1.136v3.165c0 1.582-.568 2.288-2.104 2.288s-2.104-.706-2.104-2.288v-3.165zm9.748 5.361h-1.213l-.384-1.275h-1.79l-.384 1.275h-1.182l1.766-5.36h1.444l1.743 5.36zm-1.881-2.266l-.6-2.035h-.038l-.591 2.035h1.229zm5.9 2.266h-3.21v-5.36h1.168v4.323h2.042v1.037zM782.933 57.465l-2.365-2.365-1.288 1.287 3.653 3.653 6.392-6.392-1.287-1.288zM724.24 67.72h40.96V69h-40.96z" fill="#00DDBD"/><g transform="translate(534.8 42.12)"><use filter="url(#s)" xlink:href="#t" fill="#000"/><rect fill="#D8D8D8" x="10.24" y="8.96" width="19.2" height="10.24" rx="5.12"/><rect fill="#D8D8D8" x="32" y="12.8" width="30.72" height="2.56" rx="1.28"/></g><g><g transform="translate(118.8 70.28)"><use fill="#F4F7F7" xlink:href="#u"/><use fill="#000" filter="url(#v)" xlink:href="#u"/></g><g transform="translate(127.76 80.52)"><circle stroke="#E5E5E5" stroke-width="1.28" fill="#FFF" cx="12.8" cy="10.24" r="10.88"/><path d="M9.984 6.4h6.912v.768H9.984V6.4zm0 6.912h6.912v.768H9.984v-.768zm0-3.456h6.912v.768H9.984v-.768zm-2.304 0h.768v.768H7.68v-.768zm0-3.456h.768v.768H7.68V6.4zm0 6.912h.768v.768H7.68v-.768z" fill="#323232" fill-rule="nonzero"/><text font-family="IBMPlexSans-SemiBold, IBM Plex Sans" font-size="5.12" font-weight="500" letter-spacing=".043" fill="#323232"><tspan x=".563" y="30.6">Data Sets</tspan></text></g><g transform="translate(129.68 122.76)"><circle stroke="#E5E5E5" stroke-width="1.28" fill="#FFF" cx="10.88" cy="10.24" r="10.88"/><text font-family="IBMPlexSans-SemiBold, IBM Plex Sans" font-size="5.12" font-weight="500" letter-spacing=".043" fill="#323232"><tspan x="2.179" y="30.6">Values</tspan></text><text font-family="IBMPlexSans-Bold, IBM Plex Sans" font-size="6.4" font-weight="bold" letter-spacing=".053" fill="#323232"><tspan x="6.128" y="13.4">&amp;lt;/&amp;gt;</tspan></text></g><g transform="translate(125.2 165)"><circle stroke="#00DDBD" stroke-width="1.28" fill="#FFF" cx="15.36" cy="10.24" r="10.88"/><text font-family="IBMPlexSans-Bold, IBM Plex Sans" font-size="6.4" font-weight="bold" letter-spacing=".053" fill="#00DDBD"><tspan x="10.826" y="13.4">&amp;gt; _</tspan></text><text font-family="IBMPlexSans-SemiBold, IBM Plex Sans" font-size="5.12" font-weight="500" letter-spacing=".043" fill="#323232"><tspan x=".393" y="30.6">HTTP Client</tspan></text></g></g><g><g transform="translate(159.76 70.28)"><use fill="#FFF" xlink:href="#w"/><use fill="#000" filter="url(#x)" xlink:href="#w"/></g><g transform="translate(159.76 70.28)"><use filter="url(#y)" xlink:href="#z" fill="#000"/><text font-family="IBMPlexSans-SemiBold, IBM Plex Sans" font-size="10.24" font-weight="500" fill="#323232"><tspan x="10.24" y="17.68">Data Sets</tspan></text><circle fill="#E5E5E5" cx="145.92" cy="14.08" r="7.68"/></g><g transform="translate(159.76 98.44)"><use filter="url(#A)" xlink:href="#B" fill="#000"/><path fill="#FC835C" d="M0 0h1.28v112.64H0z"/><text font-family="IBMPlexSans-Bold, IBM Plex Sans" font-size="5.12" font-weight="bold" letter-spacing=".043" fill="#323232"><tspan x="10.24" y="12.68">GLOBAL PARAMETERS</tspan></text><rect fill="#D8D8D8" x="10.24" y="19.2" width="102.4" height="2.56" rx="1.28"/><rect fill="#A3A4A3" x="10.24" y="37.12" width="30.72" height="2.56" rx="1.28"/><rect fill="#A3A4A3" x="10.24" y="62.72" width="20.48" height="2.56" rx="1.28"/><rect fill="#A3A4A3" x="10.24" y="88.32" width="46.08" height="2.56" rx="1.28"/><rect fill="#E5E5E5" x="10.24" y="44.8" width="20.48" height="2.56" rx="1.28"/><rect fill="#E5E5E5" x="10.24" y="70.4" width="61.44" height="2.56" rx="1.28"/><rect fill="#E5E5E5" x="10.24" y="96" width="81.92" height="2.56" rx="1.28"/><use fill="#323232" fill-rule="nonzero" xlink:href="#C"/></g><g transform="translate(159.76 212.36)"><use filter="url(#D)" xlink:href="#E" fill="#000"/><circle fill="#E5E5E5" cx="145.92" cy="12.8" r="7.68"/><path fill="#00DDBD" d="M0 0h1.28v52.48H0z"/><text font-family="IBMPlexSans-Bold, IBM Plex Sans" font-size="5.12" font-weight="bold" letter-spacing=".043" fill="#323232"><tspan x="10.24" y="12.68">INPUT SET</tspan></text><rect fill="#D8D8D8" x="10.24" y="19.2" width="81.92" height="2.56" rx="1.28"/><rect fill="#A3A4A3" x="10.24" y="37.12" width="30.72" height="2.56" rx="1.28"/><rect fill="#E5E5E5" x="10.24" y="44.8" width="61.44" height="2.56" rx="1.28"/></g></g><g><path fill="#F4F7F7" d="M323.6 70.28h474.88v194.56H323.6z"/><g transform="translate(341.52 83.08)"><rect stroke="#E5E5E5" stroke-width="1.28" fill="#FFF" x=".64" y=".64" width="440.32" height="29.44" rx="2.56"/><rect stroke="#E5E5E5" stroke-width="1.28" fill="#F8FAFA" x=".64" y=".64" width="29.44" height="29.44" rx="2.56"/><path d="M14.446 11.154c1.005 0 1.92.549 2.377 1.417l.32.549.594-.091c.137 0 .274-.046.366-.046a2.75 2.75 0 0 1 2.743 2.743c0 1.371-1.052 2.56-2.377 2.697l-.229.046h-6.537a1.834 1.834 0 0 1-1.829-1.829c0-.777.503-1.463 1.235-1.737l.64-.229-.046-.64v-.137a2.75 2.75 0 0 1 2.743-2.743zm0-.914a3.668 3.668 0 0 0-3.657 3.657v.137A2.738 2.738 0 0 0 8.96 16.64a2.75 2.75 0 0 0 2.743 2.743h6.857v-.046c1.783-.228 3.2-1.783 3.2-3.611a3.668 3.668 0 0 0-3.657-3.657c-.183 0-.32 0-.457.045a3.635 3.635 0 0 0-3.2-1.874z" fill="#00DDBD" fill-rule="nonzero"/><text font-family="IBMPlexSans-Text, IBM Plex Sans" font-size="7.68" font-weight="500" letter-spacing=".064" fill="#323232"><tspan x="40.96" y="13.12">GET</tspan></text><rect fill="#E5E5E5" x="40.96" y="20.48" width="30.72" height="2.56" rx="1.28"/><rect fill="#E5E5E5" x="92.16" y="20.48" width="15.36" height="2.56" rx="1.28"/><rect fill="#E5E5E5" x="148.48" y="20.48" width="15.36" height="2.56" rx="1.28"/><rect fill="#E5E5E5" x="112.64" y="20.48" width="30.72" height="2.56" rx="1.28"/><rect fill="#E5E5E5" x="168.96" y="20.48" width="61.44" height="2.56" rx="1.28"/><rect fill="#A3A4A3" x="61.44" y="8.96" width="102.4" height="2.56" rx="1.28"/><rect fill="#00DDBD" width="2.56" height="30.72" rx="1.28"/></g><g transform="translate(341.52 118.92)"><rect stroke="#E5E5E5" stroke-width="1.28" fill="#FFF" x=".64" y=".64" width="440.32" height="29.44" rx="2.56"/><rect stroke="#E5E5E5" stroke-width="1.28" fill="#F8FAFA" x=".64" y=".64" width="29.44" height="29.44" rx="2.56"/><text font-family="IBMPlexSans-Text, IBM Plex Sans" font-size="7.68" font-weight="500" letter-spacing=".064" fill="#323232"><tspan x="107.52" y="13.12">must be</tspan></text><text font-family="IBMPlexSans-Text, IBM Plex Sans" font-size="10.24" font-weight="500" letter-spacing=".085" fill="#FC835C"><tspan x="10.636" y="18.96">Ai</tspan></text><rect fill="#E5E5E5" x="40.96" y="20.48" width="30.72" height="2.56" rx="1.28"/><rect fill="#E5E5E5" x="92.16" y="20.48" width="15.36" height="2.56" rx="1.28"/><rect fill="#E5E5E5" x="148.48" y="20.48" width="15.36" height="2.56" rx="1.28"/><rect fill="#E5E5E5" x="112.64" y="20.48" width="30.72" height="2.56" rx="1.28"/><rect fill="#E5E5E5" x="168.96" y="20.48" width="61.44" height="2.56" rx="1.28"/><rect fill="#A3A4A3" x="40.96" y="8.96" width="61.44" height="2.56" rx="1.28"/><rect fill="#A3A4A3" x="142.08" y="8.96" width="30.72" height="2.56" rx="1.28"/><rect fill="#FC835C" width="2.56" height="30.72" rx="1.28"/></g><g transform="translate(341.52 154.76)"><rect stroke="#E5E5E5" stroke-width="1.28" fill="#FFF" x=".64" y=".64" width="440.32" height="29.44" rx="2.56"/><rect stroke="#E5E5E5" stroke-width="1.28" fill="#F8FAFA" x=".64" y=".64" width="29.44" height="29.44" rx="2.56"/><text font-family="IBMPlexSans-Text, IBM Plex Sans" font-size="7.68" font-weight="500" letter-spacing=".064" fill="#323232"><tspan x="107.52" y="13.12">must be equal to</tspan></text><text font-family="IBMPlexSans-Text, IBM Plex Sans" font-size="10.24" font-weight="500" letter-spacing=".085" fill="#FC835C"><tspan x="6.728" y="18.96">Aeq</tspan></text><rect fill="#E5E5E5" x="40.96" y="20.48" width="30.72" height="2.56" rx="1.28"/><rect fill="#E5E5E5" x="92.16" y="20.48" width="15.36" height="2.56" rx="1.28"/><rect fill="#E5E5E5" x="148.48" y="20.48" width="15.36" height="2.56" rx="1.28"/><rect fill="#E5E5E5" x="112.64" y="20.48" width="30.72" height="2.56" rx="1.28"/><rect fill="#E5E5E5" x="168.96" y="20.48" width="61.44" height="2.56" rx="1.28"/><rect fill="#A3A4A3" x="40.96" y="8.96" width="61.44" height="2.56" rx="1.28"/><rect fill="#A3A4A3" x="172.8" y="8.96" width="20.48" height="2.56" rx="1.28"/><rect fill="#FC835C" width="2.56" height="30.72" rx="1.28"/></g><g transform="translate(341.52 190.6)"><rect stroke="#E5E5E5" stroke-width="1.28" fill="#FFF" x=".64" y=".64" width="440.32" height="29.44" rx="2.56"/><rect stroke="#E5E5E5" stroke-width="1.28" fill="#F8FAFA" x=".64" y=".64" width="29.44" height="29.44" rx="2.56"/><text font-family="IBMPlexSans-Text, IBM Plex Sans" font-size="7.68" font-weight="500" letter-spacing=".064" fill="#323232"><tspan x="107.52" y="13.12">must exist</tspan></text><text font-family="IBMPlexSans-Text, IBM Plex Sans" font-size="10.24" font-weight="500" letter-spacing=".085" fill="#FC835C"><tspan x="9.766" y="18.96">Ae</tspan></text><rect fill="#E5E5E5" x="40.96" y="20.48" width="30.72" height="2.56" rx="1.28"/><rect fill="#E5E5E5" x="92.16" y="20.48" width="15.36" height="2.56" rx="1.28"/><rect fill="#E5E5E5" x="148.48" y="20.48" width="15.36" height="2.56" rx="1.28"/><rect fill="#E5E5E5" x="112.64" y="20.48" width="30.72" height="2.56" rx="1.28"/><rect fill="#E5E5E5" x="168.96" y="20.48" width="61.44" height="2.56" rx="1.28"/><rect fill="#A3A4A3" x="40.96" y="8.96" width="61.44" height="2.56" rx="1.28"/><rect fill="#FC835C" width="2.56" height="30.72" rx="1.28"/></g><g transform="translate(341.52 226.44)"><use fill="#FFF" xlink:href="#F"/><use fill="#000" filter="url(#G)" xlink:href="#F"/><rect stroke="#E5E5E5" stroke-width="1.28" fill="#FFF" x=".64" y=".64" width="440.32" height="29.44" rx="2.56"/><rect stroke="#E5E5E5" stroke-width="1.28" fill="#F8FAFA" x=".64" y=".64" width="29.44" height="29.44" rx="2.56"/><path d="M13.39 12.406h-2.567a5.414 5.414 0 0 1 9.952 2.954h.985a6.402 6.402 0 0 0-11.323-4.093V9.453h-.985v3.938h3.939v-.985zm3.94 5.908h2.567a5.414 5.414 0 0 1-9.952-2.954H8.96a6.402 6.402 0 0 0 11.323 4.094v1.814h.985V17.33h-3.939v.984z" fill="#5392FF" fill-rule="nonzero"/><text font-family="IBMPlexSans-Text, IBM Plex Sans" font-size="7.68" font-weight="500" letter-spacing=".064" fill="#323232"><tspan x="40.96" y="13.12">for each in</tspan></text><rect fill="#E5E5E5" x="40.96" y="20.48" width="30.72" height="2.56" rx="1.28"/><rect fill="#E5E5E5" x="92.16" y="20.48" width="15.36" height="2.56" rx="1.28"/><rect fill="#E5E5E5" x="148.48" y="20.48" width="15.36" height="2.56" rx="1.28"/><rect fill="#E5E5E5" x="112.64" y="20.48" width="30.72" height="2.56" rx="1.28"/><rect fill="#E5E5E5" x="168.96" y="20.48" width="61.44" height="2.56" rx="1.28"/><rect fill="#A3A4A3" x="83.2" y="8.96" width="40.96" height="2.56" rx="1.28"/><rect fill="#5392FF" width="2.56" height="38.4" rx="1.28"/></g></g><g><g transform="translate(159.76 264.84)"><use fill="#F8FAFA" xlink:href="#H"/><use fill="#000" filter="url(#I)" xlink:href="#H"/></g><use filter="url(#J)" xlink:href="#K" fill="#000" transform="translate(159.76 264.84)"/><g transform="translate(707.6 264.84)"><use filter="url(#L)" xlink:href="#M" fill="#000"/><rect fill="#A3A4A3" x="10.24" y="12.8" width="49.92" height="2.56" rx="1.28"/><path d="M80.323 12.69l-2.078 2.074-2.078-2.074.44-.44 1.638 1.641 1.638-1.641z" fill-rule="nonzero" fill="#323232"/></g><g transform="translate(312.08 264.84)"><use filter="url(#N)" xlink:href="#O" fill="#000"/><rect fill="#E5E5E5" x="10.24" y="6.4" width="32" height="15.36" rx="2.56"/><rect fill="#E5E5E5" x="47.36" y="6.4" width="32" height="15.36" rx="2.56"/><rect fill="#E5E5E5" x="130.56" y="6.4" width="32" height="15.36" rx="2.56"/><rect fill="#E5E5E5" x="84.48" y="6.4" width="40.96" height="15.36" rx="2.56"/></g><use filter="url(#P)" xlink:href="#Q" fill="#000" transform="translate(159.76 264.84)"/><text font-family="IBMPlexSans-Bold, IBM Plex Sans" font-size="7.68" font-weight="bold" letter-spacing=".064" fill="#626262" transform="translate(159.76 264.84)"><tspan x="10.24" y="15.68">&amp;gt;_ HTTP Client</tspan></text><g transform="translate(235.28 264.84)"><use filter="url(#R)" xlink:href="#S" fill="#000"/><circle fill="#E5E5E5" cx="17.92" cy="12.8" r="7.68"/><circle fill="#E5E5E5" cx="38.4" cy="12.8" r="7.68"/><circle fill="#E5E5E5" cx="58.88" cy="12.8" r="7.68"/></g></g><g><g transform="translate(159.76 291.72)"><use fill="#FFF" xlink:href="#T"/><use fill="#000" filter="url(#U)" xlink:href="#T"/></g><use filter="url(#V)" xlink:href="#W" fill="#000" transform="translate(159.76 291.72)"/><text font-family="IBMPlexSans-Text, IBM Plex Sans" font-size="5.12" font-weight="500" letter-spacing=".055" fill="#A3A4A3" transform="translate(159.76 291.72)"><tspan x="10.24" y="10.12">Search…</tspan></text><g transform="translate(159.76 308.36)"><use filter="url(#X)" xlink:href="#Y" fill="#000"/><rect fill="#00DDBD" x="10.24" y="8.96" width="16.64" height="2.56" rx="1.28"/><rect fill="#A3A4A3" x="32" y="8.96" width="30.72" height="2.56" rx="1.28"/><rect fill="#E5E5E5" x="10.24" y="16.64" width="76.8" height="2.56" rx="1.28"/><rect fill="#E5E5E5" x="10.24" y="26.88" width="20.48" height="2.56" rx="1.28"/></g><g transform="translate(159.76 382.6)"><use filter="url(#Z)" xlink:href="#aa" fill="#000"/><rect fill="#00DDBD" x="10.24" y="8.96" width="16.64" height="2.56" rx="1.28"/><rect fill="#A3A4A3" x="32" y="8.96" width="30.72" height="2.56" rx="1.28"/><rect fill="#E5E5E5" x="10.24" y="16.64" width="76.8" height="2.56" rx="1.28"/><rect fill="#E5E5E5" x="10.24" y="26.88" width="20.48" height="2.56" rx="1.28"/></g><g transform="translate(159.76 419.72)"><use filter="url(#ab)" xlink:href="#ac" fill="#000"/><rect fill="#00DDBD" x="10.24" y="8.96" width="16.64" height="2.56" rx="1.28"/><rect fill="#A3A4A3" x="32" y="8.96" width="30.72" height="2.56" rx="1.28"/><rect fill="#E5E5E5" x="10.24" y="16.64" width="76.8" height="2.56" rx="1.28"/><rect fill="#E5E5E5" x="10.24" y="26.88" width="20.48" height="2.56" rx="1.28"/></g><g transform="translate(159.76 345.48)"><use filter="url(#ad)" xlink:href="#ae" fill="#000"/><rect fill="#FC835C" x="10.24" y="8.96" width="16.64" height="2.56" rx="1.28"/><rect fill="#A3A4A3" x="32" y="8.96" width="30.72" height="2.56" rx="1.28"/><rect fill="#E5E5E5" x="10.24" y="16.64" width="76.8" height="2.56" rx="1.28"/><rect fill="#E5E5E5" x="10.24" y="26.88" width="20.48" height="2.56" rx="1.28"/></g><g transform="translate(159.76 456.84)"><path d="M0 0h112.64v37.12H0z"/><rect fill="#FC835C" x="10.24" y="8.96" width="16.64" height="2.56" rx="1.28"/><rect fill="#A3A4A3" x="32" y="8.96" width="30.72" height="2.56" rx="1.28"/><rect x="10.24" y="16.64" width="76.8" height="2.56" rx="1.28"/><rect x="10.24" y="26.88" width="20.48" height="2.56" rx="1.28"/></g></g><g><g transform="translate(272.4 291.72)"><use fill="#F8FAFA" xlink:href="#af"/><use fill="#000" filter="url(#ag)" xlink:href="#af"/></g><use filter="url(#ah)" xlink:href="#ai" fill="#000" transform="translate(272.4 291.72)"/><g transform="translate(282.64 301.96)"><rect stroke="#E5E5E5" stroke-width="1.28" fill="#FFF" x=".64" y=".64" width="394.24" height="14.08" rx="2.56"/><path d="M46.72.64v14.08M352.64.64v14.08" stroke="#E5E5E5" stroke-width="1.28" stroke-linecap="square"/><path d="M39.363 6.29l-2.078 2.074-2.078-2.074.44-.44 1.638 1.641 1.638-1.641z" fill-rule="nonzero" fill="#323232"/><rect fill="#A3A4A3" x="58.88" y="6.4" width="144.64" height="2.56" rx="1.28"/><rect fill="#E5E5E5" x="364.8" y="6.4" width="20.48" height="2.56" rx="1.28"/><text font-family="IBMPlexSans-Bold, IBM Plex Sans" font-size="7.68" font-weight="bold" letter-spacing=".064" fill="#A3A4A3"><tspan x="5.12" y="10.56">GET</tspan></text></g><g transform="translate(683.28 301.96)"><rect fill="#00DDBD" width="32" height="15.36" rx="2.56"/><text font-family="IBMPlexSans-Bold, IBM Plex Sans" font-size="7.68" font-weight="bold" letter-spacing=".064" fill="#FFF"><tspan x="6.694" y="10.56">Send</tspan></text><rect fill="#E5E5E5" x="37.12" width="32" height="15.36" rx="2.56"/></g><g transform="translate(277.52 325)"><rect fill="#A3A4A3" x="5.12" width="30.72" height="2.56" rx="1.28"/><rect fill="#E5E5E5" x="5.12" y="17.92" width="30.72" height="2.56" rx="1.28"/><rect fill="#E5E5E5" x="224" y="17.92" width="30.72" height="2.56" rx="1.28"/><path fill="#00DDBD" d="M0 8.96h39.68v1.28H0z"/><path fill="#E5E5E5" d="M0 26.88h208.64v1.28H0zM218.88 26.88h208.64v1.28H218.88z"/><circle fill="#E5E5E5" cx="467.2" cy="23.04" r="7.68"/><circle fill="#E5E5E5" cx="446.72" cy="23.04" r="7.68"/><rect fill="#E5E5E5" x="46.08" width="20.48" height="2.56" rx="1.28"/></g></g><g><g transform="translate(272.4 360.84)"><use fill="#FFF" xlink:href="#aj"/><use fill="#000" filter="url(#ak)" xlink:href="#aj"/></g><text font-family="IBMPlexSans-SemiBold, IBM Plex Sans" font-size="5.12" font-weight="500" letter-spacing=".043" fill="#A3A4A3" transform="translate(283.92 365.96)"><tspan x="0" y="5">Headers</tspan></text><text font-family="IBMPlexSans-SemiBold, IBM Plex Sans" font-size="5.12" font-weight="500" letter-spacing=".043" fill="#323232" transform="translate(283.92 365.96)"><tspan x="30.72" y="5">Body</tspan></text><path fill="#00DDBD" d="M309.52 377.48h21.76v1.28h-21.76z"/><g transform="translate(610.32 365.96)"><rect fill="#A3A4A3" x="60.16" y="2.56" width="20.48" height="2.56" rx="1.28"/><rect fill="#A3A4A3" x="90.88" y="2.56" width="20.48" height="2.56" rx="1.28"/><rect fill="#A3A4A3" x="121.6" y="2.56" width="20.48" height="2.56" rx="1.28"/><text font-family="IBMPlexSans-SemiBold, IBM Plex Sans" font-size="5.12" font-weight="500" letter-spacing=".043" fill="#00DDBD"><tspan x="10.24" y="5">HTTP Code: 200</tspan></text><circle fill="#00DDBD" cx="2.56" cy="3.84" r="2.56"/></g></g><g transform="translate(272.4 378.76)"><path fill="#FFF" d="M0 0h526.08v90.88H0z"/><rect fill="#E5E5E5" x="10.24" y="10.24" width="81.92" height="2.56" rx="1.28"/><rect fill="#E5E5E5" x="20.48" y="17.92" width="158.72" height="2.56" rx="1.28"/><rect fill="#E5E5E5" x="20.48" y="25.6" width="32" height="2.56" rx="1.28"/><rect fill="#E5E5E5" x="20.48" y="33.28" width="20.48" height="2.56" rx="1.28"/><rect fill="#E5E5E5" x="20.48" y="40.96" width="61.44" height="2.56" rx="1.28"/><rect fill="#E5E5E5" x="20.48" y="48.64" width="40.96" height="2.56" rx="1.28"/><rect fill="#E5E5E5" x="20.48" y="79.36" width="61.44" height="2.56" rx="1.28"/><rect fill="#E5E5E5" x="20.48" y="87.04" width="40.96" height="2.56" rx="1.28"/><rect fill="#E5E5E5" x="30.72" y="56.32" width="61.44" height="2.56" rx="1.28"/><rect fill="#E5E5E5" x="30.72" y="64" width="81.92" height="2.56" rx="1.28"/><rect fill="#E5E5E5" x="30.72" y="71.68" width="30.72" height="2.56" rx="1.28"/><rect fill="#5392FF" x="117.76" y="64" width="20.48" height="2.56" rx="1.28"/><rect fill="#00DDBD" x="66.56" y="71.68" width="20.48" height="2.56" rx="1.28"/><rect fill="#00DDBD" x="87.04" y="79.36" width="40.96" height="2.56" rx="1.28"/><rect fill="#00DDBD" x="66.56" y="87.04" width="30.72" height="2.56" rx="1.28"/><rect fill="#5392FF" x="97.28" y="56.32" width="10.24" height="2.56" rx="1.28"/><rect fill="#00DDBD" x="87.04" y="40.96" width="20.48" height="2.56" rx="1.28"/><rect fill="#5392FF" x="44.8" y="33.28" width="20.48" height="2.56" rx="1.28"/><rect fill="#5392FF" x="57.6" y="25.6" width="20.48" height="2.56" rx="1.28"/></g></g></svg>