<svg width="564" height="73" viewBox="0 0 564 73" xmlns="http://www.w3.org/2000/svg"><title>Logo and Header</title><defs><linearGradient x1="-77.328%" y1="50%" x2="114.807%" y2="50%" id="a"><stop stop-color="#00DDBD" offset="0%"/><stop stop-color="#5392FF" offset="100%"/></linearGradient><linearGradient x1="151.657%" y1="246.056%" x2="8.398%" y2="50%" id="b"><stop stop-color="#00FFD9" offset="0%"/><stop stop-color="#5392FF" offset="100%"/></linearGradient></defs><g fill="none" fill-rule="evenodd"><path d="M60.656 53.825L66 40.89c.352.2.727.357 1.116.47l-5.344 12.932a5.199 5.199 0 0 0-1.116-.467zM41.281 65.706l12.9-5.373c.11.392.264.77.46 1.125l-12.898 5.373a5.277 5.277 0 0 0-.462-1.125zm-6.492-2.34c-.376.15-.734.345-1.066.579l-5.636-10.63a5.174 5.174 0 0 0 1.065-.575l5.637 10.627zm19.65-6.626c-.166.37-.29.76-.366 1.16l-23.126-7.336c.167-.371.29-.761.366-1.161L54.44 56.74zm-32.59-5.354c.227.335.493.642.791.915l-4.128 3.615a5.298 5.298 0 0 0-.793-.915l4.13-3.615zM9.167 39.402c.24-.328.443-.682.602-1.056l12.177 6.953c-.24.327-.443.68-.602 1.055L9.168 39.402zM22.255 20.44l-4.285-3.253c.278-.295.523-.621.728-.972l4.287 3.255a8.094 8.094 0 0 0-.73.97zm-.743 7.287c.144.38.317.747.517 1.1L9.904 34.602a5.24 5.24 0 0 0-.52-1.098l12.128-5.777zm14.836-6.287l17.809-6.65c.095.395.236.778.42 1.14L36.77 22.58a8.034 8.034 0 0 0-.423-1.14zM34.4 8.998c.358.188.738.334 1.13.433l-3.066 8.06a7.858 7.858 0 0 0-1.126-.443l3.062-8.05zm23.218 44.873a5.212 5.212 0 0 0-1.098.511l-3.558-7.903c.377-.145.745-.311 1.102-.5l3.554 7.892zM35.668 29.412c.227-.336.43-.688.604-1.055l4.196 2.458c-.222.34-.424.692-.605 1.055l-4.195-2.458zm-4.589 17.171a5.31 5.31 0 0 0-.545-1.087l9.069-4.634c.163.37.348.732.553 1.082l-9.077 4.64zm32.328-9.335h-3.76c.012-.203.03-.4.03-.609 0-.21-.018-.41-.03-.609h3.682c-.005.087-.014.173-.014.26.002.322.032.642.092.958zm-5.698-18.664l-3.764 8.66a10.37 10.37 0 0 0-1.109-.488l3.767-8.666c.348.208.72.373 1.106.494zm-30.31 24.7a5.22 5.22 0 0 0-1.198-.149l1.254-10.356c.397.075.798.121 1.202.137L27.4 43.285zm39.734-12.066c-.39.11-.766.265-1.12.463l-5.352-13.069c.39-.11.765-.264 1.12-.462l5.352 13.068zM54.66 10.985a5.234 5.234 0 0 0-.464 1.134l-12.765-5.29c.191-.36.34-.74.443-1.133l12.786 5.29zm-22.464-4.19l-12.972 5.338a5.254 5.254 0 0 0-.456-1.128L31.761 5.66c.102.394.248.775.436 1.135zM12.775 18.625L7.474 31.674a5.157 5.157 0 0 0-1.12-.46l5.3-13.047c.355.197.73.35 1.12.46zm-.001 35.195c-.39.11-.766.265-1.12.462l-5.287-12.92c.39-.11.765-.265 1.118-.462l5.289 12.92zm5.996 7.637c.197-.355.352-.733.461-1.125l12.9 5.373a5.252 5.252 0 0 0-.461 1.126l-12.9-5.374zm7.4-8.991c-2.225-.003-4.028-1.819-4.03-4.06a4.06 4.06 0 0 1 2.488-3.75 4.011 4.011 0 0 1 4.394.881 4.08 4.08 0 0 1 .873 4.424 4.031 4.031 0 0 1-3.725 2.505zM49.2 27.305c5.117.006 9.264 4.181 9.27 9.334 0 3.775-2.26 7.179-5.723 8.623a9.224 9.224 0 0 1-10.102-2.023 9.38 9.38 0 0 1-2.01-10.172 9.27 9.27 0 0 1 8.565-5.762zm5.036 9.363a.265.265 0 0 0 .006-.029c-.004-2.65-2.034-4.852-4.659-5.053a4.81 4.81 0 0 0-.381-.02 5.033 5.033 0 0 0-4.008 2.009 5.103 5.103 0 0 0-.948 3.952c.444 2.41 2.522 4.165 4.956 4.185.211-.001.422-.016.632-.044 2.503-.323 4.384-2.459 4.402-5zM29.029 31.72c-3.783 0-6.85-3.089-6.85-6.899s3.067-6.898 6.85-6.898c3.784 0 6.852 3.088 6.852 6.898 0 3.81-3.068 6.899-6.852 6.899zm30.213-14.122c-2.224-.003-4.026-1.816-4.03-4.055a4.06 4.06 0 0 1 2.485-3.753 4.011 4.011 0 0 1 4.395.878 4.08 4.08 0 0 1 .875 4.424 4.031 4.031 0 0 1-3.725 2.506zM14.196 54.836c2.224.003 4.027 1.818 4.03 4.057a4.058 4.058 0 0 1-2.488 3.75 4.01 4.01 0 0 1-4.393-.88 4.079 4.079 0 0 1-.873-4.422 4.03 4.03 0 0 1 3.724-2.505zm45.02 8.115c-2.225 0-4.03-1.816-4.03-4.058 0-2.24 1.805-4.058 4.03-4.058 2.227 0 4.031 1.817 4.031 4.058 0 2.242-1.804 4.058-4.03 4.058zm9.339-22.602c-2.226 0-4.03-1.817-4.03-4.058 0-2.242 1.804-4.058 4.03-4.058s4.03 1.816 4.03 4.058c0 2.24-1.804 4.058-4.03 4.058zM36.825 8.384c-2.224-.003-4.027-1.818-4.03-4.058a4.06 4.06 0 0 1 2.488-3.75 4.011 4.011 0 0 1 4.394.879 4.08 4.08 0 0 1 .874 4.424 4.031 4.031 0 0 1-3.726 2.505zm-22.642 9.224c-2.225-.003-4.027-1.818-4.03-4.058 0-1.641.982-3.12 2.488-3.749a4.01 4.01 0 0 1 4.392.88 4.079 4.079 0 0 1 .874 4.422 4.03 4.03 0 0 1-3.724 2.505zM5.87 40.242c-2.166.515-4.337-.836-4.848-3.018-.512-2.18.83-4.366 2.996-4.881 2.167-.515 4.337.836 4.849 3.017.511 2.181-.83 4.367-2.997 4.882zm30.837 23.971c2.144.004 3.91 1.696 4.02 3.852.109 2.155-1.476 4.02-3.608 4.244a4.316 4.316 0 0 1-.412.021 4.026 4.026 0 0 1-3.543-2.01 4.083 4.083 0 0 1 0-4.096 4.026 4.026 0 0 1 3.543-2.011z" fill="url(#a)"/><path d="M133.048 56.37h-8.34l-2.64-8.726h-12.3l-2.639 8.725H99l12.141-36.688h9.924l11.983 36.688zm-12.933-15.507l-4.118-13.929h-.264l-4.064 13.93h8.446zm26.077 15.506h-8.024V19.681h17.42c6.862 0 11.19 4.783 11.19 11.721s-4.328 11.722-11.19 11.722h-9.396v13.245zm0-29.75v9.566h8.445c2.376 0 3.854-1.261 3.854-3.627v-2.312c0-2.366-1.478-3.627-3.854-3.627h-8.445zm42.704 29.75h-17.525v-6.36h4.75V26.041h-4.75v-6.36h17.525v6.36h-4.75v23.968h4.75v6.36zm44.5-29.592h-9.977v29.592h-8.024V26.777h-9.977V19.68h27.978v7.096zM250.023 57c-8.498 0-13.302-5.624-13.302-14.455 0-8.725 4.645-14.402 12.986-14.402 9.185 0 12.88 6.623 12.88 14.087v2.313h-17.79v.42c0 3.627 1.954 5.94 6.124 5.94 3.273 0 5.067-1.525 6.81-3.312l3.906 4.836C259.156 55.265 255.09 57 250.023 57zm-.158-23.127c-3.114 0-5.068 2.26-5.068 5.676v.42h9.713v-.472c0-3.364-1.53-5.624-4.645-5.624zM277.525 57c-5.331 0-8.815-1.787-11.666-4.94l4.593-4.626c1.953 2.155 4.328 3.521 7.337 3.521 3.062 0 4.118-.998 4.118-2.628 0-1.366-.845-2.05-2.798-2.313l-3.009-.367c-6.282-.789-9.343-3.522-9.343-8.516 0-5.308 4.17-8.988 10.768-8.988 5.807 0 8.5 1.577 11.297 4.31l-4.487 4.573c-1.742-1.734-4.065-2.838-6.387-2.838-2.64 0-3.695.946-3.695 2.313 0 1.471.633 2.26 2.903 2.575l3.114.42c6.018.79 9.132 3.522 9.132 8.306 0 5.308-4.75 9.198-11.877 9.198zm31.567-.63h-4.645c-5.385 0-8.235-2.787-8.235-8.043V34.82h-3.906v-6.045h1.953c2.111 0 2.745-1.051 2.745-2.944v-4.52h7.02v7.464h5.49v6.045h-5.49v15.506h5.068v6.044zm43.127 0l-2.745-2.997C347.15 55.265 344.037 57 338.917 57c-8.13 0-12.51-4.363-12.51-10.25 0-4.993 3.113-7.726 7.39-10.197-2.06-2.313-4.118-5.361-4.118-8.725 0-4.836 4.276-8.778 11.032-8.778 6.018 0 10.61 3.049 10.61 8.41 0 4.625-3.325 7.464-7.337 9.83l5.701 6.149c.897-2.26 1.373-4.836 1.53-7.306h8.816v6.465h-3.325c-.58 2.155-1.373 4.152-2.376 5.834l7.338 7.937h-9.45zM340.5 24.99c-1.9 0-3.378 1.103-3.378 2.996v.21c0 1.366.844 2.523 3.009 4.94 2.48-1.471 3.748-2.838 3.748-4.94v-.21c0-1.893-1.479-2.997-3.379-2.997zm-.422 25.545c2.111 0 3.906-.526 5.331-1.472l-7.76-8.357c-2.375 1.419-3.272 2.785-3.272 4.678v.525c0 2.681 1.9 4.626 5.7 4.626zm65.825 5.834V32.296h-.158l-2.692 5.361-7.18 12.983-7.02-12.93-2.798-5.782h-.158v24.441h-7.549V19.681h8.5l9.026 17.188h.105L404.9 19.68h8.552v36.688h-7.549zm26.5.631c-8.13 0-12.986-5.572-12.986-14.455s4.856-14.402 12.985-14.402c8.13 0 12.986 5.52 12.986 14.402 0 8.883-4.857 14.455-12.986 14.455zm0-6.15c3.06 0 4.856-1.997 4.856-5.466V39.76c0-3.47-1.795-5.467-4.857-5.467-3.061 0-4.856 1.997-4.856 5.467v5.624c0 3.469 1.795 5.466 4.856 5.466zm26.34 5.52h-7.813V28.773h7.813v4.678h.317c1.003-2.89 3.325-5.309 7.706-5.309 5.649 0 8.658 3.995 8.658 10.933V56.37h-7.813V39.707c0-3.522-1.003-5.256-3.853-5.256-2.534 0-5.015 1.314-5.015 4.047v17.871zm27.555-30.54c-3.168 0-4.54-1.629-4.54-3.837v-1.156c0-2.208 1.372-3.837 4.54-3.837 3.167 0 4.54 1.63 4.54 3.837v1.156c0 2.208-1.373 3.837-4.54 3.837zm-3.907 30.54V28.773h7.813v27.595h-7.813zm29.456 0H507.2c-5.384 0-8.234-2.787-8.234-8.043V34.82h-3.907v-6.045h1.953c2.112 0 2.745-1.051 2.745-2.944v-4.52h7.021v7.464h5.49v6.045h-5.49v15.506h5.068v6.044zm17.102.63c-8.129 0-12.985-5.572-12.985-14.455s4.856-14.402 12.985-14.402c8.13 0 12.986 5.52 12.986 14.402 0 8.883-4.856 14.455-12.986 14.455zm0-6.15c3.062 0 4.857-1.997 4.857-5.466V39.76c0-3.47-1.795-5.467-4.857-5.467-3.061 0-4.856 1.997-4.856 5.467v5.624c0 3.469 1.795 5.466 4.856 5.466zm26.341 5.52h-7.812V28.773h7.812v5.992h.264c.634-3.049 2.745-5.992 7.074-5.992H564v7.254h-1.953c-4.54 0-6.757.998-6.757 4.205v16.136z" fill="url(#b)"/></g></svg>