<svg width="799" height="73" viewBox="0 0 799 73" xmlns="http://www.w3.org/2000/svg"><title>Logo and Header w &amp;apos;Connect&amp;apos;</title><defs><linearGradient x1="-54.446%" y1="100%" x2="82.357%" y2="100%" id="a"><stop stop-color="#00FFD9" offset="0%"/><stop stop-color="#5392FF" offset="100%"/></linearGradient><linearGradient x1="135.479%" y1="50%" x2="-17.847%" y2="50%" id="b"><stop stop-color="#00DDBD" offset="0%"/><stop stop-color="#5392FF" offset="100%"/></linearGradient></defs><g fill="none" fill-rule="evenodd"><path d="M131.58 56h-8.216l-2.6-8.632h-12.116l-2.6 8.632H98.04L110 19.704h9.776L131.58 56zm-12.74-15.34l-4.056-13.78h-.26l-4.004 13.78h8.32zM145.828 56h-7.904V19.704h17.16c6.76 0 11.024 4.732 11.024 11.596s-4.264 11.596-11.024 11.596h-9.256V56zm0-29.432v9.464h8.32c2.34 0 3.796-1.248 3.796-3.588v-2.288c0-2.34-1.456-3.588-3.796-3.588h-8.32zM189.196 56h-17.264v-6.292h4.68V25.996h-4.68v-6.292h17.264v6.292h-4.68v23.712h4.68V56zm36.14.624c-9.776 0-16.068-6.24-16.068-18.512s6.292-19.032 16.068-19.032c6.656 0 10.92 2.704 13.572 8.528l-6.812 3.536c-.936-3.016-2.86-5.044-6.76-5.044-4.628 0-7.696 3.12-7.696 8.84v5.824c0 5.72 3.068 8.84 7.696 8.84 3.9 0 6.136-2.444 7.228-5.408l6.448 3.744c-2.704 5.512-7.02 8.684-13.676 8.684zm31.148 0c-8.008 0-12.792-5.512-12.792-14.3s4.784-14.248 12.792-14.248 12.792 5.46 12.792 14.248-4.784 14.3-12.792 14.3zm0-6.084c3.016 0 4.784-1.976 4.784-5.408v-5.564c0-3.432-1.768-5.408-4.784-5.408s-4.784 1.976-4.784 5.408v5.564c0 3.432 1.768 5.408 4.784 5.408zM283.732 56h-7.696V28.7h7.696v4.628h.312c.988-2.86 3.276-5.252 7.592-5.252 5.564 0 8.528 3.952 8.528 10.816V56h-7.696V39.516c0-3.484-.988-5.2-3.796-5.2-2.496 0-4.94 1.3-4.94 4.004V56zm32.292 0h-7.696V28.7h7.696v4.628h.312c.988-2.86 3.276-5.252 7.592-5.252 5.564 0 8.528 3.952 8.528 10.816V56h-7.696V39.516c0-3.484-.988-5.2-3.796-5.2-2.496 0-4.94 1.3-4.94 4.004V56zm35.984.624c-8.372 0-13.104-5.564-13.104-14.3 0-8.632 4.576-14.248 12.792-14.248 9.048 0 12.688 6.552 12.688 13.936V44.3H346.86v.416c0 3.588 1.924 5.876 6.032 5.876 3.224 0 4.992-1.508 6.708-3.276l3.848 4.784c-2.444 2.808-6.448 4.524-11.44 4.524zm-.156-22.88c-3.068 0-4.992 2.236-4.992 5.616v.416h9.568v-.468c0-3.328-1.508-5.564-4.576-5.564zm30.316 22.88c-8.216 0-12.74-5.564-12.74-14.3s4.524-14.248 12.74-14.248c5.512 0 9.308 2.652 10.92 7.124l-6.24 2.704c-.468-2.08-1.976-3.744-4.68-3.744-3.12 0-4.732 2.236-4.732 5.668v5.096c0 3.432 1.612 5.668 4.732 5.668 3.068 0 4.316-1.924 5.096-4.108l5.98 2.6c-1.82 5.2-5.72 7.54-11.076 7.54zM413.472 56h-4.576c-5.304 0-8.112-2.756-8.112-7.956V34.68h-3.848V28.7h1.924c2.08 0 2.704-1.04 2.704-2.912v-4.472h6.916V28.7h5.408v5.98h-5.408v15.34h4.992V56zm46.02-29.276h-9.828V56h-7.904V26.724h-9.828v-7.02h27.56v7.02zm14.3 29.9c-8.372 0-13.104-5.564-13.104-14.3 0-8.632 4.576-14.248 12.792-14.248 9.048 0 12.688 6.552 12.688 13.936V44.3h-17.524v.416c0 3.588 1.924 5.876 6.032 5.876 3.224 0 4.992-1.508 6.708-3.276l3.848 4.784c-2.444 2.808-6.448 4.524-11.44 4.524zm-.156-22.88c-3.068 0-4.992 2.236-4.992 5.616v.416h9.568v-.468c0-3.328-1.508-5.564-4.576-5.564zm28.548 22.88c-5.252 0-8.684-1.768-11.492-4.888l4.524-4.576c1.924 2.132 4.264 3.484 7.228 3.484 3.016 0 4.056-.988 4.056-2.6 0-1.352-.832-2.028-2.756-2.288l-2.964-.364c-6.188-.78-9.204-3.484-9.204-8.424 0-5.252 4.108-8.892 10.608-8.892 5.72 0 8.372 1.56 11.128 4.264l-4.42 4.524c-1.716-1.716-4.004-2.808-6.292-2.808-2.6 0-3.64.936-3.64 2.288 0 1.456.624 2.236 2.86 2.548l3.068.416c5.928.78 8.996 3.484 8.996 8.216 0 5.252-4.68 9.1-11.7 9.1zm31.98-.624h-4.576c-5.304 0-8.112-2.756-8.112-7.956V34.68h-3.848V28.7h1.924c2.08 0 2.704-1.04 2.704-2.912v-4.472h6.916V28.7h5.408v5.98h-5.408v15.34h4.992V56zm45.084 0l-2.704-2.964c-2.288 1.872-5.356 3.588-10.4 3.588-8.008 0-12.324-4.316-12.324-10.14 0-4.94 3.068-7.644 7.28-10.088-2.028-2.288-4.056-5.304-4.056-8.632 0-4.784 4.212-8.684 10.868-8.684 5.928 0 10.452 3.016 10.452 8.32 0 4.576-3.276 7.384-7.228 9.724l5.616 6.084c.884-2.236 1.352-4.784 1.508-7.228h8.684v6.396h-3.276c-.572 2.132-1.352 4.108-2.34 5.772L588.556 56h-9.308zm-11.544-31.044c-1.872 0-3.328 1.092-3.328 2.964v.208c0 1.352.832 2.496 2.964 4.888 2.444-1.456 3.692-2.808 3.692-4.888v-.208c0-1.872-1.456-2.964-3.328-2.964zm-.416 25.272c2.08 0 3.848-.52 5.252-1.456l-7.644-8.268c-2.34 1.404-3.224 2.756-3.224 4.628v.52c0 2.652 1.872 4.576 5.616 4.576zM634.732 56V32.184h-.156l-2.652 5.304-7.072 12.844-6.916-12.792-2.756-5.72h-.156V56h-7.436V19.704h8.372l8.892 17.004h.104l8.788-17.004h8.424V56h-7.436zm27.404.624c-8.008 0-12.792-5.512-12.792-14.3s4.784-14.248 12.792-14.248 12.792 5.46 12.792 14.248-4.784 14.3-12.792 14.3zm0-6.084c3.016 0 4.784-1.976 4.784-5.408v-5.564c0-3.432-1.768-5.408-4.784-5.408s-4.784 1.976-4.784 5.408v5.564c0 3.432 1.768 5.408 4.784 5.408zM689.384 56h-7.696V28.7h7.696v4.628h.312c.988-2.86 3.276-5.252 7.592-5.252 5.564 0 8.528 3.952 8.528 10.816V56h-7.696V39.516c0-3.484-.988-5.2-3.796-5.2-2.496 0-4.94 1.3-4.94 4.004V56zm28.444-30.212c-3.12 0-4.472-1.612-4.472-3.796v-1.144c0-2.184 1.352-3.796 4.472-3.796s4.472 1.612 4.472 3.796v1.144c0 2.184-1.352 3.796-4.472 3.796zM713.98 56V28.7h7.696V56h-7.696zm30.316 0h-4.576c-5.304 0-8.112-2.756-8.112-7.956V34.68h-3.848V28.7h1.924c2.08 0 2.704-1.04 2.704-2.912v-4.472h6.916V28.7h5.408v5.98h-5.408v15.34h4.992V56zm17.94.624c-8.008 0-12.792-5.512-12.792-14.3s4.784-14.248 12.792-14.248 12.792 5.46 12.792 14.248-4.784 14.3-12.792 14.3zm0-6.084c3.016 0 4.784-1.976 4.784-5.408v-5.564c0-3.432-1.768-5.408-4.784-5.408s-4.784 1.976-4.784 5.408v5.564c0 3.432 1.768 5.408 4.784 5.408zM789.484 56h-7.696V28.7h7.696v5.928h.26c.624-3.016 2.704-5.928 6.968-5.928h1.352v7.176h-1.924c-4.472 0-6.656.988-6.656 4.16V56z" fill="url(#a)"/><path d="M60.656 53.825L66 40.89c.352.2.727.357 1.116.47l-5.344 12.932a5.199 5.199 0 0 0-1.116-.467zM41.281 65.706l12.9-5.373c.11.392.264.77.46 1.125l-12.898 5.373a5.277 5.277 0 0 0-.462-1.125zm-6.492-2.34c-.376.15-.734.345-1.066.579l-5.636-10.63a5.174 5.174 0 0 0 1.065-.575l5.637 10.627zm19.65-6.626c-.166.37-.29.76-.366 1.16l-23.126-7.336c.167-.371.29-.761.366-1.161L54.44 56.74zm-32.59-5.354c.227.335.493.642.791.915l-4.128 3.615a5.298 5.298 0 0 0-.793-.915l4.13-3.615zM9.167 39.402c.24-.328.443-.682.602-1.056l12.177 6.953c-.24.327-.443.68-.602 1.055L9.168 39.402zM22.255 20.44l-4.285-3.253c.278-.295.523-.621.728-.972l4.287 3.255a8.094 8.094 0 0 0-.73.97zm-.743 7.287c.144.38.317.747.517 1.1L9.904 34.602a5.24 5.24 0 0 0-.52-1.098l12.128-5.777zm14.836-6.287l17.809-6.65c.095.395.236.778.42 1.14L36.77 22.58a8.034 8.034 0 0 0-.423-1.14zM34.4 8.998c.358.188.738.334 1.13.433l-3.066 8.06a7.858 7.858 0 0 0-1.126-.443l3.062-8.05zm23.218 44.873a5.212 5.212 0 0 0-1.098.511l-3.558-7.903c.377-.145.745-.311 1.102-.5l3.554 7.892zM35.668 29.412c.227-.336.43-.688.604-1.055l4.196 2.458c-.222.34-.424.692-.605 1.055l-4.195-2.458zm-4.589 17.171a5.31 5.31 0 0 0-.545-1.087l9.069-4.634c.163.37.348.732.553 1.082l-9.077 4.64zm32.328-9.335h-3.76c.012-.203.03-.4.03-.609 0-.21-.018-.41-.03-.609h3.682c-.005.087-.014.173-.014.26.002.322.032.642.092.958zm-5.698-18.664l-3.764 8.66a10.37 10.37 0 0 0-1.109-.488l3.767-8.666c.348.208.72.373 1.106.494zm-30.31 24.7a5.22 5.22 0 0 0-1.198-.149l1.254-10.356c.397.075.798.121 1.202.137L27.4 43.285zm39.734-12.066c-.39.11-.766.265-1.12.463l-5.352-13.069c.39-.11.765-.264 1.12-.462l5.352 13.068zM54.66 10.985a5.234 5.234 0 0 0-.464 1.134l-12.765-5.29c.191-.36.34-.74.443-1.133l12.786 5.29zm-22.464-4.19l-12.972 5.338a5.254 5.254 0 0 0-.456-1.128L31.761 5.66c.102.394.248.775.436 1.135zM12.775 18.625L7.474 31.674a5.157 5.157 0 0 0-1.12-.46l5.3-13.047c.355.197.73.35 1.12.46zm-.001 35.195c-.39.11-.766.265-1.12.462l-5.287-12.92c.39-.11.765-.265 1.118-.462l5.289 12.92zm5.996 7.637c.197-.355.352-.733.461-1.125l12.9 5.373a5.252 5.252 0 0 0-.461 1.126l-12.9-5.374zm7.4-8.991c-2.225-.003-4.028-1.819-4.03-4.06a4.06 4.06 0 0 1 2.488-3.75 4.011 4.011 0 0 1 4.394.881 4.08 4.08 0 0 1 .873 4.424 4.031 4.031 0 0 1-3.725 2.505zM49.2 27.305c5.117.006 9.264 4.181 9.27 9.334 0 3.775-2.26 7.179-5.723 8.623a9.224 9.224 0 0 1-10.102-2.023 9.38 9.38 0 0 1-2.01-10.172 9.27 9.27 0 0 1 8.565-5.762zm5.036 9.363a.265.265 0 0 0 .006-.029c-.004-2.65-2.034-4.852-4.659-5.053a4.81 4.81 0 0 0-.381-.02 5.033 5.033 0 0 0-4.008 2.009 5.103 5.103 0 0 0-.948 3.952c.444 2.41 2.522 4.165 4.956 4.185.211-.001.422-.016.632-.044 2.503-.323 4.384-2.459 4.402-5zM29.029 31.72c-3.783 0-6.85-3.089-6.85-6.899s3.067-6.898 6.85-6.898c3.784 0 6.852 3.088 6.852 6.898 0 3.81-3.068 6.899-6.852 6.899zm30.213-14.122c-2.224-.003-4.026-1.816-4.03-4.055a4.06 4.06 0 0 1 2.485-3.753 4.011 4.011 0 0 1 4.395.878 4.08 4.08 0 0 1 .875 4.424 4.031 4.031 0 0 1-3.725 2.506zM14.196 54.836c2.224.003 4.027 1.818 4.03 4.057a4.058 4.058 0 0 1-2.488 3.75 4.01 4.01 0 0 1-4.393-.88 4.079 4.079 0 0 1-.873-4.422 4.03 4.03 0 0 1 3.724-2.505zm45.02 8.115c-2.225 0-4.03-1.816-4.03-4.058 0-2.24 1.805-4.058 4.03-4.058 2.227 0 4.031 1.817 4.031 4.058 0 2.242-1.804 4.058-4.03 4.058zm9.339-22.602c-2.226 0-4.03-1.817-4.03-4.058 0-2.242 1.804-4.058 4.03-4.058s4.03 1.816 4.03 4.058c0 2.24-1.804 4.058-4.03 4.058zM36.825 8.384c-2.224-.003-4.027-1.818-4.03-4.058a4.06 4.06 0 0 1 2.488-3.75 4.011 4.011 0 0 1 4.394.879 4.08 4.08 0 0 1 .874 4.424 4.031 4.031 0 0 1-3.726 2.505zm-22.642 9.224c-2.225-.003-4.027-1.818-4.03-4.058 0-1.641.982-3.12 2.488-3.749a4.01 4.01 0 0 1 4.392.88 4.079 4.079 0 0 1 .874 4.422 4.03 4.03 0 0 1-3.724 2.505zM5.87 40.242c-2.166.515-4.337-.836-4.848-3.018-.512-2.18.83-4.366 2.996-4.881 2.167-.515 4.337.836 4.849 3.017.511 2.181-.83 4.367-2.997 4.882zm30.837 23.971c2.144.004 3.91 1.696 4.02 3.852.109 2.155-1.476 4.02-3.608 4.244a4.316 4.316 0 0 1-.412.021 4.026 4.026 0 0 1-3.543-2.01 4.083 4.083 0 0 1 0-4.096 4.026 4.026 0 0 1 3.543-2.011z" fill="url(#b)"/></g></svg>