<?xml version="1.0" encoding="UTF-8"?>
<svg width="564px" height="73px" viewBox="0 0 564 73" version="1.1" xmlns="http://www.w3.org/2000/svg" xmlns:xlink="http://www.w3.org/1999/xlink">
    <!-- Generator: Sketch 52.2 (67145) - http://www.bohemiancoding.com/sketch -->
    <title>Logo and Header</title>
    <desc>Created with Sketch.</desc>
    <defs>
        <linearGradient x1="-77.3276909%" y1="50%" x2="114.806769%" y2="50%" id="linearGradient-1">
            <stop stop-color="#00DDBD" offset="0%"></stop>
            <stop stop-color="#5392FF" offset="100%"></stop>
        </linearGradient>
        <linearGradient x1="151.656885%" y1="246.056414%" x2="8.39813674%" y2="50%" id="linearGradient-2">
            <stop stop-color="#00FFD9" offset="0%"></stop>
            <stop stop-color="#5392FF" offset="100%"></stop>
        </linearGradient>
    </defs>
    <g id="Page-1-Copy" stroke="none" stroke-width="1" fill="none" fill-rule="evenodd">
        <g id="Artboard-Copy-15" transform="translate(-56.000000, -56.000000)">
            <g id="Logo-and-Header" transform="translate(56.000000, 56.000000)">
                <g id="APIC-Logo" fill="url(#linearGradient-1)">
                    <path d="M60.6560254,53.8253219 L65.9996436,40.8896363 C66.3523328,41.0893424 66.7268805,41.2470943 67.1157471,41.3597164 L61.7721289,54.2924078 C61.4193167,54.0937125 61.0447709,53.9369662 60.6560254,53.8253219 Z M41.2808252,65.7060719 L54.1804443,60.3325875 C54.290293,60.7245494 54.4449662,61.1023443 54.6413574,61.4583844 L41.7427295,66.8308707 C41.6325357,66.4391939 41.4775288,66.0617313 41.2808252,65.7060719 Z M34.7893848,63.36665 C34.41279,63.5169167 34.0548631,63.7108469 33.7228418,63.9445191 L28.0868164,53.3143219 C28.4629965,53.1654919 28.8206075,52.9728924 29.1523682,52.7404449 L34.7893848,63.36665 Z M54.4391504,56.7396187 C54.2725959,57.1108048 54.1498389,57.5003739 54.0733936,57.9003473 L30.9474512,50.5637047 C31.1140057,50.1925186 31.2367627,49.8029495 31.313208,49.4029762 L54.4391504,56.7396187 Z M21.8481348,51.3860953 C22.0762473,51.7208531 22.3420012,52.0279582 22.6401123,52.3013043 L18.5117188,55.9162301 C18.2830393,55.5816194 18.0169756,55.2745405 17.71875,55.0010211 L21.8481348,51.3860953 Z M9.16757324,39.4015484 C9.40835079,39.07423 9.61058902,38.7198818 9.77022949,38.3456148 L21.9472559,45.2990074 C21.7063344,45.625874 21.5040835,45.9799093 21.3445996,46.353943 L9.16757324,39.4015484 Z M22.2545312,20.4396558 L17.9695264,17.1870211 C18.2484504,16.8920703 18.4928913,16.5659105 18.6980664,16.2149234 L22.9850537,19.4695543 C22.7177197,19.7740096 22.4735225,20.0982927 22.2545312,20.4396558 Z M21.5121143,27.7273941 C21.6562245,28.1067006 21.8288658,28.4743835 22.0285352,28.8272418 L9.90404297,34.601941 C9.77394111,34.2168819 9.59962924,33.8484365 9.38464844,33.5040894 L21.5121143,27.7273941 Z M36.3475684,21.4396988 L54.1566553,14.7897125 C54.2520061,15.185194 54.3930593,15.5680613 54.5769287,15.9304801 L36.7708154,22.5794683 C36.6586778,22.189276 36.5171862,21.8082508 36.3475684,21.4396988 Z M34.4008301,8.99804647 C34.7593876,9.1863911 35.1386355,9.33176717 35.5308105,9.43119881 L32.4649951,17.4904273 C32.1014356,17.3142776 31.7249929,17.1664658 31.3389795,17.0482926 L34.4008301,8.99804647 Z M57.6189551,53.871232 C57.2344636,53.9982015 56.8659097,54.1696825 56.5206934,54.382232 L52.9632373,46.4786988 C53.3400316,46.3342278 53.7080741,46.1675998 54.0654639,45.9796754 L57.6189551,53.871232 Z M35.6675977,29.4120973 C35.8954776,29.0764354 36.0976096,28.7237682 36.2722363,28.3571617 L40.4680322,30.8153512 C40.2462096,31.1548122 40.0443178,31.5070602 39.8633936,31.8702867 L35.6675977,29.4120973 Z M31.0792822,46.5834937 C30.9397293,46.2009603 30.756797,45.8359216 30.5341162,45.4956226 L39.6027051,40.861691 C39.7660086,41.2328466 39.9506879,41.5940885 40.1558008,41.9435738 L31.0792822,46.5834937 Z M63.4066357,37.2477633 L59.6469727,37.2477633 C59.6588672,37.0451598 59.6777002,36.8485445 59.6777002,36.6389547 C59.6777002,36.4293648 59.6588672,36.2297555 59.6469727,36.0301461 L63.3293213,36.0301461 C63.3243652,36.1169762 63.3154443,36.2028082 63.3154443,36.2906363 C63.3165366,36.6118238 63.3470631,36.9322246 63.4066357,37.2477633 Z M57.7091553,18.5842867 L53.9445361,27.2433414 C53.584831,27.0595059 53.2148154,26.8968826 52.8363623,26.7562945 L56.6029639,18.0902535 C56.951433,18.2975412 57.3226556,18.463332 57.7091553,18.5842867 Z M27.3999072,43.2849488 C27.0071697,43.1887558 26.6047189,43.1385211 26.200542,43.1352418 L27.455415,32.7785094 C27.8519061,32.8544322 28.2534694,32.9004701 28.6567627,32.9162398 L27.3999072,43.2849488 Z M67.1325977,31.217564 C66.7430139,31.3277544 66.3674688,31.4831616 66.0135205,31.6806578 L60.6609814,18.612232 C61.0506543,18.5027468 61.4262416,18.3476571 61.7800586,18.1501363 L67.1325977,31.217564 Z M54.6611816,10.9851578 C54.4627997,11.3433966 54.3070942,11.723955 54.1972949,12.118939 L41.4324805,6.82929061 C41.6230888,6.4699416 41.7714498,6.0894473 41.8745605,5.69550936 L54.6611816,10.9851578 Z M32.1973682,6.79435897 L19.2253906,12.1329117 C19.1175021,11.7403985 18.964481,11.3619066 18.7694336,11.0051187 L31.7612354,5.65858163 C31.8629148,6.05274882 32.0092527,6.43384218 32.1973682,6.79435897 Z M12.7745898,18.6262047 L7.47359375,31.6736715 C7.11933176,31.4771055 6.74341163,31.3230206 6.35352539,31.2145699 L11.6545215,18.1671031 C12.0087835,18.3636691 12.3847036,18.5177539 12.7745898,18.6262047 Z M12.7735986,53.8213297 C12.3839258,53.9308149 12.0083385,54.0859046 11.6545215,54.2834254 L6.36740234,41.3637086 C6.75673328,41.2537028 7.13197094,41.0982852 7.48548828,40.9006148 L12.7735986,53.8213297 Z M18.7704248,61.4583844 C18.9672232,61.102542 19.1219165,60.724698 19.2313379,60.3325875 L32.130957,65.7060719 C31.9343224,66.0619938 31.7796373,66.439818 31.6700439,66.8318687 L18.7704248,61.4583844 Z M26.1698145,52.4669801 C23.9447069,52.4642294 22.1417354,50.6483772 22.1395508,48.4079234 C22.1395508,46.7660975 23.1218418,45.285955 24.6283402,44.6577487 C26.1348386,44.0295424 27.868831,44.377001 29.0216838,45.53809 C30.1745366,46.699179 30.519189,48.4452153 29.894915,49.9619488 C29.270641,51.4786823 27.800395,52.4673838 26.1698145,52.4669801 Z M49.1996094,27.3052203 C54.3169165,27.3107211 58.4639509,31.4863557 58.4694141,36.6389547 C58.4694141,40.4140978 56.2108987,43.8175161 52.7470101,45.2622008 C49.2831214,46.7068856 45.2960132,45.9083309 42.6448676,43.2389015 C39.9937221,40.5694722 39.2006369,36.5548667 40.6354266,33.0670892 C42.0702162,29.5793117 45.4503234,27.3052203 49.1996094,27.3052203 Z M54.2359521,36.667898 C54.2384708,36.6583699 54.2404564,36.6487069 54.2418994,36.6389547 C54.2375867,33.9881542 52.2082631,31.7870215 49.583208,31.5858433 C49.4573242,31.5758629 49.3304492,31.5658824 49.2015918,31.5658824 C49.038042,31.5658824 48.8774658,31.5758629 48.7178809,31.5908336 C47.319778,31.7288306 46.04227,32.4479598 45.1932583,33.5748988 C44.3442466,34.7018378 44.0007427,36.1343649 44.2455371,37.5272164 C44.6896392,39.9368767 46.7676635,41.691526 49.2015918,41.7120269 C49.4130878,41.7105558 49.6242901,41.6958896 49.8339844,41.6681129 C52.3373139,41.3454732 54.2181755,39.2089941 54.2359521,36.667898 Z M29.029458,31.7195816 C25.2456171,31.7195816 22.178208,28.631018 22.178208,24.8210816 C22.178208,21.0111453 25.2456171,17.9225816 29.029458,17.9225816 C32.8132989,17.9225816 35.880708,21.0111453 35.880708,24.8210816 C35.880708,28.631018 32.8132989,31.7195816 29.029458,31.7195816 Z M59.2415674,17.5982164 C57.0180051,17.5954709 55.2156716,15.7820465 55.2113037,13.5431519 C55.2096997,11.9009636 56.190973,10.4195963 57.6973438,9.79013186 C59.2037146,9.16066741 60.938357,9.50713993 62.0920321,10.6679144 C63.2457073,11.8286888 63.5910869,13.575038 62.9670459,15.0922617 C62.3430049,16.6094855 60.8725086,17.5986194 59.2415674,17.5982164 Z M14.1959863,54.8363433 C16.42016,54.8390929 18.2225281,56.6538911 18.2252588,58.8934039 C18.2256597,60.534917 17.2438644,62.0150018 15.7377682,62.6433681 C14.2316719,63.2717345 12.4979434,62.9246076 11.3451685,61.7638826 C10.1923936,60.6031575 9.84764433,58.8574722 10.4717068,57.3409891 C11.0957692,55.8245059 12.5657165,54.8359397 14.1959863,54.8363433 Z M59.2167871,62.9514625 C56.9909339,62.9514625 55.1865234,61.1346078 55.1865234,58.8934039 C55.1865234,56.6522 56.9909339,54.8353453 59.2167871,54.8353453 C61.4426403,54.8353453 63.2470508,56.6522 63.2470508,58.8934039 C63.2470508,61.1346078 61.4426403,62.9514625 59.2167871,62.9514625 Z M68.5549854,40.3486949 C66.3291322,40.3486949 64.5247217,38.5318402 64.5247217,36.2906363 C64.5247217,34.0494324 66.3291322,32.2325777 68.5549854,32.2325777 C70.7808385,32.2325777 72.585249,34.0494324 72.585249,36.2906363 C72.585249,38.5318402 70.7808385,40.3486949 68.5549854,40.3486949 Z M36.825332,8.38424764 C34.600611,8.38149808 32.7977991,6.56625303 32.7950684,4.32618905 C32.7946675,2.68427231 33.7767042,1.20382356 35.2831709,0.575302746 C36.7896375,-0.0532180711 38.5237924,0.293994154 39.6768508,1.45500465 C40.8299092,2.61601514 41.1747432,4.36212976 40.5505273,5.87898582 C39.9263115,7.39584189 38.4560028,8.38465131 36.825332,8.38424764 Z M14.1831006,17.6081969 C11.9583795,17.6054473 10.1555676,15.7902022 10.1528369,13.5501383 C10.1528369,11.9088068 11.1347791,10.4290914 12.6407855,9.80098099 C14.1467918,9.17287062 15.88028,9.52006089 17.0329274,10.6806575 C18.1855747,11.8412541 18.5303869,13.5866975 17.9065787,15.1030901 C17.2827705,16.6194826 15.8131901,17.6081969 14.1831006,17.6081969 Z M5.86903908,40.2418087 C3.7027072,40.7566357 1.53205705,39.405715 1.02075627,37.2244429 C0.509455499,35.0431708 1.8511233,32.8575507 4.01745518,32.3427237 C6.18378707,31.8278967 8.35443722,33.1788174 8.86573799,35.3600895 C9.37703876,37.5413616 8.03537096,39.7269817 5.86903908,40.2418087 Z M36.7063867,64.2129937 C38.849905,64.2169133 40.615539,65.9091727 40.7250557,68.0646585 C40.8345725,70.2201444 39.2496694,72.0849953 37.1177393,72.30915 C36.9819434,72.3221246 36.8451562,72.330109 36.7063867,72.330109 C35.2512705,72.3530856 33.8968154,71.5845933 33.1625902,70.3194258 C32.4283649,69.0542582 32.4283649,67.4888445 33.1625902,66.2236769 C33.8968154,64.9585094 35.2512705,64.1900172 36.7063867,64.2129937 Z" id="Combined-Shape"></path>
                </g>
                <path d="M133.047565,56.369251 L124.707231,56.369251 L122.067885,47.6438896 L109.768532,47.6438896 L107.129186,56.369251 L99,56.369251 L111.140992,19.6806833 L121.064934,19.6806833 L133.047565,56.369251 Z M120.114769,40.8633377 L115.997389,26.934297 L115.733454,26.934297 L111.668861,40.8633377 L120.114769,40.8633377 Z M146.191509,56.369251 L138.167896,56.369251 L138.167896,19.6806833 L155.587581,19.6806833 C162.449881,19.6806833 166.778408,24.4638633 166.778408,31.4021025 C166.778408,38.3403417 162.449881,43.1235217 155.587581,43.1235217 L146.191509,43.1235217 L146.191509,56.369251 Z M146.191509,26.6189225 L146.191509,36.1852825 L154.637416,36.1852825 C157.012828,36.1852825 158.490862,34.9237845 158.490862,32.5584757 L158.490862,30.2457293 C158.490862,27.8804205 157.012828,26.6189225 154.637416,26.6189225 L146.191509,26.6189225 Z M188.896129,56.369251 L171.370871,56.369251 L171.370871,50.0091984 L176.121694,50.0091984 L176.121694,26.0407359 L171.370871,26.0407359 L171.370871,19.6806833 L188.896129,19.6806833 L188.896129,26.0407359 L184.145306,26.0407359 L184.145306,50.0091984 L188.896129,50.0091984 L188.896129,56.369251 Z M233.395505,26.7766097 L223.418776,26.7766097 L223.418776,56.369251 L215.395164,56.369251 L215.395164,26.7766097 L205.418436,26.7766097 L205.418436,19.6806833 L233.395505,19.6806833 L233.395505,26.7766097 Z M250.023385,57 C241.524691,57 236.721081,51.3758213 236.721081,42.5453351 C236.721081,33.8199737 241.36633,28.1432326 249.706664,28.1432326 C258.891588,28.1432326 262.586673,34.7660972 262.586673,42.2299606 L262.586673,44.542707 L244.79748,44.542707 L244.79748,44.9632063 C244.79748,48.5900131 246.750596,50.9027595 250.920763,50.9027595 C254.193552,50.9027595 255.988307,49.3784494 257.730276,47.5913272 L261.636508,52.4270696 C259.155523,55.2654402 255.09093,57 250.023385,57 Z M249.865024,33.8725361 C246.750596,33.8725361 244.79748,36.1327201 244.79748,39.5492773 L244.79748,39.9697766 L254.510274,39.9697766 L254.510274,39.4967148 C254.510274,36.1327201 252.979453,33.8725361 249.865024,33.8725361 Z M277.525372,57 C272.193893,57 268.709956,55.2128778 265.859462,52.0591327 L270.451924,47.4336399 C272.40504,49.5886991 274.780452,50.9553219 277.789306,50.9553219 C280.850948,50.9553219 281.906686,49.956636 281.906686,48.3272011 C281.906686,46.9605782 281.062096,46.2772668 279.108979,46.0144547 L276.100125,45.6465177 C269.818481,44.8580815 266.75684,42.1248357 266.75684,37.131406 C266.75684,31.8226018 270.927006,28.1432326 277.525372,28.1432326 C283.331933,28.1432326 286.024066,29.7201051 288.821773,32.4533509 L284.334885,37.0262812 C282.592916,35.2917214 280.270292,34.1879106 277.947667,34.1879106 C275.308321,34.1879106 274.252583,35.1340342 274.252583,36.500657 C274.252583,37.9724047 274.886026,38.760841 277.155863,39.0762155 L280.270292,39.4967148 C286.288001,40.2851511 289.402429,43.0183968 289.402429,47.8015769 C289.402429,53.1103811 284.651606,57 277.525372,57 Z M309.091951,56.369251 L304.446702,56.369251 C299.062436,56.369251 296.211942,53.5834428 296.211942,48.3272011 L296.211942,34.8186597 L292.30571,34.8186597 L292.30571,28.7739816 L294.258826,28.7739816 C296.370303,28.7739816 297.003746,27.7227332 297.003746,25.8304862 L297.003746,21.3101183 L304.024407,21.3101183 L304.024407,28.7739816 L309.514247,28.7739816 L309.514247,34.8186597 L304.024407,34.8186597 L304.024407,50.3245729 L309.091951,50.3245729 L309.091951,56.369251 Z M352.218867,56.369251 L349.473947,53.3731932 C347.151323,55.2654402 344.036894,57 338.916563,57 C330.787377,57 326.406062,52.6373193 326.406062,46.7503285 C326.406062,41.7568988 329.52049,39.0236531 333.796231,36.5532194 C331.737541,34.2404731 329.678851,31.1918528 329.678851,27.8278581 C329.678851,22.9921156 333.954592,19.0499343 340.711318,19.0499343 C346.729027,19.0499343 351.321489,22.0985545 351.321489,27.4599212 C351.321489,32.0854139 347.995913,34.9237845 343.984107,37.2890933 L349.685095,43.4388962 C350.582472,41.1787122 351.057555,38.6031537 351.215916,36.1327201 L360.031332,36.1327201 L360.031332,42.5978975 L356.705755,42.5978975 C356.125099,44.7529566 355.333295,46.7503285 354.330344,48.4323259 L361.667726,56.369251 L352.218867,56.369251 Z M340.50017,24.9894875 C338.599841,24.9894875 337.121807,26.0932983 337.121807,27.9855453 L337.121807,28.195795 C337.121807,29.5624179 337.966398,30.7187911 340.130662,33.1366623 C342.611647,31.6649146 343.878533,30.2982917 343.878533,28.195795 L343.878533,27.9855453 C343.878533,26.0932983 342.400499,24.9894875 340.50017,24.9894875 Z M340.077875,50.5348226 C342.189352,50.5348226 343.984107,50.0091984 345.409354,49.0630749 L337.649676,40.7056505 C335.274265,42.1248357 334.376887,43.4914586 334.376887,45.3837057 L334.376887,45.9093298 C334.376887,48.5900131 336.277216,50.5348226 340.077875,50.5348226 Z M405.903167,56.369251 L405.903167,32.2956636 L405.744806,32.2956636 L403.052673,37.6570302 L395.873652,50.6399474 L388.852991,37.7095926 L386.055284,31.9277267 L385.896924,31.9277267 L385.896924,56.369251 L378.348394,56.369251 L378.348394,19.6806833 L386.847088,19.6806833 L395.873652,36.868594 L395.979226,36.868594 L404.900216,19.6806833 L413.451697,19.6806833 L413.451697,56.369251 L405.903167,56.369251 Z M432.402202,57 C424.273016,57 419.416619,51.4283837 419.416619,42.5453351 C419.416619,33.6622865 424.273016,28.1432326 432.402202,28.1432326 C440.531388,28.1432326 445.387785,33.6622865 445.387785,42.5453351 C445.387785,51.4283837 440.531388,57 432.402202,57 Z M432.402202,50.8501971 C435.463844,50.8501971 437.258599,48.8528252 437.258599,45.3837057 L437.258599,39.7595269 C437.258599,36.2904074 435.463844,34.2930355 432.402202,34.2930355 C429.340561,34.2930355 427.545805,36.2904074 427.545805,39.7595269 L427.545805,45.3837057 C427.545805,48.8528252 429.340561,50.8501971 432.402202,50.8501971 Z M458.742877,56.369251 L450.930412,56.369251 L450.930412,28.7739816 L458.742877,28.7739816 L458.742877,33.4520368 L459.059598,33.4520368 C460.06255,30.5611038 462.385174,28.1432326 466.766489,28.1432326 C472.41469,28.1432326 475.423544,32.1379763 475.423544,39.0762155 L475.423544,56.369251 L467.61108,56.369251 L467.61108,39.7069645 C467.61108,36.1852825 466.608128,34.4507227 463.757634,34.4507227 C461.223862,34.4507227 458.742877,35.7647832 458.742877,38.4980289 L458.742877,56.369251 Z M486.29765,25.8304862 C483.130435,25.8304862 481.757975,24.2010512 481.757975,21.9934297 L481.757975,20.8370565 C481.757975,18.629435 483.130435,17 486.29765,17 C489.464865,17 490.837325,18.629435 490.837325,20.8370565 L490.837325,21.9934297 C490.837325,24.2010512 489.464865,25.8304862 486.29765,25.8304862 Z M482.391418,56.369251 L482.391418,28.7739816 L490.203882,28.7739816 L490.203882,56.369251 L482.391418,56.369251 Z M511.846521,56.369251 L507.201271,56.369251 C501.817005,56.369251 498.966512,53.5834428 498.966512,48.3272011 L498.966512,34.8186597 L495.060279,34.8186597 L495.060279,28.7739816 L497.013395,28.7739816 C499.124872,28.7739816 499.758315,27.7227332 499.758315,25.8304862 L499.758315,21.3101183 L506.778976,21.3101183 L506.778976,28.7739816 L512.268816,28.7739816 L512.268816,34.8186597 L506.778976,34.8186597 L506.778976,50.3245729 L511.846521,50.3245729 L511.846521,56.369251 Z M528.949483,57 C520.820297,57 515.963901,51.4283837 515.963901,42.5453351 C515.963901,33.6622865 520.820297,28.1432326 528.949483,28.1432326 C537.07867,28.1432326 541.935066,33.6622865 541.935066,42.5453351 C541.935066,51.4283837 537.07867,57 528.949483,57 Z M528.949483,50.8501971 C532.011125,50.8501971 533.80588,48.8528252 533.80588,45.3837057 L533.80588,39.7595269 C533.80588,36.2904074 532.011125,34.2930355 528.949483,34.2930355 C525.887842,34.2930355 524.093087,36.2904074 524.093087,39.7595269 L524.093087,45.3837057 C524.093087,48.8528252 525.887842,50.8501971 528.949483,50.8501971 Z M555.290158,56.369251 L547.477693,56.369251 L547.477693,28.7739816 L555.290158,28.7739816 L555.290158,34.7660972 L555.554092,34.7660972 C556.187535,31.717477 558.299012,28.7739816 562.62754,28.7739816 L564,28.7739816 L564,36.0275953 L562.046884,36.0275953 C557.507209,36.0275953 555.290158,37.0262812 555.290158,40.2325887 L555.290158,56.369251 Z" id="API-Test-&amp;-Monitor" fill="url(#linearGradient-2)"></path>
            </g>
        </g>
    </g>
</svg>