<?xml version="1.0" encoding="UTF-8"?>
<svg width="180px" height="208px" viewBox="0 0 180 208" version="1.1" xmlns="http://www.w3.org/2000/svg" xmlns:xlink="http://www.w3.org/1999/xlink">
    <!-- Generator: Sketch 52.2 (67145) - http://www.bohemiancoding.com/sketch -->
    <title>Optimize Performance@</title>
    <desc>Created with Sketch.</desc>
    <g id="Page-1-Copy" stroke="none" stroke-width="1" fill="none" fill-rule="evenodd">
        <g id="Artboard-Copy-15" transform="translate(-165.000000, -2538.000000)">
            <rect fill="#FFFFFF" x="0" y="0" width="1650" height="5361"></rect>
            <g id="Group-41" transform="translate(165.000000, 1758.000000)">
                <g id="Group-37" transform="translate(0.000000, 260.000000)">
                    <g id="Group-36"></g>
                    <g id="Group-34" transform="translate(10.000000, 538.000000)">
                        <g id="Group-31" transform="translate(0.000000, 6.000000)">
                            <g id="Group-20">
                                <g id="Group-30">
                                    <path d="M67.5797085,139.340511 C89.4336269,139.317243 107.180022,110.804382 107.217391,75.6552534 C107.25476,40.5061245 89.5689519,12.0309877 67.7150335,12.0542552 C52.7188832,12.0702213 34.2459268,8.61589346 27.5127865,28.4005996 C24.4337087,37.4481834 28.0890777,64.7097021 28.0773513,75.7395124 C28.0541233,97.5876951 26.8136253,124.62842 37.2303487,136.077994 C43.5719414,143.048376 59.3098651,139.349315 67.5797085,139.340511 Z" id="Oval" fill="#00DDBD" transform="translate(66.748196, 76.080634) scale(-1, 1) rotate(-28.000000) translate(-66.748196, -76.080634) "></path>
                                    <ellipse id="Oval-Copy-6" fill="#E1E8F5" transform="translate(82.911974, 85.172345) scale(-1, 1) rotate(-28.000000) translate(-82.911974, -85.172345) " cx="82.9119744" cy="85.1723449" rx="39.5700788" ry="63.6431419"></ellipse>
                                    <path d="M70.9830219,117.856099 L66.5946893,120.389704 C65.7667604,120.867989 64.71045,120.589025 64.2321649,119.761096 C64.0800736,119.49782 64,119.199133 64,118.895084 L64,118.2054 C64,116.776108 64.7671425,115.463225 66.0050606,114.748778 L68.3930219,113.370088 L103.275009,93.230963 C104.098719,92.7555706 105.151608,93.0375213 105.627001,93.8612309 C105.77864,94.1239748 105.858178,94.4221146 105.857567,94.7254763 L105.856185,95.4111611 C105.85331,96.8369776 105.095829,98.1606432 103.861214,98.8738662 L70.9830219,117.856099 Z" id="Path" fill="#00DDBD"></path>
                                    <path d="M78.5173776,119.030342 L96.0788565,108.891217 C96.9025661,108.415825 97.955456,108.697775 98.4308484,109.521485 C98.5824874,109.784229 98.662026,110.082369 98.6614145,110.38573 L98.6600322,111.071415 C98.6571579,112.497232 97.8996764,113.820897 96.6650614,114.53412 L81.1073776,123.516353 L76.7190449,126.049958 C75.891116,126.528243 74.8348056,126.249279 74.3565206,125.42135 C74.2044292,125.158074 74.1243557,124.859387 74.1243557,124.555338 L74.1243557,123.865654 C74.1243557,122.436362 74.8914981,121.123479 76.1294163,120.409032 L78.5173776,119.030342 Z" id="Path" fill="#00DDBD"></path>
                                    <ellipse id="Oval-Copy-9" fill="#FC835C" transform="translate(85.725479, 86.803397) scale(-1, 1) rotate(-28.000000) translate(-85.725479, -86.803397) " cx="85.7254785" cy="86.8033967" rx="7.19456061" ry="12.0081398"></ellipse>
                                    <path d="M45.5327306,110.955505 C44.4489294,98.9185859 47.660099,84.0076897 55.3075682,69.5879291 C69.6010021,42.6368048 93.9791927,27.6072143 109.757781,36.0183993 C118.838295,40.8590026 123.091755,52.4081823 122.342281,66.4781658 L108.130638,74.7075597 C110.34089,63.2874528 108.505239,53.9408866 102.472912,50.7251987 C93.1226376,45.7407928 77.230245,57.3738443 66.9762599,76.7083465 C62.0324481,86.0301993 59.3019273,95.4403542 58.8476268,103.245381 L45.5327306,110.955505 Z" id="Combined-Shape" fill="#CDDBF3"></path>
                                    <path d="M56.3016163,67.7616405 C65.7687099,50.8095492 79.2178766,38.8809858 91.7027617,35.0254662 L89.9252793,51.6140682 C82.3127867,55.3563629 73.9614178,64.0023799 67.5996434,75.5549095 L56.3016132,67.761646 Z" id="Combined-Shape" fill="#76A8FF"></path>
                                    <path d="M91.4029186,35.1195545 C98.026073,33.0083559 104.389622,33.1567629 109.757781,36.0183993 C118.838295,40.8590026 123.091755,52.4081823 122.342281,66.4781658 L108.130638,74.7075597 C110.34089,63.2874528 108.505239,53.9408866 102.472912,50.7251987 C98.9109971,48.8264277 94.3997095,49.3391327 89.6124033,51.7704261 L91.4029186,35.1195545 Z" id="Combined-Shape" fill="#5392FF"></path>
                                </g>
                                <polygon id="Path-66" fill="#FC835C" points="90.0588478 80.7887701 108.095398 63.1228615 108.095398 68.8267485 89.0520243 87.5525084"></polygon>
                                <polygon id="Path-124" fill="#FC835C" points="103.790391 61.854251 108.750031 73.3585496 119.008331 54.4786015"></polygon>
                            </g>
                            <path d="M121.378,29.8362559 L121.378,31.1637441 C121.068035,31.2156914 120.752226,31.2504215 120.43159,31.2669178 C120.7986,31.2043955 121.078,30.8848264 121.078,30.5 C121.078,30.1151736 120.7986,29.7956045 120.43159,29.7330822 C120.752226,29.7495785 121.068035,29.7843086 121.378,29.8362559 Z M123.50811,30.5 C125.261068,31.3212911 126.678709,32.7389324 127.5,34.4918901 C128.321291,32.7389324 129.738932,31.3212911 131.49189,30.5 C129.738932,29.6787089 128.321291,28.2610676 127.5,26.5081099 C126.678709,28.2610676 125.261068,29.6787089 123.50811,30.5 Z M128.163744,36.622 C128.215691,36.9319649 128.250422,37.2477736 128.266918,37.5684095 C128.204396,37.2013997 127.884826,36.922 127.5,36.922 C127.115174,36.922 126.795604,37.2013997 126.733082,37.5684095 C126.749578,37.2477736 126.784309,36.9319649 126.836256,36.622 L127.806137,36.622 L127.806137,37.6749052 L127.5,37.6874526 L127.193863,37.6749052 L127.193863,36.622 L128.163744,36.622 Z M133.622,29.8362559 C133.931965,29.7843086 134.247774,29.7495785 134.56841,29.7330822 C134.2014,29.7956045 133.922,30.1151736 133.922,30.5 C133.922,30.8848264 134.2014,31.2043955 134.56841,31.2669178 C134.247774,31.2504215 133.931965,31.2156914 133.622,31.1637441 L133.622,29.8362559 Z M134.674905,30.1938633 L134.687453,30.5 L134.674905,30.8061367 L133.622,30.8061367 L133.622,30.1938633 L134.674905,30.1938633 Z M126.836256,24.378 C126.784309,24.0680351 126.749578,23.7522264 126.733082,23.4315905 C126.795604,23.7986003 127.115174,24.078 127.5,24.078 C127.884826,24.078 128.204396,23.7986003 128.266918,23.4315905 C128.250422,23.7522264 128.215691,24.0680351 128.163744,24.378 L127.193863,24.378 L127.193863,23.3250948 L127.5,23.3125474 L127.806137,23.3250948 L127.806137,24.378 L126.836256,24.378 Z" id="Combined-Shape-Copy-15" stroke="#5392FF" stroke-width="2.156" fill="#5392FF"></path>
                            <path d="M132.48,43.5101813 L132.48,44.4898187 L130.520152,44.4898187 L130.500076,44 L130.520152,43.5101813 L132.48,43.5101813 Z M132.48,42.7071111 L132.48,45.2928889 C131.905437,45.3994244 131.318107,45.4696457 130.72048,45.5010835 C131.445681,45.3858148 132,44.7576415 132,44 C132,43.2423585 131.445681,42.6141852 130.72048,42.4989165 C131.318107,42.5303543 131.905437,42.6005756 132.48,42.7071111 Z M136.234039,44 C138.698169,45.2826257 140.717374,47.301831 142,49.7659607 C143.282626,47.301831 145.301831,45.2826257 147.765961,44 C145.301831,42.7173743 143.282626,40.698169 142,38.2340393 C140.717374,40.698169 138.698169,42.7173743 136.234039,44 Z M143.292889,53.52 C143.399424,54.0945631 143.469646,54.6818929 143.501084,55.2795201 C143.385815,54.5543189 142.757641,54 142,54 C141.242359,54 140.614185,54.5543189 140.498916,55.2795201 C140.530354,54.6818929 140.600576,54.0945631 140.707111,53.52 L142.489819,53.52 L142.489819,55.4798484 L142,55.4999242 L141.510181,55.4798484 L141.510181,53.52 L143.292889,53.52 Z M151.52,42.7071111 C152.094563,42.6005756 152.681893,42.5303543 153.27952,42.4989165 C152.554319,42.6141852 152,43.2423585 152,44 C152,44.7576415 152.554319,45.3858148 153.27952,45.5010835 C152.681893,45.4696457 152.094563,45.3994244 151.52,45.2928889 L151.52,43.5101813 L153.479848,43.5101813 L153.499924,44 L153.479848,44.4898187 L151.52,44.4898187 L151.52,42.7071111 Z M140.707111,34.48 C140.600576,33.9054369 140.530354,33.3181071 140.498916,32.7204799 C140.614185,33.4456811 141.242359,34 142,34 C142.757641,34 143.385815,33.4456811 143.501084,32.7204799 C143.469646,33.3181071 143.399424,33.9054369 143.292889,34.48 L141.510181,34.48 L141.510181,32.5201516 L142,32.5000758 L142.489819,32.5201516 L142.489819,34.48 L140.707111,34.48 Z" id="Combined-Shape" stroke="#5392FF" stroke-width="4" fill="#5392FF"></path>
                            <path d="M138.24,20.7550907 L138.24,21.6464444 C137.952718,21.6997122 137.659054,21.7348229 137.36024,21.7505418 C137.722841,21.6929074 138,21.3788207 138,21 C138,20.6211793 137.722841,20.3070926 137.36024,20.2494582 C137.659054,20.2651771 137.952718,20.3002878 138.24,20.3535556 L138.24,21.2449093 L137.260076,21.2449093 L137.250038,21 L137.260076,20.7550907 L138.24,20.7550907 Z M140.11702,21 C141.349085,21.6413128 142.358687,22.6509155 143,23.8829803 C143.641313,22.6509155 144.650915,21.6413128 145.88298,21 C144.650915,20.3586872 143.641313,19.3490845 143,18.1170197 C142.358687,19.3490845 141.349085,20.3586872 140.11702,21 Z M143.646444,25.76 C143.699712,26.0472816 143.734823,26.3409465 143.750542,26.63976 C143.692907,26.2771594 143.378821,26 143,26 C142.621179,26 142.307093,26.2771594 142.249458,26.63976 C142.265177,26.3409465 142.300288,26.0472816 142.353556,25.76 L143.244909,25.76 L143.244909,26.7399242 L143,26.7499621 L142.755091,26.7399242 L142.755091,25.76 L143.646444,25.76 Z M147.76,20.3535556 C148.047282,20.3002878 148.340946,20.2651771 148.63976,20.2494582 C148.277159,20.3070926 148,20.6211793 148,21 C148,21.3788207 148.277159,21.6929074 148.63976,21.7505418 C148.340946,21.7348229 148.047282,21.6997122 147.76,21.6464444 L147.76,20.3535556 Z M148.739924,20.7550907 L148.749962,21 L148.739924,21.2449093 L147.76,21.2449093 L147.76,20.7550907 L148.739924,20.7550907 Z M142.353556,16.24 C142.300288,15.9527184 142.265177,15.6590535 142.249458,15.36024 C142.307093,15.7228406 142.621179,16 143,16 C143.378821,16 143.692907,15.7228406 143.750542,15.36024 C143.734823,15.6590535 143.699712,15.9527184 143.646444,16.24 L142.755091,16.24 L142.755091,15.2600758 L143,15.2500379 L143.244909,15.2600758 L143.244909,16.24 L142.353556,16.24 Z" id="Combined-Shape-Copy-6" stroke="#5392FF" stroke-width="2" fill="#5392FF"></path>
                        </g>
                    </g>
                </g>
            </g>
        </g>
    </g>
</svg>