<svg width="180" height="208" viewBox="0 0 180 208" xmlns="http://www.w3.org/2000/svg"><title>Optimize Performance@</title><g fill="none" fill-rule="evenodd"><path fill="#FFF" d="M-165-2538h1650v5361H-165z"/><g transform="translate(10 24)"><path d="M36.315 131.545c-19.285-10.28-21.568-43.787-5.1-74.84 16.47-31.051 45.453-47.89 64.738-37.61 13.233 7.054 31.166 12.677 27.822 33.307-1.528 9.434-17.554 31.788-22.722 41.532-10.237 19.302-21.836 43.76-36.41 48.979-8.87 3.177-21.03-7.477-28.328-11.368z" fill="#00DDBD"/><ellipse fill="#E1E8F5" transform="scale(-1 1) rotate(-28 0 417.714)" cx="82.912" cy="85.172" rx="39.57" ry="63.643"/><path d="M70.983 117.856l-4.388 2.534A1.727 1.727 0 0 1 64 118.895v-.69c0-1.429.767-2.742 2.005-3.456l2.388-1.379 34.882-20.139a1.722 1.722 0 0 1 2.583 1.494l-.002.686a4.008 4.008 0 0 1-1.995 3.463l-32.878 18.982zM78.517 119.03l17.562-10.139a1.722 1.722 0 0 1 2.582 1.495l-.001.685a4.008 4.008 0 0 1-1.995 3.463l-15.558 8.982-4.388 2.534a1.727 1.727 0 0 1-2.595-1.495v-.69c0-1.429.767-2.742 2.005-3.456l2.388-1.379z" fill="#00DDBD"/><ellipse fill="#FC835C" transform="scale(-1 1) rotate(-28 0 430.63)" cx="85.725" cy="86.803" rx="7.195" ry="12.008"/><path d="M45.533 110.956c-1.084-12.037 2.127-26.948 9.775-41.368 14.293-26.951 38.671-41.98 54.45-33.57 9.08 4.841 13.334 16.39 12.584 30.46l-14.211 8.23c2.21-11.42.374-20.767-5.658-23.983-9.35-4.984-25.243 6.649-35.497 25.983-4.944 9.322-7.674 18.732-8.128 26.537l-13.315 7.71z" fill="#CDDBF3"/><path d="M56.302 67.762c9.467-16.952 22.916-28.881 35.4-32.737l-1.777 16.59c-7.612 3.741-15.964 12.387-22.325 23.94l-11.298-7.793z" fill="#76A8FF"/><path d="M91.403 35.12c6.623-2.112 12.987-1.963 18.355.898 9.08 4.841 13.334 16.39 12.584 30.46l-14.211 8.23c2.21-11.42.374-20.767-5.658-23.983-3.562-1.899-8.073-1.386-12.86 1.045l1.79-16.65z" fill="#5392FF"/></g><path fill="#FC835C" d="M100.059 104.789l18.036-17.666v5.704l-19.043 18.726z"/><path fill="#FC835C" d="M113.79 85.854l4.96 11.505 10.258-18.88z"/><path d="M140.48 67.52v-.01c5.98-.245 10.785-5.05 11.03-11.03h.01a.48.48 0 1 1 .96 0h.01c.245 5.98 5.05 10.785 11.03 11.03v.01a.48.48 0 1 1 0 .96v.01c-5.98.245-10.785 5.05-11.03 11.03h-.01a.48.48 0 1 1-.96 0h-.01c-.245-5.98-5.05-10.785-11.03-11.03v-.01a.48.48 0 1 1 0-.96zM130.3 54.2v-.006a7.2 7.2 0 0 0 6.894-6.894h.006a.3.3 0 1 1 .6 0h.006a7.2 7.2 0 0 0 6.894 6.894v.006a.3.3 0 1 1 0 .6v.006a7.2 7.2 0 0 0-6.894 6.894h-.006a.3.3 0 1 1-.6 0h-.006a7.2 7.2 0 0 0-6.894-6.894V54.8a.3.3 0 1 1 0-.6zM147.24 44.76v-.005a5.76 5.76 0 0 0 5.515-5.515h.005a.24.24 0 1 1 .48 0h.005a5.76 5.76 0 0 0 5.515 5.515v.005a.24.24 0 1 1 0 .48v.005a5.76 5.76 0 0 0-5.515 5.515h-.005a.24.24 0 1 1-.48 0h-.005a5.76 5.76 0 0 0-5.515-5.515v-.005a.24.24 0 1 1 0-.48z" fill="#5392FF"/></g></svg>