<?xml version="1.0" encoding="UTF-8"?>
<svg width="180px" height="208px" viewBox="0 0 180 208" version="1.1" xmlns="http://www.w3.org/2000/svg" xmlns:xlink="http://www.w3.org/1999/xlink">
    <!-- Generator: Sketch 52.2 (67145) - http://www.bohemiancoding.com/sketch -->
    <title>Win As A Team@</title>
    <desc>Created with Sketch.</desc>
    <g id="Page-1-Copy" stroke="none" stroke-width="1" fill="none" fill-rule="evenodd">
        <g id="Artboard-Copy-15" transform="translate(-165.000000, -2298.000000)">
            <rect fill="#FFFFFF" x="0" y="0" width="1650" height="5361"></rect>
            <g id="Group-41" transform="translate(165.000000, 1758.000000)">
                <g id="Group-37" transform="translate(0.000000, 260.000000)">
                    <g id="Group-36"></g>
                    <g id="Group-35" transform="translate(43.000000, 270.000000)">
                        <g id="Group-33" transform="translate(0.000000, 44.000000)">
                            <path d="M28.56,45.4285449 L28.56,46.5714551 L26.6068436,46.5714551 L26.5834218,46 L26.6068436,45.4285449 L28.56,45.4285449 Z M28.56,44.7713976 L28.56,47.2286024 C27.9849035,47.3245854 27.3990377,47.3887954 26.8042677,47.4193674 C27.4832179,47.3033551 28,46.712028 28,46 C28,45.287972 27.4832179,44.6966449 26.8042677,44.5806326 C27.3990377,44.6112046 27.9849035,44.6754146 28.56,44.7713976 Z M32.5195009,46 C35.8079733,47.5338637 38.4661363,50.1920267 40,53.4804991 C41.5338637,50.1920267 44.1920267,47.5338637 47.4804991,46 C44.1920267,44.4661363 41.5338637,41.8079733 40,38.5195009 C38.4661363,41.8079733 35.8079733,44.4661363 32.5195009,46 Z M41.2286024,57.44 C41.3245854,58.0150965 41.3887954,58.6009623 41.4193674,59.1957323 C41.3033551,58.5167821 40.712028,58 40,58 C39.287972,58 38.6966449,58.5167821 38.5806326,59.1957323 C38.6112046,58.6009623 38.6754146,58.0150965 38.7713976,57.44 L40.5714551,57.44 L40.5714551,59.3931564 L40,59.4165782 L39.4285449,59.3931564 L39.4285449,57.44 L41.2286024,57.44 Z M51.44,44.7713976 C52.0150965,44.6754146 52.6009623,44.6112046 53.1957323,44.5806326 C52.5167821,44.6966449 52,45.287972 52,46 C52,46.712028 52.5167821,47.3033551 53.1957323,47.4193674 C52.6009623,47.3887954 52.0150965,47.3245854 51.44,47.2286024 L51.44,44.7713976 Z M53.3931564,45.4285449 L53.4165782,46 L53.3931564,46.5714551 L51.44,46.5714551 L51.44,45.4285449 L53.3931564,45.4285449 Z M38.7713976,34.56 C38.6754146,33.9849035 38.6112046,33.3990377 38.5806326,32.8042677 C38.6966449,33.4832179 39.287972,34 40,34 C40.712028,34 41.3033551,33.4832179 41.4193674,32.8042677 C41.3887954,33.3990377 41.3245854,33.9849035 41.2286024,34.56 L39.4285449,34.56 L39.4285449,32.6068436 L40,32.5834218 L40.5714551,32.6068436 L40.5714551,34.56 L38.7713976,34.56 Z" id="Combined-Shape-Copy-13" stroke="#FC835C" stroke-width="4" fill="#FC835C"></path>
                            <path d="M37.54,24.1530451 L37.54,24.8469549 L36.3684407,24.8469549 L36.3542204,24.5 L36.3684407,24.1530451 L37.54,24.1530451 Z M37.54,23.766171 L37.54,25.233829 C37.1949157,25.2909642 36.8434532,25.3292316 36.4867076,25.3475363 C36.8917851,25.2779132 37.2,24.9249503 37.2,24.5 C37.2,24.0750497 36.8917851,23.7220868 36.4867076,23.6524637 C36.8434532,23.6707684 37.1949157,23.7090358 37.54,23.766171 Z M39.924347,24.5 C41.9400396,25.4321034 43.5678966,27.0599604 44.5,29.075653 C45.4321034,27.0599604 47.0599604,25.4321034 49.075653,24.5 C47.0599604,23.5678966 45.4321034,21.9400396 44.5,19.924347 C43.5678966,21.9400396 41.9400396,23.5678966 39.924347,24.5 Z M45.233829,31.46 C45.2909642,31.8050843 45.3292316,32.1565468 45.3475363,32.5132924 C45.2779132,32.1082149 44.9249503,31.8 44.5,31.8 C44.0750497,31.8 43.7220868,32.1082149 43.6524637,32.5132924 C43.6707684,32.1565468 43.7090358,31.8050843 43.766171,31.46 L45.233829,31.46 Z M44.8469549,32.6315593 L44.5,32.6457796 L44.1530451,32.6315593 L44.1530451,31.46 L44.8469549,31.46 L44.8469549,32.6315593 Z M51.46,23.766171 C51.8050843,23.7090358 52.1565468,23.6707684 52.5132924,23.6524637 C52.1082149,23.7220868 51.8,24.0750497 51.8,24.5 C51.8,24.9249503 52.1082149,25.2779132 52.5132924,25.3475363 C52.1565468,25.3292316 51.8050843,25.2909642 51.46,25.233829 L51.46,23.766171 Z M52.6315593,24.1530451 L52.6457796,24.5 L52.6315593,24.8469549 L51.46,24.8469549 L51.46,24.1530451 L52.6315593,24.1530451 Z M43.766171,17.54 C43.7090358,17.1949157 43.6707684,16.8434532 43.6524637,16.4867076 C43.7220868,16.8917851 44.0750497,17.2 44.5,17.2 C44.9249503,17.2 45.2779132,16.8917851 45.3475363,16.4867076 C45.3292316,16.8434532 45.2909642,17.1949157 45.233829,17.54 L44.1530451,17.54 L44.1530451,16.3684407 L44.5,16.3542204 L44.8469549,16.3684407 L44.8469549,17.54 L43.766171,17.54 Z" id="Combined-Shape-Copy-16" stroke="#FC835C" stroke-width="2.4" fill="#FC835C"></path>
                            <path d="M40.78,67.1415284 L40.78,67.8584716 C40.6073896,67.885972 40.4317835,67.904499 40.2536749,67.9135595 C40.4505037,67.8787322 40.6,67.7068245 40.6,67.5 C40.6,67.2931755 40.4505037,67.1212678 40.2536749,67.0864405 C40.4317835,67.095501 40.6073896,67.114028 40.78,67.1415284 Z M41.9920216,67.5 C43.1078932,67.9946594 44.0053406,68.8921068 44.5,70.0079784 C44.9946594,68.8921068 45.8921068,67.9946594 47.0079784,67.5 C45.8921068,67.0053406 44.9946594,66.1078932 44.5,64.9920216 C44.0053406,66.1078932 43.1078932,67.0053406 41.9920216,67.5 Z M44.8584716,71.22 C44.885972,71.3926104 44.904499,71.5682165 44.9135595,71.7463251 C44.8787322,71.5494963 44.7068245,71.4 44.5,71.4 C44.2931755,71.4 44.1212678,71.5494963 44.0864405,71.7463251 C44.095501,71.5682165 44.114028,71.3926104 44.1415284,71.22 L44.683682,71.22 L44.683682,71.8049431 L44.5,71.8124716 L44.316318,71.8049431 L44.316318,71.22 L44.8584716,71.22 Z M48.22,67.1415284 C48.3926104,67.114028 48.5682165,67.095501 48.7463251,67.0864405 C48.5494963,67.1212678 48.4,67.2931755 48.4,67.5 C48.4,67.7068245 48.5494963,67.8787322 48.7463251,67.9135595 C48.5682165,67.904499 48.3926104,67.885972 48.22,67.8584716 L48.22,67.316318 L48.8049431,67.316318 L48.8124716,67.5 L48.8049431,67.683682 L48.22,67.683682 L48.22,67.1415284 Z M44.1415284,63.78 C44.114028,63.6073896 44.095501,63.4317835 44.0864405,63.2536749 C44.1212678,63.4505037 44.2931755,63.6 44.5,63.6 C44.7068245,63.6 44.8787322,63.4505037 44.9135595,63.2536749 C44.904499,63.4317835 44.885972,63.6073896 44.8584716,63.78 L44.316318,63.78 L44.316318,63.1950569 L44.5,63.1875284 L44.683682,63.1950569 L44.683682,63.78 L44.1415284,63.78 Z" id="Combined-Shape-Copy-17" stroke="#FC835C" stroke-width="1.2" fill="#FC835C"></path>
                            <path d="M50.18,62.7142724 L50.18,63.2857276 L49.3034218,63.2857276 L49.2917109,63 L49.3034218,62.7142724 L50.18,62.7142724 Z M50.18,62.4708768 L50.18,63.5291232 C49.9210116,63.5693943 49.6577045,63.5966283 49.3907704,63.6101332 C49.6803333,63.5579083 49.9,63.3046071 49.9,63 C49.9,62.6953929 49.6803333,62.4420917 49.3907704,62.3898668 C49.6577045,62.4033717 49.9210116,62.4306057 50.18,62.4708768 Z M52.0154906,63 C53.7993473,63.7694344 55.2305656,65.2006527 56,66.9845094 C56.7694344,65.2006527 58.2006527,63.7694344 59.9845094,63 C58.2006527,62.2305656 56.7694344,60.7993473 56,59.0154906 C55.2305656,60.7993473 53.7993473,62.2305656 52.0154906,63 Z M56.5291232,68.82 C56.5693943,69.0789884 56.5966283,69.3422955 56.6101332,69.6092296 C56.5579083,69.3196667 56.3046071,69.1 56,69.1 C55.6953929,69.1 55.4420917,69.3196667 55.3898668,69.6092296 C55.4033717,69.3422955 55.4306057,69.0789884 55.4708768,68.82 L56.2857276,68.82 L56.2857276,69.6965782 L56,69.7082891 L55.7142724,69.6965782 L55.7142724,68.82 L56.5291232,68.82 Z M61.82,62.4708768 C62.0789884,62.4306057 62.3422955,62.4033717 62.6092296,62.3898668 C62.3196667,62.4420917 62.1,62.6953929 62.1,63 C62.1,63.3046071 62.3196667,63.5579083 62.6092296,63.6101332 C62.3422955,63.5966283 62.0789884,63.5693943 61.82,63.5291232 L61.82,62.7142724 L62.6965782,62.7142724 L62.7082891,63 L62.6965782,63.2857276 L61.82,63.2857276 L61.82,62.4708768 Z M55.4708768,57.18 C55.4306057,56.9210116 55.4033717,56.6577045 55.3898668,56.3907704 C55.4420917,56.6803333 55.6953929,56.9 56,56.9 C56.3046071,56.9 56.5579083,56.6803333 56.6101332,56.3907704 C56.5966283,56.6577045 56.5693943,56.9210116 56.5291232,57.18 L55.7142724,57.18 L55.7142724,56.3034218 L56,56.2917109 L56.2857276,56.3034218 L56.2857276,57.18 L55.4708768,57.18 Z" id="Combined-Shape-Copy-18" stroke="#FC835C" stroke-width="1.8" fill="#FC835C"></path>
                            <g id="Man-B" transform="translate(44.000000, 1.000000)">
                                <path d="M39.4190147,118.0049 L39.640157,124.893386 C39.0056528,128.01705 38.8082223,130.000632 39.0478657,130.84413 C39.4073307,132.109378 41.4497527,134.624299 42.6738216,134.624299 C43.8978904,134.624299 45.9455038,131.76 46.2997775,130.84413 C46.5359599,130.23355 46.5359599,128.261182 46.2997775,124.927026 L44.9087973,117.440977 L39.4190147,118.0049 Z" id="Path-112" fill="#356ED0"></path>
                                <path d="M20.4387686,61.5272316 C19.4357941,66.9986555 18.9702121,71.0213011 19.0420224,73.5951686 C19.1895014,78.8811945 21.2304519,84.3300068 21.4386479,87.5016172 C21.7989057,92.9897046 22.8113285,101.099494 24.4759163,111.830985 C25.761697,112.227599 26.7274664,112.390604 27.3732243,112.32 C28.0189823,112.249396 29.2066845,111.827142 30.9363308,111.053238 C30.8925966,99.6223045 30.8707295,91.2477451 30.8707295,85.9295597 C30.8707295,80.6113743 32.2117326,73.6254292 34.8937388,64.9717244 C30.6453673,60.486982 27.2794096,57.9487074 24.7958655,57.3569006 C22.3123214,56.7650938 20.8599557,58.1552042 20.4387686,61.5272316 Z" id="Path-107" fill="#00DDBD"></path>
                                <path d="M27.4073039,62.4215658 C30.3221897,75.0576583 31.96345,84.175937 32.3310847,89.776402 C32.6987194,95.376867 34.9707075,105.0514 39.1470491,118.8 C40.6764805,119.295744 41.8471102,119.482523 42.6589384,119.360335 C43.4707665,119.238148 44.5006682,118.720169 45.7486436,117.8064 C43.2995914,106.505318 41.8117083,97.9554138 41.2849944,92.1566876 C40.8619709,87.4995157 43.5017292,80.1848822 44.0393664,70.0268145 C44.1272226,68.3668678 43.8850306,65.9218025 43.3127904,62.6916186 L27.4073039,62.4215658 Z" id="Path-107-Copy" fill="#00DDBD"></path>
                                <path d="M37.6021341,17.2444893 C31.1409373,12.9296548 27.1562105,11.6194172 25.6479535,13.3137765 C24.1396965,15.0081359 22.9993522,20.7717263 22.2269206,30.6045479 L46.2019969,38.5682042 C49.0674541,34.198061 49.6021415,31.2285848 47.8060593,29.6597755 C45.1119359,27.3065616 48.4892799,26.8831004 44.4534819,21.6 C40.4176839,16.3168996 41.5198507,8.62815066 40.1750153,7.77321747" id="Path-127" fill="#2C5DB2"></path>
                                <path d="M42.3650386,41.4656789 C43.1152159,41.5624571 43.6630146,44.4933157 44.0084346,50.2582544 C44.3538547,56.0231932 44.3538547,62.2349015 44.0084346,68.8933793 C42.0682365,70.8562759 41.0044873,72.0118161 40.8171871,72.36 C40.5362368,72.8822758 40.8033514,73.6222606 41.3131764,73.9037602 C41.6530597,74.0914266 42.0036804,73.9368399 42.3650386,73.44 C41.4895281,76.8006007 41.2706504,78.8142687 41.7084057,79.481004 C42.3650386,80.4811069 47.1905673,78.345949 47.9141708,77.1114125 C48.3965732,76.2883882 48.3965732,73.5490438 47.9141708,68.8933793 C49.0675117,60.9284556 49.6865585,54.8839958 49.7713112,50.76 C49.8560639,46.6360042 49.4429959,42.6577068 48.5321071,38.8251078 L42.3650386,41.4656789 Z" id="Path-108" fill="#B2C6E8"></path>
                                <path d="M38.6577345,25.587503 L35.9616689,23.2535246 C36.0983769,21.1376632 35.5975351,19.9485295 34.4591435,19.6861235 C33.320752,19.4237175 31.2138678,19.4237175 28.138491,19.6861235 C28.2083219,21.5963414 27.9323885,22.7854751 27.310691,23.2535246 C26.3072783,24.0089513 23.0307433,23.4976968 22.7552327,24.0953803 C22.2236694,25.2485357 22.7972306,27.5350579 24.4759163,30.9549468 L32.9349998,32.9855722 L38.6577345,25.587503 Z" id="Path-109" fill="#B2C6E8"></path>
                                <ellipse id="Oval" fill="#B2C6E8" transform="translate(32.621928, 12.223827) rotate(13.000000) translate(-32.621928, -12.223827) " cx="32.6219284" cy="12.2238267" rx="7.63253768" ry="10.8055336"></ellipse>
                                <path d="M16.1241698,29.9920644 C15.3092288,38.4549649 14.5648086,42.82161 13.8909091,43.092 C13.2170096,43.36239 11.010949,46.15239 7.27272727,51.462 C6.24064356,51.462 5.347615,51.462 4.5936416,51.462 C3.46268151,51.462 3.51561891,53.5439304 2.7744016,53.8530823 C2.03318429,54.1622342 1.91240115,54.2782011 0.722896086,54.9 C-0.466608976,55.5217989 3.2062113,58.0873753 4.0586804,58.392 C4.91114951,58.6966247 4.78628245,56.952 6.27321278,56.952 C7.76014312,56.952 18.7745286,45.0665995 20,44.6243641 C20.8169809,44.3295404 21.1425308,40.5794794 20.9766496,33.374181 L16.1241698,29.9920644 Z" id="Path-110" fill="#B2C6E8"></path>
                                <path d="M44.658523,29.9920644 C41.6802598,25.9169551 38.6577345,24.6670491 37.6682822,24.6670491 C36.67883,24.6670491 34.6171107,30.6560742 30.2569264,30.6560742 C25.8967421,30.6560742 24.9693721,27.1457517 23.6011976,23.7379269 C20.7060418,23.180028 18.127374,25.2647405 15.8651944,29.9920644 C18.4272759,33.5336097 19.9480086,35.4324512 20.4273925,35.688589 C20.502777,35.7288674 20.9032378,34.7015503 20.9138099,35.2433435 C20.9391821,36.5435932 21.2238901,39.4014429 21.6113568,42.7354368 C21.9694821,45.8169593 23.0339424,46.1972605 22.8265846,49.4824328 C22.46007,55.2891292 18.8122457,61.887399 20.111094,64.3295092 C20.6511971,65.3450176 24.6634884,67.951287 29.172505,68.983236 C35.5068414,70.432934 43.6630026,66.5382617 43.7034381,65.2613275 C43.7289181,64.4566835 43.4075142,61.7957225 42.7668993,60.4077714 C41.6672136,58.0252015 41.3870543,56.6063413 41.141644,53.7122232 C40.7845219,49.500688 40.6165333,45.6728151 41.1749478,43.0745173 C41.4800112,41.6550598 41.185337,40.292653 41.185337,40.0058459 C41.185337,38.623106 41.5462766,42.12 42.2519719,42.12 C42.9576673,42.12 49.2307978,41.1766977 49.2307978,39.9486269 C49.2307978,38.7205562 47.6367863,34.0671738 44.658523,29.9920644 Z" id="Path-106" fill="#356ED0"></path>
                                <path d="M24.2043105,110.432684 L23.7000943,113.258087 C19.7780204,116.362742 17.6729914,118.210046 17.3850072,118.8 C16.9530309,119.68493 15.6316009,123.64834 20.323228,123.212234 C25.0148552,122.776128 30.6642166,118.190203 31.2952196,117.448087 C31.7158882,116.953344 31.6122945,114.614876 30.9844384,110.432684 C29.44459,110.970895 28.2969807,111.24 27.5416105,111.24 C26.7862402,111.24 25.6738069,110.970895 24.2043105,110.432684 Z" id="Path-111" fill="#356ED0"></path>
                            </g>
                            <g id="Man-looking" transform="translate(0.000000, 11.000000)">
                                <path d="M15.8998351,19.4844859 C14.7181225,17.6287045 14,15.1817608 14,12.5 C14,6.70101013 17.3578644,2 21.5,2 C25.035109,2 27.9989718,5.42411368 28.7917529,10.0325711 C28.8589258,10.0112279 28.9285887,10 29,10 C29.5522847,10 30,10.6715729 30,11.5 C30,12.3284271 29.5522847,13 29,13 C28.9972133,13 28.9944294,12.9999829 28.9916481,12.9999488 C28.826198,17.9412958 26.221054,21.9894512 22.8245314,22.8367739 L23,25 L15,25 L15.5971462,19.4733248 L15.8998351,19.4844859 Z" id="Combined-Shape" fill="#B2C6E8"></path>
                                <path d="M19,87 L21.5705364,138.839704 C22.8816739,139.436571 23.83752,139.711447 24.4380747,139.664333 C25.0386294,139.61722 25.8631779,139.204339 26.9117204,138.425693 L28.3580084,94.5040256 L19,87 Z" id="Path-19" fill="#00DDBD"></path>
                                <polygon id="Path-19-Copy" fill="#00DDBD" points="7 88 8.61323815 129.685075 14.0115498 129.685075 15.5971462 93.4674621"></polygon>
                                <polygon id="Path-25" fill="#B2C6E8" points="3.46693535 72.5472083 4.01662292 76.7203713 6.49761717 78.3807121 6.49761717 72.5472083"></polygon>
                                <polygon id="Path-26" fill="#00DDBD" points="0.875699018 75.6453838 14 67.8367581 14 81.4194767 0.875699018 89.2878892"></polygon>
                                <path d="M5.83834011,26 C3.65115934,33.9518037 2.40328889,40.9078917 2.09472876,46.8682639 C1.78616863,52.8286361 2.23141354,61.3766474 3.4304635,72.5122978 L7.95004493,72.5122978 L10.3579215,28.8484028 L5.83834011,26 Z" id="Path-20" fill="#2C5DB2"></path>
                                <path d="M5.64946047,25.6554725 C4.78351318,27.8505377 4.78351318,49.4538012 5.64946047,90.4652631 C9.61151938,94.304365 13.2655388,96.4841894 16.6115186,97.0047361 C19.9574985,97.5252829 25.0289467,96.7029125 31.8258632,94.5376252 C31.7583995,76.0629778 31.4338446,62.5676636 30.8521984,54.0516827 C29.9797292,41.2777114 31.7557253,31.6758998 30.8521984,29.9247841 C30.2498472,28.7573737 27.8970092,26.7505646 23.7936844,23.9043568 C21.8420693,24.3351408 20.1567284,24.3351408 18.7376618,23.9043568 C16.6090619,23.2581808 14.7332242,21 13.0701139,21 C11.4070037,21 6.9483814,22.3628747 5.64946047,25.6554725 Z" id="Path-21" fill="#356ED0"></path>
                                <path d="M42.028149,41.811771 C43.7979308,40.0460147 45.0755596,39.1752846 45.8610353,39.1995804 C47.0392488,39.2360241 45.5938815,41.5355838 47.1209686,41.9692987 C48.6480556,42.4030136 49.6547677,40.0527062 51.91864,40.9043997 C54.1825124,41.7560931 53.5046458,41.4178595 52.9212974,43.0990056 C52.3379491,44.7801517 51.8040388,45.7793457 48.488176,46.0026726 C46.2776008,46.1515571 43.9149909,46.3296749 41.4003462,46.5370258 C40.9414082,44.8676422 40.7671467,43.6174221 40.8775619,42.7863656 C40.987977,41.9553091 41.3715061,41.6304442 42.028149,41.811771 Z" id="Path-125" fill="#B2C6E8" transform="translate(47.168333, 42.868056) rotate(-22.000000) translate(-47.168333, -42.868056) "></path>
                                <path d="M30.3063363,29.7130797 C27.1654124,26.7154149 24.7006087,33.6725498 23.750744,39 C22.6650307,45.089376 24.5225606,55.6569845 26,59 C26.9849596,61.228677 33.038293,57.5620103 44.16,48 L42.7646547,41.8367581 C34.5907918,48.9204289 30.2599023,52.0939414 29.7719863,51.3572954 C29.0401123,50.2523264 33.4472602,32.7107445 30.3063363,29.7130797 Z" id="Path-18" fill="#2C5DB2"></path>
                                <path d="M26.9876527,134.444631 L29.8893688,134.444631 C31.5531897,133.099913 32.7118401,132.693981 33.3653197,133.226836 C34.3455392,134.026118 33.6733766,136.442939 32.6931571,137.66437 C31.7129376,138.885801 25.6093162,142.938865 24.1959842,143.493738 C22.7826522,144.048612 21,142.984223 21,142.255098 C21,141.769014 21.1158794,140.053358 21.3476381,137.108131 C23.2465355,137.91875 24.6769148,138.104163 25.6387761,137.66437 C26.6006373,137.224577 27.0502629,136.151331 26.9876527,134.444631 Z" id="Path-22" fill="#356ED0"></path>
                                <path d="M13.9876527,127.444631 L16.8893688,127.444631 C18.5585956,126.911776 19.7199488,126.911776 20.3734285,127.444631 C21.3536479,128.243913 20.6733766,129.442939 19.6931571,130.66437 C18.7129376,131.885801 12.6093162,135.938865 11.1959842,136.493738 C9.78265215,137.048612 8,135.984223 8,135.255098 C8,134.769014 8.174279,132.802662 8.52283699,129.356041 C9.81603881,129.575397 11.0164576,129.685075 12.1240933,129.685075 C13.231729,129.685075 13.8529155,128.93826 13.9876527,127.444631 Z" id="Path-22-Copy" fill="#356ED0"></path>
                                <path d="M27.4740463,12.0667129 C27.7427229,11.1791191 26.5239732,11.0180352 26.4408039,10.3987132 C26.1902661,8.5330784 26.7841887,6.88933173 26.7150841,6.25421267 C26.5770169,4.98527989 25.8038078,5.68844398 25.8038078,3.91670136 C25.8038078,3.28032301 28.1771401,4.78376047 27.7007969,2.3497228 C27.2244537,-0.0843148633 22.451622,-0.860957324 16.8010485,1.14070027 C7.77999485,4.33631586 11.5008096,14.2842156 13.3619777,17.675271 C14.6027564,19.9359747 16.3324962,21.2091871 18.5511969,21.4949083 C20.1119806,22.4659582 21.7771918,21.9540481 23.5468302,19.9591779 C26.201288,16.9668726 27.2053697,12.9543066 27.4740463,12.0667129 Z" id="Path-23" fill="#2C5DB2"></path>
                            </g>
                            <path d="M80.3723787,12.4351249 C79.2386609,12.8649966 71.5209239,11.5745088 71.4013074,11.224015 C71.3215631,10.9903524 71.0514961,10.9309807 70.5911064,11.0458997 L68.7113054,10.3578876 C70.0047164,5.84321202 71.6894451,3.00642806 73.7654916,1.84753568 C76.8795613,0.109197121 80.2232921,0.0397885576 83.9397071,3.48962342 C86.4173171,5.78951333 86.5727745,10.2488912 84.4060794,16.8677571 C83.4816045,11.9110629 82.639232,9.0048666 81.8789618,8.14916831 C80.7385565,6.86562086 81.5060965,12.0052533 80.3723787,12.4351249 Z" id="Path-126" fill="#2C5DB2"></path>
                        </g>
                    </g>
                </g>
            </g>
            <g id="Group-17" transform="translate(269.000000, 2393.000000)">
                <path d="M0,57.439734 C4.89226229,44.0595233 8.48908958,36.579612 10.7904819,35 C14.2425703,32.6305821 16.8332485,43 21.0377569,43 C25.2422653,43 26.5008756,34.8440673 29.9385346,34.3888662 C33.3761937,33.9336651 33.2976563,41.8089311 39.4593476,40.0789032 C43.5671417,38.9255513 47.0028061,30.5659169 49.7663407,15" id="Path-128" stroke="#FC835C" stroke-width="4" stroke-linecap="round" stroke-linejoin="round"></path>
                <polygon id="Path-129" fill="#FC835C" points="56.8127127 16 42.6865883 13.2878892 52.7936508 0.192014271"></polygon>
            </g>
        </g>
    </g>
</svg>