<?xml version="1.0" encoding="UTF-8"?>
<svg width="180px" height="208px" viewBox="0 0 180 208" version="1.1" xmlns="http://www.w3.org/2000/svg" xmlns:xlink="http://www.w3.org/1999/xlink">
    <!-- Generator: Sketch 52.2 (67145) - http://www.bohemiancoding.com/sketch -->
    <title>Build Better APIs@</title>
    <desc>Created with Sketch.</desc>
    <g id="Page-1-Copy" stroke="none" stroke-width="1" fill="none" fill-rule="evenodd">
        <g id="Artboard-Copy-15" transform="translate(-165.000000, -2018.000000)">
            <rect fill="#FFFFFF" x="0" y="0" width="1650" height="5361"></rect>
            <g id="Group-41" transform="translate(165.000000, 1758.000000)">
                <g id="Group-37" transform="translate(0.000000, 260.000000)">
                    <g id="Group-36">
                        <g id="Group-28" transform="translate(27.000000, 18.000000)">
                            <path d="M1.98,51.5509995 L1.98,52.4490005 L0.476805663,52.4490005 L0.458402831,52 L0.476805663,51.5509995 L1.98,51.5509995 Z M1.98,51.0613198 L1.98,52.9386802 C1.5371174,53.0115946 1.0861243,53.0604718 0.62840462,53.0839279 C1.14615474,52.9945664 1.54,52.5432769 1.54,52 C1.54,51.4567231 1.14615474,51.0054336 0.62840462,50.9160721 C1.0861243,50.9395282 1.5371174,50.9884054 1.98,51.0613198 Z M5.04765029,52 C7.67367393,53.2069119 9.79308812,55.3263261 11,57.9523497 C12.2069119,55.3263261 14.3263261,53.2069119 16.9523497,52 C14.3263261,50.7930881 12.2069119,48.6736739 11,46.0476503 C9.79308812,48.6736739 7.67367393,50.7930881 5.04765029,52 Z M11.9386802,61.02 C12.0115946,61.4628826 12.0604718,61.9138757 12.0839279,62.3715954 C11.9945664,61.8538453 11.5432769,61.46 11,61.46 C10.4567231,61.46 10.0054336,61.8538453 9.91607208,62.3715954 C9.93952817,61.9138757 9.98840537,61.4628826 10.0613198,61.02 L11.9386802,61.02 Z M11.4490005,62.5231943 L11,62.5415972 L10.5509995,62.5231943 L10.5509995,61.02 L11.4490005,61.02 L11.4490005,62.5231943 Z M20.02,51.0613198 C20.4628826,50.9884054 20.9138757,50.9395282 21.3715954,50.9160721 C20.8538453,51.0054336 20.46,51.4567231 20.46,52 C20.46,52.5432769 20.8538453,52.9945664 21.3715954,53.0839279 C20.9138757,53.0604718 20.4628826,53.0115946 20.02,52.9386802 L20.02,51.5509995 L21.5231943,51.5509995 L21.5415972,52 L21.5231943,52.4490005 L20.02,52.4490005 L20.02,51.0613198 Z M10.0613198,42.98 C9.98840537,42.5371174 9.93952817,42.0861243 9.91607208,41.6284046 C10.0054336,42.1461547 10.4567231,42.54 11,42.54 C11.5432769,42.54 11.9945664,42.1461547 12.0839279,41.6284046 C12.0604718,42.0861243 12.0115946,42.5371174 11.9386802,42.98 L10.5509995,42.98 L10.5509995,41.4768057 L11,41.4584028 L11.4490005,41.4768057 L11.4490005,42.98 L10.0613198,42.98 Z" id="Combined-Shape-Copy-15" stroke="#00DDBD" stroke-width="3.08" fill="#00DDBD"></path>
                            <g id="Group-27" transform="translate(4.000000, 15.000000)">
                                <g id="Group-26" transform="translate(10.000000, 6.000000)">
                                    <polygon id="Path-38-Copy" fill="#E1E8F5" transform="translate(38.692923, 69.417838) scale(-1, 1) translate(-38.692923, -69.417838) " points="1.26410456 1.24577571 76.2058465 44.8363875 76.1997853 137.589901 1.18 94.2835242"></polygon>
                                    <g id="Group-25" transform="translate(6.000000, 28.000000)">
                                        <path d="M53.0337644,3.35538883 L53.0323821,4.04107354 C53.0295078,5.46689009 52.2720263,6.79055568 51.0374114,7.50377866 L5.11063271,34.0196167 C4.28270382,34.4979018 3.22639342,34.2189372 2.74810833,33.3910083 C2.59601701,33.1277327 2.51594343,32.8290456 2.51594343,32.5249966 L2.51594343,31.8353127 C2.51594343,30.4060205 3.28308591,29.0931372 4.52100407,28.3786901 L50.4512064,1.86087545 C51.274916,1.38548306 52.327806,1.66743376 52.8031983,2.49114334 C52.9548373,2.75388724 53.0343759,3.05202707 53.0337644,3.35538883 Z" id="Path-11-Copy" fill="#76A8FF"></path>
                                        <path d="M46.9830219,33.8560992 L42.5946893,36.3897043 C41.7667604,36.8679893 40.71045,36.5890248 40.2321649,35.7610959 C40.0800736,35.4978203 40,35.1991332 40,34.8950842 L40,34.2054002 C40,32.7761081 40.7671425,31.4632248 42.0050606,30.7487777 L44.3930219,29.3700876 L60.22245,20.230963 C61.0461596,19.7555706 62.0990496,20.0375213 62.574442,20.8612309 C62.7260809,21.1239748 62.8056196,21.4221146 62.805008,21.7254763 L62.8036258,22.4111611 C62.8007515,23.8369776 62.0432699,25.1606432 60.808655,25.8738662 L46.9830219,33.8560992 Z" id="Path" fill="#76A8FF"></path>
                                        <path d="M9.30281292,43.1462656 L4.91448028,45.6798707 C4.0865514,46.1581558 3.03024099,45.8791913 2.55195591,45.0512624 C2.39986459,44.7879868 2.31979101,44.4892997 2.31979101,44.1852506 L2.31979101,43.4955667 C2.31979101,42.0662746 3.08693349,40.7533912 4.32485165,40.0389442 L6.71281292,38.660254 L26.0063427,27.5211294 C26.8300523,27.0457371 27.8829422,27.3276877 28.3583346,28.1513973 C28.5099735,28.4141412 28.5895122,28.7122811 28.5889006,29.0156428 L28.5875184,29.7013275 C28.5846441,31.1271441 27.8271625,32.4508097 26.5925476,33.1640327 L9.30281292,43.1462656 Z" id="Path" fill="#FC835C"></path>
                                        <path d="M9.1066605,54.8065197 L4.71832786,57.3401248 C3.89039898,57.8184098 2.83408857,57.5394453 2.35580349,56.7115164 C2.20371216,56.4482408 2.12363858,56.1495537 2.12363858,55.8455047 L2.12363858,55.1558207 C2.12363858,53.7265286 2.89078106,52.4136453 4.12869923,51.6991982 L6.5166605,50.3205081 L34.4704443,34.1813835 C35.2941539,33.7059911 36.3470438,33.9879418 36.8224362,34.8116514 C36.9740752,35.0743953 37.0536138,35.3725351 37.0530023,35.6758969 L37.05162,36.3615816 C37.0487457,37.7873981 36.2912642,39.1110637 35.0566492,39.8242867 L9.1066605,54.8065197 Z" id="Path" fill="#00DDBD"></path>
                                        <path d="M38.7476767,26.1462657 L34.359344,28.6798707 C33.5314151,29.1581558 32.4751047,28.8791913 31.9968196,28.0512624 C31.8447283,27.7879868 31.7646547,27.4892997 31.7646547,27.1852506 L31.7646547,26.4955667 C31.7646547,25.0662746 32.5317972,23.7533912 33.7697154,23.0389442 L36.1576766,21.660254 L41.5947999,18.5211294 C42.4185095,18.0457371 43.4713995,18.3276877 43.9467919,19.1513973 C44.0984308,19.4141412 44.1779695,19.7122811 44.1773579,20.0156428 L44.1759756,20.7013275 C44.1731014,22.1271441 43.4156198,23.4508097 42.1810049,24.1640327 L38.7476766,26.1462656 Z" id="Path" fill="#76A8FF"></path>
                                        <path d="M46.983022,67.8560993 L42.5946893,70.3897043 C41.7667604,70.8679893 40.71045,70.5890248 40.2321649,69.7610959 C40.0800736,69.4978203 40,69.1991332 40,68.8950842 L40,68.2054002 C40,66.7761081 40.7671425,65.4632248 42.0050606,64.7487777 L44.3930219,63.3700876 L49.8301452,60.230963 C50.6538548,59.7555706 51.7067447,60.0375213 52.1821371,60.8612309 C52.3337761,61.1239748 52.4133147,61.4221146 52.4127032,61.7254763 L52.4113209,62.4111611 C52.4084466,63.8369776 51.6509651,65.1606432 50.4163501,65.8738662 L46.9830219,67.8560992 Z" id="Path-Copy-39" fill="#76A8FF"></path>
                                        <path d="M8.91050802,66.4667736 L4.52217538,69.0003787 C3.6942465,69.4786638 2.63793609,69.1996992 2.15965101,68.3717704 C2.00755969,68.1084947 1.92748611,67.8098076 1.92748611,67.5057586 L1.92748611,66.8160747 C1.92748611,65.3867826 2.69462858,64.0738992 3.93254675,63.3594522 L6.32050802,61.980762 L41.202495,41.8416374 C42.0262046,41.366245 43.0790946,41.6481957 43.554487,42.4719053 C43.7061259,42.7346492 43.7856646,43.032789 43.785053,43.3361508 L43.7836707,44.0218355 C43.7807965,45.4476521 43.0233149,46.7713177 41.7887,47.4845406 L8.91050802,66.4667736 Z" id="Path" fill="#76A8FF"></path>
                                        <path d="M8.71435565,78.1270277 L4.32602296,80.6606327 C3.49809407,81.1389178 2.44178367,80.8599533 1.96349859,80.0320244 C1.81140726,79.7687488 1.73133368,79.4700617 1.73133368,79.1660126 L1.73133368,78.4763287 C1.73133368,77.0470366 2.49847616,75.7341532 3.73639433,75.0197062 L6.1243556,73.6410161 L11.5614789,70.5018915 C12.3851885,70.0264991 13.4380784,70.3084498 13.9134708,71.1321594 C14.0651098,71.3949033 14.1446484,71.6930431 14.1440369,71.9964048 L14.1426546,72.6820896 C14.1397803,74.1079061 13.3822988,75.4315717 12.1476838,76.1447947 L8.7143556,78.1270276 Z" id="Path" fill="#00DDBD"></path>
                                        <path d="M8.51820318,89.7872817 L4.12987054,92.3208868 C3.30194165,92.7991719 2.24563125,92.5202073 1.76734616,91.6922784 C1.61525484,91.4290028 1.53518126,91.1303157 1.53518126,90.8262667 L1.53518126,90.1365828 C1.53518126,88.7072906 2.30232374,87.3944073 3.54024191,86.6799602 L5.92820318,85.3012701 L33.881987,69.1621455 C34.7056965,68.6867531 35.7585865,68.9687038 36.2339789,69.7924134 C36.3856178,70.0551573 36.4651565,70.3532971 36.4645449,70.6566589 L36.4631627,71.3423436 C36.4602884,72.7681601 35.7028068,74.0918257 34.4681919,74.8050487 L8.51820318,89.7872817 Z" id="Path" fill="#FC835C"></path>
                                        <path d="M23.4448637,63.6410161 L41.0063426,53.5018915 C41.8300522,53.0264991 42.8829421,53.3084498 43.3583345,54.1321594 C43.5099735,54.3949033 43.5895121,54.6930431 43.5889006,54.9964048 L43.5875183,55.6820896 C43.584644,57.1079061 42.8271625,58.4315717 41.5925476,59.1447947 L26.0348637,68.1270276 L21.646531,70.6606327 C20.8186022,71.1389178 19.7622917,70.8599533 19.2840067,70.0320244 C19.1319153,69.7687488 19.0518418,69.4700617 19.0518418,69.1660126 L19.0518418,68.4763287 C19.0518418,67.0470366 19.8189842,65.7341532 21.0569024,65.0197062 L23.4448637,63.6410161 Z" id="Path" fill="#76A8FF"></path>
                                        <path d="M53.7476766,52.1270276 L49.359344,54.6606327 C48.5314151,55.1389178 47.4751047,54.8599533 46.9968196,54.0320244 C46.8447283,53.7687488 46.7646547,53.4700617 46.7646547,53.1660126 L46.7646547,52.4763287 C46.7646547,51.0470366 47.5317972,49.7341532 48.7697153,49.0197062 L51.1576766,47.6410161 L63.5230031,40.5018915 C64.3467127,40.0264991 65.3996026,40.3084498 65.874995,41.1321594 C66.026634,41.3949033 66.1061726,41.6930431 66.1055611,41.9964048 L66.1041788,42.6820896 C66.1013045,44.1079061 65.343823,45.4315717 64.109208,46.1447947 L53.7476766,52.1270276 Z" id="Path" fill="#00DDBD"></path>
                                    </g>
                                </g>
                                <polygon id="Path-62" fill="#F5F9FF" points="11.18 50.8383789 0.60941444 44.816425 75.5064955 1.27591497 86.1040955 7.24577571"></polygon>
                                <polygon id="Path-63" fill="#F2F5FA" points="11.18 50.8383789 0.60941444 44.8998833 0.6 137.515937 11.18 143.589901"></polygon>
                            </g>
                            <path d="M68.76,18.2244538 L68.76,20.0532587 C68.1831704,20.1319296 67.5986023,20.1863066 67.0073602,20.2153252 C67.5736745,20.1006815 68,19.6001276 68,19 C68,18.3998724 67.5736745,17.8993185 67.0073602,17.7846748 C67.5986023,17.8136934 68.1831704,17.8680704 68.76,17.9467413 L68.76,19.7755462 L66.8235734,19.7755462 L66.7917867,19 L66.8235734,18.2244538 L68.76,18.2244538 Z M72.9910154,19 C78.5455926,21.0443544 82.9556456,25.4544074 85,31.0089846 C87.0443544,25.4544074 91.4544074,21.0443544 97.0089846,19 C91.4544074,16.9556456 87.0443544,12.5455926 85,6.99101543 C82.9556456,12.5455926 78.5455926,16.9556456 72.9910154,19 Z M86.0532587,35.24 C86.1319296,35.8168296 86.1863066,36.4013977 86.2153252,36.9926398 C86.1006815,36.4263255 85.6001276,36 85,36 C84.3998724,36 83.8993185,36.4263255 83.7846748,36.9926398 C83.8136934,36.4013977 83.8680704,35.8168296 83.9467413,35.24 L84.2322269,35.24 L85,35.24 L85.7755462,35.24 L85.7755462,37.1764266 L85,37.2082133 L84.2244538,37.1764266 L84.2244538,35.24 L84.2322269,35.24 L85,35.24 L86.0532587,35.24 Z M101.24,17.9467413 C101.81683,17.8680704 102.401398,17.8136934 102.99264,17.7846748 C102.426325,17.8993185 102,18.3998724 102,19 C102,19.6001276 102.426325,20.1006815 102.99264,20.2153252 C102.401398,20.1863066 101.81683,20.1319296 101.24,20.0532587 L101.24,17.9467413 Z M103.176427,18.2244538 L103.208213,19 L103.176427,19.7755462 L101.24,19.7755462 L101.24,18.2244538 L103.176427,18.2244538 Z M83.9467413,2.76 C83.8680704,2.18317041 83.8136934,1.5986023 83.7846748,1.00736022 C83.8993185,1.57367454 84.3998724,2 85,2 C85.6001276,2 86.1006815,1.57367454 86.2153252,1.00736022 C86.1863066,1.5986023 86.1319296,2.18317041 86.0532587,2.76 L84.2244538,2.76 L84.2244538,0.823573417 L85,0.791786709 L85.7755462,0.823573417 L85.7755462,2.76 L83.9467413,2.76 Z" id="Combined-Shape" stroke="#00DDBD" stroke-width="4" fill="#00DDBD"></path>
                            <g id="Group-27-Copy" transform="translate(19.000000, 25.000000)">
                                <g id="Group-26" transform="translate(10.000000, 6.000000)">
                                    <polygon id="Path-38-Copy" fill="#E1E8F5" transform="translate(38.692923, 69.417838) scale(-1, 1) translate(-38.692923, -69.417838) " points="1.26410456 1.24577571 76.2058465 44.8363875 76.1997853 137.589901 1.18 94.2835242"></polygon>
                                    <g id="Group-25" transform="translate(6.000000, 28.000000)">
                                        <path d="M53.0337644,3.35538883 L53.0323821,4.04107354 C53.0295078,5.46689009 52.2720263,6.79055568 51.0374114,7.50377866 L5.11063271,34.0196167 C4.28270382,34.4979018 3.22639342,34.2189372 2.74810833,33.3910083 C2.59601701,33.1277327 2.51594343,32.8290456 2.51594343,32.5249966 L2.51594343,31.8353127 C2.51594343,30.4060205 3.28308591,29.0931372 4.52100407,28.3786901 L50.4512064,1.86087545 C51.274916,1.38548306 52.327806,1.66743376 52.8031983,2.49114334 C52.9548373,2.75388724 53.0343759,3.05202707 53.0337644,3.35538883 Z" id="Path-11-Copy" fill="#76A8FF"></path>
                                        <path d="M46.9830219,33.8560992 L42.5946893,36.3897043 C41.7667604,36.8679893 40.71045,36.5890248 40.2321649,35.7610959 C40.0800736,35.4978203 40,35.1991332 40,34.8950842 L40,34.2054002 C40,32.7761081 40.7671425,31.4632248 42.0050606,30.7487777 L44.3930219,29.3700876 L60.22245,20.230963 C61.0461596,19.7555706 62.0990496,20.0375213 62.574442,20.8612309 C62.7260809,21.1239748 62.8056196,21.4221146 62.805008,21.7254763 L62.8036258,22.4111611 C62.8007515,23.8369776 62.0432699,25.1606432 60.808655,25.8738662 L46.9830219,33.8560992 Z" id="Path" fill="#76A8FF"></path>
                                        <path d="M9.30281292,43.1462656 L4.91448028,45.6798707 C4.0865514,46.1581558 3.03024099,45.8791913 2.55195591,45.0512624 C2.39986459,44.7879868 2.31979101,44.4892997 2.31979101,44.1852506 L2.31979101,43.4955667 C2.31979101,42.0662746 3.08693349,40.7533912 4.32485165,40.0389442 L6.71281292,38.660254 L26.0063427,27.5211294 C26.8300523,27.0457371 27.8829422,27.3276877 28.3583346,28.1513973 C28.5099735,28.4141412 28.5895122,28.7122811 28.5889006,29.0156428 L28.5875184,29.7013275 C28.5846441,31.1271441 27.8271625,32.4508097 26.5925476,33.1640327 L9.30281292,43.1462656 Z" id="Path" fill="#FC835C"></path>
                                        <path d="M9.1066605,54.8065197 L4.71832786,57.3401248 C3.89039898,57.8184098 2.83408857,57.5394453 2.35580349,56.7115164 C2.20371216,56.4482408 2.12363858,56.1495537 2.12363858,55.8455047 L2.12363858,55.1558207 C2.12363858,53.7265286 2.89078106,52.4136453 4.12869923,51.6991982 L6.5166605,50.3205081 L34.4704443,34.1813835 C35.2941539,33.7059911 36.3470438,33.9879418 36.8224362,34.8116514 C36.9740752,35.0743953 37.0536138,35.3725351 37.0530023,35.6758969 L37.05162,36.3615816 C37.0487457,37.7873981 36.2912642,39.1110637 35.0566492,39.8242867 L9.1066605,54.8065197 Z" id="Path" fill="#00DDBD"></path>
                                        <path d="M38.7476767,26.1462657 L34.359344,28.6798707 C33.5314151,29.1581558 32.4751047,28.8791913 31.9968196,28.0512624 C31.8447283,27.7879868 31.7646547,27.4892997 31.7646547,27.1852506 L31.7646547,26.4955667 C31.7646547,25.0662746 32.5317972,23.7533912 33.7697154,23.0389442 L36.1576766,21.660254 L41.5947999,18.5211294 C42.4185095,18.0457371 43.4713995,18.3276877 43.9467919,19.1513973 C44.0984308,19.4141412 44.1779695,19.7122811 44.1773579,20.0156428 L44.1759756,20.7013275 C44.1731014,22.1271441 43.4156198,23.4508097 42.1810049,24.1640327 L38.7476766,26.1462656 Z" id="Path" fill="#76A8FF"></path>
                                        <path d="M46.983022,67.8560993 L42.5946893,70.3897043 C41.7667604,70.8679893 40.71045,70.5890248 40.2321649,69.7610959 C40.0800736,69.4978203 40,69.1991332 40,68.8950842 L40,68.2054002 C40,66.7761081 40.7671425,65.4632248 42.0050606,64.7487777 L44.3930219,63.3700876 L49.8301452,60.230963 C50.6538548,59.7555706 51.7067447,60.0375213 52.1821371,60.8612309 C52.3337761,61.1239748 52.4133147,61.4221146 52.4127032,61.7254763 L52.4113209,62.4111611 C52.4084466,63.8369776 51.6509651,65.1606432 50.4163501,65.8738662 L46.9830219,67.8560992 Z" id="Path-Copy-39" fill="#76A8FF"></path>
                                        <path d="M8.91050802,66.4667736 L4.52217538,69.0003787 C3.6942465,69.4786638 2.63793609,69.1996992 2.15965101,68.3717704 C2.00755969,68.1084947 1.92748611,67.8098076 1.92748611,67.5057586 L1.92748611,66.8160747 C1.92748611,65.3867826 2.69462858,64.0738992 3.93254675,63.3594522 L6.32050802,61.980762 L41.202495,41.8416374 C42.0262046,41.366245 43.0790946,41.6481957 43.554487,42.4719053 C43.7061259,42.7346492 43.7856646,43.032789 43.785053,43.3361508 L43.7836707,44.0218355 C43.7807965,45.4476521 43.0233149,46.7713177 41.7887,47.4845406 L8.91050802,66.4667736 Z" id="Path" fill="#76A8FF"></path>
                                        <path d="M8.71435565,78.1270277 L4.32602296,80.6606327 C3.49809407,81.1389178 2.44178367,80.8599533 1.96349859,80.0320244 C1.81140726,79.7687488 1.73133368,79.4700617 1.73133368,79.1660126 L1.73133368,78.4763287 C1.73133368,77.0470366 2.49847616,75.7341532 3.73639433,75.0197062 L6.1243556,73.6410161 L11.5614789,70.5018915 C12.3851885,70.0264991 13.4380784,70.3084498 13.9134708,71.1321594 C14.0651098,71.3949033 14.1446484,71.6930431 14.1440369,71.9964048 L14.1426546,72.6820896 C14.1397803,74.1079061 13.3822988,75.4315717 12.1476838,76.1447947 L8.7143556,78.1270276 Z" id="Path" fill="#00DDBD"></path>
                                        <path d="M8.51820318,89.7872817 L4.12987054,92.3208868 C3.30194165,92.7991719 2.24563125,92.5202073 1.76734616,91.6922784 C1.61525484,91.4290028 1.53518126,91.1303157 1.53518126,90.8262667 L1.53518126,90.1365828 C1.53518126,88.7072906 2.30232374,87.3944073 3.54024191,86.6799602 L5.92820318,85.3012701 L33.881987,69.1621455 C34.7056965,68.6867531 35.7585865,68.9687038 36.2339789,69.7924134 C36.3856178,70.0551573 36.4651565,70.3532971 36.4645449,70.6566589 L36.4631627,71.3423436 C36.4602884,72.7681601 35.7028068,74.0918257 34.4681919,74.8050487 L8.51820318,89.7872817 Z" id="Path" fill="#FC835C"></path>
                                        <path d="M23.4448637,63.6410161 L41.0063426,53.5018915 C41.8300522,53.0264991 42.8829421,53.3084498 43.3583345,54.1321594 C43.5099735,54.3949033 43.5895121,54.6930431 43.5889006,54.9964048 L43.5875183,55.6820896 C43.584644,57.1079061 42.8271625,58.4315717 41.5925476,59.1447947 L26.0348637,68.1270276 L21.646531,70.6606327 C20.8186022,71.1389178 19.7622917,70.8599533 19.2840067,70.0320244 C19.1319153,69.7687488 19.0518418,69.4700617 19.0518418,69.1660126 L19.0518418,68.4763287 C19.0518418,67.0470366 19.8189842,65.7341532 21.0569024,65.0197062 L23.4448637,63.6410161 Z" id="Path" fill="#76A8FF"></path>
                                        <path d="M53.7476766,52.1270276 L49.359344,54.6606327 C48.5314151,55.1389178 47.4751047,54.8599533 46.9968196,54.0320244 C46.8447283,53.7687488 46.7646547,53.4700617 46.7646547,53.1660126 L46.7646547,52.4763287 C46.7646547,51.0470366 47.5317972,49.7341532 48.7697153,49.0197062 L51.1576766,47.6410161 L63.5230031,40.5018915 C64.3467127,40.0264991 65.3996026,40.3084498 65.874995,41.1321594 C66.026634,41.3949033 66.1061726,41.6930431 66.1055611,41.9964048 L66.1041788,42.6820896 C66.1013045,44.1079061 65.343823,45.4315717 64.109208,46.1447947 L53.7476766,52.1270276 Z" id="Path" fill="#00DDBD"></path>
                                    </g>
                                </g>
                                <polygon id="Path-62" fill="#F5F9FF" points="11.18 50.8383789 0.60941444 44.816425 75.5064955 1.27591497 86.1040955 7.24577571"></polygon>
                                <polygon id="Path-63" fill="#F2F5FA" points="11.18 50.8383789 0.60941444 44.8998833 0.6 137.515937 11.18 143.589901"></polygon>
                            </g>
                            <g id="Group-27-Copy-2" transform="translate(35.000000, 35.000000)">
                                <g id="Group-26" transform="translate(11.000000, 6.000000)">
                                    <polygon id="Path-38-Copy" fill="#E1E8F5" transform="translate(37.692923, 68.417838) scale(-1, 1) translate(-37.692923, -68.417838) " points="0.264104556 0.245775713 75.2058465 43.8363875 75.1997853 136.589901 0.18 93.2835242"></polygon>
                                    <g id="Group-25" transform="translate(6.000000, 28.000000)">
                                        <path d="M52.0337644,2.35538883 L52.0323821,3.04107354 C52.0295078,4.46689009 51.2720263,5.79055568 50.0374114,6.50377866 L4.11063271,33.0196167 C3.28270382,33.4979018 2.22639342,33.2189372 1.74810833,32.3910083 C1.59601701,32.1277327 1.51594343,31.8290456 1.51594343,31.5249966 L1.51594343,30.8353127 C1.51594343,29.4060205 2.28308591,28.0931372 3.52100407,27.3786901 L49.4512064,0.86087545 C50.274916,0.38548306 51.327806,0.667433756 51.8031983,1.49114334 C51.9548373,1.75388724 52.0343759,2.05202707 52.0337644,2.35538883 Z" id="Path-11-Copy" fill="#76A8FF"></path>
                                        <path d="M45.9830219,32.8560992 L41.5946893,35.3897043 C40.7667604,35.8679893 39.71045,35.5890248 39.2321649,34.7610959 C39.0800736,34.4978203 39,34.1991332 39,33.8950842 L39,33.2054002 C39,31.7761081 39.7671425,30.4632248 41.0050606,29.7487777 L43.3930219,28.3700876 L59.22245,19.230963 C60.0461596,18.7555706 61.0990496,19.0375213 61.574442,19.8612309 C61.7260809,20.1239748 61.8056196,20.4221146 61.805008,20.7254763 L61.8036258,21.4111611 C61.8007515,22.8369776 61.0432699,24.1606432 59.808655,24.8738662 L45.9830219,32.8560992 Z" id="Path" fill="#76A8FF"></path>
                                        <path d="M8.30281292,42.1462656 L3.91448028,44.6798707 C3.0865514,45.1581558 2.03024099,44.8791913 1.55195591,44.0512624 C1.39986459,43.7879868 1.31979101,43.4892997 1.31979101,43.1852506 L1.31979101,42.4955667 C1.31979101,41.0662746 2.08693349,39.7533912 3.32485165,39.0389442 L5.71281292,37.660254 L25.0063427,26.5211294 C25.8300523,26.0457371 26.8829422,26.3276877 27.3583346,27.1513973 C27.5099735,27.4141412 27.5895122,27.7122811 27.5889006,28.0156428 L27.5875184,28.7013275 C27.5846441,30.1271441 26.8271625,31.4508097 25.5925476,32.1640327 L8.30281292,42.1462656 Z" id="Path" fill="#FC835C"></path>
                                        <path d="M8.1066605,53.8065197 L3.71832786,56.3401248 C2.89039898,56.8184098 1.83408857,56.5394453 1.35580349,55.7115164 C1.20371216,55.4482408 1.12363858,55.1495537 1.12363858,54.8455047 L1.12363858,54.1558207 C1.12363858,52.7265286 1.89078106,51.4136453 3.12869923,50.6991982 L5.5166605,49.3205081 L33.4704443,33.1813835 C34.2941539,32.7059911 35.3470438,32.9879418 35.8224362,33.8116514 C35.9740752,34.0743953 36.0536138,34.3725351 36.0530023,34.6758969 L36.05162,35.3615816 C36.0487457,36.7873981 35.2912642,38.1110637 34.0566492,38.8242867 L8.1066605,53.8065197 Z" id="Path" fill="#00DDBD"></path>
                                        <path d="M37.7476767,25.1462657 L33.359344,27.6798707 C32.5314151,28.1581558 31.4751047,27.8791913 30.9968196,27.0512624 C30.8447283,26.7879868 30.7646547,26.4892997 30.7646547,26.1852506 L30.7646547,25.4955667 C30.7646547,24.0662746 31.5317972,22.7533912 32.7697154,22.0389442 L35.1576766,20.660254 L40.5947999,17.5211294 C41.4185095,17.0457371 42.4713995,17.3276877 42.9467919,18.1513973 C43.0984308,18.4141412 43.1779695,18.7122811 43.1773579,19.0156428 L43.1759756,19.7013275 C43.1731014,21.1271441 42.4156198,22.4508097 41.1810049,23.1640327 L37.7476766,25.1462656 Z" id="Path" fill="#76A8FF"></path>
                                        <path d="M45.983022,66.8560993 L41.5946893,69.3897043 C40.7667604,69.8679893 39.71045,69.5890248 39.2321649,68.7610959 C39.0800736,68.4978203 39,68.1991332 39,67.8950842 L39,67.2054002 C39,65.7761081 39.7671425,64.4632248 41.0050606,63.7487777 L43.3930219,62.3700876 L48.8301452,59.230963 C49.6538548,58.7555706 50.7067447,59.0375213 51.1821371,59.8612309 C51.3337761,60.1239748 51.4133147,60.4221146 51.4127032,60.7254763 L51.4113209,61.4111611 C51.4084466,62.8369776 50.6509651,64.1606432 49.4163501,64.8738662 L45.9830219,66.8560992 Z" id="Path-Copy-39" fill="#76A8FF"></path>
                                        <path d="M7.91050802,65.4667736 L3.52217538,68.0003787 C2.6942465,68.4786638 1.63793609,68.1996992 1.15965101,67.3717704 C1.00755969,67.1084947 0.927486107,66.8098076 0.927486107,66.5057586 L0.927486107,65.8160747 C0.927486107,64.3867826 1.69462858,63.0738992 2.93254675,62.3594522 L5.32050802,60.980762 L40.202495,40.8416374 C41.0262046,40.366245 42.0790946,40.6481957 42.554487,41.4719053 C42.7061259,41.7346492 42.7856646,42.032789 42.785053,42.3361508 L42.7836707,43.0218355 C42.7807965,44.4476521 42.0233149,45.7713177 40.7887,46.4845406 L7.91050802,65.4667736 Z" id="Path" fill="#76A8FF"></path>
                                        <path d="M7.71435565,77.1270277 L3.32602296,79.6606327 C2.49809407,80.1389178 1.44178367,79.8599533 0.963498586,79.0320244 C0.811407262,78.7687488 0.731333684,78.4700617 0.731333684,78.1660126 L0.731333684,77.4763287 C0.731333684,76.0470366 1.49847616,74.7341532 2.73639433,74.0197062 L5.1243556,72.6410161 L10.5614789,69.5018915 C11.3851885,69.0264991 12.4380784,69.3084498 12.9134708,70.1321594 C13.0651098,70.3949033 13.1446484,70.6930431 13.1440369,70.9964048 L13.1426546,71.6820896 C13.1397803,73.1079061 12.3822988,74.4315717 11.1476838,75.1447947 L7.7143556,77.1270276 Z" id="Path" fill="#00DDBD"></path>
                                        <path d="M7.51820318,88.7872817 L3.12987054,91.3208868 C2.30194165,91.7991719 1.24563125,91.5202073 0.767346164,90.6922784 C0.61525484,90.4290028 0.535181262,90.1303157 0.535181262,89.8262667 L0.535181262,89.1365828 C0.535181262,87.7072906 1.30232374,86.3944073 2.54024191,85.6799602 L4.92820318,84.3012701 L32.881987,68.1621455 C33.7056965,67.6867531 34.7585865,67.9687038 35.2339789,68.7924134 C35.3856178,69.0551573 35.4651565,69.3532971 35.4645449,69.6566589 L35.4631627,70.3423436 C35.4602884,71.7681601 34.7028068,73.0918257 33.4681919,73.8050487 L7.51820318,88.7872817 Z" id="Path" fill="#FC835C"></path>
                                        <path d="M22.4448637,62.6410161 L40.0063426,52.5018915 C40.8300522,52.0264991 41.8829421,52.3084498 42.3583345,53.1321594 C42.5099735,53.3949033 42.5895121,53.6930431 42.5889006,53.9964048 L42.5875183,54.6820896 C42.584644,56.1079061 41.8271625,57.4315717 40.5925476,58.1447947 L25.0348637,67.1270276 L20.646531,69.6606327 C19.8186022,70.1389178 18.7622917,69.8599533 18.2840067,69.0320244 C18.1319153,68.7687488 18.0518418,68.4700617 18.0518418,68.1660126 L18.0518418,67.4763287 C18.0518418,66.0470366 18.8189842,64.7341532 20.0569024,64.0197062 L22.4448637,62.6410161 Z" id="Path" fill="#76A8FF"></path>
                                        <path d="M52.7476766,51.1270276 L48.359344,53.6606327 C47.5314151,54.1389178 46.4751047,53.8599533 45.9968196,53.0320244 C45.8447283,52.7687488 45.7646547,52.4700617 45.7646547,52.1660126 L45.7646547,51.4763287 C45.7646547,50.0470366 46.5317972,48.7341532 47.7697153,48.0197062 L50.1576766,46.6410161 L62.5230031,39.5018915 C63.3467127,39.0264991 64.3996026,39.3084498 64.874995,40.1321594 C65.026634,40.3949033 65.1061726,40.6930431 65.1055611,40.9964048 L65.1041788,41.6820896 C65.1013045,43.1079061 64.343823,44.4315717 63.109208,45.1447947 L52.7476766,51.1270276 Z" id="Path" fill="#00DDBD"></path>
                                    </g>
                                </g>
                                <polygon id="Path-62" fill="#F5F9FF" points="11.18 49.8383789 0.60941444 43.816425 75.5064955 0.275914973 86.1040955 6.24577571"></polygon>
                                <polygon id="Path-63" fill="#F2F5FA" points="11.18 49.8383789 0.60941444 43.8998833 0.6 136.515937 11.18 142.589901"></polygon>
                            </g>
                            <path d="M37.48,37.5101813 L37.48,39.2928889 C36.9054369,39.3994244 36.3181071,39.4696457 35.7204799,39.5010835 C36.4456811,39.3858148 37,38.7576415 37,38 C37,37.2423585 36.4456811,36.6141852 35.7204799,36.4989165 C36.3181071,36.5303543 36.9054369,36.6005756 37.48,36.7071111 L37.48,38.4898187 L35.5201516,38.4898187 L35.5000758,38 L35.5201516,37.5101813 L37.48,37.5101813 Z M41.2340393,38 C43.698169,39.2826257 45.7173743,41.301831 47,43.7659607 C48.2826257,41.301831 50.301831,39.2826257 52.7659607,38 C50.301831,36.7173743 48.2826257,34.698169 47,32.2340393 C45.7173743,34.698169 43.698169,36.7173743 41.2340393,38 Z M48.2928889,47.52 C48.3994244,48.0945631 48.4696457,48.6818929 48.5010835,49.2795201 C48.3858148,48.5543189 47.7576415,48 47,48 C46.2423585,48 45.6141852,48.5543189 45.4989165,49.2795201 C45.5303543,48.6818929 45.6005756,48.0945631 45.7071111,47.52 L48.2928889,47.52 Z M47.4898187,49.4798484 L47,49.4999242 L46.5101813,49.4798484 L46.5101813,47.52 L47.4898187,47.52 L47.4898187,49.4798484 Z M56.52,36.7071111 C57.0945631,36.6005756 57.6818929,36.5303543 58.2795201,36.4989165 C57.5543189,36.6141852 57,37.2423585 57,38 C57,38.7576415 57.5543189,39.3858148 58.2795201,39.5010835 C57.6818929,39.4696457 57.0945631,39.3994244 56.52,39.2928889 L56.52,36.7071111 Z M58.4798484,37.5101813 L58.4999242,38 L58.4798484,38.4898187 L56.52,38.4898187 L56.52,37.5101813 L58.4798484,37.5101813 Z M45.7071111,28.48 C45.6005756,27.9054369 45.5303543,27.3181071 45.4989165,26.7204799 C45.6141852,27.4456811 46.2423585,28 47,28 C47.7576415,28 48.3858148,27.4456811 48.5010835,26.7204799 C48.4696457,27.3181071 48.3994244,27.9054369 48.2928889,28.48 L45.7071111,28.48 Z M46.5101813,26.5201516 L47,26.5000758 L47.4898187,26.5201516 L47.4898187,28.48 L46.5101813,28.48 L46.5101813,26.5201516 Z" id="Combined-Shape" stroke="#00DDBD" stroke-width="4" fill="#00DDBD"></path>
                            <path d="M105.56,34.4285449 L105.56,35.5714551 L103.606844,35.5714551 L103.583422,35 L103.606844,34.4285449 L105.56,34.4285449 Z M105.56,33.7713976 L105.56,36.2286024 C104.984903,36.3245854 104.399038,36.3887954 103.804268,36.4193674 C104.483218,36.3033551 105,35.712028 105,35 C105,34.287972 104.483218,33.6966449 103.804268,33.5806326 C104.399038,33.6112046 104.984903,33.6754146 105.56,33.7713976 Z M109.519501,35 C112.807973,36.5338637 115.466136,39.1920267 117,42.4804991 C118.533864,39.1920267 121.192027,36.5338637 124.480499,35 C121.192027,33.4661363 118.533864,30.8079733 117,27.5195009 C115.466136,30.8079733 112.807973,33.4661363 109.519501,35 Z M118.228602,46.44 C118.324585,47.0150965 118.388795,47.6009623 118.419367,48.1957323 C118.303355,47.5167821 117.712028,47 117,47 C116.287972,47 115.696645,47.5167821 115.580633,48.1957323 C115.611205,47.6009623 115.675415,47.0150965 115.771398,46.44 L117.571455,46.44 L117.571455,48.3931564 L117,48.4165782 L116.428545,48.3931564 L116.428545,46.44 L118.228602,46.44 Z M128.44,33.7713976 C129.015097,33.6754146 129.600962,33.6112046 130.195732,33.5806326 C129.516782,33.6966449 129,34.287972 129,35 C129,35.712028 129.516782,36.3033551 130.195732,36.4193674 C129.600962,36.3887954 129.015097,36.3245854 128.44,36.2286024 L128.44,34.4285449 L130.393156,34.4285449 L130.416578,35 L130.393156,35.5714551 L128.44,35.5714551 L128.44,33.7713976 Z M115.771398,23.56 C115.675415,22.9849035 115.611205,22.3990377 115.580633,21.8042677 C115.696645,22.4832179 116.287972,23 117,23 C117.712028,23 118.303355,22.4832179 118.419367,21.8042677 C118.388795,22.3990377 118.324585,22.9849035 118.228602,23.56 L116.428545,23.56 L116.428545,21.6068436 L117,21.5834218 L117.571455,21.6068436 L117.571455,23.56 L115.771398,23.56 Z" id="Combined-Shape-Copy-13" stroke="#00DDBD" stroke-width="4" fill="#00DDBD"></path>
                            <path d="M12.32,71.0611809 L12.32,73.256613 C11.6277095,73.3505023 10.9262185,73.4154621 10.2167841,73.4502353 C10.8919365,73.3128044 11.4,72.7157345 11.4,72 C11.4,71.2842655 10.8919365,70.6871956 10.2167841,70.5497647 C10.9262185,70.5845379 11.6277095,70.6494977 12.32,70.743387 L12.32,72.9388191 L9.99695729,72.9388191 L9.95847865,72 L9.99695729,71.0611809 L12.32,71.0611809 Z M17.401648,72 C24.1631636,74.4704489 29.5295511,79.8368364 32,86.598352 C34.4704489,79.8368364 39.8368364,74.4704489 46.598352,72 C39.8368364,69.5295511 34.4704489,64.1631636 32,57.401648 C29.5295511,64.1631636 24.1631636,69.5295511 17.401648,72 Z M33.256613,91.68 C33.3505023,92.3722905 33.4154621,93.0737815 33.4502353,93.7832159 C33.3128044,93.1080635 32.7157345,92.6 32,92.6 C31.2842655,92.6 30.6871956,93.1080635 30.5497647,93.7832159 C30.5845379,93.0737815 30.6494977,92.3722905 30.743387,91.68 L33.256613,91.68 Z M32.9388191,94.0030427 L32,94.0415214 L31.0611809,94.0030427 L31.0611809,91.68 L32.9388191,91.68 L32.9388191,94.0030427 Z M51.68,70.743387 C52.3722905,70.6494977 53.0737815,70.5845379 53.7832159,70.5497647 C53.1080635,70.6871956 52.6,71.2842655 52.6,72 C52.6,72.7157345 53.1080635,73.3128044 53.7832159,73.4502353 C53.0737815,73.4154621 52.3722905,73.3505023 51.68,73.256613 L51.68,71.0611809 L54.0030427,71.0611809 L54.0415214,72 L54.0030427,72.9388191 L51.68,72.9388191 L51.68,70.743387 Z M30.743387,52.32 C30.6494977,51.6277095 30.5845379,50.9262185 30.5497647,50.2167841 C30.6871956,50.8919365 31.2842655,51.4 32,51.4 C32.7157345,51.4 33.3128044,50.8919365 33.4502353,50.2167841 C33.4154621,50.9262185 33.3505023,51.6277095 33.256613,52.32 L31.0611809,52.32 L31.0611809,49.9969573 L32,49.9584786 L32.9388191,49.9969573 L32.9388191,52.32 L30.743387,52.32 Z" id="Combined-Shape-Copy" stroke="#00DDBD" stroke-width="4.8" fill="#00DDBD"></path>
                            <path d="M103.02,8.27549977 L103.02,8.72450023 L102.238403,8.72450023 L102.229201,8.5 L102.238403,8.27549977 L103.02,8.27549977 Z M103.02,8.00524674 L103.02,8.99475326 C102.789988,9.0336135 102.555581,9.05956322 102.317552,9.07183142 C102.591429,9.0254462 102.8,8.78708032 102.8,8.5 C102.8,8.21291968 102.591429,7.9745538 102.317552,7.92816858 C102.555581,7.94043678 102.789988,7.9663865 103.02,8.00524674 Z M104.594852,8.5 C105.867889,9.1016152 106.898385,10.1321109 107.5,11.4051477 C108.101615,10.1321109 109.132111,9.1016152 110.405148,8.5 C109.132111,7.8983848 108.101615,6.86788905 107.5,5.59485227 C106.898385,6.86788905 105.867889,7.8983848 104.594852,8.5 Z M107.994753,12.98 C108.033613,13.2100124 108.059563,13.4444187 108.071831,13.6824478 C108.025446,13.4085713 107.78708,13.2 107.5,13.2 C107.21292,13.2 106.974554,13.4085713 106.928169,13.6824478 C106.940437,13.4444187 106.966387,13.2100124 107.005247,12.98 L107.27775,12.98 L107.5,12.98 L107.7245,12.98 L107.7245,13.7615972 L107.5,13.7707986 L107.2755,13.7615972 L107.2755,12.98 L107.5,12.98 L107.994753,12.98 Z M111.98,8.00524674 C112.210012,7.9663865 112.444419,7.94043678 112.682448,7.92816858 C112.408571,7.9745538 112.2,8.21291968 112.2,8.5 C112.2,8.78708032 112.408571,9.0254462 112.682448,9.07183142 C112.444419,9.05956322 112.210012,9.0336135 111.98,8.99475326 L111.98,8.27549977 L112.761597,8.27549977 L112.770799,8.5 L112.761597,8.72450023 L111.98,8.72450023 L111.98,8.00524674 Z M107.005247,4.02 C106.966387,3.78998759 106.940437,3.55558132 106.928169,3.31755216 C106.974554,3.59142865 107.21292,3.8 107.5,3.8 C107.78708,3.8 108.025446,3.59142865 108.071831,3.31755216 C108.059563,3.55558132 108.033613,3.78998759 107.994753,4.02 L107.2755,4.02 L107.2755,3.23840283 L107.5,3.22920142 L107.7245,3.23840283 L107.7245,4.02 L107.005247,4.02 Z" id="Combined-Shape-Copy-14" stroke="#00DDBD" stroke-width="1.6" fill="#00DDBD"></path>
                        </g>
                    </g>
                </g>
            </g>
        </g>
    </g>
</svg>