<?xml version="1.0" encoding="UTF-8"?>
<svg width="80px" height="80px" viewBox="0 0 80 80" version="1.1" xmlns="http://www.w3.org/2000/svg" xmlns:xlink="http://www.w3.org/1999/xlink">
    <!-- Generator: Sketch 49.3 (51167) - http://www.bohemiancoding.com/sketch -->
    <title>facebook</title>
    <desc>Created with Sketch.</desc>
    <defs></defs>
    <g id="Page-1" stroke="none" stroke-width="1" fill="none" fill-rule="evenodd">
        <g id="facebook-footer-icon" transform="translate(-40.000000, -39.000000)" fill="#475993" fill-rule="nonzero">
            <g id="facebook" transform="translate(40.000000, 39.000000)">
                <path d="M69.2195653,0 L10.780239,0 C4.82659589,0 0,4.82636477 0,10.7801599 L0,69.2194487 C0,75.1732438 4.82640019,79.9996086 10.780239,79.9996086 L39.6022359,79.9996086 L39.6513571,51.4120767 L32.2242744,51.4120767 C31.2590726,51.4120767 30.4756779,50.6316232 30.4719596,49.6664286 L30.4363418,40.451481 C30.4326235,39.4810024 31.2183666,38.6923295 32.1888523,38.6923295 L39.6024316,38.6923295 L39.6024316,29.78835 C39.6024316,19.4553656 45.9132307,13.8289774 55.1309857,13.8289774 L62.694864,13.8289774 C63.6626099,13.8289774 64.4473745,14.6135405 64.4473745,15.581475 L64.4473745,23.3515661 C64.4473745,24.3191092 63.663197,25.1034766 62.6958426,25.1040637 L58.0539893,25.1062164 C53.0410852,25.1062164 52.0704038,27.4882824 52.0704038,30.9840798 L52.0704038,38.6925252 L63.085485,38.6925252 C64.1350343,38.6925252 64.9493499,39.6089905 64.8256663,40.6512911 L63.733454,49.8662387 C63.6289492,50.748065 62.8811723,51.4124681 61.9932727,51.4124681 L52.1195249,51.4124681 L52.0704038,80 L69.2199567,80 C75.1735998,80 80,75.1736352 80,69.2200358 L80,10.7801599 C79.9998043,4.82636477 75.1734041,0 69.2195653,0 Z" id="Shape"></path>
            </g>
        </g>
    </g>
</svg>