<?xml version="1.0" encoding="UTF-8"?>
<svg width="96px" height="80px" viewBox="0 0 96 80" version="1.1" xmlns="http://www.w3.org/2000/svg" xmlns:xlink="http://www.w3.org/1999/xlink">
    <!-- Generator: Sketch 49.3 (51167) - http://www.bohemiancoding.com/sketch -->
    <title>twitter</title>
    <desc>Created with Sketch.</desc>
    <defs></defs>
    <g id="Page-1" stroke="none" stroke-width="1" fill="none" fill-rule="evenodd">
        <g id="Artboard-3-Copy-4" transform="translate(-32.000000, -44.000000)" fill="#76A9EA" fill-rule="nonzero">
            <g id="twitter" transform="translate(32.000000, 44.000000)">
                <path d="M94.2790073,9.39883041 C92.1504234,10.3440936 89.9407883,11.0898246 87.6734599,11.6297076 C90.1717956,9.25216374 92.050219,6.27836257 93.1099562,2.95906433 C93.412438,2.01146199 92.3847007,1.19204678 91.5302774,1.6994152 C88.3760584,3.57309942 84.9784526,4.97871345 81.4315912,5.87766082 C81.2258102,5.92982456 81.0134891,5.95625731 80.8004672,5.95625731 C80.1543942,5.95625731 79.5263066,5.71602339 79.032292,5.28 C75.2586277,1.94923977 70.4051387,0.114853801 65.3661898,0.114853801 C63.1857518,0.114853801 60.984292,0.455204678 58.8227737,1.12654971 C52.1256642,3.20678363 46.9582482,8.73918129 45.3369927,15.5649123 C44.7287591,18.1251462 44.5640876,20.6877193 44.8471825,23.1812865 C44.8796496,23.4678363 44.7444088,23.6678363 44.6610219,23.7616374 C44.5145693,23.9260819 44.3069197,24.0203509 44.0913285,24.0203509 C44.0672701,24.0203509 44.0425109,24.0191813 44.0179854,24.0168421 C29.3582482,22.6528655 16.1387445,15.579883 6.79451095,4.10105263 C6.3180146,3.51555556 5.40426277,3.58736842 5.02446715,4.23976608 C3.19462774,7.38362573 2.22762044,10.9794152 2.22762044,14.6383626 C2.22762044,20.245848 4.47719708,25.5302924 8.38470073,29.3826901 C6.74148905,28.9925146 5.15106569,28.3780117 3.67369343,27.5562573 C2.95894891,27.1585965 2.07953285,27.6697076 2.06948905,28.4884211 C1.96718248,36.8187135 6.83725547,44.2311111 14.1327883,47.5688889 C13.9858686,47.5723977 13.8389489,47.5740351 13.6917956,47.5740351 C12.5353577,47.5740351 11.364438,47.4622222 10.2119708,47.2416374 C9.40706569,47.0877193 8.73086131,47.8523977 8.98078832,48.6339181 C11.3487883,56.0376608 17.714219,61.4949708 25.3316204,62.7340351 C19.009635,66.9840936 11.6475328,69.2259649 3.98505109,69.2259649 L1.59626277,69.2245614 C0.860262774,69.2245614 0.237781022,69.7050292 0.0502189781,70.4189474 C-0.134540146,71.1221053 0.205781022,71.8638596 0.83340146,72.2294737 C9.46779562,77.2617544 19.3165547,79.9214035 29.3192409,79.9214035 C38.0748613,79.9214035 46.2649927,78.1812865 53.662365,74.7497076 C60.4437956,71.6037427 66.436438,67.1066667 71.4737518,61.3833918 C76.1663066,56.0519298 79.8357956,49.8973099 82.3799124,43.0907602 C84.8051387,36.6025731 86.0870073,29.6795322 86.0870073,23.0699415 L86.0870073,22.7550877 C86.0867737,21.6938012 86.566073,20.6952047 87.4022774,20.0154386 C90.5754161,17.4353216 93.3386277,14.3981287 95.6148321,10.9883041 C96.2158248,10.0879532 95.2679708,8.95953216 94.2790073,9.39883041 Z" id="Shape"></path>
            </g>
        </g>
    </g>
</svg>