<?xml version="1.0" encoding="UTF-8"?>
<svg width="80px" height="80px" viewBox="0 0 80 80" version="1.1" xmlns="http://www.w3.org/2000/svg" xmlns:xlink="http://www.w3.org/1999/xlink">
    <!-- Generator: Sketch 49.3 (51167) - http://www.bohemiancoding.com/sketch -->
    <title>slack</title>
    <desc>Created with Sketch.</desc>
    <defs></defs>
    <g id="Page-1" stroke="none" stroke-width="1" fill="none" fill-rule="evenodd">
        <g id="facebook-footer-icon-copy-2" transform="translate(-40.000000, -39.000000)" fill-rule="nonzero">
            <g id="slack" transform="translate(40.000000, 39.000000)">
                <path d="M51.7791813,4.92640625 C50.5665497,1.18640625 46.554386,-0.86359375 42.8166862,0.35140625 C39.0789864,1.56640625 37.0379727,5.58640625 38.2506043,9.33140625 L56.6396881,66.0264063 C57.9022222,69.5214062 61.6698635,71.4864063 65.2927875,70.4464063 C69.0654191,69.3564063 71.3709162,65.3414063 70.1632749,61.6264063 C70.1183626,61.4814063 51.7791813,4.92640625 51.7791813,4.92640625 Z" id="Shape" fill="#FFC107"></path>
                <path d="M23.2848343,14.2064063 C22.0672125,10.4614062 18.0550487,8.41140625 14.3223392,9.63140625 C10.5896296,10.8514063 8.53863548,14.8664063 9.75625731,18.6114063 L28.1453411,75.3014062 C29.4078752,78.7964062 33.1755166,80.7614062 36.7984405,79.7214063 C40.5710721,78.6314062 42.8765692,74.6164062 41.6689279,70.9014063 C41.6240156,70.7614063 23.2848343,14.2064063 23.2848343,14.2064063 Z" id="Shape" fill="#4CAF50"></path>
                <path d="M74.9289669,51.8814063 C78.6666667,50.6664063 80.7076803,46.6464063 79.4950487,42.9014063 C78.2824172,39.1564063 74.2702534,37.1114063 70.5325536,38.3264063 L13.9480702,56.7564063 C10.459883,58.0214063 8.49871345,61.7964063 9.53668616,65.4264063 C10.6245614,69.2064063 14.6317349,71.5164063 18.3394932,70.3064063 C18.4842105,70.2564063 74.9289669,51.8814063 74.9289669,51.8814063 Z" id="Shape" fill="#EC407A"></path>
                <path d="M25.740039,67.8964062 C29.422846,66.6964062 34.168577,65.1514062 39.2636257,63.4914062 C38.0659649,59.8014062 36.5239766,55.0464062 34.8672125,49.9414062 L21.3436257,54.3464063 L25.740039,67.8964062 Z" id="Shape" fill="#472A49"></path>
                <path d="M54.2393762,58.6164063 C59.354386,56.9514063 64.1051072,55.4064063 67.762963,54.2114063 C66.5653021,50.5214063 65.0233138,45.7614063 63.3665497,40.6564063 L49.842963,45.0614063 L54.2393762,58.6164063 Z" id="Shape" fill="#CC2027"></path>
                <path d="M65.6670565,23.3314063 C69.4047563,22.1164062 71.44577,18.0964063 70.2331384,14.3514062 C69.0205068,10.6064062 65.0083431,8.56140625 61.2706433,9.77640625 L4.6911501,28.2014062 C1.19797271,29.4664062 -0.763196881,33.2414063 0.279766082,36.8714062 C1.36764133,40.6514062 5.37481481,42.9564063 9.0825731,41.7514063 C9.22230019,41.7064063 65.6670565,23.3314063 65.6670565,23.3314063 Z" id="Shape" fill="#2196F3"></path>
                <path d="M16.4781287,39.3414062 C20.1609357,38.1414062 24.9116569,36.5964063 30.0067057,34.9364062 C28.3449513,29.8164062 26.802963,25.0564062 25.6102924,21.3864063 L12.0867057,25.7914063 L16.4781287,39.3414062 Z" id="Shape" fill="#1A937D"></path>
                <path d="M44.9774659,30.0664062 C50.0924756,28.4014063 54.8431969,26.8564062 58.5060429,25.6614062 C56.8442885,20.5364062 55.2973099,15.7764062 54.1096296,12.1064062 L40.5810526,16.5114063 L44.9774659,30.0664062 Z" id="Shape" fill="#65863A"></path>
            </g>
        </g>
    </g>
</svg>