<?xml version="1.0" encoding="UTF-8"?>
<svg width="180px" height="208px" viewBox="0 0 180 208" version="1.1" xmlns="http://www.w3.org/2000/svg" xmlns:xlink="http://www.w3.org/1999/xlink">
    <!-- Generator: Sketch 52.4 (67378) - http://www.bohemiancoding.com/sketch -->
    <title>Optimize Performance@</title>
    <desc>Created with Sketch.</desc>
    <g id="Page-1-Copy" stroke="none" stroke-width="1" fill="none" fill-rule="evenodd">
        <g id="Artboard-Copy-15" transform="translate(-165.000000, -2538.000000)">
            <rect fill="#FFFFFF" x="0" y="0" width="1650" height="5361"></rect>
            <g id="Group-41" transform="translate(165.000000, 1758.000000)">
                <g id="Group-37" transform="translate(0.000000, 260.000000)">
                    <g id="Group-36"></g>
                    <g id="Group-34" transform="translate(10.000000, 538.000000)">
                        <g id="Group-31" transform="translate(0.000000, 6.000000)">
                            <g id="Group-20">
                                <g id="Group-30">
                                    <path d="M67.5797085,139.340511 C89.4336269,139.317243 107.180022,110.804382 107.217391,75.6552534 C107.25476,40.5061245 89.5689519,12.0309877 67.7150335,12.0542552 C52.7188832,12.0702213 34.2459268,8.61589346 27.5127865,28.4005996 C24.4337087,37.4481834 28.0890777,64.7097021 28.0773513,75.7395124 C28.0541233,97.5876951 26.8136253,124.62842 37.2303487,136.077994 C43.5719414,143.048376 59.3098651,139.349315 67.5797085,139.340511 Z" id="Oval" fill="#00DDBD" transform="translate(66.748196, 76.080634) scale(-1, 1) rotate(-28.000000) translate(-66.748196, -76.080634) "></path>
                                    <ellipse id="Oval-Copy-6" fill="#E1E8F5" transform="translate(82.911974, 85.172345) scale(-1, 1) rotate(-28.000000) translate(-82.911974, -85.172345) " cx="82.9119744" cy="85.1723449" rx="39.5700788" ry="63.6431419"></ellipse>
                                    <path d="M70.9830219,117.856099 L66.5946893,120.389704 C65.7667604,120.867989 64.71045,120.589025 64.2321649,119.761096 C64.0800736,119.49782 64,119.199133 64,118.895084 L64,118.2054 C64,116.776108 64.7671425,115.463225 66.0050606,114.748778 L68.3930219,113.370088 L103.275009,93.230963 C104.098719,92.7555706 105.151608,93.0375213 105.627001,93.8612309 C105.77864,94.1239748 105.858178,94.4221146 105.857567,94.7254763 L105.856185,95.4111611 C105.85331,96.8369776 105.095829,98.1606432 103.861214,98.8738662 L70.9830219,117.856099 Z" id="Path" fill="#00DDBD"></path>
                                    <path d="M78.5173776,119.030342 L96.0788565,108.891217 C96.9025661,108.415825 97.955456,108.697775 98.4308484,109.521485 C98.5824874,109.784229 98.662026,110.082369 98.6614145,110.38573 L98.6600322,111.071415 C98.6571579,112.497232 97.8996764,113.820897 96.6650614,114.53412 L81.1073776,123.516353 L76.7190449,126.049958 C75.891116,126.528243 74.8348056,126.249279 74.3565206,125.42135 C74.2044292,125.158074 74.1243557,124.859387 74.1243557,124.555338 L74.1243557,123.865654 C74.1243557,122.436362 74.8914981,121.123479 76.1294163,120.409032 L78.5173776,119.030342 Z" id="Path" fill="#00DDBD"></path>
                                    <ellipse id="Oval-Copy-9" fill="#FC835C" transform="translate(85.725479, 86.803397) scale(-1, 1) rotate(-28.000000) translate(-85.725479, -86.803397) " cx="85.7254785" cy="86.8033967" rx="7.19456061" ry="12.0081398"></ellipse>
                                    <path d="M45.5327306,110.955505 C44.4489294,98.9185859 47.660099,84.0076897 55.3075682,69.5879291 C69.6010021,42.6368048 93.9791927,27.6072143 109.757781,36.0183993 C118.838295,40.8590026 123.091755,52.4081823 122.342281,66.4781658 L108.130638,74.7075597 C110.34089,63.2874528 108.505239,53.9408866 102.472912,50.7251987 C93.1226376,45.7407928 77.230245,57.3738443 66.9762599,76.7083465 C62.0324481,86.0301993 59.3019273,95.4403542 58.8476268,103.245381 L45.5327306,110.955505 Z" id="Combined-Shape" fill="#CDDBF3"></path>
                                    <path d="M56.3016163,67.7616405 C65.7687099,50.8095492 79.2178766,38.8809858 91.7027617,35.0254662 L89.9252793,51.6140682 C82.3127867,55.3563629 73.9614178,64.0023799 67.5996434,75.5549095 L56.3016132,67.761646 Z" id="Combined-Shape" fill="#76A8FF"></path>
                                    <path d="M91.4029186,35.1195545 C98.026073,33.0083559 104.389622,33.1567629 109.757781,36.0183993 C118.838295,40.8590026 123.091755,52.4081823 122.342281,66.4781658 L108.130638,74.7075597 C110.34089,63.2874528 108.505239,53.9408866 102.472912,50.7251987 C98.9109971,48.8264277 94.3997095,49.3391327 89.6124033,51.7704261 L91.4029186,35.1195545 Z" id="Combined-Shape" fill="#5392FF"></path>
                                </g>
                                <polygon id="Path-66" fill="#FC835C" points="90.0588478 80.7887701 108.095398 63.1228615 108.095398 68.8267485 89.0520243 87.5525084"></polygon>
                                <polygon id="Path-124" fill="#FC835C" points="103.790391 61.854251 108.750031 73.3585496 119.008331 54.4786015"></polygon>
                            </g>
                        </g>
                    </g>
                </g>
            </g>
            <path d="M305.48,2605.52 L305.48,2605.51018 C311.460531,2605.26506 316.265062,2600.46053 316.510181,2594.48 L316.52,2594.48 C316.52,2594.2149 316.734903,2594 317,2594 C317.265097,2594 317.48,2594.2149 317.48,2594.48 L317.489819,2594.48 C317.734938,2600.46053 322.539469,2605.26506 328.52,2605.51018 L328.52,2605.52 C328.785097,2605.52 329,2605.7349 329,2606 C329,2606.2651 328.785097,2606.48 328.52,2606.48 L328.52,2606.48982 C322.539469,2606.73494 317.734938,2611.53947 317.489819,2617.52 L317.48,2617.52 C317.48,2617.7851 317.265097,2618 317,2618 C316.734903,2618 316.52,2617.7851 316.52,2617.52 L316.510181,2617.52 C316.265062,2611.53947 311.460531,2606.73494 305.48,2606.48982 L305.48,2606.48 C305.214903,2606.48 305,2606.2651 305,2606 C305,2605.7349 305.214903,2605.52 305.48,2605.52 Z" id="Path" fill="#5392FF"></path>
            <path d="M295.3,2592.2 L295.3,2592.19386 C299.037832,2592.04066 302.040664,2589.03783 302.193863,2585.3 L302.2,2585.3 C302.2,2585.13431 302.334315,2585 302.5,2585 C302.665685,2585 302.8,2585.13431 302.8,2585.3 L302.806137,2585.3 C302.959336,2589.03783 305.962168,2592.04066 309.7,2592.19386 L309.7,2592.2 C309.865685,2592.2 310,2592.33431 310,2592.5 C310,2592.66569 309.865685,2592.8 309.7,2592.8 L309.7,2592.80614 C305.962168,2592.95934 302.959336,2595.96217 302.806137,2599.7 L302.8,2599.7 C302.8,2599.86569 302.665685,2600 302.5,2600 C302.334315,2600 302.2,2599.86569 302.2,2599.7 L302.193863,2599.7 C302.040664,2595.96217 299.037832,2592.95934 295.3,2592.80614 L295.3,2592.8 C295.134315,2592.8 295,2592.66569 295,2592.5 C295,2592.33431 295.134315,2592.2 295.3,2592.2 Z" id="Path-Copy-2" fill="#5392FF"></path>
            <path d="M312.24,2582.76 L312.24,2582.75509 C315.230266,2582.63253 317.632531,2580.23027 317.755091,2577.24 L317.76,2577.24 C317.76,2577.10745 317.867452,2577 318,2577 C318.132548,2577 318.24,2577.10745 318.24,2577.24 L318.244909,2577.24 C318.367469,2580.23027 320.769734,2582.63253 323.76,2582.75509 L323.76,2582.76 C323.892548,2582.76 324,2582.86745 324,2583 C324,2583.13255 323.892548,2583.24 323.76,2583.24 L323.76,2583.24491 C320.769734,2583.36747 318.367469,2585.76973 318.244909,2588.76 L318.24,2588.76 C318.24,2588.89255 318.132548,2589 318,2589 C317.867452,2589 317.76,2588.89255 317.76,2588.76 L317.755091,2588.76 C317.632531,2585.76973 315.230266,2583.36747 312.24,2583.24491 L312.24,2583.24 C312.107452,2583.24 312,2583.13255 312,2583 C312,2582.86745 312.107452,2582.76 312.24,2582.76 Z" id="Path-Copy-3" fill="#5392FF"></path>
        </g>
    </g>
</svg>