<svg width="586" height="382" viewBox="0 0 586 382" xmlns="http://www.w3.org/2000/svg" xmlns:xlink="http://www.w3.org/1999/xlink"><title>Get Alerts Graphic</title><defs><path id="b" d="M0 0h570v366H0z"/><filter x="-2.5%" y="-2.7%" width="104.9%" height="107.7%" filterUnits="objectBoundingBox" id="a"><feOffset dy="4" in="SourceAlpha" result="shadowOffsetOuter1"/><feGaussianBlur stdDeviation="4" in="shadowOffsetOuter1" result="shadowBlurOuter1"/><feColorMatrix values="0 0 0 0 0 0 0 0 0 0 0 0 0 0 0 0 0 0 0.15 0" in="shadowBlurOuter1"/></filter><circle id="c" cx="35" cy="35" r="35"/></defs><g fill="none" fill-rule="evenodd"><g transform="translate(8 4)"><use fill="#000" filter="url(#a)" xlink:href="#b"/><use fill="#FFF" xlink:href="#b"/></g><path fill="#5392FF" d="M8 4h570v142H8z"/><path fill="#5392FF" d="M8 75h570v71H8z"/><path fill="#FC835C" d="M242 94h48v29h-48zM370 107h48v16h-48z"/><path fill="#00DDBD" d="M306 53h48v70h-48zM434 75h48v48h-48z"/><path d="M174.499 122.5H529.5" stroke="#FFF" stroke-width="2" stroke-linecap="square"/><g transform="translate(56 52)"><mask id="d" fill="#fff"><use xlink:href="#c"/></mask><use fill="#00DDBD" xlink:href="#c"/><path stroke="#FFF" stroke-width="2" fill="#FC835C" mask="url(#d)" d="M-9 37h46v38H-9z"/></g><text font-family="IBMPlexSans-SemiBold, IBM Plex Sans" font-size="12" font-weight="500" letter-spacing=".3" fill="#A3A4A3" transform="translate(8 4)"><tspan x="48" y="178">TEST NAME</tspan></text><text font-family="IBMPlexSans-SemiBold, IBM Plex Sans" font-size="12" font-weight="500" letter-spacing=".3" fill="#A3A4A3" transform="translate(8 4)"><tspan x="234" y="178">FAILURE TREND</tspan></text><text font-family="IBMPlexSans-SemiBold, IBM Plex Sans" font-size="12" font-weight="500" letter-spacing=".3" fill="#A3A4A3" transform="translate(8 4)"><tspan x="361" y="178">SUCCESSES</tspan></text><text font-family="IBMPlexSans-SemiBold, IBM Plex Sans" font-size="12" font-weight="500" letter-spacing=".3" fill="#A3A4A3" transform="translate(8 4)"><tspan x="463" y="178">FAILURES</tspan></text><g transform="translate(56 202)"><text font-family="IBMPlexMono-SemiBold, IBM Plex Mono" font-size="16" font-weight="500" fill="#323232"><tspan x="207" y="16">-0.34%</tspan></text><text font-family="IBMPlexMono-SemiBold, IBM Plex Mono" font-size="16" font-weight="500" fill="#323232"><tspan x="313" y="16">118</tspan></text><text font-family="IBMPlexMono-SemiBold, IBM Plex Mono" font-size="16" font-weight="500" fill="#323232"><tspan x="415" y="16">0</tspan></text><circle fill="#00DDBD" cx="193" cy="12" r="6"/><path fill="#D8D8D8" d="M0 8h122v8H0z"/></g><g transform="translate(56 250)"><text font-family="IBMPlexMono-SemiBold, IBM Plex Mono" font-size="16" font-weight="500" fill="#323232"><tspan x="207" y="16">+4.15%</tspan></text><text font-family="IBMPlexMono-SemiBold, IBM Plex Mono" font-size="16" font-weight="500" fill="#323232"><tspan x="313" y="16">115</tspan></text><text font-family="IBMPlexMono-SemiBold, IBM Plex Mono" font-size="16" font-weight="500" fill="#323232"><tspan x="415" y="16">6</tspan></text><circle fill="#FC835C" cx="193" cy="12" r="6"/><path fill="#D8D8D8" d="M0 8h152v8H0z"/></g><g transform="translate(56 298)"><text font-family="IBMPlexMono-SemiBold, IBM Plex Mono" font-size="16" font-weight="500" fill="#323232"><tspan x="207" y="16">-1.82%</tspan></text><text font-family="IBMPlexMono-SemiBold, IBM Plex Mono" font-size="16" font-weight="500" fill="#323232"><tspan x="313" y="16">111</tspan></text><text font-family="IBMPlexMono-SemiBold, IBM Plex Mono" font-size="16" font-weight="500" fill="#323232"><tspan x="415" y="16">0</tspan></text><circle fill="#00DDBD" cx="193" cy="12" r="6"/><path fill="#D8D8D8" d="M0 8h80v8H0z"/></g></g></svg>