<?xml version="1.0" encoding="UTF-8"?>
<svg width="882px" height="820px" viewBox="0 0 882 820" version="1.1" xmlns="http://www.w3.org/2000/svg" xmlns:xlink="http://www.w3.org/1999/xlink">
    <!-- Generator: Sketch 52.3 (67297) - http://www.bohemiancoding.com/sketch -->
    <title>Group</title>
    <desc>Created with Sketch.</desc>
    <defs>
        <linearGradient x1="50%" y1="5.72975552%" x2="50%" y2="94.6376196%" id="linearGradient-1">
            <stop stop-color="#FC835C" offset="0%"></stop>
            <stop stop-color="#FFF3EF" offset="100%"></stop>
        </linearGradient>
        <linearGradient x1="124.608295%" y1="-108.026871%" x2="50%" y2="94.6376196%" id="linearGradient-2">
            <stop stop-color="#FC835C" offset="0%"></stop>
            <stop stop-color="#FFF3EF" offset="100%"></stop>
        </linearGradient>
        <polygon id="path-3" points="365.638733 336.0159 365.661041 1.14535522 1.64648438 211.302765 1.66149902 546.156586"></polygon>
        <linearGradient x1="50%" y1="0%" x2="50%" y2="86.5186362%" id="linearGradient-5">
            <stop stop-color="#FFFFFF" offset="0%"></stop>
            <stop stop-color="#FFFFFF" stop-opacity="0" offset="100%"></stop>
        </linearGradient>
    </defs>
    <g id="Page-1-Copy" stroke="none" stroke-width="1" fill="none" fill-rule="evenodd">
        <g id="Artboard-Copy-16" transform="translate(-41.000000, 0.000000)">
            <g id="Group" transform="translate(43.000000, -151.000000)">
                <g id="Group-2">
                    <rect id="Rectangle-Copy-5" fill="#76A8FF" x="631" y="503" width="10" height="66" rx="5"></rect>
                    <polyline id="Path-75" stroke="url(#linearGradient-1)" stroke-width="4" opacity="0.583984375" stroke-linecap="round" stroke-linejoin="round" points="810.686555 741.964934 877.635115 702.565396 638.31693 564.748119"></polyline>
                    <g id="Group-28" transform="translate(677.000000, 702.000000) scale(-1, 1) translate(-677.000000, -702.000000) translate(494.000000, 568.000000)">
                        <g id="Group-22-Copy" transform="translate(66.911283, 71.281526) scale(-1, 1) rotate(14.000000) translate(-66.911283, -71.281526) translate(12.911283, 11.281526)">
                            <path d="M31.6126883,26.8709793 C25.6801964,26.2084678 21.3997979,40.2315771 22.0104143,41.8641542 C22.6210306,43.4967314 29.5557298,46.253692 32.0352525,44.4044496 C33.9217577,42.9974832 33.7389393,35.636703 32.0731366,31.1050567 C31.5494962,29.6805464 33.0315387,27.0294296 31.6126883,26.8709793 Z" id="Path-45" fill="#2C5DB2"></path>
                            <path d="M92.0415868,107.972028 L93.5374402,109.800118 C95.0145002,114.531436 96.5540306,117.506155 98.1560315,118.724276 C100.559033,120.551457 103.909227,119.903413 105.578285,118.95567 C107.247344,118.007926 109.993328,114.643469 104.476525,110.267933 C103.036582,109.125873 100.403069,107.029308 99.0987542,105.971192 C97.4901915,104.666256 95.6364202,103.492985 93.5374402,102.451378 L92.0415868,107.972028 Z" id="Path-48" fill="#356ED0"></path>
                            <path d="M57.4134053,77.7378797 C60.963244,85.8850148 63.7572375,90.7838476 65.7953857,92.434378 C67.8335339,94.0849085 76.4524036,99.2641251 91.6519948,107.972028 L96.4626314,102.799893 C84.8255486,93.7267386 78.5772389,88.7120524 77.7177025,87.7558347 C76.8581661,86.799617 74.4257581,79.8013287 70.4204784,66.7609698 L45.2170237,65.5875272 C39.1936005,77.7130949 35.7944641,84.9123957 35.0196143,87.1854296 C34.2447646,89.4584634 35.1478113,98.8830511 37.7287544,115.459193 L45.2170237,115.072171 C45.9558649,101.929058 46.6465281,94.5273787 47.2890132,92.8671329 C47.9314983,91.2068871 51.3062957,86.1638027 57.4134053,77.7378797 Z" id="Path-47" fill="#00DDBD"></path>
                            <path d="M42.045746,23.721796 L38.3697596,18.0545128 C40.8053233,14.1511456 40.9701191,12.0521604 38.8641471,11.7575574 C36.7581751,11.4629543 35.6909612,12.8116373 35.6625055,15.8036062 L32.6520122,12.6544229 L32.1327569,15.8036062 L23.7697394,9.50523963 C25.5718664,18.0665121 26.9097809,22.9929253 27.783483,24.2844793 C28.6571851,25.5760333 30.5249787,25.3884722 33.3868638,23.721796 C33.5671239,22.958459 33.5796454,23.3789012 33.4244285,24.9831226 C33.2692116,26.587344 32.9634535,29.1976036 32.5071543,32.8139016 L40.5321482,34.1388777 L42.045746,23.721796 Z" id="Path-51" fill="#B2C6E8"></path>
                            <path d="M33.5805986,24.921098 C32.5968278,29.6574401 33.4664768,32.0256111 36.1895455,32.0256111 C38.9126142,32.0256111 40.8113877,29.2576728 41.885866,23.721796 C45.3386508,23.6890726 48.2731859,23.9937443 50.6894715,24.6358113 C54.3139,25.5989118 59.2223102,35.343577 62.1086611,40.7721471 C66.8202468,49.6335692 69.0601496,58.1173116 70.4449018,60.8297812 C72.0134559,63.9022845 73.3597443,64.6489438 73.4448865,65.3401016 C73.8453269,68.5907532 69.0152319,72.5287988 65.5754576,72.8981147 C60.5902271,73.4333605 55.3241529,70.3386879 51.5556176,68.9735072 C48.2555968,67.7780495 46.1614397,68.3223947 45.642484,68.275836 C44.121982,68.1394224 43.5027712,66.3598314 43.7848518,62.9370629 C42.8723144,58.4396548 41.8469907,55.0386463 40.7088808,52.7340374 C38.3246222,47.906047 34.7172791,43.9889279 32.6973067,40.5272728 C29.4228551,34.9157992 28.2762915,30.9996762 28.024211,30.0605498 C27.5052805,28.1272732 29.3574097,26.4141226 33.5805986,24.921098 Z" id="Path-44" fill="#356ED0"></path>
                            <path d="M55.40239,39.4677125 C57.3788079,37.2427321 58.6789487,35.5582409 59.3028126,34.4142389 C59.9266764,33.2702368 60.3438941,31.8055448 60.5544655,30.0201626 C52.5714679,24.5186634 47.2608386,23.4689356 44.6225777,26.8709793 C41.9843168,30.273023 45.5775876,34.471934 55.40239,39.4677125 Z" id="Path-42" fill="#2C5DB2"></path>
                            <path d="M55.2181292,37.8478892 C59.6438992,38.2389716 62.0943434,39.0153877 62.5694618,40.1771375 C63.0445802,41.3388873 59.9314352,45.197218 53.2300266,51.7521296 C51.1140157,52.9664755 49.8254747,54.1079308 49.3644034,55.1764953 C47.752877,58.9113191 47.5160548,63.5598325 48.8050481,63.5205964 C50.0940415,63.4813602 50.1227799,61.4782722 52.7585264,58.7899386 C53.6238241,57.9073768 55.3932502,56.5868786 58.0668045,54.8284439 C62.2849655,51.098253 65.0699827,48.4217411 66.4218559,46.7989083 C70.8530459,41.4795632 72.0905255,37.6316551 71.5608689,36.3185292 C70.7888297,34.4044879 66.3804724,32.0501881 58.3357971,29.2556296 L55.2181292,37.8478892 Z" id="Path-49" fill="#B2C6E8"></path>
                            <path d="M23.3410476,41.1360705 C21.5876793,46.7261266 20.4926283,49.5920913 20.0558945,49.7339647 C19.400794,49.9467747 6.54426979,47.2781853 4.7298819,47.2013406 C3.52028997,47.1501108 2.18546845,47.7214181 0.725417345,48.9152623 C0.14610805,51.1592825 -0.0791871572,52.5669232 0.0495317243,53.1381845 C0.178250606,53.7094457 0.822711194,54.1620834 1.98291349,54.4960973 L7.52176089,52.1757886 C15.6692571,55.2748787 20.7427913,56.7057437 22.7423636,56.4683834 C24.7419359,56.2310232 27.6253681,51.806549 31.3926603,43.194961 L23.3410476,41.1360705 Z" id="Path-50" fill="#B2C6E8"></path>
                            <path d="M39.671132,19.9795819 C39.6283018,20.8776651 38.5851617,21.662194 38.3279979,18.2715254 C38.0708342,14.8808569 39.185388,12.523988 38.6230644,11.97678 C38.0607408,11.4295721 37.168921,15.4651859 35.7919069,15.8036062 C34.4148928,16.1420265 33.357454,12.671392 32.7076338,12.671392 C32.0578136,12.671392 34.7293029,16.490667 31.744173,15.4624949 C28.7590432,14.4343227 26.6435798,12.1678587 24.87621,10.8269441 C23.4825329,9.76955252 22.729297,9.87706125 22.4032216,8.97827787 C21.2938473,5.92043569 24.7327587,2.33869707 27.3012545,1.07460581 C31.2647476,-0.876036623 37.2429492,0.385838539 39.1247127,1.56568524 C43.7765403,4.48233429 39.7139623,19.0814988 39.671132,19.9795819 Z" id="Path-52" fill="#2C5DB2"></path>
                        </g>
                        <g id="Group-19" transform="translate(42.000000, 50.000000)">
                            <rect id="Rectangle-Copy-13" fill="#00DDBD" x="188" y="32" width="4" height="20" rx="2"></rect>
                            <g id="Group-16" transform="translate(2.000000, 62.000000)" fill="#76A8FF">
                                <rect id="Rectangle-Copy-8" x="0" y="1.4" width="10" height="66" rx="5"></rect>
                                <rect id="Rectangle-Copy-7" x="257" y="31.6" width="10" height="66" rx="5"></rect>
                                <rect id="Rectangle-Copy-6" x="154.6" y="90" width="10" height="66" rx="5"></rect>
                            </g>
                            <g id="Group-17">
                                <polygon id="Path-3" fill="#F5F9FF" points="109.65111 1.58828745 269.635498 93.970459 161.637177 156.32843 1.65835298 63.9494994"></polygon>
                                <polygon id="Path-7" fill="#E1E8F5" points="161.636475 156.26 161.643183 162.34 269.638917 99.96 269.638917 93.9661865"></polygon>
                                <polygon id="Path-8" fill="#F2F5FA" points="161.641479 162.336 161.641479 156.26 1.6628544 63.92 1.6628544 69.96"></polygon>
                                <polygon id="Path" fill="#76A8FF" points="216.948382 124.391873 214.945616 125.548265 54.4961752 33.4379103 56.4988377 32.2814581"></polygon>
                            </g>
                            <polygon id="Path" fill="#00DDBD" opacity="0.51609003" points="82 96.3695516 190 34 190 48 82 110.369552"></polygon>
                            <rect id="Rectangle" fill="#00DDBD" x="80" y="94" width="4" height="20" rx="2"></rect>
                        </g>
                        <g id="Group-21-Copy" transform="translate(316.000000, 198.000000) scale(-1, 1) translate(-316.000000, -198.000000) translate(266.000000, 128.000000)">
                            <path d="M77.36665,130.765744 C76.825356,134.175349 76.7767384,136.33891 77.2207973,137.256426 C77.8868856,138.6327 78.8963528,140.041147 81.7725737,139.869279 C84.6487946,139.697411 86.7033829,137.886231 88.9453136,137.214799 C90.4399341,136.767177 92.8454692,136.264416 96.161919,135.706514 C100.161721,132.514344 100.910115,130.166808 98.4071013,128.663907 C96.6443272,127.605472 93.7896263,127.613766 89.8438252,127.717237 C88.7391877,127.746204 86.8898915,127.730175 84.2959364,127.669149 L77.36665,130.765744 Z" id="Path-41" fill="#356ED0"></path>
                            <path d="M11.7500805,117.979239 C17.084972,119.987129 19.8625109,121.855707 20.0826972,123.584975 C20.1781047,124.334273 19.2600961,125.737026 17.7362587,126.072945 C12.7413347,127.174039 4.61125254,126.50609 1.6145918,124.999239 C-2.29628181,123.032681 2.45352515,115.841663 4.99662163,114.993532 C6.69201929,114.428111 8.94317224,115.423347 11.7500805,117.979239 Z" id="Path-40" fill="#356ED0"></path>
                            <path d="M67.0821191,21.3958691 C64.6269798,22.1553619 62.8849161,22.8504942 61.8559279,23.4812658 C60.8269398,24.1120374 59.5032984,25.2961881 57.8850037,27.0337179 L68.9516419,40.6585647 L72.3233601,35.7490452 L71.3392688,31.9738808 C71.264525,31.4280758 71.4161381,30.944347 71.7941079,30.5226943 C72.1720778,30.1010416 73.0008401,29.4910909 74.2803948,28.6928422 C77.6867184,29.5402263 80.2825346,28.5299042 82.0678433,25.661876 C83.1763601,23.8810874 83.3989465,21.3553968 83.8576577,18.1821366 C84.0443649,16.8905388 84.5990717,14.2569344 85.5217782,10.2813233 L67.0821191,21.3958691 Z" id="Path-36" fill="#B2C6E8"></path>
                            <g id="Group-20" transform="translate(3.478261, 66.016260)">
                                <path d="M33.0136553,4.95337024 C28.7929994,17.8650194 26.5913065,24.8532832 26.4085767,25.9181616 C26.1344821,27.5154792 -1.90681476,48.9018528 0.320008755,50.6317127 C0.694845356,50.9228965 3.28206631,55.3741807 5.14376407,54.5819753 C14.3420117,50.667859 37.0856035,34.0065994 38.3853636,33.0098511 C39.4272486,32.2108596 43.4102895,25.1155442 50.3344861,11.7239047 L33.0136553,4.95337024 Z" id="Path-39" fill="#00DDBD"></path>
                                <path d="M31.23082,0.268011863 C29.5816431,5.53890696 31.0011878,10.152404 35.489454,14.108503 C37.7885757,16.1350211 41.25332,17.839428 44.4996045,19.9021227 C45.1577437,20.3203055 52.4887593,21.8068648 58.6337528,25.7571225 C61.0516289,27.311434 65.8365621,29.9155515 66.1063164,31.9765049 C68.0028896,46.4665364 73.374358,65.7589707 74.1853272,65.3217482 C75.3297863,64.7047294 81.5417673,67.5197114 81.2694518,63.2084187 C80.6859419,53.9703029 78.8706194,41.570674 75.8234842,26.009532 C71.8195884,19.9530236 68.5609802,15.4701161 66.0476595,12.5608096 C63.5343389,9.65150305 59.5132314,5.70774028 53.9843372,0.72952126 L31.23082,0.268011863 Z" id="Path-38" fill="#71F2DF"></path>
                            </g>
                            <path d="M63.9384002,58.8209319 C67.6436786,60.8938603 69.9523631,62.6448592 70.8644537,64.0739286 C72.4649063,66.5815282 72.2056333,68.2812574 72.6177519,70.4362492 C73.8789597,77.031176 77.5862371,77.6127164 78.7193119,77.387324 C79.1482897,77.3019913 78.4193101,75.5770816 78.2487585,73.855553 C78.1622444,72.9822896 78.1449874,71.4725793 78.1969874,69.3264221 C79.7880752,72.1499274 80.7258501,73.331881 81.0103122,72.872283 C81.4370053,72.1828859 80.9723809,68.2493037 79.8003544,66.7359032 C79.4818142,66.3245823 77.9139754,64.5437309 76.4834145,62.39145 C75.0977624,60.3067345 72.0766697,55.5084708 67.4201363,47.9966588 L63.9384002,58.8209319 Z" id="Path-37" fill="#B2C6E8"></path>
                            <path d="M60.6987777,23.7912093 C53.7360721,24.3431901 48.2961232,28.9085069 44.3789311,37.4871596 C42.7811698,40.9862576 42.1370118,45.4081472 40.4249445,50.1507123 C39.1780865,53.6046096 37.0874174,58.85806 34.1529372,65.9110633 C35.5299113,69.3731789 38.0590632,71.4340264 41.740393,72.0936059 C44.1118815,72.5185027 48.2407379,71.967886 53.3534191,71.5495737 C56.1772999,71.3185278 60.5166015,72.298901 62.6926615,71.0244919 C64.8687215,69.7500827 72.3607708,38.4581448 72.8309856,36.3264524 C73.1444622,34.9053241 72.4933734,33.133469 70.8777195,31.0108871 C72.0026807,35.9424452 70.7956799,37.2864705 67.256717,35.0429629 C66.1219981,34.3236136 64.6778814,33.3827021 63.7784796,32.0582872 C62.836003,30.6704424 61.8094357,27.9147497 60.6987777,23.7912093 Z" id="Path-34" fill="#356ED0"></path>
                            <ellipse id="Oval" fill="#356ED0" transform="translate(49.944552, 89.069066) rotate(-19.000000) translate(-49.944552, -89.069066) " cx="49.944552" cy="89.0690656" rx="7" ry="9"></ellipse>
                            <path d="M53.0845221,44.8076863 C50.5570671,50.4915098 49.1926445,53.8243378 48.9912545,54.8061704 C48.6891694,56.2789192 52.3351225,78.903963 52.3418195,80.5410847 C52.3485166,82.1782065 50.8491699,83.9829883 50.6313526,84.2746201 C50.4135354,84.5662518 50.3206117,84.1396048 50.3206117,83.2472454 C50.3206117,82.6523392 50.1654886,81.7502856 49.8552424,80.5410847 C45.5557098,83.9821985 43.1157926,85.8581369 42.5354908,86.1689 C42.341349,86.2728668 40.6535982,86.3107045 40.5348991,85.8712687 C40.3931159,85.346373 40.9933608,84.5657943 41.1597426,83.6562565 C41.4384034,82.1329379 41.4695573,80.2884428 41.8497177,78.9741838 C42.153855,77.9227456 43.4753268,76.6768055 45.8141331,75.2363634 C42.28694,64.4560457 40.6162269,58.0052626 40.8019937,55.8840142 C40.9877605,53.7627657 41.96622,49.2461082 43.7373722,42.3340415 L53.0845221,44.8076863 Z" id="Path-33" fill="#B2C6E8"></path>
                            <path d="M54.0528789,46.7520338 C51.156409,47.058655 48.9785937,47.0472594 47.5194327,46.7178472 C46.0602718,46.3884349 44.3873989,45.6437807 42.5008139,44.4838844 C45.7711086,31.7563891 49.8519453,26.0143553 54.743324,27.2577833 C59.6347027,28.5012113 59.4045543,34.9992948 54.0528789,46.7520338 Z" id="Path-32" fill="#2C5DB2"></path>
                            <path d="M86.4292269,5.40381532 C83.3807107,0.761260767 73.6246006,-2.73725307 66.8884223,3.98546106 C63.5300817,7.3370891 64.6990471,12.5501397 65.3051249,18.3052577 C65.529446,20.4353373 62.5278269,25.6468308 67.4759229,24.9070073 C68.8112516,24.7073532 70.2961378,24.7532382 71.7609426,23.7775771 C72.7229942,23.1367843 73.2980908,21.2760443 75.005016,19.2631393 C75.845658,18.2718056 77.7617861,16.1012841 78.5573322,16.3238299 C79.3528784,16.5463757 77.2476685,20.7325042 78.712011,19.8850373 C79.6882393,19.3200593 81.0921464,17.2906599 82.9237325,13.7968391 C87.2930729,11.2965263 88.4615711,8.4988517 86.4292269,5.40381532 Z" id="Path-35" fill="#2C5DB2"></path>
                        </g>
                        <path d="M127.950248,45.4014466 C144.174883,49.3409868 163.916965,77.4852805 187.176493,129.834328 C203.358345,118.455999 215.765724,113.824773 224.398632,115.94065 C233.031539,118.056528 241.146218,125.696705 248.742667,138.861182" id="Path-53" stroke="url(#linearGradient-1)" stroke-width="2" stroke-linecap="round" stroke-linejoin="round"></path>
                        <circle id="Oval" fill="#FC835C" cx="250" cy="140" r="4"></circle>
                        <rect id="Rectangle" fill="#356ED0" transform="translate(116.600791, 47.307773) rotate(70.000000) translate(-116.600791, -47.307773) " x="115.100791" y="42.3077732" width="3" height="10"></rect>
                        <ellipse id="Oval" fill="#00DDBD" transform="translate(126.426115, 42.969367) rotate(-14.000000) translate(-126.426115, -42.969367) " cx="126.426115" cy="42.9693671" rx="9" ry="7"></ellipse>
                    </g>
                    <polyline id="Path-74" stroke="url(#linearGradient-1)" stroke-width="4" opacity="0.583984375" stroke-linecap="round" stroke-linejoin="round" points="319.770508 909.800647 421.723862 968.236123 655.121792 832.194144"></polyline>
                    <polyline id="Path-76" stroke="url(#linearGradient-1)" stroke-width="4" opacity="0.583984375" stroke-linecap="round" stroke-linejoin="round" points="298.943353 639.017989 183.295574 571.89081 276.08833 518.680105 276.08833 415.66195"></polyline>
                    <rect id="Rectangle-Copy-3" fill="#76A8FF" x="398.6" y="636" width="10" height="66" rx="5"></rect>
                    <rect id="Rectangle-Copy-4" fill="#76A8FF" x="296" y="578" width="10" height="66" rx="5"></rect>
                    <g id="Man-B" transform="translate(550.000000, 368.000000)">
                        <path d="M60.9501182,147.102321 L61.2228603,155.572607 C60.4403051,159.413558 60.1968075,161.852628 60.4923676,162.889819 C60.9357078,164.445605 63.454695,167.538027 64.9643799,167.538027 C66.4740648,167.538027 68.9994547,164.016 69.4363922,162.889819 C69.7276838,162.139032 69.7276838,159.71375 69.4363922,155.613972 L67.72085,146.408905 L60.9501182,147.102321 Z" id="Path-112" fill="#356ED0"></path>
                        <path d="M38.537773,79.024 C38.093455,92.6449115 38.093455,102.829525 38.537773,109.57784 C38.9820909,116.326154 40.3095989,126.303772 42.5202968,139.510693 C44.106093,139.998381 45.2972085,140.198817 46.0936434,140.112 C46.8900782,140.025183 48.3549109,139.505967 50.4881414,138.554352 C49.0608685,125.776075 48.3472321,116.117238 48.3472321,109.57784 C48.3472321,103.038441 49.7151477,94.151462 52.450979,82.9169019 L38.537773,79.024 Z" id="Path-107" fill="#00DDBD"></path>
                        <path d="M47.3942338,82.0198186 C49.5507172,94.6362651 50.855667,104.387737 51.3090831,111.274235 C51.7624992,118.160733 54.8643695,130.429321 60.6146938,148.08 C62.5009926,148.689582 63.9447693,148.91925 64.946024,148.769005 C65.9472787,148.61876 67.2174908,147.981838 68.7566604,146.85824 C66.86585,133.555032 65.5956378,123.338286 64.946024,116.208 C63.9716032,105.512572 68.7161374,85.6676995 63.4024418,75.3174396 C63.2745039,75.0682363 57.9384345,77.3023626 47.3942338,82.0198186 Z" id="Path-107-Copy" fill="#00DDBD"></path>
                        <path d="M64.5835475,52.9874274 C65.5087663,53.1064288 66.1843847,56.7102993 66.6104027,63.7990388 C67.0364208,70.8877783 67.0364208,78.5258789 66.6104027,86.7133404 C64.2174917,89.1269763 62.9055344,90.5478628 62.6745308,90.976 C62.3280254,91.6182058 62.6574667,92.528113 63.2862509,92.8742533 C63.7054403,93.1050135 64.1378725,92.914929 64.5835475,92.304 C63.5037513,96.4362942 63.2338022,98.91236 63.7737003,99.7321975 C64.5835475,100.961954 70.535033,98.3365002 71.4274774,96.8184776 C72.0224403,95.8064626 72.0224403,92.4380835 71.4274774,86.7133404 C72.8499311,76.9194342 73.6134222,69.4869874 73.7179505,64.416 C73.8224788,59.3450126 73.3130282,54.4531802 72.1895988,49.7405029 L64.5835475,52.9874274 Z" id="Path-108" fill="#B2C6E8"></path>
                        <path d="M61.1805059,13.3378331 C64.9178642,18.2471982 60.1606432,25.2110784 62.0204761,29.1682642 C63.8803089,33.12545 68.7255209,33.2886478 68.0811911,36.7359823 C67.651638,39.0342053 65.0456395,41.0611177 60.2631957,42.8167195 L32.4964311,38.7648969 C30.2374054,36.1357472 29.6064842,33.8347533 30.6036673,31.8619153 C31.7704365,29.5535666 34.2413254,31.7609073 38.149361,29.2269959 C39.2513491,28.5124835 41.6657611,22.0694155 41.7688409,20.2909639 C42.038625,15.6363338 43.5420291,11.7028299 46.2790532,8.49045219 C53.7217828,8.44912942 58.6889337,10.0649231 61.1805059,13.3378331 Z" id="Path-78" fill="#2C5DB2"></path>
                        <path d="M60.0112058,33.4631518 L56.6860583,30.5932228 C56.8546648,27.991497 56.2369599,26.529303 54.8329437,26.2066408 C53.4289275,25.8839786 50.830437,25.8839786 47.0374722,26.2066408 C47.123597,28.5555012 46.7832792,30.0176953 46.0165189,30.5932228 C44.7789765,31.5221178 40.7379168,30.8934643 40.3981203,31.6283936 C39.7425256,33.0463476 40.4499177,35.857923 42.5202968,40.0631198 L52.9531665,42.5600369 L60.0112058,33.4631518 Z" id="Path-109" fill="#B2C6E8"></path>
                        <ellipse id="Oval" fill="#B2C6E8" transform="translate(52.567045, 17.030779) rotate(13.000000) translate(-52.567045, -17.030779) " cx="52.567045" cy="17.0307795" rx="9.41207849" ry="13.2888601"></ellipse>
                        <path d="M44.0005106,12.9215968 C48.0690609,14.3467313 51.1222215,15.0592986 53.1599923,15.0592986 C55.1977631,15.0592986 56.6122191,14.3467313 57.4033605,12.9215968 L59.4362795,23.0841899 C62.2349931,21.4770522 63.2736995,18.3311222 62.5523988,13.6463998 C61.4704476,6.61931631 59.3904439,4.18061844 56.4055883,3.40038092 C54.1103023,2.80039603 50.2016881,3.76003879 46.7295342,7.58635216 C45.9408686,8.45546169 45.031194,10.2338766 44.0005106,12.9215968 Z" id="Path-77" fill="#2C5DB2"></path>
                        <path d="M32.2198094,38.8791311 C30.7327537,42.2752215 29.5736544,44.1395065 28.7425117,44.471986 C27.9113689,44.8044655 22.4511756,47.2258566 12.3619316,51.7361594 C9.56267058,49.8107039 7.69808983,48.8479762 6.76818931,48.8479762 C5.37333852,48.8479762 6.72818256,51.356017 5.81401454,51.7361594 C4.89984652,52.1163017 3.71213702,49.9642571 2.24508078,50.7288395 C0.778024533,51.4934218 0.142323649,53.7695414 1.19370221,54.144117 C2.24508078,54.5186926 10.0587351,56.7716668 11.8926158,56.7716668 C13.7264966,56.7716668 30.7083947,51.7361594 32.2198094,51.1923735 C33.2274192,50.8298496 35.2223275,48.1116858 38.2045345,43.0378819 L32.2198094,38.8791311 Z" id="Path-110" fill="#B2C6E8"></path>
                        <path d="M67.4121784,38.8791311 C63.7389871,33.8682559 60.0112058,32.3313344 58.7908814,32.3313344 C57.570557,32.3313344 55.0277698,39.6956172 49.6502092,39.6956172 C44.2726486,39.6956172 43.1288923,35.3792206 41.4414771,31.1888582 C37.8707848,30.5028492 34.6904279,33.0662735 31.9004064,38.8791311 C35.060307,43.2339201 36.9358773,45.5687919 37.5271175,45.8837465 C37.6200917,45.933274 38.1139933,44.6700545 38.1270323,45.3362595 C38.1507833,46.549777 37.497572,48.259375 37.8034308,51.0600144 C38.1990044,54.6821398 39.5467341,59.7604136 39.2531654,64.1131884 C38.7096753,72.171574 37.5795641,80.0087563 38.3120051,81.381765 C39.9139179,84.3846561 57.9800151,94.7484625 65.0618894,80.9837371 C65.0618894,78.0753796 62.2367806,71.1992759 61.6745396,64.7690737 C61.0443049,57.5612468 63.1285823,52.0909759 63.1285823,51.1923735 C63.1285823,49.4921155 63.5737411,53.792 64.4440987,53.792 C65.3144563,53.792 73.0513172,52.6320875 73.0513172,51.1220153 C73.0513172,49.6119432 71.0853697,43.8900062 67.4121784,38.8791311 Z" id="Path-106" fill="#356ED0"></path>
                        <path d="M42.1853162,137.791301 L41.5634496,141.265499 C36.7262252,145.083075 34.1300227,147.354576 33.7748422,148.08 C33.2420715,149.168137 31.6123077,154.041663 37.3986479,153.505414 C43.1849881,152.969165 50.1525338,147.330175 50.9307708,146.417648 C51.4495955,145.809297 51.3218299,142.933848 50.5474741,137.791301 C48.6483277,138.4531 47.2329429,138.784 46.3013196,138.784 C45.3696963,138.784 43.9976952,138.4531 42.1853162,137.791301 Z" id="Path-111" fill="#424242"></path>
                    </g>
                    <polygon id="Path" fill="#F5F9FF" points="295.64502 577.998016 533.643768 440.578936 641.622437 502.954254 403.630524 640.35083"></polygon>
                    <polyline id="Path-81" stroke="url(#linearGradient-1)" stroke-width="4" opacity="0.58" stroke-linecap="round" stroke-linejoin="round" points="497.210178 481.868145 404.695292 427.254595 404.695292 346.638722"></polyline>
                    <polygon id="Path-9" fill="#E1E8F5" points="403.623657 640.355988 403.632972 646.36 641.610779 508.96 641.613525 502.95517"></polygon>
                    <polygon id="Path-10" fill="#F2F5FA" points="403.635956 640.358673 403.635956 646.34845 295.64 584 295.642639 577.997772"></polygon>
                    <g id="Woman-At-Desk" transform="translate(390.000000, 464.000000)">
                        <polyline id="Path-82" stroke="url(#linearGradient-2)" stroke-width="4" opacity="0.58" stroke-linecap="round" stroke-linejoin="round" points="87.2892257 57.7847991 30.0576253 93.2183253 74.0466324 119.065623 14.0527767 153.769433"></polyline>
                        <g id="Group-32" transform="translate(58.000000, 0.000000)">
                            <polygon id="Path-80" fill="#8BB9FF" points="2.13162821e-14 45.0832345 52.0013709 75.0626194 130.06821 29.9820133 77.983475 5.68434189e-14"></polygon>
                            <g id="Group-31" transform="translate(28.000000, 14.000000)">
                                <path d="M1.58115487,35.4912388 L17.5264533,26.8279601 C18.4687818,26.3159813 19.6132118,26.348262 20.5251824,26.9125444 L20.5251824,26.9125444 C20.9970426,27.2045083 21.1428774,27.82371 20.8509136,28.2955702 C20.7586434,28.4446935 20.6289493,28.5670694 20.474724,28.6505325 L4.78110722,37.1435499 C3.79092803,37.6794116 2.59989482,37.6912402 1.59926829,37.1751499 L1.59926829,37.1751499 C1.13162076,36.9339527 0.948046532,36.3593205 1.18924376,35.891673 C1.27679155,35.7219301 1.41333454,35.5824177 1.58115487,35.4912388 Z" id="Path-17" fill="#5392FF"></path>
                                <path d="M7.58115487,39.4912388 L23.5264533,30.8279601 C24.4687818,30.3159813 25.6132118,30.348262 26.5251824,30.9125444 L26.5251824,30.9125444 C26.9970426,31.2045083 27.1428774,31.82371 26.8509136,32.2955702 C26.7586434,32.4446935 26.6289493,32.5670694 26.474724,32.6505325 L10.7811072,41.1435499 C9.79092803,41.6794116 8.59989482,41.6912402 7.59926829,41.1751499 L7.59926829,41.1751499 C7.13162076,40.9339527 6.94804653,40.3593205 7.18924376,39.891673 C7.27679155,39.7219301 7.41333454,39.5824177 7.58115487,39.4912388 Z" id="Path-17-Copy-5" fill="#5392FF"></path>
                                <path d="M15.5811549,43.4912388 L31.5264533,34.8279601 C32.4687818,34.3159813 33.6132118,34.348262 34.5251824,34.9125444 L34.5251824,34.9125444 C34.9970426,35.2045083 35.1428774,35.82371 34.8509136,36.2955702 C34.7586434,36.4446935 34.6289493,36.5670694 34.474724,36.6505325 L18.7811072,45.1435499 C17.790928,45.6794116 16.5998948,45.6912402 15.5992683,45.1751499 L15.5992683,45.1751499 C15.1316208,44.9339527 14.9480465,44.3593205 15.1892438,43.891673 C15.2767915,43.7219301 15.4133345,43.5824177 15.5811549,43.4912388 Z" id="Path-17-Copy-6" fill="#5392FF"></path>
                                <g id="Group-8" transform="translate(28.000000, 0.000000)">
                                    <ellipse id="Oval" fill="#5392FF" cx="24" cy="15" rx="24" ry="15"></ellipse>
                                    <path d="M27.1129998,0.125027716 C36.5008927,0.884965394 44.1870502,5.03536704 46.9247824,10.5470514 L23.6065574,13.3754003 L27.1129998,0.125027716 Z" id="Combined-Shape" fill="#FC835C"></path>
                                </g>
                            </g>
                        </g>
                        <g id="Group-30" transform="translate(0.000000, 146.000000)">
                            <path d="M10,16.2666019 C15.5228475,16.2666019 20,13.3137085 20,10 C20,6.6862915 15.5228475,4 10,4 C4.4771525,4 0,6.6862915 0,10 C0,13.3137085 4.4771525,16.2666019 10,16.2666019 Z" id="Oval" fill="#5392FF"></path>
                            <g id="Group-15" transform="translate(2.000000, 1.000000)" fill="#FC835C">
                                <path d="M5.68434189e-14,8.37504995 C5.68434189e-14,4.09509276 3.01064129,0.0781873204 8.04068693,0.00105323496 C13.0707326,-0.0760808505 16,4.09573213 16,8.48634147 C16,13.8979857 8.45406436,13.8979857 8,13.8979857 C7.54593564,13.8979857 5.68434189e-14,13.8979857 5.68434189e-14,8.37504995 Z" id="Main-Bubble"></path>
                            </g>
                        </g>
                        <path d="M112.804851,151.300565 C100.329394,143.350673 92.9826271,140.202302 90.7645515,141.855453 C88.5464759,143.508604 88.5464759,155.282532 90.7645515,177.177235 C89.9415587,178.686332 89.9415587,179.53428 90.7645515,179.721079 C91.5875443,179.907878 92.943779,179.152429 94.8332555,177.454735 C94.9586792,163.204396 95.3553474,156.079227 96.0232601,156.079227 C96.6911728,156.079227 99.9524712,157.805893 105.807155,161.259227 L112.804851,151.300565 Z" id="Right-Leg" fill="#00DDBD"></path>
                        <polygon id="Seat-North" fill="#F5F9FF" points="84.3347477 167.52397 118.057834 186.955839 151.786218 167.52397 118.057834 148.092102"></polygon>
                        <polygon id="Seat-East" fill="#E1E8F5" points="118.057724 186.955839 118.057724 220.282386 151.827831 200.820367 151.786218 167.523317"></polygon>
                        <polygon id="Seat-West" fill="#F2F5FA" transform="translate(101.211783, 193.902851) scale(-1, 1) translate(-101.211783, -193.902851) " points="84.3267298 186.955839 84.3267298 220.282386 118.096837 200.820367 118.055224 167.523317"></polygon>
                        <ellipse id="Face" fill="#B2C6E8" transform="translate(107.340127, 102.161434) rotate(15.000000) translate(-107.340127, -102.161434) " cx="107.340127" cy="102.161434" rx="10.2384598" ry="12.6266169"></ellipse>
                        <polygon id="Keyboard" fill="#76A8FF" points="32.7368421 132.596731 82.1267065 104.137477 100.190995 114.550017 50.7940215 143.015592"></polygon>
                        <path d="M103.775643,155.150128 C87.0290046,148.848174 77.5466478,146.523773 75.3285721,148.176924 C73.1104965,149.830075 71.4035983,162.409989 70.2078775,185.916667 C71.5420502,187.568989 72.620633,188.488549 73.4436259,188.675348 C74.2666187,188.862147 75.518868,188.702032 77.2003739,188.195004 C78.8071912,171.652214 79.9184562,162.740769 80.5341689,161.460667 C81.4577378,159.540513 95.3290603,168.277822 103.176022,169.938345 C111.022984,171.598867 116.954209,172.436812 117.71897,169.329469 C118.039572,168.026813 120.487587,157.019956 116.729298,153.617691 C115.250383,152.278873 110.932498,152.789686 103.775643,155.150128 Z" id="Left-Leg" fill="#00DDBD"></path>
                        <path d="M82.4575997,120.838003 L80.029744,119.985937 C77.2369263,118.454135 75.2196896,117.800013 73.9780337,118.02357 C72.1155499,118.358907 69.2876145,120.500781 69.5843375,121.636821 C69.8810606,122.77286 74.5923443,122.60665 75.2896054,123.308034 C75.9868664,124.009417 71.1874615,124.009417 73.1549569,125.228551 C74.4666206,126.041306 77.8140016,125.709198 83.1971,124.232226 L82.4575997,120.838003 Z" id="Right-Hand" fill="#B2C6E8"></path>
                        <path d="M107.260472,117.081135 C106.917609,115.97932 100.276309,119.475174 95.5558938,120.058956 C92.4089503,120.448144 87.771237,120.448144 81.6427537,120.058956 L81.6427537,125.416111 C88.1525254,127.144561 94.0636238,127.144561 99.3760487,125.416111 C107.344686,122.823437 107.603335,118.182949 107.260472,117.081135 Z" id="Right-Arm" fill="#2C5DB2"></path>
                        <polygon id="Neck" fill="#B2C6E8" points="105.807155 111.862474 105.807155 116.181717 115.000639 117.426052 113.371764 110.166667"></polygon>
                        <path d="M120.504815,121.023644 C118.733978,115.865971 116.013608,114.97619 114.233596,115.342178 C112.908275,116.420805 110.099461,116.573099 105.807155,115.799059 L98.2932964,124.955685 C100.744616,140.937769 101.360861,150.522972 100.142031,153.711295 C98.3137872,158.493779 118.680826,163.90358 118.96247,157.803959 C119.244113,151.704337 119.755327,150.020986 120.504815,143.692511 C121.254303,137.364036 122.275653,126.181316 120.504815,121.023644 Z" id="Torso" fill="#356ED0"></path>
                        <path d="M67.5583661,135.14968 C61.8329643,130.294995 58.6833534,127.276287 58.1095334,126.093556 C57.2488035,124.31946 59.3300513,123.141321 62.1694753,123.327302 C63.5869791,123.420147 64.8651434,125.49317 66.1742512,126.712448 C66.6133396,127.121407 66.7753186,124.868919 68.0228639,126.093556 C68.8545607,126.909981 69.4858436,129.123883 69.9167127,132.735264 L67.5583661,135.14968 Z" id="Left-Hand" fill="#B2C6E8"></path>
                        <path d="M103.575126,122.575824 C100.271701,120.946109 99.1059341,122.575824 96.3570661,125.357145 C93.6081981,128.138467 86.2607583,137.732675 84.5269252,138.506696 C83.3710365,139.022709 78.7121658,136.48641 70.5503131,130.897799 C69.6177122,131.453925 68.9122932,132.047214 68.4340562,132.677669 C67.9558191,133.308123 67.3825875,134.400464 66.7143613,135.95469 C76.6078522,144.102846 82.5453735,148.176924 84.5269252,148.176924 C87.4992528,148.176924 100.945483,134.432084 103.575126,130.897799 C106.20477,127.363514 106.878552,124.205539 103.575126,122.575824 Z" id="Left-Arm" fill="#2C5DB2"></path>
                        <path d="M77.3798617,187.91472 C75.6481121,188.446223 74.3725084,188.606382 73.5530504,188.395197 C72.7335925,188.184011 71.6514793,187.416235 70.3067107,186.09187 C65.2144521,186.44806 62.0441663,186.912567 60.7958534,187.485392 C58.923384,188.344628 59.8574116,190.081494 60.7958534,190.456202 C61.4214813,190.706006 65.9016694,192.121207 74.2364179,194.701802 C76.1036765,195.177585 77.3173668,194.902244 77.8774887,193.87578 C78.4376105,192.849316 78.2717349,190.862296 77.3798617,187.91472 Z" id="Shoe" fill="#356ED0"></path>
                        <path d="M97.9116826,96.9385153 C97.2778107,93.1087566 101.633845,89.1342658 102.780586,88.1026033 C103.927327,87.0709409 110.970736,85.9361718 111.467686,85.8720612 C113.63852,85.5920057 112.67864,87.9714786 115.665525,89.0211078 C118.652409,90.070737 119.325593,91.631956 119.625352,94.5452149 C119.925112,97.4584737 119.09921,98.0245935 118.73362,100.748119 C118.36803,103.471645 118.460984,108.845425 115.232473,108.351408 C112.003962,107.85739 111.22212,101.484172 107.672346,99.0555556 C107.140426,98.6916371 107.215843,103.453536 105.168838,102.532064 C103.121833,101.610592 98.5455545,100.768274 97.9116826,96.9385153 Z" id="Path-79" fill="#2C5DB2"></path>
                    </g>
                    <g id="Man-looking" transform="translate(328.000000, 540.000000)">
                        <path d="M19.1998009,23.2731359 C17.7728272,21.0565082 16.9056604,18.1337698 16.9056604,14.9305556 C16.9056604,8.00398432 20.96044,2.38888889 25.9622642,2.38888889 C30.231075,2.38888889 33.8100792,6.47880245 34.7673997,11.9833489 C34.8485142,11.9578556 34.9326355,11.9444444 35.0188679,11.9444444 C35.6857778,11.9444444 36.2264151,12.7466009 36.2264151,13.7361111 C36.2264151,14.7256213 35.6857778,15.5277778 35.0188679,15.5277778 C35.0155029,15.5277778 35.0121411,15.5277574 35.0087826,15.5277166 C34.8089938,21.4298811 31.6631596,26.2651779 27.5616983,27.2772577 L27.7735849,29.8611111 L18.1132075,29.8611111 L18.8342897,23.2598046 L19.1998009,23.2731359 Z" id="Combined-Shape" fill="#B2C6E8"></path>
                        <path d="M22.9433962,103.916667 L26.0474401,165.836313 C27.6307006,166.549237 28.7849298,166.877562 29.5101279,166.821287 C30.235326,166.765012 31.2310073,166.27185 32.4971718,165.3418 L34.2436328,112.879808 L22.9433962,103.916667 Z" id="Path-19" fill="#00DDBD"></path>
                        <polygon id="Path-19-Copy" fill="#00DDBD" points="8.45283019 105.111111 10.4008913 154.901617 16.9196073 154.901617 18.8342897 111.641691"></polygon>
                        <polygon id="Path-25" fill="#B2C6E8" points="4.18648797 86.6536099 4.85026164 91.6382212 7.84617922 93.6214061 7.84617922 86.6536099"></polygon>
                        <polygon id="Path-26" fill="#00DDBD" points="1.05744787 90.3542084 16.9056604 81.0272388 16.9056604 97.2510417 1.05744787 106.649423"></polygon>
                        <path d="M7.05007107,31.0555556 C4.40894713,40.5535434 2.9020847,48.862204 2.52948378,55.9815374 C2.15688287,63.1008709 2.69453711,73.3109955 4.1424465,86.6119113 L9.60005425,86.6119113 L12.5076788,34.4578144 L7.05007107,31.0555556 Z" id="Path-20" fill="#2C5DB2"></path>
                        <path d="M6.82199,30.6440366 C5.7763178,33.26592 5.7763178,59.0698181 6.82199,108.055731 C11.606363,112.641325 16.0187638,115.245004 20.0591923,115.866768 C24.0996208,116.488532 30.2236337,115.506257 38.431231,112.919941 C38.3497654,90.8530012 37.9578501,74.7335982 37.2554849,64.5617321 C36.2019371,49.303933 38.3465362,37.8351026 37.2554849,35.7434922 C36.5281174,34.3490852 33.6869545,31.9520633 28.7319962,28.5524262 C26.375329,29.0669738 24.3402004,29.0669738 22.6266105,28.5524262 C20.0562257,27.7806048 17.7910632,25.0833333 15.7827791,25.0833333 C13.774495,25.0833333 8.39049829,26.7112115 6.82199,30.6440366 Z" id="Path-21" fill="#356ED0"></path>
                        <path d="M48.5888908,68.4515361 C48.2062188,70.1702045 48.2062188,71.2601087 48.5888908,71.7212487 C48.9715629,72.1823887 50.2773635,72.5433091 52.5062928,72.8040097 C53.2291902,74.507446 54.1516821,75.3591641 55.2737686,75.3591641 C56.3958551,75.3591641 57.4969181,74.507446 58.5769576,72.8040097 C60.3882257,73.8181675 61.6031464,74.3252464 62.2217198,74.3252464 C63.14958,74.3252464 63.5237334,74.1079969 62.6932824,72.8040097 C61.8628314,71.5000225 59.7706347,69.6448975 59.1326473,69.0752264 C58.49466,68.5055553 57.9053467,68.0833333 57.406492,68.0833333 C57.0739222,68.0833333 54.1347218,68.2060676 48.5888908,68.4515361 Z" id="Path-24" fill="#B2C6E8"></path>
                        <path d="M36.5963307,35.4906229 C32.8035169,31.9100789 25.8380377,40.3802428 24.6910312,46.7435861 C23.3799812,54.0170074 22.0121638,63.5372863 23.7962416,67.5303327 C24.9856268,70.1923635 33.7273261,72.307895 50.0213396,73.876927 L50.0213396,67.5303327 C38.1441149,65.3563058 31.9109117,63.8293509 31.3217301,62.9494682 C30.4379577,61.6296442 40.3891444,39.071167 36.5963307,35.4906229 Z" id="Path-18" fill="#2C5DB2"></path>
                        <path d="M32.5888636,160.586642 L36.0928227,160.586642 C38.101965,158.980452 39.5010899,158.495589 40.2901974,159.132054 C41.4738586,160.086752 40.6621906,162.973511 39.4785293,164.432442 C38.2948681,165.891373 30.9244573,170.732533 29.2177922,171.395299 C27.5111271,172.058064 25.3584906,170.786711 25.3584906,169.915811 C25.3584906,169.335211 25.4984204,167.285956 25.77828,163.768045 C28.0712881,164.736284 29.7985386,164.95775 30.9600315,164.432442 C32.1215243,163.907134 32.6644684,162.625201 32.5888636,160.586642 Z" id="Path-22" fill="#356ED0"></path>
                        <path d="M16.8907504,152.225531 L20.3947095,152.225531 C22.4103796,151.589066 23.8127684,151.589066 24.6018759,152.225531 C25.7855371,153.18023 24.9640774,154.612399 23.7804161,156.071331 C22.5967549,157.530262 15.2263441,162.371422 13.519679,163.034187 C11.8130139,163.696953 9.66037736,162.4256 9.66037736,161.5547 C9.66037736,160.9741 9.87082747,158.625401 10.2917277,154.508604 C11.8533299,154.770613 13.3028922,154.901617 14.6404145,154.901617 C15.9779369,154.901617 16.7280489,154.009588 16.8907504,152.225531 Z" id="Path-22-Copy" fill="#356ED0"></path>
                        <path d="M33.1762068,14.4130181 C33.5006465,13.3528367 32.0289487,13.1604309 31.9285179,12.4206852 C31.6259817,10.1922881 32.3431712,8.22892401 32.2597242,7.47030957 C32.0930015,5.95463987 31.1593151,6.79453031 31.1593151,4.67828218 C31.1593151,3.9181636 34.0252258,5.71393612 33.4500189,2.80661335 C32.874812,-0.10070942 27.1113926,-1.02836569 20.2880586,1.36250311 C9.39471077,5.17948839 13.8877701,17.061702 16.1352184,21.1121293 C17.6335172,23.8124142 19.7222595,25.3331957 22.4014453,25.6744738 C24.2861653,26.834339 26.2969863,26.2228907 28.4339082,23.8401291 C31.6392911,20.2659867 32.8517672,15.4731996 33.1762068,14.4130181 Z" id="Path-23" fill="#2C5DB2"></path>
                    </g>
                    <g id="Group-29" transform="translate(50.000000, 0.000000)">
                        <g id="Group-7-Copy" transform="translate(10.000000, 6.000000)">
                            <mask id="mask-4" fill="white">
                                <use xlink:href="#path-3"></use>
                            </mask>
                            <use id="Mask" fill="#E1E8F5" xlink:href="#path-3"></use>
                            <g id="Group-10" mask="url(#mask-4)">
                                <g transform="translate(90.000000, 114.000000)">
                                    <g id="Group-7-Copy" stroke-width="1" fill="none" transform="translate(36.000000, 178.000000)">
                                        <path d="M1.999701,86.8452419 L143.999701,4.84516064 C145.912776,3.74042601 148.359194,4.39571547 149.463929,6.30879061 C149.815113,6.91693854 150,7.60682587 150,8.30908961 L150,113.071025 C150,114.499964 149.237735,115.820378 148.000299,116.534954 L6.000299,198.535035 C4.08722385,199.63977 1.64080566,198.98448 0.536071027,197.071405 C0.184886666,196.463257 -3.31157856e-14,195.77337 -3.8191672e-14,195.071106 L-4.41868764e-13,90.3091709 C-4.4712037e-13,88.8802319 0.762265194,87.5598183 1.999701,86.8452419 Z" id="Rectangle" fill="#F2F5FA"></path>
                                        <g id="Group-3" transform="translate(75.000000, 98.000000) scale(-1, -1) translate(-75.000000, -98.000000) translate(12.000000, 38.000000)">
                                            <path d="M118.422014,30.1462656 L108.029709,36.1462656 L103.641376,38.6798707 C102.813447,39.1581558 101.757137,38.8791913 101.278852,38.0512624 C101.126761,37.7879868 101.046687,37.4892997 101.046687,37.1852506 L101.046687,36.4955667 C101.046687,35.0662746 101.81383,33.7533912 103.051748,33.0389442 L105.439709,31.660254 L115.832014,25.660254 L121.269137,22.5211294 C122.092847,22.0457371 123.145737,22.3276877 123.621129,23.1513973 C123.772768,23.4141412 123.852307,23.7122811 123.851695,24.0156428 L123.850313,24.7013275 C123.847439,26.1271441 123.089957,27.4508097 121.855342,28.1640327 L118.422014,30.1462656 Z" id="Combined-Shape" fill="#76A8FF"></path>
                                            <path d="M38.7476767,76.1462657 L34.359344,78.6798707 C33.5314151,79.1581558 32.4751047,78.8791913 31.9968196,78.0512624 C31.8447283,77.7879868 31.7646547,77.4892997 31.7646547,77.1852506 L31.7646547,76.4955667 C31.7646547,75.0662746 32.5317972,73.7533912 33.7697154,73.0389442 L36.1576766,71.660254 L41.5947999,68.5211294 C42.4185095,68.0457371 43.4713995,68.3276877 43.9467919,69.1513973 C44.0984308,69.4141412 44.1779695,69.7122811 44.1773579,70.0156428 L44.1759756,70.7013275 C44.1731014,72.1271441 43.4156198,73.4508097 42.1810049,74.1640327 L38.7476766,76.1462656 Z" id="Combined-Shape" fill="#76A8FF"></path>
                                            <path d="M118.618166,8.48601159 L89.1733025,25.4860116 L84.7849699,28.0196167 C83.957041,28.4979018 82.9007306,28.2189372 82.4224455,27.3910083 C82.2703542,27.1277327 82.1902806,26.8290456 82.1902806,26.5249966 L82.1902806,25.8353127 C82.1902806,24.4060205 82.9574231,23.0931372 84.1953412,22.3786901 L86.5833025,21 L116.028166,4 L121.46529,0.860875405 C122.288999,0.385483014 123.341889,0.667433711 123.817281,1.49114329 C123.96892,1.7538872 124.048459,2.05202702 124.047847,2.35538878 L124.046465,3.0410735 C124.043591,4.46689004 123.286109,5.79055563 122.051494,6.50377862 L118.618166,8.48601159 Z" id="Combined-Shape" fill="#FC835C"></path>
                                            <path d="M72.9963879,79.4667736 L53.943829,90.4667736 L49.5554964,93.0003787 C48.7275675,93.4786638 47.6712571,93.1996992 47.192972,92.3717704 C47.0408807,92.1084947 46.9608071,91.8098076 46.9608071,91.5057586 L46.9608071,90.8160747 C46.9608071,89.3867826 47.7279496,88.0738992 48.9658677,87.3594522 L51.353829,85.980762 L70.4063879,74.980762 L75.8435112,71.8416374 C76.6672208,71.366245 77.7201107,71.6481957 78.1955031,72.4719053 C78.3471421,72.7346492 78.4266807,73.032789 78.4260692,73.3361508 L78.4246869,74.0218355 C78.4218126,75.4476521 77.6643311,76.7713177 76.4297161,77.4845406 L72.9963879,79.4667736 Z" id="Combined-Shape" fill="#76A8FF"></path>
                                            <path d="M38.3553717,99.4667736 L8.91050802,116.466774 L4.52217538,119.000379 C3.6942465,119.478664 2.63793609,119.199699 2.15965101,118.37177 C2.00755969,118.108495 1.92748611,117.809808 1.92748611,117.505759 L1.92748611,116.816075 C1.92748611,115.386783 2.69462858,114.073899 3.93254675,113.359452 L6.32050802,111.980762 L35.7653717,94.980762 L41.202495,91.8416374 C42.0262046,91.366245 43.0790946,91.6481957 43.554487,92.4719053 C43.7061259,92.7346492 43.7856646,93.032789 43.785053,93.3361508 L43.7836707,94.0218355 C43.7807965,95.4476521 43.0233149,96.7713177 41.7887,97.4845406 L38.3553717,99.4667736 Z" id="Combined-Shape" fill="#76A8FF"></path>
                                            <path d="M118.029709,53.4667736 L88.5848452,70.4667736 L84.1965125,73.0003787 C83.3685836,73.4786638 82.3122732,73.1996992 81.8339882,72.3717704 C81.6818968,72.1084947 81.6018233,71.8098076 81.6018233,71.5057586 L81.6018233,70.8160747 C81.6018233,69.3867826 82.3689657,68.0738992 83.6068839,67.3594522 L85.9948452,65.980762 L115.439709,48.980762 L120.876832,45.8416374 C121.700542,45.366245 122.753432,45.6481957 123.228824,46.4719053 C123.380463,46.7346492 123.460002,47.032789 123.45939,47.3361508 L123.458008,48.0218355 C123.455134,49.4476521 122.697652,50.7713177 121.463037,51.4845406 L118.029709,53.4667736 Z" id="Combined-Shape" fill="#00DDBD"></path>
                                        </g>
                                    </g>
                                    <g id="Group-8" stroke-width="1" fill="none" transform="translate(0.000000, 82.000000)">
                                        <path d="M0.950725785,21.4652323 L17.5825384,12.1101099 C17.7750829,12.0018068 17.843374,11.7579216 17.7350709,11.5653771 C17.7233489,11.5445374 17.709782,11.5247907 17.694533,11.5063741 L8.60915552,0.533725517 C8.46826594,0.363569478 8.21611365,0.339844325 8.04595761,0.480733905 C7.99186047,0.525526457 7.95051093,0.583773335 7.92606729,0.649616953 L0.379632159,20.9773879 C0.302747652,21.1844911 0.408310737,21.4147086 0.615413909,21.4915931 C0.725627448,21.5325085 0.848259896,21.5228677 0.950725785,21.4652323 Z" id="Path-46" fill="#00DDBD"></path>
                                        <path d="M17.6203678,53.0226121 L10.0739327,73.350383 C9.9970482,73.5574862 9.7668307,73.6630493 9.55972753,73.5861648 C9.49388391,73.5617212 9.43563703,73.5203716 9.39084448,73.4662745 L0.305466989,62.4936259 C0.164577409,62.3234698 0.188302562,62.0713176 0.358458601,61.930428 C0.376875147,61.915179 0.396621869,61.9016121 0.41746159,61.8898901 L17.0492742,52.5347677 C17.2418187,52.4264646 17.4857039,52.4947557 17.594007,52.6873002 C17.6516424,52.7897661 17.6612833,52.9123985 17.6203678,53.0226121 Z" id="Path-46-Copy-2" fill="#00DDBD"></path>
                                        <path d="M7.62157383,49.3521752 L5.72944297,50.4036638 L5.72944297,46.1081605 L-1.0658141e-13,49.2921074 L-1.0658141e-13,46.2284029 L5.00442087,28.7605317 L7.62157383,27.3061362 L7.62157383,42.245644 L9.30150309,41.3120793 L9.30150309,44.1231072 L7.62157383,45.0566719 L7.62157383,49.3521752 Z M5.60565871,31.6796258 L1.69761273,45.5376879 L5.72944297,43.2971326 L5.72944297,31.6108369 L5.60565871,31.6796258 Z M20,39.4411575 L20,42.4732774 L11.6180371,47.1312739 L11.6180371,43.7201389 L15.56145,35.2433866 C16.7992927,32.5656681 17.5066313,30.4038516 17.5066313,28.3824383 L17.5066313,27.9718387 C17.5066313,25.8556716 16.7285588,24.961507 15.5083996,25.6395698 C14.1467728,26.3962485 13.4924845,28.307492 13.1918656,30.4012105 L11.4412025,30.173869 C11.954023,27.1094428 13.1918656,23.8316172 15.6675508,22.4558376 C18.178603,21.0604041 19.6286472,22.9708645 19.6286472,26.7925991 C19.6286472,30.361657 18.3023873,33.4359409 16.6755084,36.8352066 L13.77542,42.9002603 L20,39.4411575 Z" id="Combined-Shape" fill="#76A8FF"></path>
                                    </g>
                                    <g id="Group-6" stroke-width="1" fill="none" transform="translate(0.000000, 258.000000)">
                                        <path d="M0.950725785,21.4652323 L17.5825384,12.1101099 C17.7750829,12.0018068 17.843374,11.7579216 17.7350709,11.5653771 C17.7233489,11.5445374 17.709782,11.5247907 17.694533,11.5063741 L8.60915552,0.533725517 C8.46826594,0.363569478 8.21611365,0.339844325 8.04595761,0.480733905 C7.99186047,0.525526457 7.95051093,0.583773335 7.92606729,0.649616953 L0.379632159,20.9773879 C0.302747652,21.1844911 0.408310737,21.4147086 0.615413909,21.4915931 C0.725627448,21.5325085 0.848259896,21.5228677 0.950725785,21.4652323 Z" id="Path-46-Copy-4" fill="#00DDBD"></path>
                                        <path d="M17.6203678,53.0226121 L10.0739327,73.350383 C9.9970482,73.5574862 9.7668307,73.6630493 9.55972753,73.5861648 C9.49388391,73.5617212 9.43563703,73.5203716 9.39084448,73.4662745 L0.305466989,62.4936259 C0.164577409,62.3234698 0.188302562,62.0713176 0.358458601,61.930428 C0.376875147,61.915179 0.396621869,61.9016121 0.41746159,61.8898901 L17.0492742,52.5347677 C17.2418187,52.4264646 17.4857039,52.4947557 17.594007,52.6873002 C17.6516424,52.7897661 17.6612833,52.9123985 17.6203678,53.0226121 Z" id="Path-46-Copy-3" fill="#00DDBD"></path>
                                        <path d="M3.97509485,50.8419641 L1.89123456,52 L6.32162662,30.4292845 L1.69860881,32.9983726 L1.69860881,37.0727838 L-6.21724894e-15,38.016729 L-6.21724894e-15,31.0049516 L8.2829069,26.4020022 L8.2829069,29.4972913 L3.97509485,50.8419641 Z M13.1861076,32.7419872 L14.4294192,32.0510582 C15.9354023,31.2141583 16.653371,29.5202032 16.653371,27.719882 L16.653371,27.4987899 C16.653371,25.5089612 15.882868,24.8000975 14.7096021,25.4521009 C13.5538477,26.0943729 12.7483218,27.5527237 12.187956,29.5381112 L10.8745987,28.2149679 C11.6100788,25.8795898 12.7308104,23.5512131 14.7621364,22.4223714 C17.0736453,21.1378273 18.7372312,22.329512 18.7372312,25.8985699 C18.7372312,28.7095977 17.669034,31.0403649 16.3906995,32.25611 L16.3906995,32.4140329 C17.7741025,32.1190215 18.9473684,33.2673393 18.9473684,36.4573822 C18.9473684,40.3107013 17.1962253,43.8737766 14.5870221,45.3237543 C12.310536,46.5888355 11.172293,45.2947166 10.4017901,43.7014846 L11.8552388,40.840781 C12.4506275,42.2786502 13.1685962,43.1114618 14.5870221,42.3232189 C16.0754937,41.4960504 16.898531,39.6805378 16.898531,37.4064478 L16.898531,37.1853557 C16.898531,34.9428503 16.0229594,34.1976213 14.4819535,35.053984 L13.1861076,35.7741071 L13.1861076,32.7419872 Z" id="Combined-Shape" fill="#76A8FF"></path>
                                    </g>
                                    <g id="Group-7" stroke-width="1" fill="none" transform="translate(36.000000, 0.000000)">
                                        <path d="M1.999701,86.8452419 L143.999701,4.84516064 C145.912776,3.74042601 148.359194,4.39571547 149.463929,6.30879061 C149.815113,6.91693854 150,7.60682587 150,8.30908961 L150,113.071025 C150,114.499964 149.237735,115.820378 148.000299,116.534954 L6.000299,198.535035 C4.08722385,199.63977 1.64080566,198.98448 0.536071027,197.071405 C0.184886666,196.463257 -3.31157856e-14,195.77337 -3.8191672e-14,195.071106 L-4.41868764e-13,90.3091709 C-4.4712037e-13,88.8802319 0.762265194,87.5598183 1.999701,86.8452419 Z" id="Rectangle" fill="#F2F5FA"></path>
                                        <g id="Group-3" transform="translate(75.000000, 114.000000) scale(-1, -1) translate(-75.000000, -114.000000) translate(12.000000, 58.000000)">
                                            <path d="M73.5848452,34.4860116 L63.1925404,40.4860116 L58.8042077,43.0196167 C57.9762789,43.4979018 56.9199685,43.2189372 56.4416834,42.3910083 C56.289592,42.1277327 56.2095185,41.8290456 56.2095185,41.5249966 L56.2095185,40.8353127 C56.2095185,39.4060205 56.9766609,38.0931372 58.2145791,37.3786901 L60.6025404,36 L70.9948452,30 L76.4319685,26.8608755 C77.2556781,26.3854831 78.3085681,26.6674338 78.7839605,27.4911433 C78.9355994,27.7538872 79.0151381,28.0520271 79.0145265,28.3553888 L79.0131442,29.0410735 C79.01027,30.4668901 78.2527884,31.7905557 77.0181735,32.5037787 L73.5848453,34.4860116 Z" id="Combined-Shape" fill="#00DDBD"></path>
                                            <path d="M118.422014,26.1462656 L108.029709,32.1462656 L103.641376,34.6798707 C102.813447,35.1581558 101.757137,34.8791913 101.278852,34.0512624 C101.126761,33.7879868 101.046687,33.4892997 101.046687,33.1852506 L101.046687,32.4955667 C101.046687,31.0662746 101.81383,29.7533912 103.051748,29.0389442 L105.439709,27.660254 L115.832014,21.660254 L121.269137,18.5211294 C122.092847,18.0457371 123.145737,18.3276877 123.621129,19.1513973 C123.772768,19.4141412 123.852307,19.7122811 123.851695,20.0156428 L123.850313,20.7013275 C123.847439,22.1271441 123.089957,23.4508097 121.855342,24.1640327 L118.422014,26.1462656 Z" id="Combined-Shape" fill="#76A8FF"></path>
                                            <path d="M38.7476767,72.1462657 L34.359344,74.6798707 C33.5314151,75.1581558 32.4751047,74.8791913 31.9968196,74.0512624 C31.8447283,73.7879868 31.7646547,73.4892997 31.7646547,73.1852506 L31.7646547,72.4955667 C31.7646547,71.0662746 32.5317972,69.7533912 33.7697154,69.0389442 L36.1576766,67.660254 L41.5947999,64.5211294 C42.4185095,64.0457371 43.4713995,64.3276877 43.9467919,65.1513973 C44.0984308,65.4141412 44.1779695,65.7122811 44.1773579,66.0156428 L44.1759756,66.7013275 C44.1731014,68.1271441 43.4156198,69.4508097 42.1810049,70.1640327 L38.7476766,72.1462656 Z" id="Combined-Shape" fill="#76A8FF"></path>
                                            <path d="M118.618166,8.48601159 L89.1733025,25.4860116 L84.7849699,28.0196167 C83.957041,28.4979018 82.9007306,28.2189372 82.4224455,27.3910083 C82.2703542,27.1277327 82.1902806,26.8290456 82.1902806,26.5249966 L82.1902806,25.8353127 C82.1902806,24.4060205 82.9574231,23.0931372 84.1953412,22.3786901 L86.5833025,21 L116.028166,4 L121.46529,0.860875405 C122.288999,0.385483014 123.341889,0.667433711 123.817281,1.49114329 C123.96892,1.7538872 124.048459,2.05202702 124.047847,2.35538878 L124.046465,3.0410735 C124.043591,4.46689004 123.286109,5.79055563 122.051494,6.50377862 L118.618166,8.48601159 Z" id="Combined-Shape" fill="#FC835C"></path>
                                            <path d="M72.9963879,71.4667736 L53.943829,82.4667736 L49.5554964,85.0003787 C48.7275675,85.4786638 47.6712571,85.1996992 47.192972,84.3717704 C47.0408807,84.1084947 46.9608071,83.8098076 46.9608071,83.5057586 L46.9608071,82.8160747 C46.9608071,81.3867826 47.7279496,80.0738992 48.9658677,79.3594522 L51.353829,77.980762 L70.4063879,66.980762 L75.8435112,63.8416374 C76.6672208,63.366245 77.7201107,63.6481957 78.1955031,64.4719053 C78.3471421,64.7346492 78.4266807,65.032789 78.4260692,65.3361508 L78.4246869,66.0218355 C78.4218126,67.4476521 77.6643311,68.7713177 76.4297161,69.4845406 L72.9963879,71.4667736 Z" id="Combined-Shape" fill="#76A8FF"></path>
                                            <path d="M38.3553717,91.4667736 L8.91050802,108.466774 L4.52217538,111.000379 C3.6942465,111.478664 2.63793609,111.199699 2.15965101,110.37177 C2.00755969,110.108495 1.92748611,109.809808 1.92748611,109.505759 L1.92748611,108.816075 C1.92748611,107.386783 2.69462858,106.073899 3.93254675,105.359452 L6.32050802,103.980762 L35.7653717,86.980762 L41.202495,83.8416374 C42.0262046,83.366245 43.0790946,83.6481957 43.554487,84.4719053 C43.7061259,84.7346492 43.7856646,85.032789 43.785053,85.3361508 L43.7836707,86.0218355 C43.7807965,87.4476521 43.0233149,88.7713177 41.7887,89.4845406 L38.3553717,91.4667736 Z" id="Combined-Shape" fill="#76A8FF"></path>
                                            <path d="M88.1925403,81.7872817 L46.6233209,105.787282 L42.2349883,108.320887 C41.4070594,108.799172 40.350749,108.520207 39.8724639,107.692278 C39.7203726,107.429003 39.640299,107.130316 39.640299,106.826267 L39.640299,106.136583 C39.640299,104.707291 40.4074415,103.394407 41.6453597,102.67996 L44.0333209,101.30127 L85.6025403,77.3012701 L91.0396636,74.1621455 C91.8633732,73.6867531 92.9162631,73.9687038 93.3916555,74.7924134 C93.5432945,75.0551573 93.6228331,75.3532971 93.6222216,75.6566589 L93.6208393,76.3423436 C93.617965,77.7681601 92.8604835,79.0918257 91.6258685,79.8050487 L88.1925403,81.7872817 Z" id="Combined-Shape" fill="#76A8FF"></path>
                                            <path d="M117.637404,64.7872817 L105.513048,71.7872817 L101.124716,74.3208868 C100.296787,74.7991719 99.2404765,74.5202073 98.7621914,73.6922784 C98.6101001,73.4290028 98.5300265,73.1303157 98.5300265,72.8262667 L98.5300265,72.1365828 C98.5300265,70.7072906 99.297169,69.3944073 100.535087,68.6799602 L102.923048,67.3012701 L115.047404,60.3012701 L120.484527,57.1621455 C121.308237,56.6867531 122.361127,56.9687038 122.836519,57.7924134 C122.988158,58.0551573 123.067697,58.3532971 123.067085,58.6566589 L123.065703,59.3423436 C123.062829,60.7681601 122.305347,62.0918257 121.070732,62.8050487 L117.637404,64.7872817 Z" id="Combined-Shape" fill="#FC835C"></path>
                                            <path d="M118.029709,45.4667736 L88.5848452,62.4667736 L84.1965125,65.0003787 C83.3685836,65.4786638 82.3122732,65.1996992 81.8339882,64.3717704 C81.6818968,64.1084947 81.6018233,63.8098076 81.6018233,63.5057586 L81.6018233,62.8160747 C81.6018233,61.3867826 82.3689657,60.0738992 83.6068839,59.3594522 L85.9948452,57.980762 L115.439709,40.980762 L120.876832,37.8416374 C121.700542,37.366245 122.753432,37.6481957 123.228824,38.4719053 C123.380463,38.7346492 123.460002,39.032789 123.45939,39.3361508 L123.458008,40.0218355 C123.455134,41.4476521 122.697652,42.7713177 121.463037,43.4845406 L118.029709,45.4667736 Z" id="Combined-Shape" fill="#FC835C"></path>
                                        </g>
                                    </g>
                                    <g id="Group-9" stroke-width="1" fill="none" transform="translate(36.000000, 4.000000)">
                                        <path d="M2.59887607,60.5013862 L49.4011239,33.5133766 C50.2303167,33.0352315 51.2901233,33.3198119 51.7682683,34.1490047 C51.920084,34.4122814 52,34.7108506 52,35.0147628 L52,35.0147628 C52,36.871016 51.0091813,38.5861077 49.4011239,39.5133766 L2.59887607,66.5013862 C1.76968334,66.9795313 0.709876706,66.6949509 0.231731695,65.8657581 C0.0799160232,65.6024814 3.72185112e-17,65.3039122 0,65 L0,65 C-2.27325455e-16,63.1437468 0.990818724,61.4286551 2.59887607,60.5013862 Z" id="Rectangle" fill="#00DDBD"></path>
                                        <path d="M58.5988761,28.4866234 L105.401124,1.49861376 C106.230317,1.02046875 107.290123,1.30504915 107.768268,2.13424187 C107.920084,2.39751859 108,2.69608779 108,3 L108,3 C108,4.8562532 107.009181,6.57134489 105.401124,7.49861376 L58.5988761,34.4866234 C57.7696833,34.9647685 56.7098767,34.6801881 56.2317317,33.8509953 C56.079916,33.5877186 56,33.2891494 56,32.9852372 L56,32.9852372 C56,31.128984 56.9908187,29.4138923 58.5988761,28.4866234 Z" id="Rectangle-Copy-10" fill="#00DDBD"></path>
                                    </g>
                                    <path d="M38.5994357,242.502357 L73.4005643,222.451982 C74.2302933,221.97394 75.2904505,222.25904 75.7684918,223.088769 C75.9201649,223.352025 76,223.650515 76,223.954339 L76,223.954339 C76,225.810485 75.0088749,227.525367 73.4005643,228.451982 L38.5994357,248.502357 C37.7697067,248.980398 36.7095495,248.695299 36.2315082,247.86557 C36.0798351,247.602314 36,247.303824 36,247 L36,247 C36,245.143854 36.9911251,243.428972 38.5994357,242.502357 Z" id="Path" fill="#00DDBD"></path>
                                    <path d="M84.5994357,215.999847 L119.400564,195.949472 C120.230293,195.47143 121.290451,195.756529 121.768492,196.586258 C121.920165,196.849515 122,197.148005 122,197.451829 L122,197.451829 C122,199.307975 121.008875,201.022857 119.400564,201.949472 L84.5994357,221.999847 C83.7697067,222.477888 82.7095495,222.192789 82.2315082,221.36306 C82.0798351,221.099803 82,220.801313 82,220.49749 L82,220.49749 C82,218.641344 82.9911251,216.926461 84.5994357,215.999847 Z" id="Path" fill="#00DDBD"></path>
                                </g>
                            </g>
                        </g>
                        <polygon id="Path-5" fill="#F2F5FA" points="11.6504211 217.298706 0.50088501 210.865784 0.495806017 545.729736 11.6585693 552.160614"></polygon>
                        <polygon id="Path-6" fill="#F5F9FF" points="11.6569214 217.300568 0.508331299 210.873901 364.547729 0.74 375.65564 7.1555481"></polygon>
                    </g>
                    <polyline id="Path-73" stroke="url(#linearGradient-1)" stroke-width="4" opacity="0.583984375" stroke-linecap="round" stroke-linejoin="round" points="104.114668 786.278772 -1.77635684e-14 726.512242 -1.77635684e-14 497.800812 55.1464566 466.60778"></polyline>
                    <g id="Group-27" transform="translate(280.000000, 753.000000) scale(-1, 1) translate(-280.000000, -753.000000) translate(90.000000, 582.000000)">
                        <g id="Group-21" transform="translate(282.000000, 0.000000)">
                            <g id="Man-A" transform="translate(39.000000, 86.000000) scale(-1, 1) translate(-39.000000, -86.000000) ">
                                <polygon id="Neck" fill="#B2C6E8" points="20.2109436 26.7187787 17.7985686 34.0704462 23.2948955 38.9569425 32.4120824 36.2779156 29.3408551 26.7187787"></polygon>
                                <path d="M9.21531404,154.242366 L8.34543998,160.176972 C7.83757612,164.088356 7.83757612,167.010186 8.34543998,168.942464 C9.10723578,171.84088 10.3671218,172 11.4529071,172 C12.5386924,172 13.9016414,170.804401 14.5603742,168.995544 C14.9995294,167.789639 14.9995294,165.946792 14.5603742,163.467004 L14.5603742,158.653969 L12.9074243,153.268808 L9.21531404,154.242366 Z" id="Right-Shoe" fill="#356ED0"></path>
                                <path d="M27.9562535,144.675728 C26.5237342,148.193818 26.0272108,150.336711 26.4666834,151.104406 C27.1258922,152.255949 34.9341066,156.971035 36.4930214,157.383472 C38.0519362,157.795909 39.115694,155.37222 39.115694,154.450916 C39.115694,153.836713 37.0075256,151.724075 32.7911887,148.113002 L32.7911887,143.775946 L27.9562535,144.675728 Z" id="Left-Shoe" fill="#356ED0"></path>
                                <path d="M12.233522,74.6786718 C11.8604615,76.8895697 11.6739313,79.1056201 11.6739313,81.3268231 C11.6739313,83.5480262 11.8604615,86.1803617 12.233522,89.2238298 L10.8583443,119.380612 L7.18703179,156.364423 C8.73199507,157.071478 9.95576591,157.425005 10.8583443,157.425005 C11.7609227,157.425005 13.0832736,157.071478 14.8253968,156.364423 L22.1180906,118.108567 L26.2191147,87.3276789 L27.5663874,115.521547 L27.0056398,146.26014 C27.6979224,146.831571 28.462849,147.198658 29.3004197,147.361399 C30.1379904,147.524141 31.3870569,147.358758 33.047619,146.865251 L37.2009096,112.527026 L38.9047619,70.2439972 L12.233522,74.6786718 Z" id="Legs" fill="#00DDBD"></path>
                                <path d="M40.713025,50.4075964 C43.1614253,58.3346921 45.483022,62.5461162 47.6778152,63.0418688 C50.970005,63.7854977 64.7908365,65.5203078 69.3423078,63.1568414 C73.8937792,60.793375 74.4932555,61.803895 75.0611721,60.6288382 C75.6290887,59.4537815 77.8086851,55.2564968 72.8257408,56.153404 C67.8427964,57.0503113 62.9979628,57.2804384 60.4958206,58.2981686 C58.8277258,58.9766555 55.4720049,58.206209 50.4286581,55.9868292 L47.499043,44.4533461 L40.713025,49.8784831" id="Left-Arm" fill="#B2C6E8"></path>
                                <path d="M9.95251915,48.7804424 L10.5993771,61.9210303 L12.2222222,76.3509144 C15.9016429,76.3819268 18.0524192,76.5146981 18.6745513,76.7492282 C19.7371588,77.1498079 17.5909063,78.318226 17.9777953,78.5501832 C18.7044561,78.9858487 19.1994729,79.6997846 19.4628458,80.6919908 C16.1159374,83.206341 12.7976468,83.180216 9.50797401,80.6136158 C4.57346479,76.7637156 3.82193754,63.4463727 3.04432001,60.4871238 C2.26670249,57.5278748 3.70751037,48.9578332 4.67175062,49.2741573 C5.31457746,49.48504 7.07483363,49.3204684 9.95251915,48.7804424 Z" id="Right-Arm" fill="#B2C6E8"></path>
                                <path d="M18.5584195,28.6263359 C15.5677601,30.7275086 12.3103472,29.2811593 7.37025673,35.6889878 C2.43016624,42.0968164 3.74383651,50.7229608 1.6157468,54.0421633 C0.197020317,56.254965 2.97899206,56.8947118 9.96166201,55.9614038 L10.898302,50.563959 C12.5353229,54.8086489 12.9766297,62.0980099 12.2222222,72.432042 C11.5146856,82.1240279 8.77293921,85.1472047 13.6249047,93.0898313 C18.4768702,101.032458 33.9142279,100.219453 37.58303,93.0174502 C41.251832,85.8154475 39.4400037,84.4886398 38.9047619,68.0996054 C38.6228408,59.4672185 38.6228408,52.9318127 38.9047619,48.4933881 L40.6711241,51.6355955 C45.9377011,51.0174971 48.5709895,49.9700946 48.5709895,48.4933881 C48.5709895,46.2783283 43.9507429,34.0114809 42.1587302,31.6124554 C40.3667175,29.2134299 37.4388638,28.5975683 35.2359599,27.7451312 C33.7673573,27.1768397 31.892574,27.6025735 29.61161,29.0223325 L27.9323309,37.8877552 C23.6768296,30.3126938 20.5521925,27.2255541 18.5584195,28.6263359 Z" id="Torso" fill="#356ED0"></path>
                                <path d="M35.9959849,18.8928159 C36.5686196,19.3540439 36.952381,20.2008959 36.952381,21.1692308 C36.952381,22.5098888 36.2167734,23.6176842 35.2627633,23.7916244 C34.24186,26.7616248 32.2046738,29.0485098 29.434567,29.9027871 C24.1159783,31.5429944 18.1096092,27.2809559 16.0189661,20.3832576 C13.9283231,13.4855593 16.54509,6.56421926 21.8636786,4.92401193 C27.1822673,3.2838046 33.1886364,7.54584312 35.2792795,14.4435414 C35.7339684,15.9437053 35.9659929,17.4449875 35.9959849,18.8928159 Z" id="Face" fill="#B2C6E8" transform="translate(26.125647, 17.413400) rotate(1.000000) translate(-26.125647, -17.413400) "></path>
                                <path d="M22.9742349,14.2209429 C27.3230914,11.1554484 31.7262977,16.7109266 34.4221913,11.2059618 C37.1180849,5.70099706 35.1799489,1.40276397 25.8463445,1.01847455 C16.5127402,0.634185137 13.4638611,4.94672983 13.4638611,8.88907798 C13.4638611,12.8314261 15.0531908,18.946535 16.3975285,21.7314057 C16.9691971,22.9156491 16.5109909,20.5365832 17.3793205,18.8031149 C17.5626789,18.4370718 17.9433963,18.0804655 18.5214728,17.733296 C19.6999271,19.5716679 20.7637498,20.1164913 21.7129409,19.3677663 C22.5749718,18.6877936 21.9185204,17.5156305 21.7129409,16.4522452 C21.5789719,15.7592737 21.2583913,15.4304354 22.9742349,14.2209429 Z" id="Hair" fill="#2C5DB2"></path>
                            </g>
                            <g id="Group-24" transform="translate(0.000000, 6.000000)">
                                <path d="M4.23226868,132.881286 L8.3061114,1.88150342 C8.32338025,1.32620087 7.88721776,0.86204004 7.3319152,0.844771192 C7.32149568,0.844447165 7.31107175,0.844285122 7.30064719,0.844285122 L7.30064719,0.844285122 C6.72140439,0.844285122 6.24591323,1.30244624 6.22441732,1.88129003 L1.35959827,132.881582 C1.33114707,133.647719 1.92915917,134.291859 2.69529568,134.32031 C2.7124601,134.320948 2.72963488,134.321267 2.74681113,134.321267 L2.74681113,134.321267 C3.54961769,134.321267 4.20731499,133.683704 4.23226868,132.881286 Z" id="Path-54" fill="#76A8FF"></path>
                                <path d="M3.0514712,87.3226731 L5.64562186,87.4330514 L4.23226868,132.881286 C4.20731499,133.683704 3.54961769,134.321267 2.74681113,134.321267 C2.72963488,134.321267 2.7124601,134.320948 2.69529568,134.32031 C1.92915917,134.291859 1.33114707,133.647719 1.35959827,132.881582 L3.0514712,87.3226731 Z" id="Combined-Shape" fill="#356ED0"></path>
                            </g>
                        </g>
                        <path d="M90.0605993,163.234569 L86.9651444,170.317641 C91.2988969,175.107658 94.3403099,177.879818 96.0893833,178.634124 C98.7129935,179.765582 103.314066,180.710138 102.704259,177.105291 C102.297722,174.702059 99.6745359,171.710152 94.8347018,168.129567 L94.8347018,161.613638 L90.0605993,163.234569 Z" id="Path-61" fill="#356ED0" transform="translate(94.862230, 170.633175) scale(-1, 1) translate(-94.862230, -170.633175) "></path>
                        <path d="M175.40314,145.368125 C172.27703,147.676216 171.727046,150.925871 173.753187,155.117091 C176.792398,161.403922 180.34439,163.934447 184.40973,163.998916 C186.715216,164.035477 186.871392,161.673651 185.536719,159.092907 C184.51792,157.12294 182.200075,155.100541 181.85589,153.474907 C181.325834,150.971382 180.875804,148.333118 180.505798,145.560115 L175.40314,145.368125 Z" id="Path-60" fill="#356ED0" transform="translate(179.469579, 154.683730) scale(-1, 1) translate(-179.469579, -154.683730) "></path>
                        <g id="Group-13" transform="translate(28.000000, 64.000000)">
                            <rect id="Rectangle" fill="#76A8FF" x="114" y="212" width="32" height="62" rx="16"></rect>
                            <rect id="Rectangle-Copy-12" fill="#76A8FF" x="318" y="94.2" width="32" height="62" rx="16"></rect>
                            <rect id="Rectangle-Copy-11" fill="#76A8FF" x="0" y="146.4" width="32" height="62" rx="16"></rect>
                            <g id="Group-12">
                                <polygon id="Path-2-Copy-7" fill="#F5F9FF" points="-1.42108547e-13 127.819721 221.328565 3.41060513e-13 350.99391 75.2516974 130.002686 202.870869"></polygon>
                                <polygon id="Path-2-Copy-6" fill="#CECECE" points="30 128.352448 221.32 18 321 75.7924484 130 185.504279"></polygon>
                                <polygon id="Path-2-Copy-5" fill="#356ED0" points="30 128.352448 221.32 18 321 75.7924484 130 185.504279"></polygon>
                                <polygon id="Path-29-Copy" fill="#5392FF" points="222 23.8 222.004822 26.467572 311.668553 78.4347412 311.663269 75.8027771"></polygon>
                                <polygon id="Path-30-Copy" fill="#5392FF" points="221.287201 23.6 221.284363 26.2531067 40.0006177 130.800184 40 128.163477"></polygon>
                                <path d="M130.035498,179.51756 L311.038409,75.5481322 L221.355305,23.5516822 L40.0835295,128.108364 L130.035498,179.51756 Z M221.368224,12 L331.04512,75.5884469 L130.048032,191.04268 L20,128.148215 L221.368224,12 Z" id="Path-2-Copy-4" fill="#76A8FF" fill-rule="nonzero"></path>
                                <polygon id="Path-27-Copy" fill="#E1E8F5" points="130 202.899507 130 235.236813 350.972112 107.654451 350.975586 75.28"></polygon>
                                <polygon id="Path-28-Copy" fill="#F2F5FA" points="130.006897 235.181042 130.006897 202.860547 0 127.8 0 160.134015"></polygon>
                                <path d="M214.713221,21.6487155 C211.090912,23.8857757 211.100277,28.4405664 214.713221,30.5444403 C218.326165,32.6483142 225.913442,32.4096206 229.446121,30.2279144 C232.9788,28.0462082 232.825326,23.8078848 229.117424,21.6487155 C225.409523,19.4895461 218.335531,19.4116552 214.713221,21.6487155 Z" id="Path-17-Copy" fill="#2C5DB2"></path>
                                <path d="M298.713221,70.8487155 C295.090912,73.0857757 295.100277,77.6405664 298.713221,79.7444403 C302.326165,81.8483142 309.913442,81.6096206 313.446121,79.4279144 C316.9788,77.2462082 316.825326,73.0078848 313.117424,70.8487155 C309.409523,68.6895461 302.335531,68.6116552 298.713221,70.8487155 Z" id="Path-17-Copy-2" fill="#2C5DB2"></path>
                                <path d="M38.7132212,123.648715 C35.0909116,125.885776 35.1002773,130.440566 38.7132212,132.54444 C42.326165,134.648314 49.9134423,134.409621 53.4461211,132.227914 C56.9788,130.046208 56.8253259,125.807885 53.1174242,123.648715 C49.4095225,121.489546 42.3355308,121.411655 38.7132212,123.648715 Z" id="Path-17-Copy-4" fill="#2C5DB2"></path>
                                <path d="M122.713221,171.648715 C119.090912,173.885776 119.100277,178.440566 122.713221,180.54444 C126.326165,182.648314 133.913442,182.409621 137.446121,180.227914 C140.9788,178.046208 140.825326,173.807885 137.117424,171.648715 C133.409523,169.489546 126.335531,169.411655 122.713221,171.648715 Z" id="Path-17-Copy-3" fill="#2C5DB2"></path>
                                <path d="M126.713221,73.6487155 C123.090912,75.8857757 123.100277,80.4405664 126.713221,82.5444403 C130.326165,84.6483142 137.913442,84.4096206 141.446121,82.2279144 C144.9788,80.0462082 144.825326,75.8078848 141.117424,73.6487155 C137.409523,71.4895461 130.335531,71.4116552 126.713221,73.6487155 Z" id="Path-17-Copy-4" fill="#2C5DB2"></path>
                                <path d="M210.713221,121.648715 C207.090912,123.885776 207.100277,128.440566 210.713221,130.54444 C214.326165,132.648314 221.913442,132.409621 225.446121,130.227914 C228.9788,128.046208 228.825326,123.807885 225.117424,121.648715 C221.409523,119.489546 214.335531,119.411655 210.713221,121.648715 Z" id="Path-17-Copy-3" fill="#2C5DB2"></path>
                                <g id="Group-11" opacity="0.873325893" transform="translate(102.000000, 58.000000)" stroke="#C06143" stroke-linecap="round" stroke-linejoin="round">
                                    <path d="M35.7882498,72.479564 L0.228335932,70.4896798" id="Path-31"></path>
                                    <path d="M35.7882498,72.479564 L76,56" id="Path-31-Copy"></path>
                                    <path d="M64,32 L76,56" id="Path-31-Copy-2"></path>
                                    <path d="M64,32 L36,72.479564" id="Path-31-Copy-3"></path>
                                    <path d="M64,32 L90,2" id="Path-31-Copy-4"></path>
                                    <path d="M106,28 L90,2" id="Path-31-Copy-5"></path>
                                    <path d="M158,24 L90,2" id="Path-31-Copy-7"></path>
                                    <path d="M106,28 L64,32" id="Path-31-Copy-6"></path>
                                </g>
                                <circle id="Oval" fill="#50E3C2" cx="138" cy="130" r="4"></circle>
                                <circle id="Oval-Copy" fill="#FC835C" cx="102" cy="128" r="4"></circle>
                                <circle id="Oval-Copy-2" fill="#50E3C2" cx="208" cy="86" r="4"></circle>
                                <circle id="Oval-Copy-3" fill="#FC835C" cx="192" cy="60" r="4"></circle>
                                <circle id="Oval-Copy-4" fill="#FC835C" cx="178" cy="114" r="4"></circle>
                                <circle id="Oval-Copy-5" fill="#00DDBD" cx="166" cy="90" r="4"></circle>
                                <circle id="Oval-Copy-6" fill="#FC835C" cx="260" cy="82" r="4"></circle>
                            </g>
                        </g>
                        <g id="Group-26" transform="translate(0.000000, 168.000000)">
                            <g id="Group-25">
                                <path d="M80.4224599,60.3999591 L88.2962375,64.7982542 C89.6574882,64.9973586 90.454729,64.2643094 90.6879598,62.5991067 C91.037806,60.1013026 92.323716,58.4337987 89.3525874,57.2562113 C87.3718349,56.471153 84.2290242,56.8300636 79.9241551,58.3329432 L80.4224599,60.3999591 Z" id="Path-70" fill="#B2C6E8"></path>
                                <path d="M40.7123183,153.74807 L39.377554,159.356656 C45.4490308,163.471271 49.1468002,165.556159 50.4708625,165.61132 C52.4569558,165.694062 53.7565147,161.353397 53.2563283,159.934856 C52.7561419,158.516315 51.8221081,159.704207 50.4341986,158.118011 C49.5089256,157.060547 48.1365064,155.022562 46.3169411,152.004057 L40.7123183,153.74807 Z" id="Path-72" fill="#356ED0"></path>
                                <path d="M4.07474756,155.993894 C1.94034113,158.033965 0.764171057,159.688095 0.54623734,160.956284 C0.328303624,162.224474 0.927570347,163.927433 2.34403751,166.06516 C6.12339244,171.206034 8.86823071,173.066975 10.5785523,171.647983 C12.2888739,170.22899 12.2888739,169.033945 10.5785523,168.062847 L9.16055103,156 L4.07474756,155.993894 Z" id="Path-71" fill="#356ED0"></path>
                                <path d="M21.6897352,78.498417 C17.7788633,84.8904554 16.9912386,96.8490849 19.3268611,114.374306 L2.20934417,158.888331 C3.52893874,159.466092 4.54092594,159.754972 5.24530576,159.754972 C5.94968558,159.754972 7.00625531,159.466092 8.41501494,158.888331 L31.5359502,119.126695 L36.8227859,89.421137 L39.9674854,155.187218 C41.4202136,155.817977 42.6210423,156.040056 43.5699713,155.853457 C44.5189004,155.666858 45.9194442,154.93324 47.771603,153.652602 L49.7441081,106.250499 C50.9263075,94.1680188 51.3772072,85.3997587 51.0968073,79.9457182 C50.8164074,74.4916777 49.708006,70.4709134 47.771603,67.8834253 C34.2945632,68.5680481 25.6006072,72.1063787 21.6897352,78.498417 Z" id="Path-66" fill="#00DDBD"></path>
                                <polyline id="Path-67" fill="#B2C6E8" points="45.961085 35.6056805 43.1908852 46.3285165 33.7226416 46.3285165 25.4590822 34.8604973 25.4590822 33.2026225 33.7226416 31.3227416 33.7226416 28.935746 41.1985671 27.446527 43.1908852 33.2026225 46.7229043 36.8875218"></polyline>
                                <ellipse id="Oval" fill="#B2C6E8" cx="38" cy="19" rx="8" ry="11"></ellipse>
                                <path d="M47.6530787,42.0059847 C49.3136911,46.8100715 54.1927597,51.4107712 62.2902846,55.8080838 C70.3878095,60.2053964 76.8682247,61.7733966 81.7315301,60.5120844 L81.7315301,58.0796181 C72.1719379,55.2205133 64.7958851,51.5861309 59.6033716,47.1764709 C54.4108582,42.7668109 50.4274272,36.7543311 47.6530787,29.1390315 L47.6530787,42.0059847 Z" id="Path-65" fill="#2C5DB2"></path>
                                <path d="M42.4553044,30.9683923 C42.0088002,31.8273583 42.9566054,32.9210637 42.9315824,34.2333886 C42.8456964,38.7376481 42.8180429,44.8101502 40.3230582,45.5671503 C37.1011549,46.5447038 29.0998729,33.8129161 26.195833,32.6012456 C23.291793,31.389575 21.3374245,34.3831992 20.5360263,39.0536212 C19.7346282,43.7240432 22.8532306,62.0436448 22.8532306,65.2291336 C22.8532306,67.3527928 22.0808292,69.7501006 20.5360263,72.421057 C19.4696702,77.9123199 20.3783564,80.5350775 23.262085,80.2893299 C27.5876778,79.9207085 45.7663551,71.6436946 49.4679139,67.3136388 C53.1694727,62.983583 48.9064503,55.2204494 49.4679139,49.633947 C50.0293775,44.0474446 52.6862022,44.7486121 52.3081473,39.0536212 C51.9300924,33.3586304 46.7171234,29.0545567 45.4577839,29.4737018 C44.3619729,29.8384199 43.0691767,29.7874507 42.4553044,30.9683923 Z" id="Path-64" fill="#356ED0"></path>
                                <path d="M33.8849686,30.527354 C26.0788138,23.0948245 22.4719804,16.8444303 23.0644684,11.7761714 C23.9532004,4.17378305 31.8707664,1.32737877 37.0713992,1.20890002 C42.2720319,1.09042126 46.2499224,9.29939041 47.0452723,11.2298502 C47.5755056,12.5168234 46.0103214,13.6879275 42.3497197,14.7431623 C39.3334452,12.6836163 36.9317581,13.2363915 35.1446584,16.4014882 C33.3575587,19.5665848 32.9376621,24.01106 33.8849686,29.7349139" id="Path-68" fill="#2C5DB2"></path>
                                <g id="Group-23" transform="translate(20.000000, 28.000000)">
                                    <path d="M52.2088337,113.276199 L56.2826764,-17.7235834 C56.2999452,-18.278886 55.8637827,-18.7430468 55.3084802,-18.7603156 C55.2980607,-18.7606397 55.2876367,-18.7608017 55.2772122,-18.7608017 L55.2772122,-18.7608017 C54.6979694,-18.7608017 54.2224782,-18.3026406 54.2009823,-17.7237968 L49.3361633,113.276495 C49.3077121,114.042632 49.9057242,114.686772 50.6718607,114.715223 C50.6890251,114.715861 50.7061999,114.71618 50.7233761,114.71618 L50.7233761,114.71618 C51.5261827,114.71618 52.18388,114.078618 52.2088337,113.276199 Z" id="Path-54" fill="#76A8FF" transform="translate(52.798816, 47.977689) rotate(49.000000) translate(-52.798816, -47.977689) "></path>
                                    <path d="M18.8490483,51.8495428 L21.4431989,51.9599211 L20.0298457,97.4081555 C20.0048921,98.2105741 19.3471947,98.8481362 18.5443882,98.8481362 C18.5272119,98.8481362 18.5100372,98.8478175 18.4928727,98.84718 C17.7267362,98.8187288 17.1287241,98.1745882 17.1571753,97.4084517 L18.8490483,51.8495428 Z" id="Combined-Shape" fill="#356ED0" transform="translate(19.299700, 75.348840) rotate(49.000000) translate(-19.299700, -75.348840) "></path>
                                </g>
                                <path d="M45.6465504,89.0640798 C47.3980882,93.3180712 48.8733233,95.8442678 50.0722558,96.6426698 C51.8706545,97.8402727 52.9096626,95.7371875 54.2027736,94.7619032 C55.0648476,94.1117136 55.6346065,93.1228352 55.9120503,91.7952679 L47.4893644,86.7834043 L45.6465504,89.0640798 Z" id="Path-69" fill="#B2C6E8"></path>
                                <path d="M21.3776575,40.0095573 C17.5189127,42.4945803 25.5031727,59.3293788 45.3304376,90.5139527 L50.6955646,87.0343406 C45.4719809,78.0592512 41.9010289,71.6770627 39.9827087,67.8877748 C29.7745437,47.7234271 24.3878801,38.0709808 21.3776575,40.0095573 Z" id="Path-63" fill="#2C5DB2"></path>
                            </g>
                        </g>
                    </g>
                    <g id="Woman-A" transform="translate(548.000000, 460.000000)">
                        <path d="M17.4904408,33.2574765 L21.2955796,31.0774439 L20.5223605,26.4615385 C16.9355121,24.0075552 15.0704776,21.5574128 14.927257,19.1111111 C14.7840363,16.6648095 16.0939702,12.8526076 18.8570586,7.67450553 L31.6540132,10.196867 L31.1498443,24.2252132 L28.0335292,26.7475747 L30.7072326,31.0774439 C30.4084685,33.6215167 29.517234,35.0159173 28.0335292,35.2606458 C26.5498244,35.5053742 23.0354616,34.8376511 17.4904408,33.2574765 Z" id="Faceneck" fill="#B2C6E8"></path>
                        <path d="M23.5735539,64.6837607 C25.3843148,85.9861821 26.6251135,101.308443 27.2959499,110.650544 C27.9667862,119.992645 31.3877765,133.092036 37.5589205,149.948718 L41.9967014,149.948718 C39.5420201,129.40858 38.1446466,118.089495 37.8045809,115.991463 C37.2944825,112.844416 38.2448004,91.4550685 39.0166995,89.7127598 C39.7885985,87.9704511 40.5217708,82.0288732 40.3108968,76.2164394 C40.1703141,72.3414836 38.3732932,68.2329978 34.9198341,63.890982 L23.5735539,64.6837607 Z" id="Right-Leg" fill="#01D6B7"></path>
                        <path d="M36.499771,148.194733 C37.8368883,148.976251 38.9057371,149.36701 39.7063174,149.36701 C40.9071878,149.36701 42.2150128,147.809009 42.2150128,148.819516 C42.2150128,149.830023 44.3511342,157.876523 41.9967014,159.350939 C39.6422686,160.825354 36.0593271,154.894161 33.693168,153.952247 C31.327009,153.010333 31.1014473,149.872638 31.5618986,148.819516 C31.8688662,148.117434 33.1613736,148.117434 35.4394211,148.819516 L36.499771,148.194733 Z" id="Right-Shoe" fill="#356ED0"></path>
                        <path d="M40.8101597,32.249013 C46.273827,45.6595702 48.1325972,52.937171 46.3864704,54.0818155 C44.6403435,55.22646 38.9932847,55.22646 29.4452939,54.0818155 C33.2791251,50.8272651 36.536324,49.0711792 39.2168906,48.8135576 C40.6286286,48.6778795 33.086028,37.9174525 33.3875276,35.2606458 C33.5724546,33.6310742 36.0466653,32.6271966 40.8101597,32.249013 Z" id="Right-Arm" fill="#B2C6E8"></path>
                        <path d="M14.9166703,66.1538462 C11.8262484,71.7488746 10.6164557,79.2174393 11.2872921,88.5595402 C11.9581285,97.901641 16.9500146,121.7949 26.2629505,160.239316 C27.4159933,160.853563 28.2798907,161.12735 28.8546429,161.060678 C29.429395,160.994006 30.1387385,160.537721 30.9826734,159.691822 C27.4752839,134.004762 25.5515564,120.112216 25.2114908,118.014184 C24.7013923,114.867137 27.2616302,92.9504056 28.0335292,91.2080969 C28.8054283,89.4657881 31.8648872,83.4989587 31.6540132,77.6865249 C31.5134305,73.811569 30.0493028,69.9673428 27.2616302,66.1538462 L14.9166703,66.1538462 Z" id="Left-Leg" fill="#00DDBD"></path>
                        <path d="M15.1086281,33.6100733 C12.5299048,35.1965314 10.7205581,36.6865089 9.68058803,38.0800059 C8.640618,39.4735029 8.05042509,41.9785609 7.91000931,45.59518 C9.86430053,47.6709819 11.4955153,48.7437744 12.8036536,48.8135576 C12.9881592,48.8234001 13.6924981,48.8234001 14.9166703,48.8135576 L13.7066236,66.1538462 C15.6661665,68.6019307 19.415077,69.5819877 24.9533553,69.0940171 C30.4916337,68.6060465 33.9869889,67.1567627 35.4394211,64.7461657 C35.6941987,58.1311212 36.0757451,53.2100346 36.5840602,49.982906 C37.0923752,46.7557774 38.1792661,42.3542294 39.8447328,36.778262 L41.9967014,35.2606458 C41.9967014,31.2039388 40.9556338,28.6629258 38.8734986,27.6376068 C36.7913635,26.6122878 33.5782404,26.6122878 29.2341293,27.6376068 C29.5094402,29.6603783 28.5190472,31.1975137 26.2629505,32.249013 C24.3908305,33.1215523 21.1689401,32.740638 18.1913431,32.647221 C17.7842012,32.6344476 16.7566295,32.9553984 15.1086281,33.6100733 Z" id="Torso" fill="#356ED0"></path>
                        <path d="M20.2335874,1.16799271 C17.1301739,3.29087673 16.3559753,6.68322517 17.0864799,10.196867 C17.8169845,13.7105088 22.1592165,13.8754794 23.4247624,15.9808537 C25.014006,18.6247345 25.5472324,24.9013229 26.6855518,25.8089935 C29.7527302,28.2546932 33.0280396,26.1172503 34.1814579,24.8973039 C35.3348762,23.6773575 36.0365157,23.9856359 36.7557291,22.4121065 C37.4749426,20.8385771 36.4472358,20.308879 36.7557291,20.0946135 C39.1199623,18.4525242 44.0456924,17.3754367 42.8585528,10.2905983 C41.9638584,4.95106985 38.5582454,2.8929502 32.6417139,4.11623932 C31.6466944,3.33807482 30.8868234,2.86884802 30.3621007,2.7085589 C29.837378,2.54826978 29.0611875,2.54826978 28.0335292,2.7085589 C24.9025103,0.266258763 22.3025297,-0.247263302 20.2335874,1.16799271 Z" id="Hair" fill="#2C5DB2"></path>
                        <path d="M8.20803157,45.3825631 C8.25042461,56.2899142 8.01532667,62.7236467 7.50273775,64.6837607 C6.73385437,67.6239316 0.645154031,79.9541319 1.05481754,81.914973 C1.46448105,83.8758141 2.51518358,91.2701093 5.21259645,91.2077042 C7.91000931,91.1452991 5.93439909,83.7704408 6.73385437,81.2889146 C7.53330966,78.8073884 13.133471,67.4852262 13.8775911,65.2541372 C14.3736712,63.7667445 14.8682227,57.1428865 15.3612456,45.3825631 L8.20803157,45.3825631 Z" id="Left-Arm" fill="#B2C6E8"></path>
                        <path d="M26.2629505,159.691822 C27.0658563,160.056818 27.8675993,160.239316 28.6681796,160.239316 C29.8690499,160.239316 31.1768749,158.681315 31.1768749,159.691822 C31.1768749,160.702329 32.3883447,169.540264 30.6452542,170.539204 C28.9021636,171.538144 19.4526389,168.608222 17.0864799,167.666308 C14.7203209,166.724393 16.1777988,164.104697 16.8312477,163.4645 C17.2668803,163.037702 19.5143157,162.658054 23.5735539,162.325556 L26.2629505,159.691822 Z" id="Left-Shoe" fill="#356ED0"></path>
                    </g>
                </g>
                <polygon id="Rectangle" fill="url(#linearGradient-5)" points="50 151 428.125444 150.489655 426.972705 351.14176 48.2294571 558.278667"></polygon>
            </g>
        </g>
    </g>
</svg>