<svg width="80" height="80" viewBox="0 0 80 80" xmlns="http://www.w3.org/2000/svg"><title>facebook</title><path d="M69.22 0H10.78C4.827 0 0 4.826 0 10.78v58.44C0 75.172 4.826 80 10.78 80h28.822l.05-28.588h-7.428c-.965 0-1.748-.78-1.752-1.746l-.036-9.215a1.752 1.752 0 0 1 1.753-1.759h7.413v-8.904c0-10.333 6.311-15.959 15.529-15.959h7.564c.968 0 1.752.785 1.752 1.752v7.77c0 .968-.784 1.752-1.751 1.753l-4.642.002c-5.013 0-5.984 2.382-5.984 5.878v7.709h11.015c1.05 0 1.864.916 1.74 1.958l-1.092 9.215a1.753 1.753 0 0 1-1.74 1.546H52.12L52.07 80h17.15C75.174 80 80 75.174 80 69.22V10.78C80 4.826 75.173 0 69.22 0z" fill="#475993" fill-rule="nonzero"/></svg>