<svg width="96" height="80" viewBox="0 0 96 80" xmlns="http://www.w3.org/2000/svg"><title>twitter</title><path d="M94.279 9.399a37.898 37.898 0 0 1-6.606 2.23 20.63 20.63 0 0 0 5.437-8.67c.302-.948-.725-1.767-1.58-1.26a38.086 38.086 0 0 1-10.098 4.179 2.57 2.57 0 0 1-.632.078c-.646 0-1.274-.24-1.768-.676A20.636 20.636 0 0 0 65.366.115c-2.18 0-4.382.34-6.543 1.012-6.697 2.08-11.865 7.612-13.486 14.438-.608 2.56-.773 5.123-.49 7.616a.765.765 0 0 1-.83.836C29.359 22.653 16.14 15.58 6.796 4.1a1.08 1.08 0 0 0-1.77.139 20.69 20.69 0 0 0-2.797 10.398c0 5.608 2.25 10.892 6.157 14.745a18.493 18.493 0 0 1-4.711-1.827 1.08 1.08 0 0 0-1.605.932 20.712 20.712 0 0 0 12.064 19.08 18.465 18.465 0 0 1-3.921-.326 1.081 1.081 0 0 0-1.231 1.392c2.368 7.404 8.733 12.861 16.35 14.1-6.321 4.25-13.683 6.492-21.346 6.492l-2.389-.001c-.736 0-1.358.48-1.546 1.194-.185.703.156 1.445.783 1.81a56.626 56.626 0 0 0 28.486 7.692c8.756 0 16.946-1.74 24.343-5.171 6.782-3.146 12.774-7.643 17.812-13.367 4.692-5.331 8.362-11.486 10.906-18.292 2.425-6.488 3.707-13.411 3.707-20.021v-.315c0-1.061.48-2.06 1.315-2.74a40.862 40.862 0 0 0 8.213-9.027c.6-.9-.347-2.028-1.336-1.59z" fill="#76A9EA" fill-rule="nonzero"/></svg>