<svg width="180" height="208" viewBox="0 0 180 208" xmlns="http://www.w3.org/2000/svg"><title>Win As A Team@</title><g fill="none" fill-rule="evenodd"><path fill="#FFF" d="M-165-2298h1650v5361H-165z"/><path d="M79.34 58.16v-.007a8.16 8.16 0 0 0 7.813-7.813h.007a.34.34 0 0 1 .68 0h.007a8.16 8.16 0 0 0 7.813 7.813v.007a.34.34 0 0 1 0 .68v.007a8.16 8.16 0 0 0-7.813 7.813h-.007a.34.34 0 0 1-.68 0h-.007a8.16 8.16 0 0 0-7.813-7.813v-.007a.34.34 0 0 1 0-.68zM69.56 79.44v-.011c6.977-.286 12.583-5.892 12.869-12.869h.011a.56.56 0 1 1 1.12 0h.011c.286 6.977 5.892 12.583 12.869 12.869v.011a.56.56 0 1 1 0 1.12v.011c-6.977.286-12.583 5.892-12.869 12.869h-.011a.56.56 0 1 1-1.12 0h-.011c-.286-6.977-5.892-12.583-12.869-12.869v-.011a.56.56 0 1 1 0-1.12zM83.18 101.32v-.004a4.32 4.32 0 0 0 4.136-4.136h.004a.18.18 0 1 1 .36 0h.004a4.32 4.32 0 0 0 4.136 4.136v.004a.18.18 0 1 1 0 .36v.004a4.32 4.32 0 0 0-4.136 4.136h-.004a.18.18 0 1 1-.36 0h-.004a4.32 4.32 0 0 0-4.136-4.136v-.004a.18.18 0 1 1 0-.36zM92.28 96.72v-.006a6.72 6.72 0 0 0 6.434-6.434h.006a.28.28 0 0 1 .56 0h.006a6.72 6.72 0 0 0 6.434 6.434v.006a.28.28 0 0 1 0 .56v.006a6.72 6.72 0 0 0-6.434 6.434h-.006a.28.28 0 0 1-.56 0h-.006a6.72 6.72 0 0 0-6.434-6.434v-.006a.28.28 0 0 1 0-.56z" fill="#FC835C"/><g transform="translate(87 35)"><path d="M39.419 118.005l.221 6.888c-.634 3.124-.832 5.108-.592 5.951.36 1.265 2.402 3.78 3.626 3.78 1.224 0 3.272-2.864 3.626-3.78.236-.61.236-2.583 0-5.917l-1.391-7.486-5.49.564z" fill="#356ED0"/><path d="M20.439 61.527C19.436 67 18.97 71.021 19.042 73.595c.148 5.286 2.188 10.735 2.397 13.907.36 5.488 1.372 13.597 3.037 24.329 1.286.397 2.251.56 2.897.489.646-.07 1.834-.493 3.563-1.267-.043-11.43-.065-19.805-.065-25.123 0-5.319 1.34-12.305 4.023-20.958-4.249-4.485-7.615-7.023-10.098-7.615-2.484-.592-3.936.798-4.357 4.17z" fill="#00DDBD"/><path d="M27.407 62.422c2.915 12.636 4.556 21.754 4.924 27.354.368 5.6 2.64 15.275 6.816 29.024 1.53.496 2.7.683 3.512.56.812-.122 1.842-.64 3.09-1.554-2.45-11.3-3.937-19.85-4.464-25.65-.423-4.656 2.217-11.971 2.754-22.13.088-1.66-.154-4.104-.726-7.334l-15.906-.27z" fill="#00DDBD"/><path d="M37.602 17.244c-6.461-4.314-10.446-5.625-11.954-3.93-1.508 1.694-2.649 7.458-3.421 17.29l23.975 7.964c2.865-4.37 3.4-7.34 1.604-8.908-2.694-2.353.683-2.777-3.353-8.06-4.035-5.283-2.933-12.972-4.278-13.827" fill="#2C5DB2"/><path d="M42.365 41.466c.75.096 1.298 3.027 1.643 8.792.346 5.765.346 11.977 0 18.635-1.94 1.963-3.004 3.119-3.19 3.467-.282.522-.015 1.262.495 1.544.34.187.69.033 1.052-.464-.875 3.36-1.094 5.374-.657 6.041.657 1 5.483-1.135 6.206-2.37.483-.823.483-3.562 0-8.218 1.154-7.965 1.773-14.009 1.857-18.133.085-4.124-.328-8.102-1.239-11.935l-6.167 2.64zM38.658 25.588l-2.696-2.334c.136-2.116-.364-3.305-1.503-3.568-1.138-.262-3.245-.262-6.32 0 .07 1.91-.207 3.1-.828 3.568-1.004.755-4.28.244-4.556.841-.531 1.154.042 3.44 1.72 6.86l8.46 2.03 5.723-7.397z" fill="#B2C6E8"/><ellipse fill="#B2C6E8" transform="rotate(13 32.622 12.224)" cx="32.622" cy="12.224" rx="7.633" ry="10.806"/><path d="M16.124 29.992c-.815 8.463-1.56 12.83-2.233 13.1-.674.27-2.88 3.06-6.618 8.37h-2.68c-1.13 0-1.077 2.082-1.819 2.391-.74.31-.862.425-2.051 1.047-1.19.622 2.483 3.187 3.336 3.492.852.305.727-1.44 2.214-1.44S18.775 45.067 20 44.624c.817-.294 1.143-4.045.977-11.25l-4.853-3.382z" fill="#B2C6E8"/><path d="M44.659 29.992c-2.979-4.075-6.001-5.325-6.99-5.325-.99 0-3.052 5.99-7.412 5.99-4.36 0-5.288-3.511-6.656-6.92-2.895-.557-5.474 1.528-7.736 6.255 2.562 3.542 4.083 5.44 4.562 5.697.076.04.476-.987.487-.446.025 1.3.31 4.158.697 7.492.358 3.082 1.423 3.462 1.216 6.747-.367 5.807-4.015 12.405-2.716 14.848.54 1.015 4.552 3.621 9.062 4.653 6.334 1.45 14.49-2.445 14.53-3.722.026-.804-.295-3.465-.936-4.853-1.1-2.383-1.38-3.802-1.625-6.696-.357-4.211-.525-8.04.033-10.637.305-1.42.01-2.782.01-3.07 0-1.382.361 2.115 1.067 2.115s6.979-.943 6.979-2.171c0-1.228-1.594-5.882-4.572-9.957zM24.204 110.433l-.504 2.825c-3.922 3.105-6.027 4.952-6.315 5.542-.432.885-1.753 4.848 2.938 4.412 4.692-.436 10.341-5.022 10.972-5.764.42-.495.317-2.833-.31-7.015-1.54.538-2.688.807-3.443.807-.756 0-1.868-.27-3.338-.807z" fill="#356ED0"/></g><path d="M58.9 64.484C57.718 62.63 57 60.182 57 57.5c0-5.799 3.358-10.5 7.5-10.5 3.535 0 6.499 3.424 7.292 8.033A.685.685 0 0 1 72 55c.552 0 1 .672 1 1.5s-.448 1.5-1 1.5h-.008c-.166 4.941-2.77 8.99-6.167 9.837L66 70h-8l.597-5.527.303.011z" fill="#B2C6E8"/><path d="M62 132l2.57 51.84c1.312.597 2.268.871 2.868.824.6-.047 1.425-.46 2.474-1.238l1.446-43.922L62 132zM50 133l1.613 41.685h5.399l1.585-36.218z" fill="#00DDBD"/><path fill="#B2C6E8" d="M46.467 117.547l.55 4.173 2.48 1.66v-5.833z"/><path fill="#00DDBD" d="M43.876 120.645L57 112.837v13.582l-13.124 7.869z"/><path d="M48.838 71c-2.187 7.952-3.435 14.908-3.743 20.868-.309 5.96.136 14.509 1.335 25.644h4.52l2.408-43.664L48.838 71z" fill="#2C5DB2"/><path d="M48.65 70.655c-.866 2.196-.866 23.799 0 64.81 3.962 3.84 7.616 6.02 10.962 6.54 3.345.52 8.417-.302 15.214-2.467-.068-18.475-.392-31.97-.974-40.486-.872-12.774.904-22.376 0-24.127-.602-1.168-2.955-3.174-7.058-6.02-1.952.43-3.637.43-5.056 0C59.609 68.257 57.733 66 56.07 66c-1.663 0-6.122 1.363-7.42 4.655z" fill="#356ED0"/><path d="M85.007 88.814c.98-2.3 1.838-3.586 2.575-3.858 1.106-.407.627 2.266 2.206 2.096 1.578-.17 1.631-2.726 4.05-2.784 2.417-.058 1.662-.118 1.75 1.66.09 1.776-.03 2.903-3.022 4.352a474.676 474.676 0 0 0-6.371 3.15c-1.051-1.375-1.681-2.47-1.89-3.281-.209-.812.025-1.257.702-1.335z" fill="#B2C6E8"/><path d="M73.306 74.713c-3.14-2.998-5.605 3.96-6.555 9.287-1.086 6.09.772 16.657 2.249 20 .985 2.229 7.038-1.438 18.16-11l-1.395-6.163c-8.174 7.083-12.505 10.257-12.993 9.52-.732-1.105 3.675-18.646.534-21.644z" fill="#2C5DB2"/><path d="M69.988 179.445h2.901c1.664-1.345 2.823-1.751 3.476-1.218.98.8.308 3.216-.672 4.437-.98 1.222-7.084 5.275-8.497 5.83-1.413.555-3.196-.51-3.196-1.239 0-.486.116-2.202.348-5.147 1.899.81 3.329.996 4.29.556.963-.44 1.412-1.513 1.35-3.22zM56.988 172.445h2.901c1.67-.533 2.83-.533 3.484 0 .98.799.3 1.998-.68 3.22-.98 1.22-7.084 5.274-8.497 5.829-1.413.555-3.196-.51-3.196-1.239 0-.486.174-2.452.523-5.899 1.293.22 2.493.33 3.601.33s1.729-.748 1.864-2.241z" fill="#356ED0"/><path d="M70.474 57.067c.269-.888-.95-1.049-1.033-1.668-.25-1.866.343-3.51.274-4.145-.138-1.269-.911-.566-.911-2.337 0-.637 2.373.867 1.897-1.567-.477-2.434-5.25-3.211-10.9-1.21-9.021 3.196-5.3 13.144-3.439 16.535 1.24 2.261 2.97 3.534 5.19 3.82 1.56.971 3.225.459 4.995-1.536 2.654-2.992 3.658-7.005 3.927-7.892zM123.372 46.435c-1.133.43-8.851-.86-8.97-1.211-.08-.234-.35-.293-.81-.178l-1.88-.688c1.293-4.515 2.977-7.352 5.053-8.51 3.115-1.739 6.458-1.808 10.175 1.642 2.477 2.3 2.633 6.759.466 13.378-.924-4.957-1.767-7.863-2.527-8.719-1.14-1.283-.373 3.856-1.507 4.286z" fill="#2C5DB2"/><g><path d="M104 152.44c4.892-13.38 8.49-20.86 10.79-22.44 3.453-2.37 6.043 8 10.248 8 4.204 0 5.463-8.156 8.9-8.611 3.438-.455 3.36 7.42 9.521 5.69 4.108-1.153 7.544-9.513 10.307-25.079" stroke="#FC835C" stroke-width="4" stroke-linecap="round" stroke-linejoin="round"/><path fill="#FC835C" d="M160.813 111l-14.126-2.712 10.107-13.096z"/></g></g></svg>